<?xml version="1.0" encoding="UTF-8" standalone="no"?>
<!DOCTYPE svg PUBLIC "-//W3C//DTD SVG 1.1//EN" "http://www.w3.org/Graphics/SVG/1.1/DTD/svg11.dtd">
<svg width="100%" height="100%" viewBox="0 0 712 1081" version="1.1" xmlns="http://www.w3.org/2000/svg" xmlns:xlink="http://www.w3.org/1999/xlink" xml:space="preserve" style="fill-rule:evenodd;clip-rule:evenodd;stroke-linejoin:round;stroke-miterlimit:1.41421;">
    <g transform="matrix(1,0,0,1,0.364702,-0.0087919)">
        <g transform="matrix(1,0,0,1,-6219,-1534.78)">
            <rect x="6219" y="1534.78" width="654" height="1080" style="fill:rgb(255,0,0);"/>
            <g transform="matrix(1,0,0,1,-2697,-30)">
                <path d="M8915.75,1565.51L8915.64,2643.75L9243,2644.29L9243,1565.84L8915.75,1565.51Z" style="fill-opacity:0.0823529;"/>
            </g>
        </g>
        <path d="M-0.365,607.808C1.735,607.869 3.829,608.149 5.893,608.522C6.981,608.719 8.063,608.944 9.142,609.186C10.64,609.523 12.129,609.896 13.616,610.278C15.221,610.695 16.824,611.12 18.428,611.541C21.043,612.22 23.665,612.889 26.326,613.372C27.728,613.626 29.144,613.83 30.568,613.918C31.674,613.986 32.791,613.987 33.89,613.84C34.283,613.787 34.673,613.715 35.056,613.616C35.238,613.569 35.416,613.513 35.596,613.458C35.763,613.407 35.93,613.358 36.097,613.31C36.327,613.245 36.557,613.181 36.787,613.12C38.75,612.608 40.747,612.238 42.752,611.938C44.791,611.632 46.842,611.401 48.896,611.221C52.042,610.946 55.198,610.79 58.356,610.737C60.903,610.695 63.452,610.722 65.997,610.827C67.965,610.908 69.931,611.037 71.891,611.225C73.347,611.365 74.801,611.538 76.249,611.754C78.164,612.04 80.071,612.399 81.948,612.877C83.519,613.277 85.074,613.759 86.572,614.381C87.716,614.856 88.829,615.414 89.864,616.096C90.659,616.619 91.407,617.217 92.066,617.904C92.454,618.307 92.81,618.74 93.126,619.203C93.31,619.473 93.471,619.758 93.644,620.035C93.717,620.149 93.792,620.262 93.869,620.373C94.225,620.878 94.628,621.346 95.086,621.761C95.307,621.961 95.539,622.148 95.781,622.322C97.429,623.505 99.468,624.019 101.468,624.155C101.813,624.178 102.158,624.19 102.504,624.192C102.939,624.195 103.374,624.181 103.808,624.152C104.494,624.106 105.178,624.023 105.854,623.897L105.89,623.89L178.391,592.078L197.835,585.346C198.192,585.276 198.547,585.191 198.907,585.135C199.055,585.111 199.207,585.118 199.358,585.109C199.54,585.098 199.721,585.088 199.903,585.077C200.463,585.044 201.023,585.01 201.582,584.975C202.378,584.926 203.173,584.875 203.969,584.825C210.791,584.378 217.609,583.871 224.42,583.268C229.32,582.833 234.218,582.352 239.104,581.779C242.836,581.343 246.565,580.858 250.273,580.248C251.466,580.052 252.656,579.842 253.842,579.609C254.244,579.53 254.645,579.449 255.046,579.364C255.32,579.306 255.594,579.248 255.865,579.177C256.223,579.083 256.575,578.972 256.922,578.846C257.704,578.562 258.459,578.207 259.19,577.808C259.968,577.384 260.718,576.91 261.446,576.405C263.36,575.078 265.127,573.544 266.811,571.939C269.258,569.609 271.54,567.111 273.765,564.571C276.281,561.696 278.723,558.757 281.186,555.836C281.705,555.223 282.224,554.61 282.745,553.998C284.026,552.501 285.316,551.012 286.638,549.551C288.023,548.021 289.441,546.519 290.922,545.081C292.241,543.8 293.611,542.567 295.063,541.437C296.231,540.529 297.454,539.686 298.749,538.968C299.794,538.388 300.887,537.889 302.024,537.521C302.67,537.312 303.329,537.146 303.998,537.031C304.197,536.996 304.396,536.967 304.596,536.942C304.8,536.916 305.006,536.896 305.21,536.869C305.334,536.852 305.457,536.833 305.58,536.813C306.148,536.715 306.71,536.584 307.261,536.414C309.772,535.636 312,534.131 313.918,532.361C314.217,532.085 314.509,531.802 314.795,531.513C315.177,531.126 315.549,530.728 315.909,530.321C316.328,529.847 316.732,529.362 317.124,528.866C317.722,528.108 318.289,527.326 318.829,526.525C319.5,525.531 320.13,524.507 320.72,523.462C321.223,522.57 321.698,521.662 322.143,520.74C322.47,520.059 322.784,519.371 323.065,518.671L323.081,518.632C323.726,517.586 323.795,517.159 324.941,516.562C325.359,516.344 325.841,516.283 326.291,516.143L359.108,512.124L361.355,506.953L374.431,495.035L387.651,484.289L406.521,487.102L408.964,494.687L409.317,494.7C410.715,495.339 410.731,495.351 411.778,496.477C411.866,496.62 411.957,496.761 412.049,496.902C412.824,498.079 413.659,499.217 414.532,500.322C415.503,501.55 416.523,502.738 417.591,503.881C418.399,504.746 419.234,505.586 420.097,506.395C420.767,507.023 421.453,507.632 422.156,508.221C422.655,508.638 423.162,509.045 423.679,509.44C426.932,511.929 430.569,513.983 434.515,515.134C435.898,515.537 437.315,515.827 438.747,515.987C439.128,516.029 439.509,516.063 439.891,516.087C440.399,516.119 440.908,516.134 441.417,516.159C441.727,516.176 442.037,516.193 442.347,516.212C443.68,516.302 445.01,516.42 446.337,516.582C449.628,516.985 452.892,517.634 456.071,518.583C458.44,519.291 460.762,520.165 462.992,521.233C464.694,522.049 466.345,522.977 467.9,524.047C468.458,524.431 469.003,524.833 469.529,525.259C469.878,525.542 470.221,525.834 470.542,526.148L471.38,527.344C471.631,527.896 471.883,528.448 472.137,528.999C472.531,529.853 472.927,530.707 473.326,531.56C476.662,538.686 480.123,545.754 483.703,552.761C486.436,558.109 489.249,563.418 492.164,568.669C494.199,572.336 496.284,575.974 498.444,579.569C499.912,582.014 501.414,584.439 502.963,586.833C503.695,587.965 504.434,589.093 505.199,590.203C506.029,591.408 506.891,592.592 507.785,593.751C512.459,599.807 518.05,605.221 524.544,609.3C527.148,610.936 529.895,612.359 532.766,613.462C533.674,613.811 534.595,614.128 535.53,614.4C535.896,614.506 536.265,614.606 536.637,614.695C536.891,614.757 537.147,614.815 537.405,614.86L537.438,614.866C537.885,615.026 538.369,615.109 538.78,615.348C539.617,615.833 540.247,616.607 540.553,617.524C540.703,617.975 540.772,618.461 540.753,618.936C540.734,619.411 540.551,619.865 540.441,620.328C540.433,620.361 540.414,620.391 540.401,620.423C540.36,620.519 540.32,620.615 540.28,620.711C540.215,620.867 540.152,621.022 540.088,621.178C539.95,621.517 539.813,621.856 539.677,622.196C538.764,624.505 537.906,626.836 537.116,629.19C536.562,630.841 536.041,632.502 535.564,634.177C535.112,635.764 534.699,637.363 534.347,638.976C534.019,640.48 533.742,641.996 533.562,643.525C533.446,644.504 533.369,645.489 533.367,646.475C533.366,647.23 533.404,647.991 533.541,648.736C533.615,649.139 533.716,649.547 533.893,649.919C533.913,649.961 533.935,650.002 533.957,650.043C533.991,650.103 534.028,650.163 534.071,650.217C534.108,650.264 534.149,650.308 534.202,650.336C534.3,650.388 534.416,650.408 534.524,650.422C534.761,650.454 534.999,650.444 535.237,650.431C535.723,650.402 536.207,650.36 536.69,650.306C539.121,650.034 541.515,649.47 543.851,648.754C546.401,647.971 548.891,646.999 551.324,645.909C553.856,644.775 556.329,643.511 558.744,642.145C559.674,641.619 560.595,641.077 561.506,640.518C562.168,640.112 562.824,639.697 563.47,639.266L563.508,639.24L565.027,638.622L566.666,638.671L568.145,639.379L590.104,656.233L617.698,638.078C617.796,638.022 617.89,637.96 617.991,637.911C618.194,637.812 618.408,637.739 618.629,637.694C618.924,637.634 619.002,637.647 619.301,637.644C619.413,637.657 619.524,637.67 619.636,637.683C619.745,637.71 619.857,637.731 619.964,637.765C620.179,637.833 620.384,637.928 620.575,638.048C620.67,638.108 620.762,638.174 620.849,638.245C620.983,638.356 621.08,638.461 621.195,638.58C621.342,638.733 621.355,638.745 621.52,638.912C621.699,639.092 621.88,639.27 622.062,639.446C624.348,641.652 626.806,643.682 629.385,645.537C632.426,647.725 635.653,649.671 639.055,651.245C640.317,651.828 641.603,652.36 642.912,652.829C643.319,652.975 643.729,653.115 644.14,653.248C644.482,653.359 644.824,653.467 645.164,653.58C645.405,653.662 645.645,653.745 645.885,653.83C646.497,654.05 647.105,654.278 647.709,654.519C649.497,655.232 651.25,656.034 652.976,656.885C653.702,657.243 654.424,657.611 655.141,657.986L655.141,664.027C654.007,663.398 652.864,662.788 651.709,662.199C649.443,661.044 647.131,659.966 644.747,659.076C644.323,658.917 643.897,658.765 643.468,658.621C643.147,658.513 642.823,658.41 642.5,658.307C642.152,658.193 642.152,658.193 641.805,658.076C640.669,657.683 639.545,657.256 638.438,656.787C634.859,655.271 631.449,653.367 628.223,651.204C625.029,649.064 622.008,646.667 619.19,644.053L618.963,643.84L618.82,643.705L594.57,659.66L600.053,663.869L600.711,664.508L622.547,691.277C622.81,691.289 623.072,691.305 623.334,691.321C623.588,691.338 623.842,691.358 624.096,691.379C625.074,691.464 626.049,691.579 627.019,691.73C627.811,691.853 628.599,691.998 629.382,692.167C633.796,693.116 638.098,694.802 641.787,697.434C642.351,697.836 642.899,698.26 643.43,698.704C644.127,699.288 644.794,699.908 645.425,700.563C646.321,701.492 647.145,702.49 647.885,703.547C648.542,704.484 649.134,705.467 649.657,706.485C650.304,707.746 650.85,709.061 651.318,710.398C651.782,711.724 652.163,713.079 652.463,714.451C652.733,715.685 652.938,716.933 653.09,718.187C653.225,719.299 653.32,720.417 653.391,721.535C653.461,722.653 653.513,723.773 653.583,724.891C653.603,725.186 653.624,725.481 653.647,725.775C653.713,726.549 653.793,727.324 653.961,728.083C654.08,728.621 654.243,729.169 654.542,729.637C654.633,729.779 654.736,729.912 654.852,730.034C654.942,730.129 655.039,730.217 655.141,730.299L655.141,738.954C653.66,738.52 652.23,737.917 650.948,737.053C650.677,736.87 650.414,736.677 650.16,736.472C649.785,736.17 649.43,735.844 649.099,735.495C648.669,735.042 648.28,734.552 647.938,734.031C647.399,733.212 646.977,732.321 646.66,731.394C645.973,729.383 645.783,727.248 645.652,725.14C645.601,724.282 645.557,723.423 645.507,722.565C645.47,721.955 645.43,721.345 645.378,720.735C645.295,719.751 645.183,718.769 645.026,717.794C644.724,715.915 644.247,714.065 643.563,712.287C643.26,711.499 642.923,710.722 642.531,709.974C642.039,709.035 641.46,708.141 640.801,707.31C640.376,706.772 639.917,706.261 639.43,705.779C639.079,705.433 638.715,705.101 638.337,704.785C635.984,702.814 633.162,701.462 630.238,700.573C629.701,700.409 629.159,700.262 628.615,700.128C627.888,699.95 627.156,699.798 626.419,699.669C625.324,699.479 624.22,699.34 623.112,699.257C622.341,699.199 621.567,699.163 620.793,699.177L620.761,699.178C619.713,699.049 619.379,699.13 618.464,698.53C618.128,698.309 617.866,697.991 617.567,697.721L594.857,669.88L578.113,657.029C573.706,664.213 562.284,684.588 566.531,696.494C573.458,715.906 615.896,704.126 615.896,704.126C615.896,704.126 614.793,714.983 616.576,726.262C618.359,737.54 622.514,744.075 622.514,744.075C622.514,744.075 610.639,759.508 599.361,770.197C588.075,780.886 575.611,814.72 588.672,820.658C601.733,826.595 616.576,846.78 621.328,853.306C626.072,859.841 643.287,896.055 643.287,896.055C643.287,896.055 621.328,865.181 605.887,862.213C590.454,859.244 594.609,871.119 580.362,868.15C566.115,865.181 566.115,866.964 560.767,857.469C555.426,847.966 551.861,845.594 551.861,845.594L518.026,844.997C518.026,844.997 546.52,828.378 555.426,823.626C564.332,818.875 569.673,812.937 569.673,799.877C569.673,786.816 582.145,766.042 589.858,760.694C597.578,755.353 607.67,735.765 602.329,730.417C596.981,725.076 580.362,729.828 580.362,729.828C580.362,729.828 571.456,735.168 556.023,754.756C540.583,774.351 523.367,785.04 512.089,787.412C500.811,789.784 469.34,781.475 469.34,781.475C469.34,781.475 491.904,766.631 513.871,755.353C535.831,744.075 538.211,719.139 538.211,719.139L524.553,710.828C524.553,710.828 513.275,716.17 499.617,718.542C485.967,720.921 494.873,695.985 494.873,695.985C494.873,695.985 490.122,675.8 482.998,671.051C475.875,666.301 468.751,658.584 468.751,668.676C468.751,678.768 468.751,688.267 468.751,688.267C468.751,688.267 449.141,702.125 444.412,691.236C440.537,682.335 403.613,648.066 394.782,657.885L410.442,633.145L403.446,580.218C403.446,580.218 408.19,566.563 383.851,566.563C383.851,566.563 405.222,551.127 421.848,545.191C438.475,539.254 444.412,538.66 444.412,538.66L442.629,551.127L439.661,564.782L427.189,574.281C427.189,574.281 408.19,598.622 411.159,605.746C414.128,612.87 428.382,653.24 428.382,653.24L442.629,659.771C442.629,659.771 447.373,668.676 456.279,667.489C465.186,666.301 439.661,653.24 459.845,648.491C480.029,643.742 491.308,650.272 501.4,656.209C511.011,661.863 518.512,662.425 528.431,655.8C528.193,655.556 527.971,655.298 527.764,655.028C527.584,654.792 527.415,654.547 527.259,654.295C526.15,652.509 525.667,650.409 525.504,648.333C525.477,647.987 525.458,647.642 525.447,647.296C525.432,646.805 525.432,646.315 525.444,645.824C525.458,645.254 525.49,644.683 525.534,644.114C525.597,643.313 525.687,642.515 525.797,641.719C525.94,640.68 526.116,639.646 526.321,638.618C526.617,637.13 526.96,635.652 527.341,634.184C527.825,632.324 528.366,630.479 528.948,628.648C529.721,626.218 530.567,623.814 531.468,621.429C531.207,621.34 530.947,621.247 530.688,621.153C529.97,620.89 529.258,620.612 528.553,620.317C524.87,618.772 521.368,616.804 518.08,614.539C512.012,610.358 506.683,605.156 502.119,599.383C500.99,597.954 499.907,596.489 498.868,594.994C498.26,594.118 497.67,593.231 497.085,592.34C496.426,591.337 495.776,590.328 495.134,589.315C492.465,585.105 489.922,580.815 487.456,576.483C483.242,569.078 479.253,561.544 475.405,553.943C471.787,546.797 468.292,539.589 464.933,532.317L464.599,531.592L464.514,531.405C464.398,531.312 464.282,531.221 464.165,531.131C463.101,530.33 461.965,529.631 460.79,529.005C459.587,528.365 458.342,527.803 457.073,527.306C453.206,525.794 449.115,524.887 444.997,524.41C443.947,524.289 442.895,524.195 441.841,524.128C441.111,524.081 440.38,524.055 439.65,524.018C439.393,524.003 439.393,524.003 439.136,523.986C438.545,523.941 437.954,523.885 437.365,523.81C436.295,523.673 435.233,523.483 434.182,523.241C433.235,523.023 432.298,522.764 431.373,522.466C425.714,520.644 420.595,517.408 416.139,513.511C415.449,512.907 414.774,512.286 414.113,511.651C413.152,510.726 412.222,509.769 411.323,508.785C409.977,507.312 408.698,505.777 407.495,504.186C397.088,506.112 370.888,512.243 363.962,526.086C356.36,541.291 360.722,567.131 350.9,576.295C349.678,585.028 347.697,602.077 348.31,617.399C349.178,639.14 339.615,646.966 339.615,646.966C339.615,646.966 342.221,673.056 340.484,692.189C338.746,711.321 327.438,704.364 327.438,704.364L359.618,726.104C359.618,726.104 378.745,753.064 379.621,776.542C380.49,800.028 378.745,812.197 378.745,812.197C378.745,812.197 330.051,787.85 337.009,820.031C343.966,852.204 363.962,883.508 363.962,883.508C363.962,883.508 346.572,883.508 330.051,857.423C313.523,831.332 315.261,798.283 315.261,798.283C315.261,798.283 355.267,806.985 357.881,780.024C360.487,753.064 343.966,726.972 343.966,726.972C343.966,726.972 316.137,713.929 300.477,724.366C284.825,734.798 280.482,753.064 280.482,753.064C280.482,753.064 273.525,720.884 291.783,704.364C310.048,687.84 323.094,669.578 323.094,669.578C323.094,669.578 322.218,640.01 330.051,622.617C335.043,611.522 336.141,593.351 336.281,581.645C321.953,585.505 307.435,589.57 307.435,589.57C307.435,589.57 283.088,593.918 280.482,623.486C277.875,652.971 257.978,665.16 257.865,665.229L235.256,665.229C235.256,665.229 224.824,664.36 225.692,696.537C226.561,728.717 236.993,734.798 236.993,734.798C236.993,734.798 215.253,750.458 203.952,751.327C192.643,752.195 187.424,753.933 199.601,778.287C204.618,788.318 209.486,796.136 213.476,801.861C234.333,816.476 264.611,836.468 264.611,836.468C264.611,836.468 238.314,823.453 215.449,812.838C207.38,811.242 194.064,807.416 181.206,798.401C164.536,792.614 150.141,788.361 144.396,769.683C137.718,747.98 123.803,715.694 123.803,715.694C123.803,715.694 85.399,731.837 73.154,725.711C60.908,719.592 40.868,692.319 40.868,692.319C40.868,692.319 24.173,719.592 36.977,745.752C49.774,771.911 60.908,760.777 71.484,780.259C82.06,799.741 79.831,800.851 69.815,810.868C59.798,820.892 59.239,848.721 72.043,862.077C84.84,875.432 98.754,899.923 119.347,899.364C139.939,898.812 167.216,934.43 188.36,947.785C209.512,961.148 278.525,988.418 278.525,988.418C278.525,988.418 196.156,971.716 162.201,940.548C128.253,909.38 108.219,896.584 101.542,901.033C94.856,905.49 67.027,929.98 52.002,902.151C36.977,874.322 31.969,868.195 25.843,840.925C22.084,824.174 10.552,801.119 -0.365,784.022L-0.365,660.117C11.295,660.765 19.724,651.69 19.724,651.69L30.299,660.595L42.537,653.359C42.537,653.359 49.774,673.396 63.137,685.641C76.492,697.885 85.399,710.686 99.313,705.677C113.228,700.668 121.016,697.885 121.016,697.885L124.355,706.791L138.269,704.564C138.269,704.564 142.469,713.892 147.997,725.604C153.329,724.056 166.484,717.872 172.64,693.928C180.466,663.49 198.732,652.185 198.732,652.185C198.732,652.185 209.164,659.142 216.998,646.966C224.824,634.792 236.124,621.747 236.124,621.747C236.124,621.747 235.256,630.443 252.653,619.138C270.042,607.833 287.439,578.264 287.439,578.264C287.439,578.264 291.783,575.655 313.523,566.09C335.264,556.523 352.661,526.955 352.661,526.955L355.439,520.565L329.498,523.741C329.429,523.888 329.359,524.035 329.289,524.182C329.143,524.481 328.996,524.78 328.847,525.078C328.172,526.409 327.449,527.715 326.671,528.989C326.048,530.008 325.392,531.006 324.7,531.978C324.201,532.678 323.683,533.366 323.146,534.037C322.726,534.56 322.294,535.074 321.849,535.577C319.343,538.409 316.402,540.912 313.008,542.615C312.495,542.873 311.972,543.112 311.441,543.33C310.164,543.855 308.837,544.261 307.482,544.528C307.083,544.607 306.682,544.674 306.279,544.729C305.999,544.767 305.718,544.79 305.439,544.832C305.362,544.844 305.285,544.858 305.208,544.873C304.182,545.087 303.222,545.535 302.321,546.061C301.068,546.79 299.91,547.678 298.808,548.615C297.934,549.357 297.093,550.138 296.274,550.94C295.364,551.831 294.48,552.749 293.613,553.681C291.688,555.75 289.844,557.892 288.015,560.045C286.319,562.049 284.635,564.061 282.939,566.064C280.955,568.403 278.953,570.727 276.875,572.983C275.325,574.666 273.733,576.312 272.07,577.884C270.551,579.319 268.973,580.694 267.305,581.953C265.791,583.096 264.201,584.145 262.518,585.022C261.196,585.711 259.815,586.292 258.383,586.709C257.539,586.956 256.677,587.131 255.816,587.304C254.73,587.522 253.641,587.721 252.55,587.908C248.589,588.587 244.602,589.115 240.611,589.588C233.921,590.383 227.21,591.01 220.496,591.564C216.741,591.874 212.983,592.158 209.224,592.421C206.089,592.64 202.953,592.844 199.815,593.027L199.909,593.022L181.287,599.469L108.71,631.315C108.488,631.39 108.266,631.466 108.044,631.539C107.977,631.561 107.907,631.572 107.838,631.587C107.767,631.602 107.697,631.617 107.626,631.632C107.285,631.703 106.941,631.764 106.596,631.817C105.632,631.967 104.659,632.061 103.685,632.101C101.56,632.19 99.417,632.026 97.346,631.533C96.185,631.257 95.048,630.877 93.961,630.384C92.852,629.88 91.797,629.258 90.826,628.522C89.651,627.632 88.604,626.577 87.717,625.399C87.444,625.035 87.185,624.66 86.941,624.276C86.859,624.145 86.778,624.013 86.698,623.88C86.657,623.81 86.617,623.739 86.572,623.672C86.543,623.63 86.512,623.589 86.48,623.549C86.302,623.336 86.093,623.152 85.873,622.983C85.67,622.828 85.457,622.686 85.239,622.554C84.479,622.094 83.657,621.738 82.825,621.43C81.532,620.952 80.196,620.592 78.851,620.291C77.158,619.913 75.442,619.632 73.721,619.41C70.544,619 67.341,618.789 64.139,618.699C60.573,618.598 57.002,618.652 53.441,618.849C50.811,618.994 48.183,619.218 45.571,619.554C44.506,619.691 43.444,619.847 42.386,620.03C41.378,620.205 40.373,620.404 39.378,620.646C39.01,620.735 38.644,620.831 38.281,620.935C37.993,621.017 37.709,621.108 37.422,621.192C37.233,621.244 37.233,621.244 37.044,621.294C36.54,621.422 36.033,621.531 35.52,621.615C34.048,621.859 32.551,621.925 31.061,621.88C29.267,621.826 27.481,621.611 25.712,621.316C23.404,620.93 21.121,620.405 18.851,619.837C16.439,619.234 14.039,618.583 11.632,617.958C11.112,617.824 10.592,617.692 10.071,617.561C8.936,617.28 7.799,617.007 6.655,616.76C5.817,616.579 4.975,616.412 4.13,616.265C2.973,616.064 1.809,615.9 0.639,615.806C0.305,615.78 -0.03,615.758 -0.365,615.745L-0.365,607.808Z" style="fill:white;"/>
        <g transform="matrix(1,0,0,1,-4972.33,1927.16)">
            <path d="M4992.24,-860.323C4992.81,-858.29 4993.42,-856.269 4994.06,-854.258L4994.19,-853.856L4995.28,-850.501L4988.63,-848.333C4988.13,-849.874 4987.62,-851.413 4987.13,-852.959C4986.6,-854.64 4986.1,-856.329 4985.62,-858.025L4985.5,-858.449L4984.55,-861.889L4991.3,-863.753C4991.61,-862.61 4991.93,-861.467 4992.24,-860.323ZM4987.45,-887.027C4987.53,-886.058 4987.61,-885.089 4987.71,-884.121C4987.82,-883.015 4987.95,-881.912 4988.09,-880.809L4988.58,-876.98L4981.64,-876.09C4981.45,-877.515 4981.27,-878.94 4981.09,-880.366C4980.97,-881.382 4980.85,-882.398 4980.75,-883.416C4980.65,-884.436 4980.56,-885.456 4980.47,-886.477L4980.19,-890.189L4987.16,-890.728C4987.26,-889.495 4987.36,-888.261 4987.45,-887.027ZM4988.77,-917.87C4988.58,-916.541 4988.38,-915.212 4988.2,-913.882C4988.14,-913.459 4988.09,-913.036 4988.03,-912.613C4987.84,-911.066 4987.67,-909.518 4987.53,-907.966L4987.2,-904.158L4980.23,-904.76C4980.35,-906.182 4980.47,-907.605 4980.6,-909.027C4980.7,-910.07 4980.8,-911.111 4980.92,-912.151C4981.05,-913.197 4981.18,-914.24 4981.33,-915.282L4981.84,-918.86C4984.15,-918.53 4986.46,-918.2 4988.77,-917.87ZM5518.24,-936.845C5520.04,-936.707 5521.84,-936.603 5523.64,-936.533L5524.09,-936.517L5524.54,-936.502L5528.24,-936.396L5528.03,-929.399C5526.64,-929.439 5525.25,-929.476 5523.86,-929.521C5521.96,-929.588 5520.06,-929.692 5518.17,-929.83L5517.7,-929.867L5513.88,-930.172L5514.44,-937.15C5515.71,-937.048 5516.98,-936.947 5518.24,-936.845ZM5556.58,-932.336C5554.84,-932.014 5553.1,-931.681 5551.36,-931.382C5549.74,-931.104 5548.11,-930.86 5546.49,-930.638L5542.58,-930.122L5541.66,-937.062C5543.11,-937.254 5544.57,-937.442 5546.02,-937.639C5547.87,-937.898 5549.72,-938.194 5551.56,-938.527L5555.31,-939.219C5555.73,-936.925 5556.16,-934.63 5556.58,-932.336ZM4996.22,-944.044C4995.71,-942.665 4995.19,-941.288 4994.69,-939.909C4994.53,-939.479 4994.38,-939.05 4994.23,-938.62C4993.78,-937.339 4993.35,-936.052 4992.93,-934.759L4992.8,-934.33L4991.75,-930.972L4985.07,-933.06C4985.61,-934.787 4986.13,-936.518 4986.7,-938.236C4987.2,-939.753 4987.73,-941.259 4988.28,-942.758L4989.65,-946.475C4991.84,-945.664 4994.03,-944.854 4996.22,-944.044ZM5491.52,-941.648C5493.52,-941.09 5495.52,-940.572 5497.53,-940.095L5501.13,-939.255L5499.53,-932.439C5498.18,-932.755 5496.83,-933.068 5495.48,-933.388C5493.67,-933.823 5491.87,-934.289 5490.07,-934.785L5489.63,-934.91L5485.83,-935.985L5487.73,-942.721C5489,-942.363 5490.26,-942.006 5491.52,-941.648ZM5583.87,-941.172L5580.25,-939.686C5579.92,-939.553 5579.59,-939.421 5579.27,-939.289C5577.64,-938.644 5576.01,-938.025 5574.36,-937.433L5570.64,-936.109L5568.29,-942.704C5569.69,-943.2 5571.08,-943.692 5572.47,-944.192C5574.19,-944.819 5575.9,-945.477 5577.6,-946.166L5581.21,-947.647C5582.1,-945.489 5582.98,-943.33 5583.87,-941.172ZM5465.61,-951.595C5467.59,-950.63 5469.58,-949.704 5471.59,-948.816L5475.02,-947.316L5472.21,-940.904C5470.92,-941.467 5469.64,-942.027 5468.36,-942.594C5466.4,-943.464 5464.46,-944.369 5462.53,-945.31L5459.37,-946.863L5462.46,-953.145C5463.51,-952.628 5464.56,-952.112 5465.61,-951.595ZM5608.86,-955.117L5605.6,-952.994C5605.28,-952.786 5604.95,-952.579 5604.63,-952.372C5603.19,-951.456 5601.73,-950.559 5600.27,-949.684L5596.84,-947.658L5593.28,-953.682L5596.69,-955.702C5597.62,-956.258 5598.55,-956.822 5599.48,-957.396C5600.25,-957.881 5601.02,-958.373 5601.79,-958.87L5605.05,-960.985C5606.32,-959.029 5607.59,-957.073 5608.86,-955.117ZM5442.4,-965.431C5444.05,-964.261 5445.72,-963.119 5447.41,-962.004L5450.67,-959.861L5446.83,-954.01C5445.61,-954.808 5444.4,-955.604 5443.18,-956.406C5441.68,-957.404 5440.19,-958.424 5438.71,-959.465L5438.34,-959.725L5435.17,-961.988L5439.23,-967.689C5440.29,-966.937 5441.34,-966.184 5442.4,-965.431ZM5341.19,-961.368C5343.14,-961.305 5345.09,-961.262 5347.04,-961.242L5347.48,-961.238L5351.16,-961.215L5351.11,-954.215C5349.43,-954.225 5347.74,-954.23 5346.05,-954.253C5344.35,-954.275 5342.65,-954.317 5340.96,-954.372L5337.02,-954.509L5337.26,-961.504C5338.57,-961.459 5339.88,-961.414 5341.19,-961.368ZM5379.49,-956.358C5377.78,-956.135 5376.07,-955.904 5374.35,-955.696C5372.85,-955.514 5371.34,-955.351 5369.84,-955.202L5369.38,-955.159L5365.45,-954.79L5364.8,-961.76C5366.25,-961.896 5367.71,-962.03 5369.16,-962.169C5369.74,-962.227 5370.32,-962.286 5370.9,-962.348C5372.06,-962.473 5373.22,-962.608 5374.38,-962.753L5374.81,-962.808L5378.59,-963.299C5378.89,-960.986 5379.19,-958.672 5379.49,-956.358ZM5313.38,-963.721C5315.52,-963.444 5317.66,-963.184 5319.81,-962.944L5323.56,-962.534L5322.8,-955.575L5319.04,-955.986C5316.85,-956.232 5314.66,-956.497 5312.47,-956.78L5308.82,-957.261L5309.74,-964.201C5310.95,-964.041 5312.16,-963.881 5313.38,-963.721ZM5008.88,-968.137C5008.15,-966.999 5007.42,-965.862 5006.7,-964.722C5006.49,-964.38 5006.28,-964.037 5006.06,-963.694C5005.2,-962.288 5004.37,-960.866 5003.57,-959.427L5001.83,-956.29L4995.71,-959.682C4996.36,-960.861 4997.01,-962.041 4997.67,-963.217C4998.24,-964.234 4998.83,-965.246 4999.43,-966.247C4999.94,-967.108 5000.47,-967.961 5001,-968.809L5002.97,-971.897C5004.94,-970.643 5006.91,-969.39 5008.88,-968.137ZM5407.28,-962.965C5405.53,-962.424 5403.77,-961.872 5402.01,-961.352C5400.5,-960.906 5398.98,-960.483 5397.46,-960.079L5393.67,-959.088L5391.9,-965.859C5393.3,-966.225 5394.69,-966.589 5396.09,-966.959C5397.98,-967.464 5399.85,-968.002 5401.71,-968.573L5405.22,-969.654C5405.9,-967.424 5406.59,-965.194 5407.28,-962.965ZM5286.48,-968.204C5288.35,-967.835 5290.21,-967.476 5292.07,-967.126L5296.1,-966.379L5294.82,-959.496C5293.16,-959.804 5291.5,-960.111 5289.84,-960.422C5288.27,-960.721 5286.69,-961.027 5285.12,-961.339L5281.02,-962.158L5282.4,-969.022C5283.76,-968.749 5285.12,-968.477 5286.48,-968.204ZM5631.09,-973.004L5628.08,-970.294C5627.77,-970.013 5627.45,-969.731 5627.14,-969.451C5625.89,-968.344 5624.62,-967.252 5623.35,-966.175L5620.44,-963.731L5615.93,-969.092C5617.06,-970.033 5618.18,-970.972 5619.3,-971.916C5620.68,-973.093 5622.05,-974.288 5623.4,-975.5L5626.4,-978.203C5627.96,-976.47 5629.52,-974.737 5631.09,-973.004ZM5259.39,-974.291C5261.26,-973.83 5263.13,-973.376 5265,-972.928L5268.85,-972.013L5267.23,-965.203C5265.63,-965.583 5264.03,-965.963 5262.43,-966.345C5259.48,-967.055 5256.54,-967.784 5253.59,-968.512L5255.28,-975.308C5256.65,-974.969 5258.02,-974.63 5259.39,-974.291ZM5421.18,-983.244C5422.78,-981.666 5424.41,-980.119 5426.07,-978.603L5426.15,-978.532C5426.44,-978.683 5426.72,-978.835 5427.01,-978.988L5430.19,-980.682L5433.48,-974.505C5432.23,-973.836 5430.98,-973.163 5429.72,-972.501C5427.85,-971.522 5425.97,-970.584 5424.06,-969.685L5420.8,-968.16L5417.83,-974.498L5419.4,-975.235C5418.98,-975.633 5418.56,-976.033 5418.14,-976.434C5417.72,-976.838 5417.3,-977.244 5416.88,-977.651C5416.68,-977.856 5416.47,-978.06 5416.26,-978.265L5413.7,-980.799L5418.63,-985.772C5419.48,-984.929 5420.33,-984.086 5421.18,-983.244ZM5232.3,-981.398C5235.46,-980.53 5238.63,-979.673 5241.8,-978.818L5239.98,-972.06C5238.05,-972.58 5236.11,-973.099 5234.19,-973.624C5231.61,-974.326 5229.03,-975.037 5226.45,-975.747L5228.31,-982.496C5229.64,-982.13 5230.97,-981.764 5232.3,-981.398ZM5027.13,-987.853C5026.09,-986.966 5025.05,-986.083 5024.01,-985.192C5023.75,-984.966 5023.49,-984.74 5023.23,-984.512C5022.63,-983.974 5022.03,-983.43 5021.44,-982.876C5020.85,-982.315 5020.26,-981.744 5019.68,-981.166L5017.07,-978.542L5012.11,-983.482C5013.07,-984.45 5014.04,-985.42 5015,-986.385C5015.72,-987.096 5016.45,-987.798 5017.2,-988.486C5017.84,-989.082 5018.49,-989.666 5019.15,-990.243L5019.43,-990.488L5019.72,-990.732L5022.59,-993.18C5024.1,-991.404 5025.61,-989.629 5027.13,-987.853ZM5210.03,-987.634L5214.85,-986.269L5212.95,-979.534C5208.46,-980.805 5203.97,-982.077 5199.48,-983.349L5201.38,-990.084C5204.27,-989.267 5207.15,-988.45 5210.03,-987.634ZM5456.77,-991.314L5453.72,-988.687C5453.41,-988.43 5453.11,-988.174 5452.81,-987.919C5452.04,-987.279 5451.27,-986.646 5450.49,-986.023C5449.86,-985.52 5449.23,-985.025 5448.59,-984.533L5445.74,-982.364L5441.5,-987.928L5444.33,-990.088C5445.23,-990.782 5446.12,-991.486 5447.01,-992.205C5447.73,-992.797 5448.45,-993.399 5449.16,-994.006L5452.2,-996.621C5453.73,-994.852 5455.25,-993.083 5456.77,-991.314ZM5650.54,-993.747C5649.41,-992.421 5648.28,-991.09 5647.14,-989.771C5646.08,-988.552 5645.01,-987.344 5643.93,-986.145L5641.23,-983.163L5636.04,-987.862C5637.09,-989.018 5638.14,-990.174 5639.18,-991.333C5640.38,-992.672 5641.56,-994.023 5642.73,-995.386L5645.22,-998.295C5646.99,-996.779 5648.77,-995.263 5650.54,-993.747ZM5178.98,-996.325C5181.95,-995.516 5184.92,-994.698 5187.89,-993.878L5186.02,-987.131C5184.26,-987.617 5182.5,-988.103 5180.74,-988.587L5178.94,-989.081C5176.81,-989.663 5174.67,-990.242 5172.53,-990.822L5174.36,-997.578C5175.9,-997.16 5177.44,-996.743 5178.98,-996.325ZM5403.39,-1004.02C5404.64,-1002.29 5405.91,-1000.58 5407.22,-998.9L5409.59,-995.878L5404.08,-991.564C5403.2,-992.683 5402.32,-993.802 5401.45,-994.924C5400.17,-996.576 5398.92,-998.25 5397.7,-999.948L5395.6,-1002.89L5401.29,-1006.96C5401.99,-1005.98 5402.69,-1005 5403.39,-1004.02ZM5150.55,-1003.59C5152.6,-1003.1 5154.64,-1002.61 5156.69,-1002.12L5160.73,-1001.12L5159.07,-994.325C5157.43,-994.726 5155.79,-995.129 5154.15,-995.528C5152.42,-995.948 5150.69,-996.362 5148.95,-996.769L5145.49,-997.576L5147.08,-1004.39C5148.23,-1004.12 5149.39,-1003.86 5150.55,-1003.59ZM5050.72,-1000.35C5049.47,-999.881 5048.23,-999.413 5046.98,-998.936C5046.68,-998.816 5046.37,-998.696 5046.06,-998.574C5045.35,-998.288 5044.64,-997.994 5043.94,-997.689C5043.13,-997.341 5042.34,-996.978 5041.54,-996.606L5038.11,-994.973L5035.1,-1001.3C5036.36,-1001.89 5037.62,-1002.49 5038.88,-1003.09C5039.95,-1003.59 5041.04,-1004.07 5042.14,-1004.53C5043.02,-1004.9 5043.9,-1005.25 5044.79,-1005.59L5048.23,-1006.9C5049.06,-1004.72 5049.89,-1002.53 5050.72,-1000.35ZM5123.13,-1009.14C5125.1,-1008.81 5127.07,-1008.47 5129.03,-1008.11L5133.22,-1007.34L5131.95,-1000.45L5127.77,-1001.22C5125.85,-1001.57 5123.92,-1001.91 5121.99,-1002.23L5118.23,-1002.85L5119.36,-1009.75C5120.62,-1009.55 5121.88,-1009.34 5123.13,-1009.14ZM5475.47,-1013.23L5473.16,-1009.94C5472.95,-1009.64 5472.74,-1009.35 5472.53,-1009.06C5471.99,-1008.32 5471.45,-1007.59 5470.9,-1006.86C5470.35,-1006.13 5469.78,-1005.41 5469.21,-1004.69L5466.94,-1001.85L5461.48,-1006.23L5463.74,-1009.06C5464.38,-1009.87 5465.02,-1010.68 5465.64,-1011.5C5466.25,-1012.32 5466.85,-1013.15 5467.44,-1013.98L5469.74,-1017.25C5471.65,-1015.91 5473.56,-1014.57 5475.47,-1013.23ZM5077.26,-1005.25C5075.97,-1005.13 5074.68,-1005.02 5073.39,-1004.9C5072.93,-1004.85 5072.46,-1004.81 5071.99,-1004.76C5070.37,-1004.58 5068.75,-1004.38 5067.14,-1004.14L5063.57,-1003.6L5062.53,-1010.53C5063.84,-1010.73 5065.16,-1010.93 5066.48,-1011.12C5068.68,-1011.44 5070.89,-1011.7 5073.11,-1011.9L5076.63,-1012.22C5076.84,-1009.89 5077.05,-1007.57 5077.26,-1005.25ZM5094.62,-1012.29C5096.74,-1012.19 5098.86,-1012.05 5100.98,-1011.89L5105.19,-1011.55L5104.63,-1004.58C5102.98,-1004.71 5101.32,-1004.85 5099.66,-1004.97C5098,-1005.09 5096.34,-1005.2 5094.67,-1005.28L5094.29,-1005.3L5090.78,-1005.46L5091.1,-1012.45C5092.27,-1012.4 5093.44,-1012.34 5094.62,-1012.29ZM5666.95,-1017.13C5666.04,-1015.59 5665.14,-1014.04 5664.21,-1012.51C5663.3,-1011.01 5662.35,-1009.53 5661.38,-1008.07L5659.4,-1005.12L5653.58,-1009.01C5654.36,-1010.17 5655.15,-1011.34 5655.92,-1012.51C5657.02,-1014.18 5658.07,-1015.86 5659.09,-1017.57L5660.93,-1020.69C5662.94,-1019.5 5664.94,-1018.32 5666.95,-1017.13ZM5389.77,-1027.71C5390.16,-1026.82 5390.56,-1025.93 5390.98,-1025.05C5391.5,-1023.94 5392.04,-1022.83 5392.6,-1021.73L5394.26,-1018.46L5388.02,-1015.28C5387.4,-1016.5 5386.79,-1017.71 5386.17,-1018.92C5385.65,-1019.97 5385.14,-1021.02 5384.64,-1022.08C5384.2,-1023.01 5383.78,-1023.95 5383.36,-1024.89L5381.95,-1028.12L5388.36,-1030.93C5388.83,-1029.85 5389.3,-1028.78 5389.77,-1027.71ZM5487.91,-1039.28L5486.58,-1035.57C5486.47,-1035.26 5486.35,-1034.95 5486.24,-1034.64C5485.95,-1033.86 5485.65,-1033.08 5485.34,-1032.31C5484.97,-1031.37 5484.58,-1030.44 5484.18,-1029.52L5482.67,-1026.05L5476.25,-1028.85L5477.76,-1032.3C5478.13,-1033.16 5478.49,-1034.03 5478.84,-1034.9C5479.24,-1035.91 5479.63,-1036.93 5480,-1037.95L5481.32,-1041.64C5483.52,-1040.85 5485.71,-1040.07 5487.91,-1039.28ZM5678.05,-1043.62C5677.6,-1042.21 5677.15,-1040.81 5676.68,-1039.4C5676.54,-1038.98 5676.4,-1038.56 5676.25,-1038.13C5675.74,-1036.65 5675.2,-1035.18 5674.64,-1033.71L5673.31,-1030.25L5666.78,-1032.77C5667.3,-1034.12 5667.82,-1035.47 5668.33,-1036.82C5668.97,-1038.51 5669.57,-1040.21 5670.14,-1041.92L5670.24,-1042.22L5671.4,-1045.78C5673.61,-1045.06 5675.83,-1044.34 5678.05,-1043.62ZM5382.4,-1053.51C5382.53,-1052.44 5382.69,-1051.38 5382.86,-1050.32C5383.04,-1049.25 5383.24,-1048.17 5383.46,-1047.11L5384.21,-1043.54L5377.36,-1042.1C5377.08,-1043.41 5376.8,-1044.72 5376.53,-1046.03C5376.32,-1047.08 5376.13,-1048.13 5375.95,-1049.18C5375.78,-1050.22 5375.63,-1051.27 5375.5,-1052.31L5375.45,-1052.66L5375.03,-1056.21L5381.98,-1057.05C5382.12,-1055.87 5382.26,-1054.69 5382.4,-1053.51ZM5492.45,-1067.9L5492.32,-1064.24C5492.3,-1063.94 5492.29,-1063.64 5492.27,-1063.34C5492.23,-1062.43 5492.17,-1061.52 5492.09,-1060.62C5492.01,-1059.55 5491.9,-1058.49 5491.78,-1057.42L5491.33,-1053.66L5484.38,-1054.49L5484.82,-1058.24C5484.95,-1059.36 5485.07,-1060.48 5485.15,-1061.61C5485.23,-1062.58 5485.28,-1063.55 5485.32,-1064.52L5485.46,-1068.16C5487.79,-1068.07 5490.12,-1067.98 5492.45,-1067.9ZM5683.32,-1071.81C5683.15,-1070.16 5682.98,-1068.51 5682.78,-1066.87C5682.57,-1065.12 5682.33,-1063.38 5682.06,-1061.65L5681.44,-1057.77L5674.53,-1058.87L5675.15,-1062.73C5675.3,-1063.77 5675.46,-1064.8 5675.59,-1065.83C5675.73,-1066.87 5675.86,-1067.9 5675.97,-1068.94L5676.36,-1072.57C5678.68,-1072.32 5681,-1072.06 5683.32,-1071.81ZM5385.84,-1082.97L5384.69,-1079.64C5384.6,-1079.37 5384.51,-1079.1 5384.42,-1078.82C5384.16,-1078 5383.91,-1077.16 5383.69,-1076.33C5383.44,-1075.39 5383.22,-1074.44 5383.03,-1073.49L5382.3,-1069.92L5375.44,-1071.32C5375.7,-1072.62 5375.97,-1073.93 5376.24,-1075.23C5376.51,-1076.52 5376.83,-1077.8 5377.19,-1079.07C5377.46,-1080.03 5377.75,-1080.97 5378.07,-1081.9L5379.23,-1085.25C5381.43,-1084.49 5383.64,-1083.73 5385.84,-1082.97ZM5488.09,-1093.13C5488.46,-1092.11 5488.82,-1091.09 5489.14,-1090.06C5489.5,-1088.88 5489.83,-1087.7 5490.14,-1086.5L5491.06,-1082.81L5484.26,-1081.12L5483.35,-1084.79C5483.08,-1085.86 5482.78,-1086.92 5482.45,-1087.97C5482.17,-1088.89 5481.86,-1089.8 5481.53,-1090.7L5480.26,-1094.11L5486.81,-1096.56C5487.24,-1095.41 5487.67,-1094.27 5488.09,-1093.13ZM5683.37,-1096.88C5683.45,-1095.8 5683.52,-1094.72 5683.58,-1093.64C5683.64,-1092.56 5683.69,-1091.47 5683.73,-1090.39L5683.87,-1086.3L5676.87,-1086.06L5676.74,-1090.14C5676.7,-1091.17 5676.65,-1092.21 5676.59,-1093.25C5676.53,-1094.29 5676.47,-1095.32 5676.39,-1096.36L5676.11,-1099.88L5683.09,-1100.43C5683.18,-1099.25 5683.28,-1098.07 5683.37,-1096.88ZM5401.97,-1103.26L5399.09,-1100.78C5398.93,-1100.63 5398.77,-1100.5 5398.61,-1100.35C5397.98,-1099.79 5397.36,-1099.22 5396.76,-1098.63C5396.17,-1098.06 5395.59,-1097.46 5395.03,-1096.86L5394.82,-1096.64L5394.61,-1096.41L5392.26,-1093.81L5387.07,-1098.5L5389.43,-1101.12C5390.22,-1101.98 5391.03,-1102.83 5391.87,-1103.64C5392.72,-1104.48 5393.6,-1105.28 5394.5,-1106.07L5397.4,-1108.56C5398.92,-1106.79 5400.44,-1105.02 5401.97,-1103.26ZM5470.51,-1117C5471.75,-1116.12 5472.94,-1115.18 5474.07,-1114.18C5474.74,-1113.6 5475.38,-1112.99 5476.01,-1112.38L5478.66,-1109.73L5473.72,-1104.77L5471.09,-1107.4C5470.56,-1107.92 5470.02,-1108.43 5469.45,-1108.92C5468.5,-1109.76 5467.5,-1110.55 5466.46,-1111.29L5463.49,-1113.39L5467.52,-1119.11C5468.52,-1118.4 5469.52,-1117.7 5470.51,-1117ZM5425.84,-1114.93C5424.58,-1114.49 5423.32,-1114.06 5422.07,-1113.62C5421.68,-1113.48 5421.29,-1113.34 5420.9,-1113.2C5420.15,-1112.92 5419.39,-1112.63 5418.64,-1112.33C5417.9,-1112.04 5417.17,-1111.73 5416.45,-1111.42L5413.05,-1109.95L5410.27,-1116.37L5413.68,-1117.85C5414.73,-1118.3 5415.78,-1118.74 5416.85,-1119.15C5417.94,-1119.58 5419.05,-1119.98 5420.16,-1120.37L5423.56,-1121.54C5424.32,-1119.34 5425.08,-1117.13 5425.84,-1114.93ZM5678.83,-1124.92C5679.09,-1123.88 5679.34,-1122.84 5679.57,-1121.8C5679.81,-1120.76 5680.04,-1119.71 5680.26,-1118.66L5681.08,-1114.73L5674.22,-1113.31L5673.41,-1117.23C5673.2,-1118.23 5672.98,-1119.24 5672.75,-1120.24C5672.52,-1121.24 5672.28,-1122.24 5672.04,-1123.24L5671.14,-1126.82L5677.94,-1128.52C5678.23,-1127.32 5678.53,-1126.12 5678.83,-1124.92ZM5444.43,-1125.03C5446,-1125.02 5447.56,-1124.94 5449.12,-1124.8L5452.67,-1124.45L5451.99,-1117.49C5450.7,-1117.61 5449.4,-1117.75 5448.1,-1117.86C5447.18,-1117.94 5446.27,-1117.99 5445.35,-1118.01C5444.27,-1118.04 5443.19,-1118.02 5442.11,-1117.98L5438.52,-1117.81L5438.19,-1124.8C5439.54,-1124.86 5440.89,-1124.94 5442.24,-1124.99C5442.83,-1125.01 5443.41,-1125.02 5444,-1125.03C5444.14,-1125.03 5444.29,-1125.03 5444.43,-1125.03ZM5669.79,-1151.96C5670.28,-1150.8 5670.76,-1149.65 5671.22,-1148.48C5671.61,-1147.51 5671.99,-1146.53 5672.37,-1145.55L5673.61,-1142.26L5667.07,-1139.78L5665.83,-1143.06C5665.47,-1144 5665.1,-1144.94 5664.73,-1145.88C5664.28,-1146.99 5663.82,-1148.1 5663.35,-1149.21L5661.89,-1152.63L5668.32,-1155.38C5668.81,-1154.24 5669.3,-1153.1 5669.79,-1151.96ZM5656.38,-1177.38C5656.91,-1176.54 5657.45,-1175.69 5657.97,-1174.84C5658.61,-1173.82 5659.23,-1172.78 5659.84,-1171.74L5661.86,-1168.29L5655.81,-1164.76L5653.8,-1168.2C5653.21,-1169.2 5652.62,-1170.19 5652.01,-1171.17C5651.51,-1171.98 5651,-1172.79 5650.49,-1173.6L5648.58,-1176.56L5654.46,-1180.35C5655.1,-1179.36 5655.74,-1178.37 5656.38,-1177.38ZM5638.94,-1199.65C5639.85,-1198.71 5640.74,-1197.75 5641.62,-1196.78C5642.25,-1196.08 5642.87,-1195.38 5643.49,-1194.66L5645.81,-1191.98L5640.51,-1187.4L5638.2,-1190.08C5637.62,-1190.75 5637.03,-1191.42 5636.43,-1192.09C5635.6,-1193.01 5634.75,-1193.91 5633.89,-1194.81L5631.2,-1197.59L5636.24,-1202.45C5637.14,-1201.52 5638.04,-1200.59 5638.94,-1199.65ZM5616.23,-1217.95C5617.1,-1217.43 5617.97,-1216.9 5618.83,-1216.35C5619.99,-1215.61 5621.14,-1214.85 5622.26,-1214.06L5625.14,-1212.04L5621.12,-1206.31L5618.25,-1208.32C5617.21,-1209.05 5616.15,-1209.76 5615.07,-1210.45C5614.28,-1210.95 5613.48,-1211.44 5612.67,-1211.92L5609.59,-1213.72L5613.13,-1219.76C5614.16,-1219.16 5615.19,-1218.55 5616.23,-1217.95ZM5516.42,-1207.96C5514.69,-1207.88 5512.95,-1207.79 5511.21,-1207.73C5509.56,-1207.66 5507.9,-1207.62 5506.25,-1207.58L5502.33,-1207.52L5502.21,-1214.52C5503.74,-1214.54 5505.28,-1214.57 5506.81,-1214.6C5508.64,-1214.64 5510.47,-1214.7 5512.31,-1214.78L5516.11,-1214.95C5516.21,-1212.62 5516.32,-1210.29 5516.42,-1207.96ZM5478.68,-1215.49C5480.65,-1215.33 5482.62,-1215.19 5484.6,-1215.06L5488.49,-1214.83L5488.06,-1207.84L5484.16,-1208.07C5482.14,-1208.2 5480.12,-1208.35 5478.1,-1208.52L5474.02,-1208.86L5474.61,-1215.84C5475.97,-1215.72 5477.33,-1215.61 5478.68,-1215.49ZM5544.65,-1211.58L5540.69,-1210.84C5540.29,-1210.77 5539.89,-1210.69 5539.48,-1210.62C5537.85,-1210.34 5536.2,-1210.07 5534.56,-1209.83L5530.71,-1209.27L5529.7,-1216.19L5533.54,-1216.75C5534.53,-1216.9 5535.53,-1217.05 5536.52,-1217.22C5537.49,-1217.38 5538.45,-1217.55 5539.42,-1217.72L5543.38,-1218.46C5543.8,-1216.16 5544.23,-1213.87 5544.65,-1211.58ZM5450.91,-1219.22C5452.92,-1218.85 5454.93,-1218.5 5456.94,-1218.16L5460.98,-1217.51L5459.86,-1210.6L5455.81,-1211.26C5453.75,-1211.6 5451.69,-1211.96 5449.63,-1212.34L5445.98,-1213.02L5447.27,-1219.9C5448.48,-1219.67 5449.7,-1219.45 5450.91,-1219.22ZM5571.75,-1219.96C5570.53,-1219.59 5569.32,-1219.23 5568.1,-1218.85C5567.83,-1218.77 5567.56,-1218.68 5567.29,-1218.59C5566.54,-1218.34 5565.8,-1218.08 5565.07,-1217.79C5564.42,-1217.55 5563.78,-1217.28 5563.14,-1217.02L5562.68,-1216.84L5562.21,-1216.66L5558.79,-1215.36L5556.3,-1221.9L5559.7,-1223.19C5560.13,-1223.36 5560.56,-1223.53 5560.98,-1223.7C5561.35,-1223.85 5561.72,-1224 5562.09,-1224.14C5562.4,-1224.27 5562.7,-1224.38 5563.01,-1224.5C5563.93,-1224.84 5564.85,-1225.16 5565.78,-1225.46L5566.02,-1225.53L5566.25,-1225.61L5569.71,-1226.66C5570.39,-1224.43 5571.07,-1222.19 5571.75,-1219.96ZM5424.06,-1225.73C5426.02,-1225.14 5427.98,-1224.57 5429.95,-1224.03L5433.9,-1222.95L5432.06,-1216.19L5428.1,-1217.28C5427.08,-1217.56 5426.07,-1217.84 5425.06,-1218.13C5424.05,-1218.42 5423.04,-1218.72 5422.03,-1219.03L5418.51,-1220.1L5420.54,-1226.8C5421.71,-1226.44 5422.89,-1226.08 5424.06,-1225.73ZM5588.72,-1227.62C5589.89,-1227.48 5591.06,-1227.32 5592.22,-1227.11C5593.39,-1226.91 5594.55,-1226.66 5595.7,-1226.39L5599.25,-1225.55L5597.64,-1218.74C5596.32,-1219.05 5595,-1219.37 5593.68,-1219.68C5592.73,-1219.89 5591.77,-1220.09 5590.8,-1220.25C5589.84,-1220.42 5588.88,-1220.55 5587.92,-1220.67L5584.28,-1221.08L5585.07,-1228.04C5586.28,-1227.9 5587.5,-1227.76 5588.72,-1227.62ZM5398.18,-1235.39C5400.11,-1234.52 5402.06,-1233.67 5404.02,-1232.86L5407.66,-1231.36L5404.99,-1224.88L5401.34,-1226.39C5399.43,-1227.19 5397.53,-1228.01 5395.64,-1228.86L5395.28,-1229.02L5392.03,-1230.5L5394.93,-1236.87C5396.01,-1236.38 5397.09,-1235.88 5398.18,-1235.39ZM5374.22,-1248.7C5376.01,-1247.49 5377.82,-1246.32 5379.66,-1245.18L5382.92,-1243.18L5379.26,-1237.21C5377.95,-1238.02 5376.65,-1238.81 5375.35,-1239.62C5373.75,-1240.62 5372.16,-1241.64 5370.6,-1242.69L5370.29,-1242.9L5367.36,-1244.89L5371.3,-1250.68C5372.27,-1250.02 5373.24,-1249.36 5374.22,-1248.7ZM5353.68,-1266.06C5354.31,-1265.39 5354.94,-1264.73 5355.58,-1264.08C5356.39,-1263.26 5357.21,-1262.45 5358.04,-1261.66L5360.79,-1259.05L5355.97,-1253.97C5354.96,-1254.93 5353.95,-1255.88 5352.95,-1256.84C5351.45,-1258.28 5349.99,-1259.76 5348.57,-1261.27L5345.97,-1264.06L5351.08,-1268.84C5351.95,-1267.91 5352.81,-1266.99 5353.68,-1266.06ZM5338.03,-1288.25C5338.49,-1287.34 5338.97,-1286.43 5339.46,-1285.53C5339.95,-1284.64 5340.46,-1283.75 5340.98,-1282.87L5341.15,-1282.58L5343.06,-1279.41L5337.06,-1275.8C5336.36,-1276.97 5335.65,-1278.13 5334.96,-1279.3C5334.77,-1279.62 5334.59,-1279.93 5334.4,-1280.25C5333.48,-1281.84 5332.61,-1283.46 5331.78,-1285.09L5330.18,-1288.29L5336.43,-1291.43C5336.96,-1290.37 5337.5,-1289.31 5338.03,-1288.25ZM5329.72,-1313.54C5329.89,-1312.58 5330.06,-1311.63 5330.26,-1310.67C5330.43,-1309.85 5330.61,-1309.02 5330.8,-1308.2L5330.88,-1307.85L5330.96,-1307.51L5331.86,-1303.82L5325.06,-1302.16C5324.73,-1303.52 5324.39,-1304.88 5324.07,-1306.24C5323.83,-1307.25 5323.61,-1308.26 5323.4,-1309.28C5323.19,-1310.3 5323,-1311.33 5322.82,-1312.36L5322.19,-1316.11L5329.09,-1317.28C5329.3,-1316.04 5329.51,-1314.79 5329.72,-1313.54ZM5329.1,-1344.33C5328.97,-1342.89 5328.84,-1341.45 5328.72,-1340.01C5328.68,-1339.59 5328.65,-1339.18 5328.62,-1338.76C5328.53,-1337.53 5328.46,-1336.3 5328.41,-1335.06L5328.39,-1334.65L5328.38,-1334.25L5328.26,-1330.56L5321.26,-1330.78C5321.31,-1332.16 5321.35,-1333.54 5321.4,-1334.91C5321.44,-1335.93 5321.48,-1336.94 5321.55,-1337.96C5321.61,-1338.98 5321.69,-1340.01 5321.78,-1341.04L5322.13,-1344.95C5324.45,-1344.74 5326.78,-1344.54 5329.1,-1344.33ZM5334.95,-1370.99C5334.58,-1369.69 5334.2,-1368.39 5333.83,-1367.1C5333.69,-1366.63 5333.56,-1366.16 5333.43,-1365.69C5333.05,-1364.3 5332.68,-1362.9 5332.33,-1361.51L5332.22,-1361.05L5331.39,-1357.61L5324.58,-1359.26C5325.02,-1361.06 5325.44,-1362.85 5325.9,-1364.64C5326.32,-1366.27 5326.77,-1367.89 5327.24,-1369.51L5328.23,-1372.94C5330.47,-1372.29 5332.72,-1371.64 5334.95,-1370.99ZM5344.95,-1396.61C5344.39,-1395.34 5343.82,-1394.07 5343.25,-1392.8C5343.02,-1392.28 5342.8,-1391.76 5342.57,-1391.25C5342.13,-1390.23 5341.69,-1389.2 5341.26,-1388.17L5341.05,-1387.66L5340.84,-1387.16L5339.49,-1383.84L5333.01,-1386.49C5333.53,-1387.77 5334.06,-1389.06 5334.59,-1390.34C5335.4,-1392.29 5336.23,-1394.23 5337.09,-1396.16L5338.56,-1399.46C5340.69,-1398.51 5342.82,-1397.56 5344.95,-1396.61ZM5357.85,-1421.06C5357.08,-1419.71 5356.31,-1418.37 5355.55,-1417.03C5355.23,-1416.47 5354.91,-1415.91 5354.6,-1415.36C5353.98,-1414.25 5353.37,-1413.14 5352.77,-1412.03L5351.07,-1408.9L5344.91,-1412.24C5345.58,-1413.48 5346.25,-1414.71 5346.93,-1415.94C5347.86,-1417.66 5348.82,-1419.37 5349.79,-1421.06L5351.78,-1424.54C5353.8,-1423.38 5355.83,-1422.21 5357.85,-1421.06ZM5366.42,-1428.49L5353.72,-1428.49L5353.72,-1506.07L5427.88,-1506.52L5398.9,-1486.62L5427.88,-1467.92L5366.42,-1467.31L5366.42,-1428.49Z"/>
        </g>
    </g>
</svg>
