<?xml version="1.0" encoding="UTF-8" standalone="no"?>
<!DOCTYPE svg PUBLIC "-//W3C//DTD SVG 1.1//EN" "http://www.w3.org/Graphics/SVG/1.1/DTD/svg11.dtd">
<svg width="100%" height="100%" viewBox="0 0 354 53" version="1.1" xmlns="http://www.w3.org/2000/svg" xmlns:xlink="http://www.w3.org/1999/xlink" xml:space="preserve" style="fill-rule:evenodd;clip-rule:evenodd;stroke-linejoin:round;stroke-miterlimit:1.41421;">
    <g transform="matrix(1,0,0,1,-2478.09,-310.861)">
        <g transform="matrix(0.994303,0,0,1.00093,1563.07,3.00278)">
            <g transform="matrix(1.00573,0,0,0.456678,-7554.68,-549.199)">
                <path d="M8426.66,1990.38L8780,1990.38C8780,1990.38 8754.7,1978.25 8738.42,1970.44C8730.58,1966.68 8723.57,1957.14 8718.56,1943.42C8710.25,1920.74 8693.97,1887.55 8670,1888.31C8654.59,1888.81 8644.52,1894.12 8637.96,1901.18C8627.22,1912.97 8614.45,1911.87 8604.16,1898.25C8592.3,1882.53 8576.16,1870.27 8557,1879C8538.09,1887.61 8530.18,1902.04 8527.17,1915.21C8522.36,1936.13 8513.45,1951.1 8502.97,1955.84C8473.28,1969.29 8426.66,1990.38 8426.66,1990.38Z" style="fill:rgb(217,217,217);"/>
            </g>
        </g>
    </g>
</svg>
