<?xml version="1.0" encoding="UTF-8" standalone="no"?>
<!DOCTYPE svg PUBLIC "-//W3C//DTD SVG 1.1//EN" "http://www.w3.org/Graphics/SVG/1.1/DTD/svg11.dtd">
<svg width="100%" height="100%" viewBox="0 0 451 102" version="1.1" xmlns="http://www.w3.org/2000/svg" xmlns:xlink="http://www.w3.org/1999/xlink" xml:space="preserve" style="fill-rule:evenodd;clip-rule:evenodd;stroke-linejoin:round;stroke-miterlimit:1.41421;">
    <g transform="matrix(1,0,0,1,-2946.43,-181.991)">
        <g transform="matrix(0.994303,0,0,1.00093,1563.07,3.00278)">
            <g transform="matrix(1.00573,0,0,0.52202,-7513.44,-718.408)">
                <path d="M9305,1912.5L8854,1912.5C8854,1912.5 8911.84,1896.91 8930,1880C8948.16,1863.09 8950.24,1804.16 8988,1812C8999.46,1814.38 9009.41,1820.48 9017.69,1827.82C9024.26,1833.67 9031.82,1833.84 9038.45,1828.27C9045.08,1822.71 9050.14,1811.95 9052.33,1798.75C9059.18,1758.05 9074.75,1715.22 9110,1719C9179.3,1726.43 9159.08,1852.71 9202.18,1831.1C9293.39,1785.37 9305,1912.5 9305,1912.5Z" style="fill:rgb(217,217,217);"/>
            </g>
        </g>
    </g>
</svg>
