<?xml version="1.0" encoding="UTF-8" standalone="no"?>
<!DOCTYPE svg PUBLIC "-//W3C//DTD SVG 1.1//EN" "http://www.w3.org/Graphics/SVG/1.1/DTD/svg11.dtd">
<svg width="100%" height="100%" viewBox="0 0 120 120" version="1.1" xmlns="http://www.w3.org/2000/svg" xmlns:xlink="http://www.w3.org/1999/xlink" xml:space="preserve" style="fill-rule:evenodd;clip-rule:evenodd;stroke-linejoin:round;stroke-miterlimit:1.41421;">
    <g transform="matrix(1,0,0,1,-9129.42,-1804.51)">
        <g transform="matrix(0.462448,0,0,0.891865,4993.79,-124.974)">
            <rect x="8942.89" y="2163.43" width="259.488" height="134.55" style="fill:none;"/>
        </g>
        <g transform="matrix(0.994303,0,0,1.00093,7921.68,1457.5)">
            <g transform="matrix(0.687426,0,0,0.682877,-4961.33,-1418.7)">
                <g>
                    <path d="M9072.47,2600.61L9072.93,2600.62L9073.4,2600.62L9073.86,2600.63L9074.33,2600.65L9074.79,2600.66L9075.26,2600.68L9075.72,2600.7L9076.18,2600.73L9076.64,2600.76L9077.1,2600.79L9077.56,2600.82L9078.02,2600.86L9078.48,2600.9L9078.94,2600.94L9079.39,2600.99L9079.85,2601.03L9080.3,2601.08L9080.76,2601.14L9081.21,2601.19L9081.66,2601.25L9082.11,2601.31L9082.56,2601.38L9083.01,2601.45L9083.46,2601.51L9083.91,2601.59L9084.36,2601.66L9084.8,2601.74L9085.25,2601.82L9085.69,2601.91L9086.14,2601.99L9086.58,2602.08L9087.02,2602.17L9087.46,2602.27L9087.9,2602.37L9088.34,2602.47L9088.77,2602.57L9089.21,2602.67L9089.65,2602.78L9090.08,2602.89L9090.51,2603.01L9090.94,2603.12L9091.38,2603.24L9091.81,2603.36L9092.24,2603.48L9092.66,2603.61L9093.09,2603.74L9093.52,2603.87L9093.94,2604L9094.36,2604.14L9094.79,2604.28L9095.21,2604.42L9095.63,2604.56L9096.05,2604.71L9096.47,2604.86L9096.88,2605.01L9097.3,2605.16L9097.71,2605.32L9098.12,2605.48L9098.53,2605.64L9098.94,2605.8L9099.35,2605.97L9099.76,2606.14L9100.17,2606.3L9100.58,2606.48L9100.98,2606.66L9101.38,2606.83L9101.78,2607.01L9102.18,2607.2L9102.58,2607.38L9102.98,2607.57L9103.38,2607.76L9103.77,2607.95L9104.16,2608.14L9104.56,2608.34L9104.95,2608.54L9105.34,2608.74L9105.73,2608.94L9106.11,2609.15L9106.5,2609.36L9106.88,2609.57L9107.26,2609.78L9107.65,2609.99L9108.02,2610.21L9108.4,2610.43L9108.78,2610.65L9109.16,2610.87L9109.53,2611.1L9109.9,2611.33L9110.27,2611.56L9110.64,2611.79L9111.01,2612.02L9111.38,2612.26L9111.74,2612.5L9112.1,2612.74L9112.47,2612.98L9112.83,2613.23L9113.18,2613.47L9113.54,2613.72L9113.9,2613.98L9114.25,2614.23L9114.6,2614.49L9114.95,2614.74L9115.3,2615L9115.65,2615.26L9116,2615.53L9116.34,2615.79L9116.68,2616.06L9117.02,2616.33L9117.37,2616.6L9117.7,2616.87L9118.04,2617.15L9118.37,2617.43L9118.7,2617.71L9119.03,2617.99L9119.36,2618.27L9119.69,2618.56L9120.02,2618.85L9120.34,2619.14L9120.67,2619.43L9120.98,2619.72L9121.3,2620.01L9121.62,2620.31L9121.93,2620.61L9122.25,2620.91L9122.56,2621.21L9122.87,2621.52L9123.18,2621.83L9123.48,2622.13L9123.79,2622.44L9124.09,2622.75L9124.39,2623.07L9124.69,2623.38L9124.99,2623.7L9125.28,2624.01L9125.58,2624.34L9125.87,2624.66L9126.15,2624.98L9126.44,2625.31L9126.73,2625.64L9127.01,2625.96L9127.29,2626.3L9127.57,2626.63L9127.85,2626.96L9128.13,2627.3L9128.4,2627.64L9128.67,2627.98L9128.94,2628.32L9129.21,2628.66L9129.47,2629L9129.74,2629.35L9130,2629.69L9130.26,2630.05L9130.51,2630.4L9130.77,2630.75L9131.03,2631.11L9131.27,2631.46L9131.52,2631.81L9131.77,2632.17L9132.02,2632.53L9132.26,2632.89L9132.5,2633.26L9132.74,2633.62L9132.98,2633.99L9133.21,2634.36L9133.44,2634.73L9133.67,2635.1L9133.9,2635.47L9134.13,2635.85L9134.35,2636.22L9134.57,2636.6L9134.79,2636.97L9135.01,2637.35L9135.22,2637.74L9135.43,2638.12L9135.64,2638.5L9135.85,2638.89L9136.06,2639.28L9136.26,2639.66L9136.46,2640.05L9136.66,2640.44L9136.86,2640.83L9137.05,2641.23L9137.25,2641.63L9137.43,2642.02L9137.62,2642.42L9137.81,2642.82L9137.99,2643.22L9138.17,2643.62L9138.35,2644.02L9138.52,2644.43L9138.69,2644.83L9138.87,2645.24L9139.03,2645.65L9139.2,2646.05L9139.36,2646.46L9139.52,2646.88L9139.68,2647.29L9139.84,2647.7L9139.99,2648.12L9140.14,2648.54L9140.29,2648.96L9140.44,2649.37L9140.58,2649.79L9140.72,2650.21L9140.86,2650.63L9141,2651.06L9141.13,2651.49L9141.26,2651.91L9141.39,2652.34L9141.52,2652.77L9141.64,2653.19L9141.76,2653.62L9141.88,2654.05L9141.99,2654.48L9142.11,2654.92L9142.22,2655.35L9142.33,2655.79L9142.43,2656.23L9142.53,2656.66L9142.63,2657.1L9142.73,2657.54L9142.83,2657.98L9142.92,2658.43L9143.01,2658.86L9143.09,2659.31L9143.18,2659.75L9143.26,2660.19L9143.34,2660.64L9143.41,2661.09L9143.49,2661.54L9143.56,2661.99L9143.62,2662.43L9143.69,2662.89L9143.75,2663.34L9143.81,2663.79L9143.86,2664.24L9143.92,2664.7L9143.97,2665.15L9144.01,2665.61L9144.06,2666.07L9144.1,2666.52L9144.14,2666.98L9144.18,2667.44L9144.21,2667.9L9144.24,2668.36L9144.27,2668.82L9144.3,2669.28L9144.32,2669.74L9144.34,2670.21L9144.35,2670.67L9144.36,2671.14L9144.38,2671.6L9144.38,2672.07L9144.39,2672.53L9144.39,2673L9144.39,2673.47L9144.38,2673.93L9144.38,2674.4L9144.36,2674.87L9144.35,2675.33L9144.34,2675.79L9144.32,2676.26L9144.3,2676.72L9144.27,2677.18L9144.24,2677.64L9144.21,2678.1L9144.18,2678.56L9144.14,2679.02L9144.1,2679.48L9144.06,2679.93L9144.01,2680.39L9143.97,2680.85L9143.92,2681.3L9143.86,2681.76L9143.81,2682.21L9143.75,2682.66L9143.69,2683.12L9143.62,2683.57L9143.56,2684.01L9143.49,2684.46L9143.41,2684.91L9143.34,2685.36L9143.26,2685.81L9143.18,2686.25L9143.09,2686.69L9143.01,2687.14L9142.92,2687.57L9142.83,2688.02L9142.73,2688.46L9142.63,2688.9L9142.53,2689.34L9142.43,2689.77L9142.33,2690.21L9142.22,2690.65L9142.11,2691.08L9141.99,2691.51L9141.88,2691.95L9141.76,2692.38L9141.64,2692.81L9141.52,2693.23L9141.39,2693.66L9141.26,2694.09L9141.13,2694.51L9141,2694.94L9140.86,2695.37L9140.72,2695.79L9140.58,2696.21L9140.44,2696.63L9140.29,2697.04L9140.14,2697.46L9139.99,2697.88L9139.84,2698.3L9139.68,2698.71L9139.52,2699.12L9139.36,2699.54L9139.2,2699.95L9139.03,2700.35L9138.87,2700.76L9138.69,2701.17L9138.52,2701.57L9138.35,2701.98L9138.17,2702.38L9137.99,2702.78L9137.81,2703.18L9137.62,2703.58L9137.43,2703.98L9137.25,2704.37L9137.05,2704.77L9136.86,2705.17L9136.66,2705.56L9136.46,2705.95L9136.26,2706.34L9136.06,2706.72L9135.85,2707.11L9135.64,2707.5L9135.43,2707.88L9135.22,2708.26L9135.01,2708.65L9134.79,2709.03L9134.57,2709.4L9134.35,2709.78L9134.13,2710.15L9133.9,2710.53L9133.67,2710.9L9133.44,2711.27L9133.21,2711.64L9132.98,2712.01L9132.74,2712.38L9132.5,2712.74L9132.26,2713.11L9132.02,2713.47L9131.77,2713.83L9131.52,2714.19L9131.27,2714.54L9131.03,2714.89L9130.77,2715.25L9130.51,2715.6L9130.26,2715.95L9130,2716.31L9129.74,2716.65L9129.47,2717L9129.21,2717.34L9128.94,2717.68L9128.67,2718.02L9128.4,2718.36L9128.12,2718.7L9127.85,2719.04L9127.57,2719.37L9127.29,2719.7L9127.01,2720.04L9126.73,2720.37L9126.44,2720.69L9126.15,2721.02L9125.87,2721.34L9125.58,2721.66L9125.28,2721.99L9124.98,2722.3L9124.69,2722.62L9124.39,2722.93L9124.09,2723.25L9123.79,2723.56L9123.48,2723.87L9123.18,2724.18L9122.87,2724.48L9122.56,2724.79L9122.25,2725.09L9121.93,2725.39L9121.62,2725.69L9121.3,2725.99L9120.98,2726.28L9120.67,2726.57L9120.34,2726.86L9120.02,2727.15L9119.69,2727.44L9119.36,2727.73L9119.03,2728.01L9118.7,2728.29L9118.37,2728.57L9118.04,2728.85L9117.7,2729.12L9117.36,2729.4L9117.02,2729.67L9116.68,2729.94L9116.34,2730.21L9116,2730.47L9115.65,2730.74L9115.3,2731L9114.95,2731.26L9114.6,2731.51L9114.25,2731.77L9113.9,2732.02L9113.54,2732.28L9113.18,2732.53L9112.83,2732.77L9112.47,2733.02L9112.1,2733.26L9111.74,2733.5L9111.38,2733.74L9111.01,2733.98L9110.64,2734.21L9110.27,2734.44L9109.9,2734.67L9109.53,2734.9L9109.16,2735.13L9108.78,2735.35L9108.4,2735.57L9108.02,2735.79L9107.64,2736.01L9107.26,2736.22L9106.88,2736.43L9106.5,2736.64L9106.11,2736.85L9105.73,2737.06L9105.34,2737.26L9104.95,2737.46L9104.56,2737.66L9104.16,2737.86L9103.77,2738.05L9103.38,2738.24L9102.98,2738.43L9102.58,2738.62L9102.18,2738.81L9101.78,2738.99L9101.38,2739.17L9100.98,2739.35L9100.58,2739.52L9100.17,2739.7L9099.76,2739.87L9099.35,2740.03L9098.94,2740.2L9098.53,2740.36L9098.12,2740.52L9097.71,2740.68L9097.3,2740.84L9096.88,2740.99L9096.47,2741.14L9096.05,2741.29L9095.63,2741.44L9095.21,2741.58L9094.79,2741.72L9094.37,2741.86L9093.94,2742L9093.52,2742.13L9093.09,2742.26L9092.66,2742.39L9092.24,2742.52L9091.81,2742.64L9091.38,2742.76L9090.95,2742.88L9090.51,2742.99L9090.08,2743.11L9089.65,2743.22L9089.21,2743.33L9088.77,2743.43L9088.34,2743.53L9087.9,2743.63L9087.46,2743.73L9087.02,2743.83L9086.58,2743.92L9086.14,2744.01L9085.69,2744.09L9085.25,2744.18L9084.8,2744.26L9084.36,2744.34L9083.91,2744.41L9083.46,2744.48L9083.01,2744.55L9082.56,2744.62L9082.11,2744.69L9081.66,2744.75L9081.21,2744.81L9080.76,2744.86L9080.3,2744.92L9079.85,2744.97L9079.39,2745.01L9078.94,2745.06L9078.48,2745.1L9078.02,2745.14L9077.56,2745.18L9077.1,2745.21L9076.64,2745.24L9076.18,2745.27L9075.72,2745.3L9075.26,2745.32L9074.79,2745.34L9074.33,2745.35L9073.87,2745.37L9073.4,2745.38L9072.93,2745.38L9072.47,2745.39L9072,2745.39L9071.53,2745.39L9071.07,2745.38L9070.6,2745.38L9070.13,2745.37L9069.67,2745.35L9069.21,2745.34L9068.74,2745.32L9068.28,2745.3L9067.82,2745.27L9067.36,2745.24L9066.9,2745.21L9066.44,2745.18L9065.98,2745.14L9065.52,2745.1L9065.06,2745.06L9064.61,2745.01L9064.15,2744.97L9063.7,2744.92L9063.24,2744.86L9062.79,2744.81L9062.34,2744.75L9061.89,2744.69L9061.44,2744.62L9060.99,2744.55L9060.54,2744.48L9060.09,2744.41L9059.64,2744.34L9059.2,2744.26L9058.75,2744.18L9058.31,2744.09L9057.86,2744.01L9057.42,2743.92L9056.98,2743.83L9056.54,2743.73L9056.1,2743.63L9055.66,2743.53L9055.23,2743.43L9054.79,2743.33L9054.35,2743.22L9053.92,2743.11L9053.49,2742.99L9053.05,2742.88L9052.62,2742.76L9052.19,2742.64L9051.76,2742.52L9051.34,2742.39L9050.91,2742.26L9050.48,2742.13L9050.06,2742L9049.63,2741.86L9049.21,2741.72L9048.79,2741.58L9048.37,2741.44L9047.95,2741.29L9047.53,2741.14L9047.12,2740.99L9046.7,2740.84L9046.29,2740.68L9045.88,2740.52L9045.47,2740.36L9045.06,2740.2L9044.65,2740.03L9044.24,2739.87L9043.83,2739.7L9043.43,2739.52L9043.02,2739.35L9042.62,2739.17L9042.22,2738.99L9041.82,2738.81L9041.42,2738.62L9041.02,2738.43L9040.62,2738.24L9040.23,2738.05L9039.84,2737.86L9039.44,2737.66L9039.05,2737.46L9038.66,2737.26L9038.27,2737.06L9037.89,2736.85L9037.5,2736.64L9037.12,2736.43L9036.74,2736.22L9036.36,2736.01L9035.98,2735.79L9035.6,2735.57L9035.22,2735.35L9034.84,2735.13L9034.47,2734.9L9034.1,2734.67L9033.73,2734.44L9033.36,2734.21L9032.99,2733.98L9032.62,2733.74L9032.26,2733.5L9031.9,2733.26L9031.53,2733.02L9031.18,2732.77L9030.82,2732.53L9030.46,2732.28L9030.1,2732.02L9029.75,2731.77L9029.4,2731.51L9029.05,2731.26L9028.7,2731L9028.35,2730.74L9028,2730.47L9027.66,2730.21L9027.32,2729.94L9026.98,2729.67L9026.64,2729.4L9026.3,2729.12L9025.96,2728.85L9025.63,2728.57L9025.3,2728.29L9024.97,2728.01L9024.64,2727.73L9024.31,2727.44L9023.98,2727.15L9023.66,2726.86L9023.33,2726.57L9023.02,2726.28L9022.7,2725.99L9022.38,2725.69L9022.07,2725.39L9021.75,2725.09L9021.44,2724.79L9021.13,2724.48L9020.82,2724.18L9020.52,2723.87L9020.21,2723.56L9019.91,2723.25L9019.61,2722.93L9019.31,2722.62L9019.02,2722.3L9018.72,2721.99L9018.42,2721.66L9018.13,2721.34L9017.85,2721.02L9017.56,2720.69L9017.27,2720.37L9016.99,2720.04L9016.71,2719.7L9016.43,2719.37L9016.15,2719.04L9015.88,2718.7L9015.6,2718.36L9015.33,2718.02L9015.06,2717.68L9014.79,2717.34L9014.53,2717L9014.26,2716.65L9014,2716.31L9013.74,2715.95L9013.49,2715.6L9013.23,2715.25L9012.97,2714.89L9012.73,2714.54L9012.48,2714.19L9012.23,2713.83L9011.98,2713.47L9011.74,2713.11L9011.5,2712.74L9011.26,2712.38L9011.02,2712.01L9010.79,2711.64L9010.56,2711.27L9010.33,2710.9L9010.1,2710.53L9009.87,2710.15L9009.65,2709.78L9009.43,2709.4L9009.21,2709.03L9008.99,2708.65L9008.78,2708.26L9008.57,2707.88L9008.36,2707.5L9008.15,2707.11L9007.94,2706.72L9007.74,2706.34L9007.54,2705.95L9007.34,2705.56L9007.14,2705.17L9006.95,2704.77L9006.76,2704.37L9006.57,2703.98L9006.38,2703.58L9006.19,2703.18L9006.01,2702.78L9005.83,2702.38L9005.65,2701.98L9005.48,2701.57L9005.31,2701.17L9005.13,2700.76L9004.97,2700.35L9004.8,2699.95L9004.64,2699.54L9004.48,2699.12L9004.32,2698.71L9004.16,2698.3L9004.01,2697.88L9003.86,2697.46L9003.71,2697.05L9003.56,2696.63L9003.42,2696.2L9003.28,2695.79L9003.14,2695.37L9003,2694.94L9002.87,2694.51L9002.74,2694.09L9002.61,2693.66L9002.48,2693.23L9002.36,2692.81L9002.24,2692.38L9002.12,2691.95L9002.01,2691.51L9001.89,2691.08L9001.78,2690.65L9001.67,2690.21L9001.57,2689.77L9001.47,2689.34L9001.37,2688.9L9001.27,2688.46L9001.17,2688.02L9001.08,2687.57L9000.99,2687.14L9000.91,2686.7L9000.82,2686.25L9000.74,2685.8L9000.66,2685.36L9000.59,2684.91L9000.51,2684.46L9000.44,2684.01L9000.38,2683.57L9000.31,2683.12L9000.25,2682.66L9000.19,2682.21L9000.14,2681.76L9000.08,2681.3L9000.03,2680.85L8999.99,2680.39L8999.94,2679.93L8999.9,2679.48L8999.86,2679.02L8999.82,2678.56L8999.79,2678.1L8999.76,2677.64L8999.73,2677.18L8999.7,2676.72L8999.68,2676.26L8999.66,2675.79L8999.65,2675.33L8999.64,2674.87L8999.62,2674.4L8999.62,2673.93L8999.61,2673.47L8999.61,2673L8999.61,2672.53L8999.62,2672.07L8999.62,2671.6L8999.64,2671.14L8999.65,2670.67L8999.66,2670.21L8999.68,2669.74L8999.7,2669.28L8999.73,2668.82L8999.76,2668.36L8999.79,2667.9L8999.82,2667.44L8999.86,2666.98L8999.9,2666.52L8999.94,2666.07L8999.99,2665.61L9000.03,2665.15L9000.08,2664.7L9000.14,2664.24L9000.19,2663.79L9000.25,2663.34L9000.31,2662.89L9000.38,2662.43L9000.44,2661.99L9000.51,2661.54L9000.59,2661.09L9000.66,2660.64L9000.74,2660.2L9000.82,2659.75L9000.91,2659.3L9000.99,2658.86L9001.08,2658.43L9001.17,2657.98L9001.27,2657.54L9001.37,2657.1L9001.47,2656.66L9001.57,2656.23L9001.67,2655.79L9001.78,2655.35L9001.89,2654.92L9002.01,2654.49L9002.12,2654.05L9002.24,2653.62L9002.36,2653.19L9002.48,2652.77L9002.61,2652.34L9002.74,2651.91L9002.87,2651.49L9003,2651.06L9003.14,2650.63L9003.28,2650.21L9003.42,2649.8L9003.56,2649.37L9003.71,2648.95L9003.86,2648.54L9004.01,2648.12L9004.16,2647.7L9004.32,2647.29L9004.48,2646.88L9004.64,2646.46L9004.8,2646.05L9004.97,2645.65L9005.13,2645.24L9005.31,2644.83L9005.48,2644.43L9005.65,2644.02L9005.83,2643.62L9006.01,2643.22L9006.19,2642.82L9006.38,2642.42L9006.57,2642.02L9006.76,2641.63L9006.95,2641.23L9007.14,2640.83L9007.34,2640.44L9007.54,2640.05L9007.74,2639.66L9007.94,2639.28L9008.15,2638.89L9008.36,2638.5L9008.57,2638.12L9008.78,2637.74L9008.99,2637.35L9009.21,2636.97L9009.43,2636.6L9009.65,2636.22L9009.87,2635.85L9010.1,2635.47L9010.33,2635.1L9010.56,2634.73L9010.79,2634.36L9011.02,2633.99L9011.26,2633.62L9011.5,2633.26L9011.74,2632.89L9011.98,2632.53L9012.23,2632.17L9012.48,2631.81L9012.73,2631.46L9012.97,2631.11L9013.23,2630.75L9013.49,2630.4L9013.74,2630.05L9014,2629.69L9014.26,2629.35L9014.53,2629L9014.79,2628.66L9015.06,2628.32L9015.33,2627.98L9015.6,2627.64L9015.87,2627.3L9016.15,2626.96L9016.43,2626.63L9016.71,2626.3L9016.99,2625.96L9017.27,2625.64L9017.56,2625.31L9017.85,2624.98L9018.13,2624.66L9018.42,2624.34L9018.72,2624.01L9019.01,2623.7L9019.31,2623.38L9019.61,2623.07L9019.91,2622.75L9020.21,2622.44L9020.52,2622.13L9020.82,2621.83L9021.13,2621.52L9021.44,2621.21L9021.75,2620.91L9022.07,2620.61L9022.38,2620.31L9022.7,2620.01L9023.02,2619.72L9023.34,2619.43L9023.66,2619.14L9023.98,2618.85L9024.31,2618.56L9024.64,2618.27L9024.97,2617.99L9025.3,2617.71L9025.63,2617.43L9025.96,2617.15L9026.3,2616.87L9026.63,2616.6L9026.98,2616.33L9027.32,2616.06L9027.66,2615.79L9028,2615.53L9028.35,2615.26L9028.7,2615L9029.05,2614.74L9029.4,2614.49L9029.75,2614.23L9030.1,2613.98L9030.46,2613.72L9030.82,2613.47L9031.18,2613.23L9031.53,2612.98L9031.9,2612.74L9032.26,2612.5L9032.62,2612.26L9032.99,2612.02L9033.36,2611.79L9033.73,2611.56L9034.1,2611.33L9034.47,2611.1L9034.84,2610.87L9035.22,2610.65L9035.6,2610.43L9035.98,2610.21L9036.35,2609.99L9036.74,2609.78L9037.12,2609.57L9037.5,2609.36L9037.89,2609.15L9038.27,2608.94L9038.66,2608.74L9039.05,2608.54L9039.44,2608.34L9039.84,2608.14L9040.23,2607.95L9040.62,2607.76L9041.02,2607.57L9041.42,2607.38L9041.82,2607.2L9042.22,2607.01L9042.62,2606.83L9043.02,2606.66L9043.43,2606.48L9043.83,2606.3L9044.24,2606.14L9044.65,2605.97L9045.06,2605.8L9045.47,2605.64L9045.88,2605.48L9046.29,2605.32L9046.7,2605.16L9047.12,2605.01L9047.53,2604.86L9047.95,2604.71L9048.37,2604.56L9048.79,2604.42L9049.21,2604.28L9049.64,2604.14L9050.06,2604L9050.48,2603.87L9050.91,2603.74L9051.34,2603.61L9051.76,2603.48L9052.19,2603.36L9052.62,2603.24L9053.06,2603.12L9053.49,2603.01L9053.92,2602.89L9054.35,2602.78L9054.79,2602.67L9055.23,2602.57L9055.66,2602.47L9056.1,2602.37L9056.54,2602.27L9056.98,2602.17L9057.42,2602.08L9057.86,2601.99L9058.31,2601.91L9058.75,2601.82L9059.2,2601.74L9059.64,2601.66L9060.09,2601.59L9060.54,2601.51L9060.99,2601.45L9061.44,2601.38L9061.89,2601.31L9062.34,2601.25L9062.79,2601.19L9063.24,2601.14L9063.7,2601.08L9064.15,2601.03L9064.61,2600.99L9065.06,2600.94L9065.52,2600.9L9065.98,2600.86L9066.44,2600.82L9066.9,2600.79L9067.36,2600.76L9067.82,2600.73L9068.28,2600.7L9068.74,2600.68L9069.21,2600.66L9069.67,2600.65L9070.14,2600.63L9070.6,2600.62L9071.07,2600.62L9071.53,2600.61L9072,2600.61L9072.47,2600.61ZM9071.56,2605L9071.12,2605.01L9070.68,2605.01L9070.25,2605.02L9069.81,2605.03L9069.37,2605.05L9068.94,2605.07L9068.5,2605.09L9068.07,2605.11L9067.64,2605.14L9067.2,2605.17L9066.77,2605.2L9066.34,2605.23L9065.91,2605.27L9065.48,2605.31L9065.05,2605.35L9064.62,2605.4L9064.2,2605.44L9063.77,2605.49L9063.34,2605.55L9062.92,2605.6L9062.5,2605.66L9062.07,2605.72L9061.65,2605.78L9061.23,2605.85L9060.81,2605.92L9060.39,2605.99L9059.97,2606.06L9059.55,2606.14L9059.13,2606.22L9058.72,2606.3L9058.3,2606.38L9057.89,2606.47L9057.48,2606.56L9057.06,2606.65L9056.65,2606.74L9056.24,2606.84L9055.83,2606.94L9055.42,2607.04L9055.01,2607.14L9054.61,2607.25L9054.2,2607.36L9053.8,2607.47L9053.39,2607.58L9052.99,2607.7L9052.59,2607.82L9052.19,2607.94L9051.79,2608.06L9051.39,2608.18L9050.99,2608.31L9050.6,2608.44L9050.2,2608.58L9049.81,2608.71L9049.41,2608.85L9049.02,2608.99L9048.63,2609.13L9048.24,2609.27L9047.85,2609.42L9047.46,2609.57L9047.08,2609.72L9046.69,2609.87L9046.31,2610.03L9045.92,2610.19L9045.54,2610.35L9045.16,2610.51L9044.78,2610.68L9044.4,2610.84L9044.03,2611.01L9043.65,2611.18L9043.28,2611.36L9042.9,2611.53L9042.53,2611.71L9042.16,2611.89L9041.79,2612.07L9041.42,2612.26L9041.05,2612.44L9040.69,2612.63L9040.32,2612.82L9039.96,2613.02L9039.6,2613.21L9039.24,2613.41L9038.88,2613.61L9038.52,2613.81L9038.16,2614.01L9037.81,2614.22L9037.45,2614.43L9037.1,2614.64L9036.75,2614.85L9036.4,2615.07L9036.05,2615.28L9035.7,2615.5L9035.36,2615.72L9035.02,2615.94L9034.67,2616.16L9034.33,2616.39L9033.99,2616.62L9033.65,2616.85L9033.32,2617.08L9032.98,2617.32L9032.65,2617.55L9032.31,2617.79L9031.98,2618.03L9031.65,2618.27L9031.33,2618.52L9031,2618.76L9030.67,2619.01L9030.35,2619.26L9030.03,2619.51L9029.71,2619.76L9029.39,2620.02L9029.07,2620.28L9028.76,2620.54L9028.44,2620.8L9028.13,2621.06L9027.82,2621.32L9027.51,2621.59L9027.2,2621.86L9026.9,2622.13L9026.59,2622.4L9026.29,2622.67L9025.99,2622.95L9025.69,2623.23L9025.39,2623.51L9025.09,2623.79L9024.8,2624.07L9024.51,2624.35L9024.22,2624.64L9023.93,2624.93L9023.64,2625.22L9023.35,2625.51L9023.07,2625.8L9022.79,2626.09L9022.51,2626.39L9022.23,2626.69L9021.95,2626.99L9021.67,2627.29L9021.4,2627.59L9021.13,2627.9L9020.86,2628.2L9020.59,2628.51L9020.32,2628.82L9020.06,2629.13L9019.8,2629.44L9019.54,2629.76L9019.28,2630.07L9019.02,2630.39L9018.76,2630.71L9018.51,2631.03L9018.26,2631.35L9018.01,2631.67L9017.76,2632L9017.52,2632.33L9017.27,2632.65L9017.03,2632.98L9016.79,2633.31L9016.55,2633.65L9016.32,2633.98L9016.08,2634.32L9015.85,2634.65L9015.62,2634.99L9015.39,2635.33L9015.17,2635.67L9014.94,2636.02L9014.72,2636.36L9014.5,2636.7L9014.28,2637.05L9014.07,2637.4L9013.85,2637.75L9013.64,2638.1L9013.43,2638.45L9013.22,2638.81L9013.01,2639.16L9012.81,2639.52L9012.61,2639.88L9012.41,2640.24L9012.21,2640.6L9012.02,2640.96L9011.82,2641.32L9011.63,2641.69L9011.44,2642.05L9011.26,2642.42L9011.07,2642.79L9010.89,2643.16L9010.71,2643.53L9010.53,2643.9L9010.36,2644.28L9010.18,2644.65L9010.01,2645.03L9009.84,2645.4L9009.68,2645.78L9009.51,2646.16L9009.35,2646.54L9009.19,2646.92L9009.03,2647.31L9008.87,2647.69L9008.72,2648.08L9008.57,2648.46L9008.42,2648.85L9008.27,2649.24L9008.13,2649.63L9007.99,2650.02L9007.85,2650.41L9007.71,2650.81L9007.58,2651.2L9007.44,2651.6L9007.31,2651.99L9007.18,2652.39L9007.06,2652.79L9006.94,2653.19L9006.82,2653.59L9006.7,2653.99L9006.58,2654.39L9006.47,2654.8L9006.36,2655.2L9006.25,2655.61L9006.14,2656.01L9006.04,2656.42L9005.94,2656.83L9005.84,2657.24L9005.74,2657.65L9005.65,2658.06L9005.56,2658.47L9005.47,2658.89L9005.38,2659.3L9005.3,2659.72L9005.22,2660.13L9005.14,2660.55L9005.06,2660.97L9004.99,2661.39L9004.92,2661.81L9004.85,2662.23L9004.78,2662.65L9004.72,2663.07L9004.66,2663.5L9004.6,2663.92L9004.55,2664.34L9004.49,2664.77L9004.44,2665.2L9004.4,2665.62L9004.35,2666.05L9004.31,2666.48L9004.27,2666.91L9004.23,2667.34L9004.2,2667.77L9004.17,2668.2L9004.14,2668.64L9004.11,2669.07L9004.09,2669.5L9004.07,2669.94L9004.05,2670.37L9004.03,2670.81L9004.02,2671.25L9004.01,2671.68L9004.01,2672.12L9004,2672.56L9004,2673L9004,2673.44L9004.01,2673.88L9004.01,2674.32L9004.02,2674.75L9004.03,2675.19L9004.05,2675.63L9004.07,2676.06L9004.09,2676.5L9004.11,2676.93L9004.14,2677.36L9004.17,2677.8L9004.2,2678.23L9004.23,2678.66L9004.27,2679.09L9004.31,2679.52L9004.35,2679.95L9004.4,2680.38L9004.44,2680.8L9004.49,2681.23L9004.55,2681.66L9004.6,2682.08L9004.66,2682.5L9004.72,2682.93L9004.78,2683.35L9004.85,2683.77L9004.92,2684.19L9004.99,2684.61L9005.06,2685.03L9005.14,2685.45L9005.22,2685.87L9005.3,2686.28L9005.38,2686.7L9005.47,2687.11L9005.56,2687.53L9005.65,2687.94L9005.74,2688.35L9005.84,2688.76L9005.94,2689.17L9006.04,2689.58L9006.14,2689.99L9006.25,2690.39L9006.36,2690.8L9006.47,2691.2L9006.58,2691.61L9006.7,2692.01L9006.82,2692.41L9006.94,2692.81L9007.06,2693.21L9007.18,2693.61L9007.31,2694.01L9007.44,2694.4L9007.58,2694.8L9007.71,2695.19L9007.85,2695.59L9007.99,2695.98L9008.13,2696.37L9008.27,2696.76L9008.42,2697.15L9008.57,2697.54L9008.72,2697.92L9008.87,2698.31L9009.03,2698.69L9009.19,2699.08L9009.35,2699.46L9009.51,2699.84L9009.68,2700.22L9009.84,2700.6L9010.01,2700.97L9010.18,2701.35L9010.36,2701.72L9010.53,2702.1L9010.71,2702.47L9010.89,2702.84L9011.07,2703.21L9011.26,2703.58L9011.44,2703.95L9011.63,2704.31L9011.82,2704.68L9012.02,2705.04L9012.21,2705.4L9012.41,2705.76L9012.61,2706.12L9012.81,2706.48L9013.01,2706.84L9013.22,2707.19L9013.43,2707.55L9013.64,2707.9L9013.85,2708.25L9014.07,2708.6L9014.28,2708.95L9014.5,2709.3L9014.72,2709.64L9014.94,2709.98L9015.17,2710.33L9015.39,2710.67L9015.62,2711.01L9015.85,2711.35L9016.08,2711.68L9016.32,2712.02L9016.55,2712.35L9016.79,2712.69L9017.03,2713.02L9017.27,2713.35L9017.52,2713.68L9017.76,2714L9018.01,2714.33L9018.26,2714.65L9018.51,2714.97L9018.76,2715.29L9019.02,2715.61L9019.28,2715.93L9019.54,2716.24L9019.8,2716.56L9020.06,2716.87L9020.32,2717.18L9020.59,2717.49L9020.86,2717.8L9021.13,2718.1L9021.4,2718.41L9021.67,2718.71L9021.95,2719.01L9022.23,2719.31L9022.51,2719.61L9022.79,2719.91L9023.07,2720.2L9023.35,2720.49L9023.64,2720.78L9023.93,2721.07L9024.22,2721.36L9024.51,2721.65L9024.8,2721.93L9025.09,2722.21L9025.39,2722.49L9025.69,2722.77L9025.99,2723.05L9026.29,2723.33L9026.59,2723.6L9026.9,2723.87L9027.2,2724.14L9027.51,2724.41L9027.82,2724.68L9028.13,2724.94L9028.44,2725.2L9028.76,2725.46L9029.07,2725.72L9029.39,2725.98L9029.71,2726.24L9030.03,2726.49L9030.35,2726.74L9030.67,2726.99L9031,2727.24L9031.33,2727.48L9031.65,2727.73L9031.98,2727.97L9032.31,2728.21L9032.65,2728.45L9032.98,2728.68L9033.32,2728.92L9033.65,2729.15L9033.99,2729.38L9034.33,2729.61L9034.67,2729.84L9035.02,2730.06L9035.36,2730.28L9035.7,2730.5L9036.05,2730.72L9036.4,2730.93L9036.75,2731.15L9037.1,2731.36L9037.45,2731.57L9037.81,2731.78L9038.16,2731.99L9038.52,2732.19L9038.88,2732.39L9039.24,2732.59L9039.6,2732.79L9039.96,2732.98L9040.32,2733.18L9040.69,2733.37L9041.05,2733.56L9041.42,2733.74L9041.79,2733.93L9042.16,2734.11L9042.53,2734.29L9042.9,2734.47L9043.28,2734.64L9043.65,2734.82L9044.03,2734.99L9044.4,2735.16L9044.78,2735.33L9045.16,2735.49L9045.54,2735.65L9045.92,2735.81L9046.31,2735.97L9046.69,2736.13L9047.08,2736.28L9047.46,2736.43L9047.85,2736.58L9048.24,2736.73L9048.63,2736.87L9049.02,2737.01L9049.41,2737.15L9049.81,2737.29L9050.2,2737.43L9050.6,2737.56L9050.99,2737.69L9051.39,2737.82L9051.79,2737.94L9052.19,2738.06L9052.59,2738.18L9052.99,2738.3L9053.39,2738.42L9053.8,2738.53L9054.2,2738.64L9054.61,2738.75L9055.01,2738.86L9055.42,2738.96L9055.83,2739.06L9056.24,2739.16L9056.65,2739.26L9057.06,2739.35L9057.48,2739.44L9057.89,2739.53L9058.3,2739.62L9058.72,2739.7L9059.13,2739.78L9059.55,2739.86L9059.97,2739.94L9060.39,2740.01L9060.81,2740.08L9061.23,2740.15L9061.65,2740.22L9062.07,2740.28L9062.5,2740.34L9062.92,2740.4L9063.34,2740.45L9063.77,2740.51L9064.2,2740.56L9064.62,2740.6L9065.05,2740.65L9065.48,2740.69L9065.91,2740.73L9066.34,2740.77L9066.77,2740.8L9067.2,2740.83L9067.64,2740.86L9068.07,2740.89L9068.5,2740.91L9068.94,2740.93L9069.37,2740.95L9069.81,2740.97L9070.25,2740.98L9070.68,2740.99L9071.12,2740.99L9071.56,2741L9072,2741L9072.44,2741L9072.88,2740.99L9073.32,2740.99L9073.75,2740.98L9074.19,2740.97L9074.63,2740.95L9075.06,2740.93L9075.5,2740.91L9075.93,2740.89L9076.36,2740.86L9076.8,2740.83L9077.23,2740.8L9077.66,2740.77L9078.09,2740.73L9078.52,2740.69L9078.95,2740.65L9079.38,2740.6L9079.8,2740.56L9080.23,2740.51L9080.66,2740.45L9081.08,2740.4L9081.5,2740.34L9081.93,2740.28L9082.35,2740.22L9082.77,2740.15L9083.19,2740.08L9083.61,2740.01L9084.03,2739.94L9084.45,2739.86L9084.87,2739.78L9085.28,2739.7L9085.7,2739.62L9086.11,2739.53L9086.52,2739.44L9086.94,2739.35L9087.35,2739.26L9087.76,2739.16L9088.17,2739.06L9088.58,2738.96L9088.99,2738.86L9089.39,2738.75L9089.8,2738.64L9090.2,2738.53L9090.61,2738.42L9091.01,2738.3L9091.41,2738.18L9091.81,2738.06L9092.21,2737.94L9092.61,2737.82L9093.01,2737.69L9093.4,2737.56L9093.8,2737.43L9094.19,2737.29L9094.59,2737.15L9094.98,2737.01L9095.37,2736.87L9095.76,2736.73L9096.15,2736.58L9096.54,2736.43L9096.92,2736.28L9097.31,2736.13L9097.69,2735.97L9098.08,2735.81L9098.46,2735.65L9098.84,2735.49L9099.22,2735.33L9099.6,2735.16L9099.97,2734.99L9100.35,2734.82L9100.72,2734.64L9101.1,2734.47L9101.47,2734.29L9101.84,2734.11L9102.21,2733.93L9102.58,2733.74L9102.95,2733.56L9103.31,2733.37L9103.68,2733.18L9104.04,2732.98L9104.4,2732.79L9104.76,2732.59L9105.12,2732.39L9105.48,2732.19L9105.84,2731.99L9106.19,2731.78L9106.55,2731.57L9106.9,2731.36L9107.25,2731.15L9107.6,2730.93L9107.95,2730.72L9108.3,2730.5L9108.64,2730.28L9108.98,2730.06L9109.33,2729.84L9109.67,2729.61L9110.01,2729.38L9110.35,2729.15L9110.68,2728.92L9111.02,2728.68L9111.35,2728.45L9111.69,2728.21L9112.02,2727.97L9112.35,2727.73L9112.68,2727.48L9113,2727.24L9113.33,2726.99L9113.65,2726.74L9113.97,2726.49L9114.29,2726.24L9114.61,2725.98L9114.93,2725.72L9115.24,2725.46L9115.56,2725.2L9115.87,2724.94L9116.18,2724.68L9116.49,2724.41L9116.8,2724.14L9117.1,2723.87L9117.41,2723.6L9117.71,2723.33L9118.01,2723.05L9118.31,2722.77L9118.61,2722.49L9118.91,2722.21L9119.2,2721.93L9119.49,2721.65L9119.78,2721.36L9120.07,2721.07L9120.36,2720.78L9120.65,2720.49L9120.93,2720.2L9121.21,2719.91L9121.5,2719.61L9121.77,2719.31L9122.05,2719.01L9122.33,2718.71L9122.6,2718.41L9122.87,2718.1L9123.14,2717.8L9123.41,2717.49L9123.68,2717.18L9123.94,2716.87L9124.2,2716.56L9124.46,2716.24L9124.72,2715.93L9124.98,2715.61L9125.24,2715.29L9125.49,2714.97L9125.74,2714.65L9125.99,2714.33L9126.24,2714L9126.48,2713.68L9126.73,2713.35L9126.97,2713.02L9127.21,2712.69L9127.45,2712.35L9127.68,2712.02L9127.92,2711.68L9128.15,2711.35L9128.38,2711.01L9128.61,2710.67L9128.84,2710.33L9129.06,2709.98L9129.28,2709.64L9129.5,2709.3L9129.72,2708.95L9129.93,2708.6L9130.15,2708.25L9130.36,2707.9L9130.57,2707.55L9130.78,2707.19L9130.99,2706.84L9131.19,2706.48L9131.39,2706.12L9131.59,2705.76L9131.79,2705.4L9131.98,2705.04L9132.18,2704.68L9132.37,2704.31L9132.56,2703.95L9132.74,2703.58L9132.93,2703.21L9133.11,2702.84L9133.29,2702.47L9133.47,2702.1L9133.64,2701.72L9133.82,2701.35L9133.99,2700.97L9134.16,2700.6L9134.33,2700.22L9134.49,2699.84L9134.65,2699.46L9134.81,2699.08L9134.97,2698.69L9135.13,2698.31L9135.28,2697.92L9135.43,2697.54L9135.58,2697.15L9135.73,2696.76L9135.87,2696.37L9136.01,2695.98L9136.15,2695.59L9136.29,2695.19L9136.43,2694.8L9136.56,2694.4L9136.69,2694.01L9136.82,2693.61L9136.94,2693.21L9137.06,2692.81L9137.18,2692.41L9137.3,2692.01L9137.42,2691.61L9137.53,2691.2L9137.64,2690.8L9137.75,2690.39L9137.86,2689.99L9137.96,2689.58L9138.06,2689.17L9138.16,2688.76L9138.26,2688.35L9138.35,2687.94L9138.44,2687.53L9138.53,2687.11L9138.62,2686.7L9138.7,2686.28L9138.78,2685.87L9138.86,2685.45L9138.94,2685.03L9139.01,2684.61L9139.08,2684.19L9139.15,2683.77L9139.22,2683.35L9139.28,2682.93L9139.34,2682.5L9139.4,2682.08L9139.45,2681.66L9139.51,2681.23L9139.56,2680.8L9139.6,2680.38L9139.65,2679.95L9139.69,2679.52L9139.73,2679.09L9139.77,2678.66L9139.8,2678.23L9139.83,2677.8L9139.86,2677.36L9139.89,2676.93L9139.91,2676.5L9139.93,2676.06L9139.95,2675.63L9139.97,2675.19L9139.98,2674.75L9139.99,2674.32L9139.99,2673.88L9140,2673.44L9140,2673L9140,2672.56L9139.99,2672.12L9139.99,2671.68L9139.98,2671.25L9139.97,2670.81L9139.95,2670.37L9139.93,2669.94L9139.91,2669.5L9139.89,2669.07L9139.86,2668.64L9139.83,2668.2L9139.8,2667.77L9139.77,2667.34L9139.73,2666.91L9139.69,2666.48L9139.65,2666.05L9139.6,2665.62L9139.56,2665.2L9139.51,2664.77L9139.45,2664.34L9139.4,2663.92L9139.34,2663.5L9139.28,2663.07L9139.22,2662.65L9139.15,2662.23L9139.08,2661.81L9139.01,2661.39L9138.94,2660.97L9138.86,2660.55L9138.78,2660.13L9138.7,2659.72L9138.62,2659.3L9138.53,2658.89L9138.44,2658.47L9138.35,2658.06L9138.26,2657.65L9138.16,2657.24L9138.06,2656.83L9137.96,2656.42L9137.86,2656.01L9137.75,2655.61L9137.64,2655.2L9137.53,2654.8L9137.42,2654.39L9137.3,2653.99L9137.18,2653.59L9137.06,2653.19L9136.94,2652.79L9136.82,2652.39L9136.69,2651.99L9136.56,2651.6L9136.43,2651.2L9136.29,2650.81L9136.15,2650.41L9136.01,2650.02L9135.87,2649.63L9135.73,2649.24L9135.58,2648.85L9135.43,2648.46L9135.28,2648.08L9135.13,2647.69L9134.97,2647.31L9134.81,2646.92L9134.65,2646.54L9134.49,2646.16L9134.33,2645.78L9134.16,2645.4L9133.99,2645.03L9133.82,2644.65L9133.64,2644.28L9133.47,2643.9L9133.29,2643.53L9133.11,2643.16L9132.93,2642.79L9132.74,2642.42L9132.56,2642.05L9132.37,2641.69L9132.18,2641.32L9131.98,2640.96L9131.79,2640.6L9131.59,2640.24L9131.39,2639.88L9131.19,2639.52L9130.99,2639.16L9130.78,2638.81L9130.57,2638.45L9130.36,2638.1L9130.15,2637.75L9129.93,2637.4L9129.72,2637.05L9129.5,2636.7L9129.28,2636.36L9129.06,2636.02L9128.84,2635.67L9128.61,2635.33L9128.38,2634.99L9128.15,2634.65L9127.92,2634.32L9127.68,2633.98L9127.45,2633.65L9127.21,2633.31L9126.97,2632.98L9126.73,2632.65L9126.48,2632.33L9126.24,2632L9125.99,2631.67L9125.74,2631.35L9125.49,2631.03L9125.24,2630.71L9124.98,2630.39L9124.72,2630.07L9124.46,2629.76L9124.2,2629.44L9123.94,2629.13L9123.68,2628.82L9123.41,2628.51L9123.14,2628.2L9122.87,2627.9L9122.6,2627.59L9122.33,2627.29L9122.05,2626.99L9121.77,2626.69L9121.5,2626.39L9121.21,2626.09L9120.93,2625.8L9120.65,2625.51L9120.36,2625.22L9120.07,2624.93L9119.78,2624.64L9119.49,2624.35L9119.2,2624.07L9118.91,2623.79L9118.61,2623.51L9118.31,2623.23L9118.01,2622.95L9117.71,2622.67L9117.41,2622.4L9117.1,2622.13L9116.8,2621.86L9116.49,2621.59L9116.18,2621.32L9115.87,2621.06L9115.56,2620.8L9115.24,2620.54L9114.93,2620.28L9114.61,2620.02L9114.29,2619.76L9113.97,2619.51L9113.65,2619.26L9113.33,2619.01L9113,2618.76L9112.68,2618.52L9112.35,2618.27L9112.02,2618.03L9111.69,2617.79L9111.35,2617.55L9111.02,2617.32L9110.68,2617.08L9110.35,2616.85L9110.01,2616.62L9109.67,2616.39L9109.33,2616.16L9108.98,2615.94L9108.64,2615.72L9108.3,2615.5L9107.95,2615.28L9107.6,2615.07L9107.25,2614.85L9106.9,2614.64L9106.55,2614.43L9106.19,2614.22L9105.84,2614.01L9105.48,2613.81L9105.12,2613.61L9104.76,2613.41L9104.4,2613.21L9104.04,2613.02L9103.68,2612.82L9103.31,2612.63L9102.95,2612.44L9102.58,2612.26L9102.21,2612.07L9101.84,2611.89L9101.47,2611.71L9101.1,2611.53L9100.72,2611.36L9100.35,2611.18L9099.97,2611.01L9099.6,2610.84L9099.22,2610.68L9098.84,2610.51L9098.46,2610.35L9098.08,2610.19L9097.69,2610.03L9097.31,2609.87L9096.92,2609.72L9096.54,2609.57L9096.15,2609.42L9095.76,2609.27L9095.37,2609.13L9094.98,2608.99L9094.59,2608.85L9094.19,2608.71L9093.8,2608.58L9093.4,2608.44L9093.01,2608.31L9092.61,2608.18L9092.21,2608.06L9091.81,2607.94L9091.41,2607.82L9091.01,2607.7L9090.61,2607.58L9090.2,2607.47L9089.8,2607.36L9089.39,2607.25L9088.99,2607.14L9088.58,2607.04L9088.17,2606.94L9087.76,2606.84L9087.35,2606.74L9086.94,2606.65L9086.52,2606.56L9086.11,2606.47L9085.7,2606.38L9085.28,2606.3L9084.87,2606.22L9084.45,2606.14L9084.03,2606.06L9083.61,2605.99L9083.19,2605.92L9082.77,2605.85L9082.35,2605.78L9081.93,2605.72L9081.5,2605.66L9081.08,2605.6L9080.66,2605.55L9080.23,2605.49L9079.8,2605.44L9079.38,2605.4L9078.95,2605.35L9078.52,2605.31L9078.09,2605.27L9077.66,2605.23L9077.23,2605.2L9076.8,2605.17L9076.36,2605.14L9075.93,2605.11L9075.5,2605.09L9075.06,2605.07L9074.63,2605.05L9074.19,2605.03L9073.75,2605.02L9073.32,2605.01L9072.88,2605.01L9072.44,2605L9072,2605L9071.56,2605Z" style="fill:rgb(255,3,2);"/>
                </g>
            </g>
            <g transform="matrix(1.00573,0,0,0.999074,-11975.9,-7756.52)">
                <path d="M13175.1,8198.04C13167.2,8198.04 13160.8,8195.56 13156.1,8190.59C13151.4,8185.62 13149,8179 13149,8170.72C13149,8162.36 13151.4,8155.71 13156.1,8150.79C13160.9,8145.87 13167.3,8143.41 13175.4,8143.41C13183.5,8143.41 13189.9,8145.87 13194.6,8150.79C13199.4,8155.71 13201.8,8162.32 13201.8,8170.62C13201.8,8179.1 13199.4,8185.79 13194.6,8190.69C13189.9,8195.59 13183.3,8198.04 13175.1,8198.04ZM13175.2,8190.87C13179.8,8190.87 13183.5,8189.05 13186.2,8185.4C13188.9,8181.76 13190.3,8176.82 13190.3,8170.58C13190.3,8164.54 13188.9,8159.69 13186.2,8156.03C13183.5,8152.37 13179.9,8150.54 13175.4,8150.54C13170.9,8150.54 13167.3,8152.37 13164.6,8156.03C13161.9,8159.69 13160.5,8164.57 13160.5,8170.69C13160.5,8176.76 13161.9,8181.64 13164.6,8185.33C13167.2,8189.02 13170.8,8190.87 13175.2,8190.87Z" style="fill:rgb(255,3,2);fill-rule:nonzero;"/>
            </g>
        </g>
    </g>
</svg>
