<?xml version="1.0" encoding="UTF-8" standalone="no"?>
<!DOCTYPE svg PUBLIC "-//W3C//DTD SVG 1.1//EN" "http://www.w3.org/Graphics/SVG/1.1/DTD/svg11.dtd">
<svg width="100%" height="100%" viewBox="0 0 120 120" version="1.1" xmlns="http://www.w3.org/2000/svg" xmlns:xlink="http://www.w3.org/1999/xlink" xml:space="preserve" style="fill-rule:evenodd;clip-rule:evenodd;stroke-linejoin:round;stroke-miterlimit:1.41421;">
    <g transform="matrix(1,0,0,1,-9129.42,-1982.96)">
        <g transform="matrix(0.462448,0,0,0.891865,4993.79,53.4773)">
            <rect x="8942.89" y="2163.43" width="259.488" height="134.55" style="fill:none;"/>
        </g>
        <g transform="matrix(0.994303,0,0,1.00093,7921.68,1635.95)">
            <g transform="matrix(0.687426,0,0,0.682877,-4961.33,-1418.7)">
                <g>
                    <circle cx="9072" cy="2673" r="68" style="fill:rgb(255,3,2);"/>
                </g>
            </g>
            <g transform="matrix(1.00573,0,0,0.999074,-11975.9,-7756.52)">
                <path d="M13175.1,8198.04C13167.2,8198.04 13160.8,8195.56 13156.1,8190.59C13151.4,8185.62 13149,8179 13149,8170.72C13149,8162.36 13151.4,8155.71 13156.1,8150.79C13160.9,8145.87 13167.3,8143.41 13175.4,8143.41C13183.5,8143.41 13189.9,8145.87 13194.6,8150.79C13199.4,8155.71 13201.8,8162.32 13201.8,8170.62C13201.8,8179.1 13199.4,8185.79 13194.6,8190.69C13189.9,8195.59 13183.3,8198.04 13175.1,8198.04ZM13175.2,8190.87C13179.8,8190.87 13183.5,8189.05 13186.2,8185.4C13188.9,8181.76 13190.3,8176.82 13190.3,8170.58C13190.3,8164.54 13188.9,8159.69 13186.2,8156.03C13183.5,8152.37 13179.9,8150.54 13175.4,8150.54C13170.9,8150.54 13167.3,8152.37 13164.6,8156.03C13161.9,8159.69 13160.5,8164.57 13160.5,8170.69C13160.5,8176.76 13161.9,8181.64 13164.6,8185.33C13167.2,8189.02 13170.8,8190.87 13175.2,8190.87Z" style="fill:white;fill-rule:nonzero;"/>
            </g>
        </g>
    </g>
</svg>
