<?xml version="1.0" encoding="UTF-8" standalone="no"?>
<!DOCTYPE svg PUBLIC "-//W3C//DTD SVG 1.1//EN" "http://www.w3.org/Graphics/SVG/1.1/DTD/svg11.dtd">
<svg width="100%" height="100%" viewBox="0 0 65 38" version="1.1" xmlns="http://www.w3.org/2000/svg" xmlns:xlink="http://www.w3.org/1999/xlink" xml:space="preserve" style="fill-rule:evenodd;clip-rule:evenodd;stroke-linejoin:round;stroke-miterlimit:1.41421;">
    <g transform="matrix(1,0,0,1,-8951.5,-1837.45)">
        <path d="M8986.1,1841.19C8989.53,1835.54 8993.63,1836.63 8998.16,1842.24C9002.75,1841.69 9006.91,1845.5 9011.03,1849.61C9011.61,1850.11 9012.15,1850.65 9012.64,1851.24L9012.65,1851.24L9012.65,1851.24C9014.74,1853.7 9016,1856.9 9016,1860.38C9016,1868.2 9009.66,1874.55 9001.84,1874.55C8994.82,1874.55 8988.98,1869.42 8987.87,1862.71L8987.87,1862.71C8986.49,1863.42 8985.12,1863.79 8983.75,1863.76C8982.38,1863.79 8981.01,1863.42 8979.63,1862.71L8979.63,1862.71C8978.52,1869.42 8972.68,1874.55 8965.66,1874.55C8957.84,1874.55 8951.5,1868.2 8951.5,1860.38C8951.5,1856.9 8952.76,1853.7 8954.85,1851.24L8954.85,1851.24L8954.85,1851.24C8955.35,1850.65 8955.89,1850.11 8956.47,1849.61C8960.59,1845.5 8964.75,1841.69 8969.34,1842.24C8973.87,1836.63 8977.96,1835.54 8981.4,1841.19C8982.18,1840.83 8982.96,1840.65 8983.75,1840.65C8984.54,1840.65 8985.32,1840.83 8986.1,1841.19ZM8965.66,1851.24C8970.71,1851.24 8974.81,1855.34 8974.81,1860.38C8974.81,1865.43 8970.71,1869.53 8965.66,1869.53C8960.61,1869.53 8956.51,1865.43 8956.51,1860.38C8956.51,1855.34 8960.61,1851.24 8965.66,1851.24ZM9001.84,1851.24C8996.79,1851.24 8992.69,1855.34 8992.69,1860.38C8992.69,1865.43 8996.79,1869.53 9001.84,1869.53C9006.89,1869.53 9010.99,1865.43 9010.99,1860.38C9010.99,1855.34 9006.89,1851.24 9001.84,1851.24ZM8965.46,1852.38C8966.49,1852.4 8967.51,1852.62 8968.47,1853C8968.63,1853.06 8968.79,1853.13 8968.95,1853.21C8969.05,1853.25 8969.14,1853.3 8969.23,1853.36C8969.34,1853.44 8969.44,1853.53 8969.52,1853.64C8969.62,1853.77 8969.69,1853.92 8969.73,1854.08C8969.77,1854.21 8969.78,1854.35 8969.77,1854.49C8969.74,1854.9 8969.49,1855.28 8969.13,1855.49C8969.03,1855.54 8968.92,1855.58 8968.81,1855.61C8968.63,1855.65 8968.44,1855.65 8968.26,1855.61C8968.19,1855.6 8968.13,1855.58 8968.06,1855.55C8967.94,1855.5 8967.83,1855.44 8967.71,1855.39C8967.51,1855.3 8967.3,1855.22 8967.09,1855.16C8966.02,1854.83 8964.84,1854.76 8963.77,1855.15C8963.29,1855.33 8962.84,1855.59 8962.45,1855.91C8962.1,1856.19 8961.8,1856.51 8961.53,1856.85C8961.15,1857.34 8960.81,1857.88 8960.57,1858.45C8960.25,1859.19 8960.08,1859.98 8960.07,1860.78C8960.07,1861.15 8960.1,1861.51 8960.18,1861.87C8960.2,1861.96 8960.22,1862.04 8960.25,1862.13L8960.26,1862.2C8960.27,1862.27 8960.28,1862.34 8960.29,1862.4C8960.29,1862.57 8960.27,1862.73 8960.21,1862.88C8960.16,1863.01 8960.09,1863.13 8960.01,1863.24C8959.93,1863.32 8959.85,1863.4 8959.76,1863.47C8959.43,1863.7 8959.01,1863.76 8958.64,1863.63C8958.49,1863.58 8958.34,1863.5 8958.22,1863.39C8958.1,1863.29 8958,1863.16 8957.93,1863.02C8957.86,1862.89 8957.82,1862.75 8957.79,1862.62C8957.74,1862.42 8957.7,1862.22 8957.67,1862.02C8957.53,1861.15 8957.54,1860.26 8957.69,1859.39C8957.81,1858.73 8958,1858.09 8958.27,1857.47C8958.6,1856.69 8959.05,1855.96 8959.57,1855.3C8959.9,1854.88 8960.27,1854.49 8960.67,1854.14C8961.19,1853.68 8961.77,1853.3 8962.39,1853.02C8962.98,1852.75 8963.59,1852.56 8964.23,1852.47C8964.58,1852.41 8964.93,1852.39 8965.28,1852.38C8965.37,1852.38 8965.37,1852.38 8965.46,1852.38ZM9001.96,1852.38C9002.99,1852.4 9004.01,1852.62 9004.97,1853C9005.13,1853.06 9005.29,1853.13 9005.45,1853.21C9005.54,1853.25 9005.64,1853.3 9005.73,1853.36C9005.84,1853.44 9005.94,1853.53 9006.02,1853.64C9006.12,1853.77 9006.19,1853.92 9006.23,1854.08C9006.26,1854.21 9006.28,1854.35 9006.27,1854.49C9006.26,1854.6 9006.24,1854.71 9006.19,1854.82C9006.05,1855.21 9005.71,1855.51 9005.31,1855.61C9005.12,1855.65 9004.94,1855.65 9004.76,1855.61C9004.69,1855.6 9004.62,1855.58 9004.56,1855.55C9004.44,1855.5 9004.32,1855.44 9004.2,1855.39C9004,1855.3 9003.8,1855.22 9003.59,1855.16C9002.52,1854.83 9001.33,1854.76 9000.27,1855.15C8999.78,1855.33 8999.34,1855.59 8998.94,1855.91C8998.6,1856.19 8998.3,1856.51 8998.03,1856.85C8997.44,1857.6 8996.98,1858.46 8996.75,1859.39C8996.64,1859.82 8996.58,1860.26 8996.57,1860.7C8996.56,1861.18 8996.61,1861.67 8996.75,1862.13L8996.76,1862.2C8996.77,1862.27 8996.78,1862.34 8996.79,1862.4C8996.79,1862.57 8996.76,1862.73 8996.71,1862.88C8996.66,1863.01 8996.59,1863.13 8996.51,1863.24C8996.2,1863.62 8995.68,1863.78 8995.2,1863.65C8995.05,1863.61 8994.9,1863.54 8994.77,1863.44C8994.65,1863.34 8994.54,1863.22 8994.46,1863.08C8994.37,1862.93 8994.33,1862.78 8994.29,1862.62C8994.24,1862.42 8994.19,1862.22 8994.16,1862.02C8994.03,1861.15 8994.04,1860.26 8994.19,1859.39C8994.29,1858.82 8994.45,1858.26 8994.66,1857.72C8995,1856.85 8995.49,1856.04 8996.07,1855.3C8996.4,1854.88 8996.77,1854.49 8997.17,1854.14C8997.63,1853.74 8998.14,1853.39 8998.68,1853.12C8999.29,1852.81 8999.95,1852.6 9000.62,1852.48C9000.92,1852.43 9001.21,1852.4 9001.5,1852.39C9001.65,1852.38 9001.81,1852.38 9001.96,1852.38ZM8983.75,1853.53C8985.6,1853.53 8987.09,1855.03 8987.09,1856.87C8987.09,1858.72 8985.6,1860.22 8983.75,1860.22C8981.9,1860.22 8980.4,1858.72 8980.4,1856.87C8980.4,1855.03 8981.9,1853.53 8983.75,1853.53Z" style="fill:rgb(255,255,255);"/>
    </g>
</svg>
