<?xml version="1.0" encoding="UTF-8" standalone="no"?>
<!DOCTYPE svg PUBLIC "-//W3C//DTD SVG 1.1//EN" "http://www.w3.org/Graphics/SVG/1.1/DTD/svg11.dtd">
<svg width="100%" height="100%" viewBox="0 0 42 56" version="1.1" xmlns="http://www.w3.org/2000/svg" xmlns:xlink="http://www.w3.org/1999/xlink" xml:space="preserve" style="fill-rule:evenodd;clip-rule:evenodd;stroke-linejoin:round;stroke-miterlimit:1.41421;">
    <g transform="matrix(1,0,0,1,-9053.28,-1829.81)">
        <g transform="matrix(0.846799,0,0,0.846799,1391.05,284.569)">
            <path d="M9088.34,1860.61C9086.51,1859.7 9084.51,1859.17 9082.47,1859.04L9080.75,1861.96C9080.11,1862 9079.47,1862.08 9078.84,1862.21L9076.43,1859.83C9074.49,1860.49 9072.7,1861.52 9071.16,1862.87L9072.02,1866.15C9071.59,1866.63 9071.2,1867.14 9070.84,1867.68L9067.45,1867.7C9066.55,1869.54 9066.01,1871.54 9065.88,1873.58L9068.81,1875.29C9068.84,1875.93 9068.93,1876.57 9069.06,1877.2L9066.67,1879.61C9067.33,1881.55 9068.37,1883.35 9069.72,1884.88L9073,1884.03C9073.48,1884.46 9073.99,1884.85 9074.53,1885.2L9074.55,1888.59C9076.38,1889.5 9078.38,1890.03 9080.43,1890.17L9082.14,1887.24C9082.78,1887.2 9083.42,1887.12 9084.05,1886.99L9086.46,1889.37C9088.4,1888.71 9090.19,1887.68 9091.73,1886.33L9090.87,1883.05C9091.3,1882.57 9091.69,1882.06 9092.05,1881.52L9095.44,1881.5C9096.34,1879.66 9096.88,1877.66 9097.01,1875.62L9094.09,1873.91C9094.05,1873.27 9093.97,1872.63 9093.83,1872L9096.22,1869.59C9095.56,1867.65 9094.52,1865.86 9093.17,1864.32L9089.89,1865.17C9089.42,1864.74 9088.9,1864.35 9088.36,1864L9088.34,1860.61ZM9082.86,1869.33C9085.77,1870.11 9087.5,1873.1 9086.72,1876.01C9085.94,1878.92 9082.94,1880.66 9080.03,1879.88C9077.12,1879.1 9075.39,1876.1 9076.17,1873.19C9076.95,1870.28 9079.95,1868.55 9082.86,1869.33ZM9063.44,1879.45L9049.03,1879.45C9049.03,1879.45 9049,1879.26 9049,1879.26L9048.97,1879.08C9048.86,1878.49 9048.77,1877.9 9048.7,1877.3L9048.7,1877.28L9048.7,1877.26L9048.69,1877.21L9048.69,1877.17C9048.68,1877.12 9048.68,1877.07 9048.67,1877.02C9048.67,1877.02 9048.65,1876.83 9048.65,1876.83L9048.65,1876.79L9048.64,1876.76L9048.64,1876.72L9048.63,1876.64L9048.62,1876.55L9048.62,1876.5L9048.62,1876.48C9048.61,1876.4 9048.6,1876.33 9048.6,1876.25L9048.6,1876.24L9048.59,1876.22L9048.58,1876.06L9048.58,1876.02L9048.57,1875.99L9048.57,1875.94L9048.57,1875.87L9048.56,1875.78L9048.56,1875.73L9048.55,1875.7C9048.55,1875.63 9048.54,1875.55 9048.54,1875.48L9048.54,1875.47L9048.53,1875.43L9048.53,1875.29L9048.52,1875.25L9048.52,1875.21L9048.52,1875.16L9048.52,1875.09L9048.51,1875.01L9048.51,1874.95L9048.51,1874.92C9048.5,1874.85 9048.5,1874.78 9048.5,1874.7L9048.5,1874.69L9048.5,1874.65L9048.49,1874.51L9048.49,1874.47L9048.49,1874.43L9048.49,1874.38L9048.48,1874.31L9048.48,1874.23L9048.48,1874.18L9048.48,1874.15L9048.48,1874.11L9048.48,1873.94L9048.48,1873.92L9048.48,1873.89L9048.47,1873.72L9048.47,1873.69L9048.47,1873.66L9048.47,1873.61L9048.47,1873.52L9048.47,1873.45L9048.47,1873.4L9048.47,1873.37L9048.47,1873.32L9048.47,1873.21L9048.47,1873.14L9048.47,1873.12L9048.47,1873.1L9048.47,1872.88C9048.47,1872.82 9048.48,1872.75 9048.48,1872.68L9048.48,1872.66L9048.48,1872.63L9048.48,1872.57L9048.48,1872.47L9048.48,1872.44L9048.48,1872.43C9048.48,1872.37 9048.49,1872.3 9048.49,1872.24L9048.49,1872.22L9048.49,1872.19L9048.49,1872.11L9048.5,1872.03L9048.5,1872L9048.5,1871.99C9048.5,1871.92 9048.5,1871.86 9048.51,1871.79L9048.51,1871.79L9048.51,1871.77L9048.51,1871.64L9048.51,1871.59L9048.51,1871.57L9048.52,1871.55L9048.52,1871.49L9048.53,1871.36L9048.53,1871.35L9048.53,1871.35C9048.53,1871.28 9048.53,1871.22 9048.54,1871.15L9048.54,1871.13L9048.54,1871.11L9048.55,1871.03L9048.55,1870.94L9048.56,1870.92L9048.56,1870.91C9048.56,1870.84 9048.57,1870.77 9048.57,1870.7L9048.57,1870.7L9048.57,1870.69L9048.58,1870.57L9048.59,1870.51L9048.59,1870.49L9048.59,1870.47L9048.59,1870.41L9048.61,1870.28L9048.61,1870.27L9048.61,1870.27C9048.61,1870.2 9048.62,1870.14 9048.63,1870.07L9048.63,1870.06L9048.63,1870.04L9048.64,1869.95L9048.65,1869.87L9048.65,1869.85L9048.65,1869.83C9048.66,1869.7 9048.68,1869.57 9048.69,1869.44L9048.69,1869.42L9048.7,1869.4L9048.71,1869.33L9048.72,1869.23L9048.72,1869.21L9048.72,1869.2C9048.73,1869.14 9048.74,1869.07 9048.75,1869.01L9048.75,1869L9048.75,1868.98L9048.76,1868.87L9048.77,1868.82L9048.77,1868.79L9048.78,1868.77L9048.78,1868.72L9048.8,1868.6L9048.8,1868.58L9048.81,1868.58C9048.81,1868.51 9048.82,1868.45 9048.83,1868.39L9048.84,1868.37L9048.84,1868.34L9048.85,1868.26L9048.86,1868.19L9048.87,1868.16L9048.87,1868.14C9048.89,1868.02 9048.91,1867.88 9048.93,1867.76L9048.93,1867.75L9048.94,1867.71L9048.96,1867.62L9048.97,1867.57L9048.97,1867.54L9048.98,1867.51L9048.99,1867.45L9049,1867.36L9049.01,1867.34L9049.01,1867.32C9049.3,1865.74 9049.71,1864.17 9050.25,1862.65L9050.25,1862.65C9051.92,1857.91 9054.66,1854.03 9058.05,1851.6C9046.06,1843.99 9051.45,1824.81 9066.23,1824.81C9081,1824.81 9086.39,1843.99 9074.4,1851.6C9076.49,1853.1 9078.33,1855.14 9079.83,1857.6L9079.32,1858.47L9077.21,1856.38L9075.25,1857.06C9074.96,1857.17 9074.68,1857.27 9074.4,1857.39C9073.69,1857.68 9073.01,1858.01 9072.34,1858.38C9071.81,1858.68 9071.3,1859 9070.8,1859.35C9070.42,1859.61 9070.06,1859.89 9069.71,1860.17C9069.53,1860.32 9069.53,1860.32 9069.36,1860.47L9067.78,1861.82L9068.54,1864.69L9065.57,1864.71L9064.66,1866.58C9064.5,1866.93 9064.35,1867.27 9064.2,1867.62C9063.95,1868.26 9063.73,1868.91 9063.54,1869.57C9063.35,1870.23 9063.21,1870.89 9063.09,1871.57C9063.03,1871.94 9062.99,1872.32 9062.94,1872.7C9062.92,1872.93 9062.92,1872.93 9062.9,1873.15L9062.75,1875.23L9065.31,1876.72L9063.23,1878.83L9063.44,1879.45Z" style="fill:rgb(255,3,2);"/>
        </g>
    </g>
</svg>
