<?xml version="1.0" encoding="UTF-8" standalone="no"?>
<!DOCTYPE svg PUBLIC "-//W3C//DTD SVG 1.1//EN" "http://www.w3.org/Graphics/SVG/1.1/DTD/svg11.dtd">
<svg width="100%" height="100%" viewBox="0 0 76 46" version="1.1" xmlns="http://www.w3.org/2000/svg" xmlns:xlink="http://www.w3.org/1999/xlink" xml:space="preserve" style="fill-rule:evenodd;clip-rule:evenodd;stroke-linejoin:round;stroke-miterlimit:1.41421;">
    <g transform="matrix(1,0,0,1,-8852.32,-1833.18)">
        <path d="M8927.62,1873.3L8927.62,1874.76C8927.62,1877 8925.8,1878.82 8923.56,1878.82C8910.47,1878.82 8869.47,1878.82 8856.38,1878.82C8854.14,1878.82 8852.32,1877 8852.32,1874.76L8852.32,1873.3L8858.83,1873.3C8858.83,1873.28 8858.83,1873.26 8858.83,1873.24C8858.83,1864.73 8858.83,1846.08 8858.83,1837.57C8858.83,1835.14 8860.79,1833.18 8863.22,1833.18C8874.79,1833.18 8906.07,1833.18 8917.65,1833.18C8920.07,1833.18 8922.04,1835.14 8922.04,1837.57C8922.04,1846.08 8922.04,1864.73 8922.04,1873.24L8922.04,1873.3L8927.62,1873.3ZM8899.73,1875.39L8880.21,1875.39L8880.21,1877.25L8899.73,1877.25L8899.73,1875.39ZM8918.58,1836.47L8862.28,1836.47L8862.28,1872.37L8918.58,1872.37L8918.58,1836.47ZM8896.1,1838.51C8896.2,1838.53 8896.22,1838.53 8896.32,1838.56C8896.5,1838.62 8896.67,1838.72 8896.8,1838.86C8896.87,1838.95 8896.94,1839.04 8896.98,1839.15C8897.16,1839.54 8897.09,1840.01 8896.8,1840.32C8896.73,1840.41 8896.64,1840.48 8896.54,1840.54C8896.41,1840.62 8896.26,1840.66 8896.1,1840.68C8896.07,1840.69 8896.03,1840.69 8895.99,1840.69L8867.01,1840.8L8866.84,1862.45L8866.83,1862.57C8866.82,1862.61 8866.82,1862.64 8866.81,1862.68C8866.78,1862.83 8866.71,1862.97 8866.62,1863.1C8866.56,1863.19 8866.47,1863.27 8866.38,1863.33C8866.03,1863.58 8865.56,1863.6 8865.19,1863.39C8865.09,1863.33 8865,1863.26 8864.93,1863.17C8864.8,1863.03 8864.71,1862.85 8864.68,1862.66C8864.65,1862.57 8864.66,1862.54 8864.65,1862.44L8864.84,1839.7C8864.84,1839.59 8864.85,1839.48 8864.89,1839.37C8865,1839.04 8865.26,1838.78 8865.59,1838.68C8865.7,1838.64 8865.81,1838.63 8865.92,1838.62L8895.98,1838.5C8896.02,1838.51 8896.06,1838.51 8896.1,1838.51Z" style="fill:rgb(255,255,255);"/>
    </g>
</svg>
