<svg xmlns="http://www.w3.org/2000/svg" viewBox="0 0 396.25 945.55"><defs><style>.cls-1{fill:#666;}.cls-2{fill:gray;}.cls-3{fill:#b3b3b3;}.cls-4{fill:#e6e6e6;}.cls-5{fill:#f2f2f2;}.cls-6{fill:#e42313;}.cls-7{fill:#ccc;}.cls-8{fill:#fff;}.cls-9{fill:#333;}.cls-10{fill:none;stroke:#333;stroke-linecap:round;stroke-linejoin:round;stroke-width:6px;}</style></defs><title>Asset 2</title><g id="Layer_2" data-name="Layer 2"><g id="ludzik"><g id="compound_ludzik" data-name="compound ludzik"><path class="cls-1" d="M93.82,842.9c-12.83-14.32-8.59,9.57-8.59,16.76v84.88h97.29c0-32.58,15-76.27,15-76.27l16.22,76.27H311.8s1.27-79.2,1.27-103c-18.23-4.08-64.57-39.41-69.88-64.84-31,1.49-85.15.78-88.06,0,.88,13.59-23.56,41-37.79,48.88C138,853.3,123.67,876.24,93.82,842.9Z"/><path class="cls-2" d="M85.23,765.33c8.27-2.52,51,10.37,54.22,9.85-1.2,6.88-18,26.67-20.27,28.42C109.5,783.05,81.25,775.18,85.23,765.33Z"/><path class="cls-2" d="M260.7,776.61c8,.75,50-8,53.26-11.28,1.75,4.5-.11,50.87-.7,55.83C293.5,821.16,266.5,791.05,260.7,776.61Z"/><path class="cls-3" d="M91,838.72a41.52,41.52,0,0,1-10.73,1.73c-3.39-1.24-4.67-11.49-2.72-16.34.79.06,4.11.12,5,.06"/><path class="cls-4" d="M115.18,378.75c-1.57-9.24-27.26-5.94-30.54,1.4,2.61,9.93,10.14,150.66,8.61,168.6-1,11.81,1,92.8-17.31,109.39-5.82,5.27-11.45,23.47,2.43,23.47,11.18,0,26.75-37,30.48-58.28C112.82,600.74,127,448.3,115.18,378.75Z"/><path class="cls-4" d="M284.2,378.75c1.57-9.24,27.26-5.94,30.54,1.4-2.61,9.93-10.14,150.66-8.61,168.6,1,11.81-1,92.8,17.31,109.39,5.82,5.27,11.45,23.47-2.43,23.47-11.18,0-26.75-37-30.48-58.28C286.57,600.74,272.35,448.3,284.2,378.75Z"/><path class="cls-5" d="M342.93,645.05c-2.66-8.25-5.63-83.61-5.46-94.9,5.25,0,38.62,2.6,50.29-1.4.56,11.81-2.83,90.65-3.44,97.91,6,1.75,8.09,18.35-1.38,21.25,1.28,31.91-2,118.51-7.18,129.89,4.56,17.8-3.25,75.68-22.08,75.68-15.17,0-8.79-23.62-7.07-27.65s-10.64,1.57-9.14-7.79c.59-3.66,2-43,11-41.49C355.9,797.8,351.22,670.8,342.93,645.05Z"/><path class="cls-6" d="M3,543.54C3,521.47-13.5,387.8,83.9,390.11c3.37,22.09,20.6,235-6.73,264.67-4.55-15.67,3.41-100.84-2.67-109C65.5,548.8,21.33,556.2,3,543.54Z"/><path class="cls-6" d="M393.34,543.54c0-22.07,16.5-155.73-80.9-153.43-3.37,22.09-20.6,235,6.73,264.67,4.55-15.67-3.41-100.84,2.67-109C330.83,548.8,375,556.2,393.34,543.54Z"/><path class="cls-7" d="M102.63,65.2c1.59-25.7,2.52-39,49.24-41.64,41-2.33,126.39,14.75,166.88-17.75,42.67,30.08,39.42,115.25-19.5,129.75,2.54,4.43,15.43,8.19,19.93,7.43-50.48,37.58-146.68,31.32-195.29-21.22-14.67-9-13.52,10.69-16.86,12.35s-13.2-10.31-15.17-1.64c-2,8.83,1,45.33,0,53.83-4.69,4.17-17.5,21.32-20.5,14s-24.6-95.34-5.8-121.58C78.85,60.14,86.3,57.2,102.63,65.2Z"/><path class="cls-5" d="M94.79,130.74c-2,20.52-3.52,40.29-4,58.95-13.23,3.72-18.55,21.5,1.95,35.5-4.85,45.33,16.86,85,56.75,103.46,6.49,3,0,33.16-19.23,55.3,9.23,21.19,62.67,57.75,69.42,58.2,9.05-.82,54.47-33.34,65.47-59.87-17-20.47-27.88-51.08-21.4-54.08,44.6-20.6,57.42-63.76,59.94-106.37,9.79,2.13,24.54-27.52.3-31.33-.39-12.61-1.25-24.63-2-35.36-28.55,12-51.57,11.39-95.55,9.21-45.29-2.25-82.65-45.92-89.32-45C109.82,120.3,112.5,144.8,94.79,130.74Z"/><path class="cls-2" d="M122.5,200.27h58.74v31.49c0,8.09-21.2,10-29.37,10s-29.37-3.06-29.37-10Z"/><path class="cls-2" d="M271.33,200.27H212.59v31.49c0,8.09,21.2,10,29.37,10s29.37-3.06,29.37-10Z"/><path class="cls-6" d="M291.93,635.82c8.13,25.94,17.32,43,28.5,46.51-.15,4.5-1.09,68.49,0,77.49-21.57,20.33-176.18,29.24-244.48-2-.22-6.67,0-55.6,0-76.27,43.23-11.71,43.67-159.05,43.23-200.71s-2.31-90.44-2-95.22c7.39-2.24,10.34-5.24,14.15,0,6.64,8.76,49.21,55.89,66.85,56.55,23.71,0,61.45-50.26,68.38-59.46,4.31.34,12.86,2,13.76,3.2C272.17,467.8,280.33,598.8,291.93,635.82Z"/><path class="cls-8" d="M132.16,53.06a2,2,0,0,1-.67-3.89A134.53,134.53,0,0,1,169.16,42a2,2,0,0,1,.23,4,130.63,130.63,0,0,0-36.56,7A2,2,0,0,1,132.16,53.06Z"/><path class="cls-8" d="M267.59,52.16c-12.71,0-26.3-1.51-40.2-3.05-11.4-1.27-23.19-2.57-35-3.15a2,2,0,0,1-1.9-2.09,2,2,0,0,1,2.09-1.9c12,.58,23.83,1.9,35.29,3.17,35,3.89,65.27,7.25,85.83-10.65a2,2,0,1,1,2.63,3C303.24,48.86,286.38,52.16,267.59,52.16Z"/><path class="cls-8" d="M136.87,238.24a2,2,0,0,1-1.78-2.91l17.43-33.92a2,2,0,1,1,3.56,1.83l-17.43,33.92A2,2,0,0,1,136.87,238.24Z"/><path class="cls-8" d="M157.1,226a2,2,0,0,1-1.78-2.91l12.17-23.69a2,2,0,0,1,3.56,1.83l-12.17,23.69A2,2,0,0,1,157.1,226Z"/><path class="cls-8" d="M227.33,238.24a2,2,0,0,1-1.78-2.91L243,201.4a2,2,0,1,1,3.56,1.83l-17.43,33.92A2,2,0,0,1,227.33,238.24Z"/><path class="cls-8" d="M243.77,238.24a2,2,0,0,1-1.78-2.91l8.72-17a2,2,0,0,1,3.56,1.83l-8.72,17A2,2,0,0,1,243.77,238.24Z"/><path class="cls-9" d="M151.87,244.73c-.32,0-32.37-1-32.37-13V200.27a3,3,0,0,1,3-3h58.74a3,3,0,0,1,3,3v31.49C184.24,244.37,155.18,244.73,151.87,244.73ZM125.5,203.27v28.49c0,2.44,13.55,7,26.37,7,13.31,0,26.37-3.45,26.37-7V203.27Z"/><path class="cls-9" d="M242,244.73c-3.31,0-32.37-.36-32.37-13V200.27a3,3,0,0,1,3-3h58.74a3,3,0,0,1,3,3v31.49C274.33,243.77,242.29,244.73,242,244.73Zm-26.37-41.46v28.49c0,3.52,13.06,7,26.37,7,12.82,0,26.37-4.53,26.37-7V203.27Z"/><path class="cls-9" d="M220.82,203.27H181.24a3,3,0,0,1,0-6h39.58a3,3,0,0,1,0,6Z"/><path class="cls-9" d="M198.91,301.6q-1.3,0-2.6-.08c-11-.67-21-5.63-26.67-13.29a3,3,0,1,1,4.82-3.57c4.64,6.25,12.94,10.32,22.21,10.88a36.14,36.14,0,0,0,28.48-11.16,3,3,0,0,1,4.35,4.13A42.06,42.06,0,0,1,198.91,301.6Z"/><path class="cls-8" d="M73.82,121.3a2,2,0,0,1-2-1.7c-2-13-2.85-28.82,8.45-36A2,2,0,1,1,82.44,87c-9.34,5.94-8.45,20.24-6.64,32a2,2,0,0,1-1.67,2.28Z"/><path class="cls-9" d="M75.95,526.82a3,3,0,0,1-3-3V482.67a3,3,0,1,1,6,0v41.15A3,3,0,0,1,75.95,526.82Z"/><path class="cls-8" d="M373.36,461.71a2,2,0,0,1-2-1.61c-6-30.41-24.14-49.29-47.4-49.29a2,2,0,0,1,0-4c25.28,0,44.95,20.13,51.32,52.52a2,2,0,0,1-1.58,2.35A2,2,0,0,1,373.36,461.71Z"/><path class="cls-8" d="M375.5,496.24a2,2,0,0,1-2-1.93L373,479.24a2,2,0,0,1,4-.14l.52,15.07a2,2,0,0,1-1.93,2.07Z"/><path class="cls-8" d="M233.33,447a2,2,0,0,1-.87-3.8c6.52-3.13,15.45-12.88,21.63-21a2,2,0,0,1,3.18,2.43c-3.14,4.1-14.07,17.82-23.08,22.14A2,2,0,0,1,233.33,447Z"/><path class="cls-10" d="M115.5,155.14"/><path class="cls-5" d="M54.46,645.05c2.66-8.25,5.63-83.61,5.46-94.9-5.25,0-38.62,2.6-50.29-1.4-.56,11.81,5,89,5.62,96.3-6,1.75-8.44,17.44,1,20.34C15,697.3,62,771.8,67.28,783.18c5,17,21.11,66.81,43.92,74s14.8-11.56,13.09-15.59S107,811.82,104.87,807.81c7.13,5.74,13.89-.43,12.46-3.85S100,776.48,91,778C83.57,779.22,46.17,670.8,54.46,645.05Z"/><path class="cls-3" d="M110.17,812.14c15.11-11,27.29-26.67,29.29-37,6,.14,14.46-.46,15.67,2.81-2.76,17-19.63,34.4-37.79,46.75"/><path class="cls-3" d="M308.65,838.72a29.11,29.11,0,0,0,8.73,1.73c3.39-1.24,4.67-11.49,2.72-16.34a15.66,15.66,0,0,1-3,.06c-9.5-1.41-47.14-20.12-57-49-6,.14-14.46-.46-15.67,2.81C255.5,814.3,301,835.64,308.65,838.72Z"/><path class="cls-9" d="M317.38,842.45a30.89,30.89,0,0,1-9.36-1.83l-.12,0c-.53-.21-53.18-22-65.3-62a2,2,0,0,1,0-1.28c1.5-4,8.09-4.06,14.47-4.08,1,0,2.07,0,3,0h0a2,2,0,0,1,1.89,1.36c9.58,28.17,47.2,46.45,55.36,47.66a13.44,13.44,0,0,0,2.27-.06l.24,0a2,2,0,0,1,2,1.25c1.62,4,1.37,11-.54,15.34a6.26,6.26,0,0,1-3.34,3.62A2,2,0,0,1,317.38,842.45Zm-8-5.61a29,29,0,0,0,7.54,1.6,4.12,4.12,0,0,0,.87-1.36,20.18,20.18,0,0,0,.89-10.87,10,10,0,0,1-1.8-.06c-11-1.64-47.58-20.93-58.07-49h-1.66c-2.76,0-8.88,0-10.42,1.1C258.62,815.4,307.39,836,309.34,836.84Z"/><path class="cls-9" d="M201,261.59c-2.57,0-5.5-1.1-8.49-3.26a2.5,2.5,0,1,1,2.94-4c3.2,2.32,5.93,2.95,7.31,1.68,1.92-1.78,1.79-7.1-1.76-12.93a2.5,2.5,0,0,1,4.27-2.6c4.6,7.55,5,15.45.88,19.21A7.39,7.39,0,0,1,201,261.59Z"/><path class="cls-9" d="M116.74,189.3a3,3,0,0,1-.27-6l32.76-3a3,3,0,0,1,.55,6l-32.76,3Z"/><path class="cls-9" d="M278.27,189.3H278l-32.76-3a3,3,0,0,1,.55-6l32.76,3a3,3,0,0,1-.27,6Z"/><path class="cls-8" d="M172.65,553.32a12.9,12.9,0,0,1-3.65-.48,8.69,8.69,0,0,1-2.47-1.07l.38-4.44a9.85,9.85,0,0,0,1.19.75,12.45,12.45,0,0,0,3,1.15,6,6,0,0,0,1.4.19,3.24,3.24,0,0,0,1.28-.21,1.77,1.77,0,0,0,.73-.55,1.63,1.63,0,0,0,.31-.75,5.43,5.43,0,0,0,.06-.8,2.16,2.16,0,0,0-.88-1.91,8.92,8.92,0,0,0-2.31-1.07q-1-.33-1.87-.73a6.22,6.22,0,0,1-1.61-1,4.64,4.64,0,0,1-1.15-1.61,6.13,6.13,0,0,1-.44-2.49,9.3,9.3,0,0,1,.29-2.26,5.86,5.86,0,0,1,1-2.16,5.64,5.64,0,0,1,2-1.61,7.25,7.25,0,0,1,3.21-.63,11.52,11.52,0,0,1,1.8.15q.92.15,1.74.36a11.73,11.73,0,0,1,1.49.48,3.67,3.67,0,0,1,1,.57l-.38,4.44a6,6,0,0,0-.9-.8,6.69,6.69,0,0,0-1.28-.73,10.1,10.1,0,0,0-1.51-.52,5.94,5.94,0,0,0-1.51-.21,3.73,3.73,0,0,0-1.91.52,1.89,1.89,0,0,0-.9,1.78,2,2,0,0,0,.36,1.24,2.84,2.84,0,0,0,.92.8,7,7,0,0,0,1.3.54l1.53.48a15.76,15.76,0,0,1,1.91.78,5,5,0,0,1,1.55,1.17,5.68,5.68,0,0,1,1,1.8,7.84,7.84,0,0,1,.4,2.7,10.94,10.94,0,0,1-.21,2.05,4.35,4.35,0,0,1-1,2,5.69,5.69,0,0,1-2.18,1.51A10,10,0,0,1,172.65,553.32Z"/><path class="cls-8" d="M189.77,553.32a8,8,0,0,1-3.79-.88,8.12,8.12,0,0,1-2.75-2.35,10.61,10.61,0,0,1-1.66-3.44,15.74,15.74,0,0,1,0-8.36,10.6,10.6,0,0,1,1.66-3.46,8.13,8.13,0,0,1,2.75-2.35,8,8,0,0,1,3.79-.88,12.61,12.61,0,0,1,1.93.13,8.91,8.91,0,0,1,1.43.34,5.5,5.5,0,0,1,1.11.5l.94.59-.38,4.44a10.17,10.17,0,0,0-2.22-1.28,6.44,6.44,0,0,0-2.43-.44,3.3,3.3,0,0,0-2.93,1.82,10.93,10.93,0,0,0,0,9.52,3.3,3.3,0,0,0,2.93,1.82,6.44,6.44,0,0,0,2.43-.44,10.1,10.1,0,0,0,2.22-1.28l.38,4.44a10.8,10.8,0,0,1-2.08,1.09A9.38,9.38,0,0,1,189.77,553.32Z"/><path class="cls-8" d="M211.37,553.32h-5v-1.64l0,0a5.82,5.82,0,0,1-1.66,1,8.46,8.46,0,0,1-3.16.63,4.6,4.6,0,0,1-1.93-.42,4.77,4.77,0,0,1-1.63-1.24,6.15,6.15,0,0,1-1.13-2,7.76,7.76,0,0,1-.42-2.66,5.62,5.62,0,0,1,1.15-3.65,8.74,8.74,0,0,1,2.75-2.26,12.64,12.64,0,0,1,3.27-1.19,17,17,0,0,1,2.77-.4,4.83,4.83,0,0,0-.69-2.62,2.69,2.69,0,0,0-2.28-.82,7.77,7.77,0,0,0-2.47.38,14.87,14.87,0,0,0-2.6,1.22l-.34-4.23a21.25,21.25,0,0,1,3.52-1.38,12,12,0,0,1,3.27-.46,7.56,7.56,0,0,1,2.66.46,5.19,5.19,0,0,1,2.12,1.47,7.17,7.17,0,0,1,1.38,2.62,13.12,13.12,0,0,1,.5,3.88Zm-5-10.27a6.31,6.31,0,0,0-1.3.29,7,7,0,0,0-1.55.71,4.88,4.88,0,0,0-1.3,1.15,2.53,2.53,0,0,0-.55,1.61,3.06,3.06,0,0,0,.48,1.91,2.17,2.17,0,0,0,1.78.61,2.94,2.94,0,0,0,1-.36,4.37,4.37,0,0,0,1.4-1.15Z"/><path class="cls-8" d="M236.91,553.32h-5v-1.64l0,0a5.82,5.82,0,0,1-1.66,1,8.46,8.46,0,0,1-3.17.63,4.6,4.6,0,0,1-1.93-.42,4.77,4.77,0,0,1-1.63-1.24,6.15,6.15,0,0,1-1.13-2,7.76,7.76,0,0,1-.42-2.66,5.61,5.61,0,0,1,1.15-3.65,8.75,8.75,0,0,1,2.75-2.26,12.64,12.64,0,0,1,3.27-1.19,17,17,0,0,1,2.77-.4,4.84,4.84,0,0,0-.69-2.62,2.69,2.69,0,0,0-2.28-.82,7.78,7.78,0,0,0-2.47.38,14.89,14.89,0,0,0-2.6,1.22l-.34-4.23a21.24,21.24,0,0,1,3.52-1.38,12,12,0,0,1,3.27-.46,7.55,7.55,0,0,1,2.66.46,5.19,5.19,0,0,1,2.12,1.47,7.18,7.18,0,0,1,1.38,2.62,13.12,13.12,0,0,1,.5,3.88Zm-5-10.27a6.31,6.31,0,0,0-1.3.29,7,7,0,0,0-1.55.71,4.89,4.89,0,0,0-1.3,1.15,2.53,2.53,0,0,0-.54,1.61,3.06,3.06,0,0,0,.48,1.91,2.17,2.17,0,0,0,1.78.61,2.94,2.94,0,0,0,1-.36,4.36,4.36,0,0,0,1.4-1.15Z"/><path class="cls-8" d="M219.19,553.32h-5V521.47h5Z"/><path class="cls-8" d="M248,553.32a8,8,0,0,1-3.79-.88,8.12,8.12,0,0,1-2.75-2.35,10.61,10.61,0,0,1-1.66-3.44,15.73,15.73,0,0,1,0-8.36,10.6,10.6,0,0,1,1.66-3.46,8.13,8.13,0,0,1,2.75-2.35,8,8,0,0,1,3.79-.88,12.61,12.61,0,0,1,1.93.13,8.91,8.91,0,0,1,1.43.34,5.51,5.51,0,0,1,1.11.5l.94.59L253,537.6a10.15,10.15,0,0,0-2.22-1.28,6.44,6.44,0,0,0-2.43-.44,3.3,3.3,0,0,0-2.93,1.82,10.93,10.93,0,0,0,0,9.52,3.3,3.3,0,0,0,2.93,1.82,6.44,6.44,0,0,0,2.43-.44,10.08,10.08,0,0,0,2.22-1.28l.38,4.44a10.8,10.8,0,0,1-2.08,1.09A9.37,9.37,0,0,1,248,553.32Z"/><polygon class="cls-8" points="142.45 530.86 159.06 542.49 142.45 554.11 142.45 548.3 150.76 542.49 142.45 536.67 142.45 530.86"/><path class="cls-9" d="M217.52,857.11a3,3,0,0,0-4.12-1c-8,4.86-19.8,8.91-30.09.57a3,3,0,1,0-3.78,4.66,26.63,26.63,0,0,0,15.09,6.05c-.77,3.91-1.73,8.81-2.79,14.24-4.24,21.67-10.66,54.43-12.21,60.13a3,3,0,1,0,5.79,1.58c1.61-5.91,7.79-37.5,12.31-60.56l.4-2,.42,2.15c4.51,23,10.68,54.54,12.29,60.45a3,3,0,1,0,5.79-1.58c-1.55-5.69-8-38.39-12.19-60-1.1-5.64-2.09-10.7-2.88-14.69a42.5,42.5,0,0,0,15-5.81A3,3,0,0,0,217.52,857.11Z"/><path class="cls-9" d="M396.24,482.67c0-27.91-14-74.92-52.65-90-6.77-2.65-15.59-4-28.53-5.35.22-1.44.42-2.58.6-3.37.35-1.58.21-4-2.46-6.37-5.44-4.88-18.92-7.17-26.7-4.52-4.61,1.56-6,4.36-6.43,6.43-.13.72-.28,1.8-.44,3.2-7.31-1.76-12.18-4.09-15.28-7.29C255,365.63,250,344.22,247.6,333.93c-.29-1.23-.54-2.32-.77-3.24A107.89,107.89,0,0,0,305.06,235V224.7c9.26-1.08,14.1-10,14.1-18.73,0-11.66-7-17.47-14.1-18.36V156a75,75,0,0,0,18-12.58,3,3,0,0,0-1.56-5.11c-.59-.11-1.58-.21-3.42-.4q-6.31-.65-10.31-1.3c9.76-3.29,21.55-10.76,31.6-24C360.25,85.07,351.36,33.93,320,.93a3,3,0,0,0-4.77.57c-13.71,23.85-60.47,21.26-105.69,18.75-43.24-2.4-84.09-4.66-101.73,14.21-6.17,6.61-9,15.49-8.52,26.46-10.92-3-20.45-1.42-27.75,4.72C55.05,79.51,52,114.4,62.55,169.37c.52,2.71,1,5.35,1.47,7.86,3.14,17.11,4.88,26.54,10.52,27.69a5.2,5.2,0,0,0,1.34.1c0,.31,0,.62,0,.94,0,8.4,4.44,16.86,12.93,18.53V235a107.91,107.91,0,0,0,60.38,96.78l-.5,2.14c-2.4,10.29-7.38,31.71-16.77,41.43-2.95,3.05-7.42,5.29-14,7-.14-1.25-.28-2.23-.4-2.89-.39-2.07-1.82-4.86-6.43-6.43-7.78-2.64-21.25-.36-26.7,4.52-2.67,2.4-2.81,4.79-2.46,6.37.18.79.37,1.92.59,3.34-12.61,1.35-22.83,2.65-29.82,5.38C14,407.75,0,454.76,0,482.67v60.87a3,3,0,0,0,1.53,2.61,39.71,39.71,0,0,0,5.12,2.36c-1.14,10-1.09,47.75,4,95.39-3,1.79-4.59,5.52-4.25,10.36.38,5.46,3.08,11.37,7.07,13.41,2.95,30.41,21.93,64,37.26,91.08,7,12.44,13.11,23.19,16.22,31.18a67,67,0,0,1,2,8.74c1.1,5.82,2.36,12.41,4.35,16.41,1.25,2.51,2.49,4.87,3.71,7.12a2,2,0,0,0-1.29,1.16c-1.62,4-1.37,11,.54,15.34a6.26,6.26,0,0,0,3.34,3.62,2,2,0,0,0,.69.12h.09l1.23,100.13a3,3,0,0,0,3,3h0a3,3,0,0,0,3-3L86.34,842.22a3,3,0,0,0,0-.35c1-.16,1.92-.34,2.86-.57,11.7,15.32,21.42,19.64,27.08,20.71a17.49,17.49,0,0,0,3.21.31,9.26,9.26,0,0,0,6.24-1.95c8-7.26,2-21.16-6.1-34.78,29.61-20.87,36-39.65,37.32-46.3,13.28,1,26.66,1.52,39,1.66,2.86,0,5.65,0,8.41,0,14.2,0,27.05-.43,38.64-1.18,12.82,39.24,64.37,60.55,64.9,60.76l.12,0c.72.24,1.41.44,2.08.64,0,.09,0,.17,0,.26l-1.27,101a3,3,0,0,0,3,3h0a3,3,0,0,0,3-3l1.26-100.19c.45,0,.9.06,1.32.06a2,2,0,0,0,.69-.12,6.26,6.26,0,0,0,3.34-3.62c1.91-4.29,2.16-11.32.54-15.34a2,2,0,0,0-2-1.25l-.24,0a13.44,13.44,0,0,1-2.27.06c-.36-.05-.81-.15-1.28-.28a3,3,0,0,0,.09-.45c1.29-12.43,2.66-42.41.75-56.14a37.51,37.51,0,0,0,5.2-3.08,3,3,0,0,0,1.24-2.43V683.49c2.43-.54,4.55-2.94,5.79-6.75,2.07-6.31,1.41-16.61-6.36-20.22a3,3,0,0,0,.56-1.74V549.44a43.45,43.45,0,0,0,10.45,3.25c-.83,25.89-.34,74.15,11.32,116.88,5.47,47.23,7.1,93.1,3.72,104.67a95.32,95.32,0,0,0-2.33,10.08c-.76,3.75-1.91,9.41-2.42,10.47-6.74,12.37-7.36,21.42-8,30.16-.19,2.82-.4,5.74-.8,8.76-1.62,12.09,2.49,14.63,5.08,15.07a5.37,5.37,0,0,0,.91.08,5.76,5.76,0,0,0,1.59-.24c-2.29,11.62-2.88,20.27.3,25a7.74,7.74,0,0,0,5.34,3.44,9.8,9.8,0,0,0,1.51.11c6.09,0,23.4-5,32-58.75.71-4.46-.48-12.25-1.63-19.79-.68-4.45-1.38-9-1.26-10.79.41-6.1.94-13.28,1.5-20.87,2-26.78,4.7-63.24,5.15-96.9,3.64-2.09,5.85-7.72,6.24-13.22.41-5.76-1.32-10.14-4.61-12.13,5.22-49.38,3-88.16,2.06-96.21a39.66,39.66,0,0,0,5.12-2.36,3,3,0,0,0,1.53-2.61ZM313.15,206a15.71,15.71,0,0,1-2.7,9.11,8.62,8.62,0,0,1-5.4,3.54v-25C311.38,194.83,313.15,201.72,313.15,206ZM88.78,218.28c-4.73-1.67-6.93-7.15-6.93-12.32,0-4,1.55-10.25,6.93-12Zm0-61.36v30.85a14.45,14.45,0,0,0-9.1,5.74A17.53,17.53,0,0,0,78.13,196a11.33,11.33,0,0,1-2.43,2.86c-2-2.22-4.08-13.55-5.77-22.74-.47-2.53-1-5.18-1.47-7.91-12.55-65.61-3.16-89.5,6.93-98,8.22-6.92,18.79-5,26.2-2.25a3,3,0,0,0,4-3.18c-1.42-11.43.73-20,6.56-26.26,15.72-16.83,57-14.54,97-12.32,45,2.49,91.44,5.07,109-18.39,27.41,31,35,76.54,16.42,101.13-7.48,9.88-21.31,22-35.69,23.58a3,3,0,0,0-1.89,1,4,4,0,0,0-.89,4.19c1.13,2.94,5.24,4.35,17.69,5.79-18.87,14.5-50.18,22-85.58,20.12-41.7-2.16-79.09-17.15-97.56-39.12-5.39-6.41-9.45-9-13.17-8.4-4.29.69-6.07,5.17-7.65,9.12-.94,2.37-2.24,5.61-3.53,6-.29.08-1.43.19-4-1.78-3.46-2.63-6.08-2.25-7.67-1.47C89.27,130.6,88.83,141.14,88.78,156.92Zm6,78.08V222.48a2.79,2.79,0,0,0,0-1.35v-30a2.79,2.79,0,0,0,0-1.35V156.93c0-5.92.08-21.55,2.46-23.55a4.23,4.23,0,0,1,1.45.82c3.47,2.64,6.5,3.55,9.26,2.79,4.16-1.15,5.93-5.6,7.5-9.52.73-1.84,2.1-5.26,3-5.42.08,0,2.08-.25,7.62,6.34,19.81,23.55,57.88,39,101.85,41.25,27,1.41,51.89-2.51,71.12-10.77V235A101.9,101.9,0,0,1,197.27,336.79h-.71A101.9,101.9,0,0,1,94.78,235ZM136.2,379.52C146.74,368.6,152,346.1,154.5,335.28l.22-1a107.2,107.2,0,0,0,41.84,8.45h.71a107.16,107.16,0,0,0,44-9.41l.45,1.92c2.52,10.81,7.76,33.32,18.29,44.23a23.24,23.24,0,0,0,3.06,2.64c-6.27,9.83-18.18,23.73-30.22,35.19-14.33,13.65-26.73,21.79-33.18,21.79h0c-13.18,0-54.37-36.75-66.86-56.75A23.68,23.68,0,0,0,136.2,379.52Zm-49.19,1c3.15-2.82,10.12-4.62,16.2-4.62a20.9,20.9,0,0,1,6.54.91c2.23.76,3.5,1.89,3.78,3.38,1.46,7.81,4.92,67.07,3.17,132-1.54,57.09-7.48,130.78-27,157.6-4.23,5.81-8.94,9.08-14,9.72l-.23,0c-1.07.27-2.48-1.45-3.34-4.08-1.59-4.84-1.23-13.12,4.59-15.51a2,2,0,0,0,.69-.48C94.05,641.88,96.18,571.86,95,516.23c-1.12-54.1-5.54-106.47-8.15-126.28,0-.05,0-.11,0-.16s0-.18-.06-.27c-.4-3-.75-5.18-1-6.49C85.72,382.74,85.52,381.85,87,380.51ZM62.49,552.66a42.93,42.93,0,0,0,10.46-3.29V656.3a3,3,0,0,0,.21,1.07c-6.31,4.18-6.76,13.49-4.83,19.36,1,3.2,2.71,5.4,4.65,6.34,0,.07,0,.15,0,.22v51.4C64.43,711,56.52,680.85,56.13,654.63,60.71,623.16,64.61,589,62.49,552.66ZM6,541.73V482.67c0-14.65,4-32,10.83-46.29,6.17-13,17.76-30.24,38-38.16,6.33-2.48,16.2-3.71,28.43-5C85.88,414.45,90,464.53,91,516.31c1.39,67.5-2.87,114-12.08,133.53V482.67a3,3,0,0,0-6,0v41.15h0v18.53C63.91,550.63,23.43,550.23,6,541.73ZM80.75,838.44a4.12,4.12,0,0,1-.87-1.36A20.17,20.17,0,0,1,79,826.17h.21c2.51,4.36,5,8.21,7.35,11.58A42.63,42.63,0,0,1,80.75,838.44Zm40.94,17.46c-.28.2-2,.8-5.13,0-5.56-1.35-20.37-8.3-37.93-43.53-1.62-3.25-2.84-9.69-3.82-14.85a66.52,66.52,0,0,0-2.28-9.79c-3.26-8.4-9.44-19.32-16.59-32-15.37-27.18-34.5-61-36.67-90.62a3,3,0,0,0-2.86-2.78c-1,0-3.69-3.7-4-8.56-.1-1.38-.09-4.64,2-5a3,3,0,0,0,2.43-3.28c-5-45.83-5.33-83.72-4.38-95.09a121,121,0,0,0,31.1,3.88,111.08,111.08,0,0,0,13-.72c2,35.72-1.85,69.35-6.37,100.41a3,3,0,0,0,0,.47c.44,33.78,12.38,71.87,22.82,96.86v6.45A3,3,0,0,0,74,760.07,30.17,30.17,0,0,0,78.22,763l-.06,0A105.79,105.79,0,0,0,85,775.6l.12.17c1.82,2.32,6.41,5.05,12.23,8.38,1.55.89,3.15,1.8,3.67,2.18,6.31,4.58,9.22,8.62,13.51,18.74-1.69,1.46-3.43,2.88-5.2,4.24-1.59-2.51-3-4.73-3.92-6.54a3,3,0,1,0-5.29,2.82c1.58,3,4,6.71,6.79,11.06C114.93,829.08,128.33,849.88,121.69,855.91ZM86.88,767c12.5,4.75,30.41,8.13,49.87,10.36-2.37,6.51-9,15.27-17.51,23.42-3.85-8.77-7.18-13.88-14.68-19.32-.78-.57-2.22-1.39-4.22-2.53-3.19-1.82-9.08-5.2-10.43-6.81C89,770.79,88,769.06,86.88,767Zm30.64,55.13c-1.84-3-3.73-5.92-5.55-8.75l-.46-.71c2.48-1.9,5-4,7.46-6.21a3,3,0,0,0,.68-.61c9.66-8.82,18.46-19.51,21.18-28,4,.42,8,.8,12.08,1.13C149.63,794.56,133.07,811.07,117.52,822.15Zm201.13,4.06a20.18,20.18,0,0,1-.89,10.87,4.12,4.12,0,0,1-.87,1.36,29,29,0,0,1-7.54-1.6c-1.93-.8-49.65-21-62.22-57.32,4.23-.31,8.3-.66,12.18-1.06,11.1,27.33,46.68,46.06,57.55,47.68A10,10,0,0,0,318.65,826.21Zm-8.28-6.35c-13.18-5.59-37.75-20.64-46.93-41.84,21.58-2.44,37.35-6.14,47.81-10.18C312.61,780.48,311.7,806.29,310.37,819.86Zm7.06-61.63c-16.83,10.83-64.05,17.34-121.42,16.71-56.16-.64-102.67-8.08-117.06-18.62v-73a3,3,0,0,0,0-.36c5.12-1.43,9.82-5,14-10.78,34.75-47.69,29.22-237.92,25.52-283.8a53.33,53.33,0,0,0,9.17-3c12.86,20.74,55.42,59.78,72.08,59.8h0c10.49,0,26.08-12.75,37.32-23.45,12.44-11.84,24.79-26.3,31.28-36.54a55.66,55.66,0,0,0,10.78,3.51c-3.7,46.41-9.13,235.92,25.54,283.5,3.85,5.28,8.14,8.76,12.8,10.4Zm8-82.74c-.86,2.63-2.27,4.35-3.34,4.08l-.23,0-.75-.12-.2,0c-4.69-.91-9.07-4.12-13-9.56-19.54-26.82-25.48-100.51-27-157.6-1.75-65,1.7-124.23,3.17-132,.28-1.48,1.55-2.62,3.78-3.37a20.9,20.9,0,0,1,6.54-.91c6.07,0,13,1.8,16.2,4.62,1.49,1.34,1.29,2.23,1.23,2.53-2.19,9.84-7.95,70.36-9.24,133.19-1.15,55.63,1,125.64,17.63,143.28a2,2,0,0,0,.69.48C326.65,662.38,327,670.65,325.42,675.5Zm57.38-10.58a3,3,0,0,0-2.87,3c-.36,34.05-3.13,71.39-5.16,98.64-.57,7.61-1.1,14.8-1.51,20.92-.16,2.41.49,6.68,1.32,12.09,1,6.42,2.2,14.41,1.63,17.94-8.93,55.78-26.48,53.69-26.66,53.66a1.75,1.75,0,0,1-1.29-.85c-3.36-5,1.1-23.61,4-35.91,1.85-7.7,3.44-14.35,3.63-18.49a3,3,0,0,0,0-.42c.14-.57.27-1.11.37-1.58a3,3,0,0,0-5.86-1.3c-.64,2.87-2.08,8.09-3.48,13.14-1.59,5.77-3.1,11.21-3.7,14.13a4.81,4.81,0,0,1-1.64,2.83c-.34-.7-1-2.84-.27-8.2.43-3.21.64-6.23.84-9.14.58-8.47,1.14-16.48,7.25-27.7.81-1.49,1.55-4.85,3-12.14.76-3.75,1.63-8,2.1-9.26,0-.07,0-.13.07-.2,3.68-12.3,2.17-58.47-3.51-107.39a3,3,0,0,0-.09-.45c-11.41-41.63-12-88.82-11.2-114.59a111.36,111.36,0,0,0,12.81.71,121,121,0,0,0,31.1-3.88c1,10.22,2.8,48.16-2.44,95.9a3,3,0,0,0,2.43,3.28c2.23.42,2.43,4.32,2.44,5.51C386.25,660.37,383.83,664.71,382.8,664.92ZM323.43,542.45v-4.66a3,3,0,0,0-.13-.83V482.67a3,3,0,0,0-6,0v60.87a3,3,0,0,0,.13.84V647.16c-8.4-20.89-12.25-66.26-10.92-130.84,1.07-51.76,5.15-101.82,7.75-123.09h0c12.5,1.33,20.94,2.58,27.1,5,20.24,7.92,31.84,25.12,38,38.16,6.78,14.34,10.83,31.64,10.83,46.29v59.06C372.89,550.19,332.7,550.62,323.43,542.45Z"/><path class="cls-8" d="M239.22,761.71a2,2,0,0,1-.1-4c16.86-.84,29.89-2.47,38.72-4.84a2,2,0,0,1,1,3.86c-9.11,2.45-22.42,4.12-39.56,5Z"/><path class="cls-8" d="M212.11,762.34c-45.29,0-96.08-4.6-112.83-10.32a2,2,0,0,1,1.29-3.79c17,5.82,70.29,10.44,116.42,10.09h0a2,2,0,0,1,0,4Z"/><path class="cls-8" d="M301,924.3a2,2,0,0,1-2-2V907.13a2,2,0,0,1,4,0V922.3A2,2,0,0,1,301,924.3Z"/><path class="cls-8" d="M301,894.13a2,2,0,0,1-2-2V854.8a2,2,0,0,1,4,0v37.33A2,2,0,0,1,301,894.13Z"/></g></g></g></svg>