<svg xmlns="http://www.w3.org/2000/svg" xmlns:xlink="http://www.w3.org/1999/xlink" viewBox="0 0 135.02 150.58"><defs><style>.cls-1{fill:none;}.cls-2{fill:#e6e6e6;}.cls-3{fill:#666;}.cls-4{fill:#e42313;}.cls-5{clip-path:url(#clip-path);}.cls-6{fill:#ccc;}</style><clipPath id="clip-path"><rect class="cls-1" y="27.95" width="136.02" height="124.62"/></clipPath></defs><title>Asset 18</title><g id="Layer_2" data-name="Layer 2"><g id="Layer_9" data-name="Layer 9"><path class="cls-2" d="M68.82,45.61a2.37,2.37,0,0,0-2.36-2.38A24.88,24.88,0,0,0,41.6,68.1a2.38,2.38,0,1,0,4.75,0A20.13,20.13,0,0,1,66.46,48a2.36,2.36,0,0,0,2.36-2.38Zm0,0"/><path class="cls-3" d="M31.63,68.1a36,36,0,0,0,7.62,22.28l.07.09c10.4,14.42,7.81,21.28,7.81,21.29a2.36,2.36,0,0,0,1.15,3.15,2.17,2.17,0,0,0,1,.22,2.37,2.37,0,0,0,2.16-1.37c.43-.9,3.82-9.4-8.38-26.25l-.17-.21A31.32,31.32,0,0,1,36.38,68.1a31.63,31.63,0,1,1,63.26,0,31.34,31.34,0,0,1-6.58,19.31c-12.2,16.86-8.67,25.45-8.23,26.38a2.35,2.35,0,0,0,3.09,1.11,2.4,2.4,0,0,0,1.2-3.11c0-.07-2.75-7.07,7.74-21.55a36,36,0,0,0,7.51-22.15,36.38,36.38,0,1,0-72.76,0Zm0,0"/><path class="cls-3" d="M89.2,124.28v-2a5.84,5.84,0,0,0-5.84-5.83h-32a5.83,5.83,0,0,0-5.83,5.83v2a5.84,5.84,0,0,0,5.83,5.83h32a5.84,5.84,0,0,0,5.83-5.83Zm-38.91,0v-2a1.09,1.09,0,0,1,1.08-1.09h32a1.09,1.09,0,0,1,1.08,1.09v2a1.09,1.09,0,0,1-1.08,1.09h-32a1.09,1.09,0,0,1-1.08-1.09Zm0,0"/><path class="cls-4" d="M55.22,133.71a2.38,2.38,0,0,0-2.37,2.38v6.27a2.37,2.37,0,0,0,1.39,2.16L67,150.36a2.43,2.43,0,0,0,1,.22,2.34,2.34,0,0,0,1-.23l12.83-6.05a2.37,2.37,0,0,0,1.36-2.16v-6.05a2.37,2.37,0,0,0-4.74,0v4.55L68,145.58l-10.4-4.74v-4.75a2.38,2.38,0,0,0-2.38-2.38Zm0,0"/><g class="cls-5"><path class="cls-6" d="M123.31,111a2.37,2.37,0,0,0-.5-3.31L106.7,95.8a2.37,2.37,0,1,0-2.82,3.81L120,111.49a2.33,2.33,0,0,0,1.4.46,2.36,2.36,0,0,0,1.91-1Zm0,0"/><path class="cls-6" d="M29,44.37a2.38,2.38,0,0,0,2.83-3.82L15.31,28.41a2.37,2.37,0,0,0-2.82,3.82Zm0,0"/><path class="cls-6" d="M29.71,95,12.49,107.67A2.38,2.38,0,0,0,13.91,112a2.32,2.32,0,0,0,1.4-.46L32.52,98.8A2.37,2.37,0,0,0,29.71,95Zm0,0"/><path class="cls-6" d="M104.59,39.77A2.38,2.38,0,0,0,106,44.06a2.4,2.4,0,0,0,1.4-.47l15.41-11.36A2.38,2.38,0,0,0,120,28.41Zm0,0"/></g><path class="cls-6" d="M132.64,67.58H114.49a2.38,2.38,0,1,0,0,4.75h18.15a2.38,2.38,0,1,0,0-4.75Zm0,0"/><path class="cls-6" d="M66.45,2.38V20.53a2.38,2.38,0,1,0,4.75,0V2.38a2.38,2.38,0,1,0-4.75,0Zm0,0"/><path class="cls-6" d="M23.48,70a2.37,2.37,0,0,0-2.38-2.38H2.38a2.38,2.38,0,0,0,0,4.75H21.11A2.38,2.38,0,0,0,23.48,70Zm0,0"/></g></g></svg>