<svg xmlns="http://www.w3.org/2000/svg" xmlns:xlink="http://www.w3.org/1999/xlink" viewBox="0 0 167.81 166.26"><defs><style>.cls-1{fill:none;}.cls-2{clip-path:url(#clip-path);}.cls-3{fill:gray;}.cls-4{fill:#666;}.cls-5{fill:#e42313;}</style><clipPath id="clip-path" transform="translate(0 -0.26)"><rect class="cls-1" width="167.74" height="166.93"/></clipPath></defs><title>Asset 19</title><g id="Layer_2" data-name="Layer 2"><g id="Layer_9" data-name="Layer 9"><g class="cls-2"><path class="cls-3" d="M122.51,45.23a26.62,26.62,0,0,0-45.3,19.16,2,2,0,0,0,4.07,0,22.56,22.56,0,0,1,6.48-16,22.25,22.25,0,0,1,15.9-6.71,22.57,22.57,0,0,1,16,6.48,22.24,22.24,0,0,1,6.71,15.9,22.57,22.57,0,0,1-6.48,16A22.24,22.24,0,0,1,104,86.77a2,2,0,1,0,0,4.07,26.64,26.64,0,0,0,18.51-45.6Zm0,0" transform="translate(0 -0.26)"/><path class="cls-4" d="M163.16,75.55l-6.31-2.61a52.86,52.86,0,0,0,0-17.6l6.31-2.61a7.14,7.14,0,0,0,4-4,7.4,7.4,0,0,0,0-5.77l-3.53-8.54a7.48,7.48,0,0,0-4.07-4.07,7.4,7.4,0,0,0-5.76,0L147.5,33a52.88,52.88,0,0,0-12.44-12.44l2.61-6.31a7.53,7.53,0,0,0-4.07-9.83L125.09.85a7.53,7.53,0,0,0-9.83,4.07l-2.61,6.31a52.87,52.87,0,0,0-17.6,0L92.43,4.92A7.48,7.48,0,0,0,88.36.85a7.39,7.39,0,0,0-5.76,0L74.09,4.37A7.48,7.48,0,0,0,70,8.44a7.39,7.39,0,0,0,0,5.76l2.61,6.31A52.85,52.85,0,0,0,60.19,33l-6.31-2.61a7.4,7.4,0,0,0-5.76,0A7.48,7.48,0,0,0,44,34.42l-3.56,8.51a7.53,7.53,0,0,0,4.07,9.83L52.39,56a2,2,0,0,0,1.56-3.73L46.11,49a3.44,3.44,0,0,1-1.87-4.51L47.78,36a3.43,3.43,0,0,1,4.51-1.86l7.83,3.26a2,2,0,0,0,2.48-.75A49.21,49.21,0,0,1,76.22,23,2,2,0,0,0,77,20.55l-3.26-7.83a3.56,3.56,0,0,1,0-2.64A3.36,3.36,0,0,1,75.58,8.2l8.54-3.52a3.56,3.56,0,0,1,2.64,0,3.36,3.36,0,0,1,1.87,1.86l3.26,7.83a2.08,2.08,0,0,0,2.27,1.22,48.65,48.65,0,0,1,19.29,0,2,2,0,0,0,2.27-1.22L119,6.54a3.44,3.44,0,0,1,4.51-1.86L132,8.2a3.44,3.44,0,0,1,1.86,4.51l-3.19,7.76a2,2,0,0,0,.75,2.48,49.21,49.21,0,0,1,13.63,13.63,2,2,0,0,0,2.48.75l7.83-3.26a3.56,3.56,0,0,1,2.65,0,3.35,3.35,0,0,1,1.86,1.86l3.53,8.54a3.56,3.56,0,0,1,0,2.64A3.36,3.36,0,0,1,161.54,49l-7.83,3.26a2.07,2.07,0,0,0-1.22,2.27,49.3,49.3,0,0,1,0,19.29,2,2,0,0,0,1.22,2.27l7.83,3.26a3.44,3.44,0,0,1,1.86,4.51l-3.53,8.51a3.44,3.44,0,0,1-4.51,1.86L147.53,91a2,2,0,0,0-2.48.75,49.2,49.2,0,0,1-13.63,13.63,2,2,0,0,0-.75,2.48l3.26,7.83a3.56,3.56,0,0,1,0,2.64,3.35,3.35,0,0,1-1.86,1.86l-8.55,3.53a3.56,3.56,0,0,1-2.65,0,3.35,3.35,0,0,1-1.86-1.86L115.76,114a2,2,0,0,0-3.73,1.56l3.26,7.83a7.48,7.48,0,0,0,4.07,4.07,7.5,7.5,0,0,0,5.76,0l8.54-3.53a7.48,7.48,0,0,0,4.07-4.07,7.4,7.4,0,0,0,0-5.77l-2.61-6.31a52.86,52.86,0,0,0,12.44-12.44L153.87,98a7.4,7.4,0,0,0,5.77,0,7.48,7.48,0,0,0,4.07-4.07l3.53-8.51a7.53,7.53,0,0,0-4.07-9.83Zm0,0" transform="translate(0 -0.26)"/></g><path class="cls-5" d="M49,98.4a19.06,19.06,0,1,0,19.06,19.06A19.1,19.1,0,0,0,49,98.4Zm0,34.08a15,15,0,1,1,15-15,15,15,0,0,1-15,15Zm0,0" transform="translate(0 -0.26)"/><path class="cls-5" d="M92,108H87.52a38.56,38.56,0,0,0-4.65-11.19l3.19-3.19a6.06,6.06,0,0,0,0-8.54l-4.75-4.75a6.06,6.06,0,0,0-8.54,0l-3.19,3.19A39.48,39.48,0,0,0,58.39,78.9V74.39a6,6,0,0,0-6-6H45.64a6,6,0,0,0-6,6V78.9a38.56,38.56,0,0,0-11.19,4.65l-3.19-3.19a6.06,6.06,0,0,0-8.55,0l-4.75,4.75a6.06,6.06,0,0,0,0,8.54l3.19,3.19A39.49,39.49,0,0,0,10.48,108H6a6,6,0,0,0-6,6v6.71a6.05,6.05,0,0,0,6,6.07h4.51A38.55,38.55,0,0,0,15.19,138L12,141.22a6.06,6.06,0,0,0,0,8.54l4.75,4.75a6.06,6.06,0,0,0,8.54,0l3.19-3.19A39.48,39.48,0,0,0,39.67,156v4.51a6,6,0,0,0,6,6h6.71a6.05,6.05,0,0,0,6-6v-4.54a38.57,38.57,0,0,0,11.19-4.65l3.19,3.19a6.06,6.06,0,0,0,8.54,0l4.75-4.75a6.06,6.06,0,0,0,0-8.54L82.94,138a39.5,39.5,0,0,0,4.65-11.19H92a6,6,0,0,0,6-6v-6.71a6,6,0,0,0-6-6Zm2,12.82a2,2,0,0,1-2,2H85.85a2,2,0,0,0-2,1.63,34.86,34.86,0,0,1-5.29,12.75,2,2,0,0,0,.24,2.58l4.37,4.37a1.92,1.92,0,0,1,.58,1.39,2,2,0,0,1-.58,1.39l-4.75,4.75a2,2,0,0,1-2.78,0l-4.37-4.37a2.05,2.05,0,0,0-2.58-.24,35.12,35.12,0,0,1-12.75,5.29,2,2,0,0,0-1.63,2v6.17a2,2,0,0,1-2,2H45.64a2,2,0,0,1-2-2v-6.17a2,2,0,0,0-1.63-2,34.87,34.87,0,0,1-12.75-5.29,2,2,0,0,0-1.12-.34,2,2,0,0,0-1.42.61l-4.37,4.37a1.92,1.92,0,0,1-1.39.58,2,2,0,0,1-1.39-.58L14.85,147a1.92,1.92,0,0,1-.58-1.39,2,2,0,0,1,.58-1.39l4.37-4.37a2,2,0,0,0,.24-2.58,35.14,35.14,0,0,1-5.29-12.75,2,2,0,0,0-2-1.63H6a2,2,0,0,1-2-2v-6.75h0a2,2,0,0,1,2-2h6.17a2,2,0,0,0,2-1.63,34.89,34.89,0,0,1,5.29-12.75,2,2,0,0,0-.24-2.58l-4.41-4.37a1.91,1.91,0,0,1-.58-1.39,2,2,0,0,1,.58-1.39l4.75-4.75A1.92,1.92,0,0,1,21,82.73a2,2,0,0,1,1.39.58l4.37,4.37a2,2,0,0,0,2.58.24,35.12,35.12,0,0,1,12.75-5.29,2,2,0,0,0,1.63-2V74.46a2,2,0,0,1,2-2h6.71a2,2,0,0,1,2,2v6.21a2,2,0,0,0,1.63,2A34.83,34.83,0,0,1,68.76,88a2,2,0,0,0,2.58-.24l4.37-4.37a2,2,0,0,1,2.78,0l4.75,4.75a1.92,1.92,0,0,1,.58,1.39,2,2,0,0,1-.58,1.39L78.8,95.21a2,2,0,0,0-.24,2.58,35.11,35.11,0,0,1,5.29,12.75,2,2,0,0,0,2,1.63H92a2,2,0,0,1,2,2Zm0,0" transform="translate(0 -0.26)"/></g></g></svg>