<svg xmlns="http://www.w3.org/2000/svg" viewBox="0 0 1031.5 544.98"><defs><style>.cls-1{fill:#4d4d4d;}</style></defs><title>Asset 1</title><g id="Layer_2" data-name="Layer 2"><g id="Layer_1-2" data-name="Layer 1"><g id="take_me_to_scalac_znak" data-name="take me to scalac znak"><g id="gory_3" data-name="gory 3"><polygon class="cls-1" points="250.34 352.01 157.19 208.11 175.21 208.1 0 439.21 157.18 195.48 165.45 182.66 175.2 195.47 278.98 331.89 250.34 352.01"/><polygon class="cls-1" points="651.15 285.96 803.61 80.41 812.68 68.18 820.77 80.39 1031.5 398.59 803.62 92.43 820.78 92.42 679.82 306.04 651.15 285.96"/><path class="cls-1" d="M124.07,545c6.69-11.29,13.53-22.47,20.37-33.66S158.19,489,165.15,477.9s13.93-22.19,20.91-33.28l21.1-33.15,21.26-33c7.09-11,14.28-22,21.41-32.93s14.34-21.91,21.54-32.84,14.37-21.89,21.65-32.76l21.77-32.68,21.91-32.58c7.32-10.85,14.59-21.73,22-32.53l22.1-32.45c7.34-10.83,14.78-21.6,22.21-32.37L425.28,85l44.85-64.44L484.44,0l14.34,20.55,45,64.42L566,117.29c7.42,10.79,14.9,21.53,22.25,32.36l22.13,32.45q11.1,16.2,22,32.52l22,32.58,21.8,32.68c7.29,10.88,14.48,21.83,21.69,32.76s14.45,21.85,21.58,32.84l21.45,32.93,21.3,33,21.13,33.15c7,11.09,14,22.15,20.94,33.28s13.85,22.27,20.73,33.43,13.69,22.38,20.39,33.67c-8.34-10.14-16.53-20.39-24.73-30.63s-16.31-20.54-24.38-30.87-16.12-20.67-24.18-31l-24-31.15L724.28,390l-23.67-31.37c-7.91-10.45-15.71-21-23.54-31.46s-15.68-21-23.43-31.54L630.32,264l-23.17-31.72c-7.72-10.58-15.45-21.14-23.09-31.78l-23-31.85c-7.69-10.6-15.24-21.29-22.86-31.94l-22.82-32L470.09,40.57h28.65L453.5,104.73l-22.78,32c-7.59,10.66-15.17,21.33-22.84,31.93l-22.95,31.87c-7.6,10.64-15.35,21.19-23,31.76L338.79,264l-23.28,31.62c-7.73,10.56-15.59,21-23.39,31.54s-15.61,21-23.5,31.46-15.7,21-23.63,31.37l-23.82,31.29-24,31.15c-8,10.35-16,20.72-24.13,31s-16.16,20.63-24.34,30.85S132.4,534.84,124.07,545Z"/></g></g></g></g></svg>