<svg xmlns="http://www.w3.org/2000/svg" viewBox="0 0 1030.28 517.05"><defs><style>.cls-1{fill:#e42313;}.cls-2{fill:#1d1d1b;}</style></defs><title>Asset 1</title><g id="Layer_2" data-name="Layer 2"><g id="Layer_1-2" data-name="Layer 1"><g id="take_me_to_scalac_znak" data-name="take me to scalac znak"><g id="gory_1" data-name="gory 1"><polygon class="cls-1" points="480.73 175.37 718.62 515.23 841.38 515.23 480.73 0 120.07 515.23 242.83 515.23 480.73 175.37"/><polygon class="cls-1" points="270.36 326.18 166.2 177.37 0 414.8 83.1 414.8 166.2 296.08 229.42 386.41 270.36 326.18"/><polygon class="cls-1" points="807.12 56.23 652.48 277.15 708.27 356.86 807.12 215.63 918.7 375.04 1030.28 375.04 807.12 56.23"/><path class="cls-2" d="M415.47,515a34.3,34.3,0,0,1-9.7-1.28,23.11,23.11,0,0,1-6.58-2.84l1-11.82a26.17,26.17,0,0,0,3.18,2,33.1,33.1,0,0,0,7.92,3.07,16,16,0,0,0,3.73.5,8.61,8.61,0,0,0,3.4-.56,4.69,4.69,0,0,0,2-1.45,4.33,4.33,0,0,0,.84-2,14.44,14.44,0,0,0,.17-2.12,5.73,5.73,0,0,0-2.34-5.07,23.73,23.73,0,0,0-6.11-2.85q-2.57-.89-5-2a16.55,16.55,0,0,1-4.29-2.73,12.33,12.33,0,0,1-3.06-4.29,16.3,16.3,0,0,1-1.17-6.63,24.72,24.72,0,0,1,.78-6,15.6,15.6,0,0,1,2.79-5.74,15,15,0,0,1,5.41-4.29,19.28,19.28,0,0,1,8.53-1.67,30.64,30.64,0,0,1,4.79.39q2.45.39,4.63.95a31.22,31.22,0,0,1,4,1.28,9.75,9.75,0,0,1,2.67,1.51l-1,11.82a15.9,15.9,0,0,0-2.4-2.12,17.79,17.79,0,0,0-3.4-2,26.86,26.86,0,0,0-4-1.39,15.79,15.79,0,0,0-4-.56,9.93,9.93,0,0,0-5.07,1.39,5,5,0,0,0-2.4,4.74,5.38,5.38,0,0,0,1,3.29,7.56,7.56,0,0,0,2.45,2.12,18.59,18.59,0,0,0,3.45,1.45l4.07,1.28a41.9,41.9,0,0,1,5.07,2.06,13.23,13.23,0,0,1,4.12,3.12,15.1,15.1,0,0,1,2.79,4.8,20.86,20.86,0,0,1,1.06,7.19,29.09,29.09,0,0,1-.56,5.46,11.58,11.58,0,0,1-2.57,5.3,15.13,15.13,0,0,1-5.8,4A26.65,26.65,0,0,1,415.47,515Z"/><path class="cls-2" d="M461,515a21.17,21.17,0,0,1-10.09-2.34,21.59,21.59,0,0,1-7.3-6.24,28.22,28.22,0,0,1-4.41-9.14,41.87,41.87,0,0,1,0-22.24,28.2,28.2,0,0,1,4.41-9.2,21.61,21.61,0,0,1,7.33-6.26A21.18,21.18,0,0,1,461,457.2a33.55,33.55,0,0,1,5.13.34,23.71,23.71,0,0,1,3.79.89,14.64,14.64,0,0,1,3,1.34l2.51,1.56-1,11.82a27.05,27.05,0,0,0-5.91-3.4,17.14,17.14,0,0,0-6.46-1.17q-4.91,0-7.8,4.85t-2.9,12.65q0,7.8,2.9,12.65t7.8,4.85a17.13,17.13,0,0,0,6.46-1.17,26.86,26.86,0,0,0,5.91-3.4l1,11.82a28.71,28.71,0,0,1-5.52,2.9A25,25,0,0,1,461,515Z"/><path class="cls-2" d="M518.44,515H505.06v-4.35l-.09.06a15.49,15.49,0,0,1-4.43,2.62,22.5,22.5,0,0,1-8.42,1.67,12.25,12.25,0,0,1-5.13-1.11,12.69,12.69,0,0,1-4.35-3.29,16.36,16.36,0,0,1-3-5.24,20.63,20.63,0,0,1-1.12-7.08,14.93,14.93,0,0,1,3.07-9.7,23.26,23.26,0,0,1,7.3-6,33.62,33.62,0,0,1,8.7-3.18A45.25,45.25,0,0,1,505,478.3q-.22-4.79-1.84-7T497,469.13a20.68,20.68,0,0,0-6.58,1,39.56,39.56,0,0,0-6.91,3.23l-.89-11.26a56.56,56.56,0,0,1,9.36-3.68,31.89,31.89,0,0,1,8.69-1.23,20.1,20.1,0,0,1,7.08,1.23,13.81,13.81,0,0,1,5.63,3.9,19.06,19.06,0,0,1,3.68,7,34.9,34.9,0,0,1,1.34,10.31Zm-13.38-27.31a16.79,16.79,0,0,0-3.46.78,18.49,18.49,0,0,0-4.12,1.89,13,13,0,0,0-3.46,3.07,6.73,6.73,0,0,0-1.45,4.29q0,3.46,1.28,5.07t4.74,1.62a7.83,7.83,0,0,0,2.73-.95,11.61,11.61,0,0,0,3.73-3.07Z"/><path class="cls-2" d="M586.36,515H573v-4.35l-.09.06a15.49,15.49,0,0,1-4.42,2.62A22.51,22.51,0,0,1,560,515a12.24,12.24,0,0,1-5.13-1.11,12.69,12.69,0,0,1-4.35-3.29,16.35,16.35,0,0,1-3-5.24,20.63,20.63,0,0,1-1.11-7.08,14.93,14.93,0,0,1,3.06-9.7,23.27,23.27,0,0,1,7.3-6,33.62,33.62,0,0,1,8.7-3.18,45.32,45.32,0,0,1,7.36-1.06q-.23-4.79-1.84-7t-6.11-2.16a20.7,20.7,0,0,0-6.58,1,39.6,39.6,0,0,0-6.91,3.23l-.89-11.26a56.53,56.53,0,0,1,9.36-3.68,31.88,31.88,0,0,1,8.7-1.23,20.09,20.09,0,0,1,7.08,1.23,13.8,13.8,0,0,1,5.63,3.9,19.08,19.08,0,0,1,3.68,7,34.9,34.9,0,0,1,1.34,10.31ZM573,487.65a16.79,16.79,0,0,0-3.46.78,18.56,18.56,0,0,0-4.13,1.89,13,13,0,0,0-3.46,3.07,6.73,6.73,0,0,0-1.45,4.29q0,3.46,1.28,5.07t4.74,1.62a7.81,7.81,0,0,0,2.73-.95,11.61,11.61,0,0,0,3.73-3.07Z"/><path class="cls-2" d="M539.23,515h-13.3V430.23h13.3Z"/><path class="cls-2" d="M615.82,515a21.18,21.18,0,0,1-10.09-2.34,21.6,21.6,0,0,1-7.3-6.24,28.21,28.21,0,0,1-4.4-9.14A41.83,41.83,0,0,1,594,475a28.18,28.18,0,0,1,4.4-9.2,21.63,21.63,0,0,1,7.3-6.24,21.19,21.19,0,0,1,10.09-2.34,33.55,33.55,0,0,1,5.13.34,23.71,23.71,0,0,1,3.79.89,14.67,14.67,0,0,1,3,1.34l2.51,1.56-1,11.82a27,27,0,0,0-5.91-3.4,17.13,17.13,0,0,0-6.47-1.17q-4.91,0-7.8,4.85t-2.9,12.65q0,7.8,2.9,12.65t7.8,4.85a17.12,17.12,0,0,0,6.47-1.17,26.82,26.82,0,0,0,5.91-3.4l1,11.82a28.71,28.71,0,0,1-5.52,2.9A24.93,24.93,0,0,1,615.82,515Z"/><polygon class="cls-1" points="335.14 455.21 379.31 486.14 335.14 517.05 335.14 501.59 357.23 486.14 335.14 470.67 335.14 455.21"/></g></g></g></g></svg>