<svg xmlns="http://www.w3.org/2000/svg" viewBox="0 0 93.77 229.02">
    <defs>
        <style>.cls-1{fill:#333;}</style>
    </defs>
    <title>recruapp_but_1</title>
    <g id="Layer_6" data-name="Layer 6">
        <path class="cls-1" d="M22.27,109.14c-2.18.09-18.82,1.23-20.33,1.3-.52,3.7,2.18,14.83,4.9,18a152,152,0,0,1,15.88-7C23.39,118.83,22.47,111.12,22.27,109.14Z"/><path class="cls-1" d="M21.58,89.83c-3.3-.16-17.45-1.51-20.53-.68C0,90.88-.64,98.68,1,102.94c6-1.23,17.35-1.87,20.64-2.19C22.29,98.19,21.78,91.81,21.58,89.83Z"/><path class="cls-1" d="M21.49,84.25c1.15-2.37,1.91-8.74,2.11-10.72-3.2-.81-16.81-4.93-20-4.72C2.22,70.3.06,77.82.82,82.32,7,82.31,18.2,83.92,21.49,84.25Z"/><path class="cls-1" d="M24.68,67.65c.46-4,.72-8.67,1.33-10.57-3-1.47-13.87-8-17.73-9.53C6.62,48.71,2.81,57.81,3.93,61.94,10,63.23,21.54,66.64,24.68,67.65Z"/><path class="cls-1" d="M28.88,50c.48-4,1.93-6.81,2.47-8.71-2.3-1.37-11.09-11.11-14.1-12.56C15.9,29.91,12,36.87,12.73,40.94,17.7,43.12,26.43,49.06,28.88,50Z"/><path class="cls-1" d="M58.38,115.26c1.83,1.06,10.94,10.52,13.21,12.78,3.44-2.35,8.9-12.42,9.36-16.13-1.43-.45-17.18-5.8-19.25-6.44A80.53,80.53,0,0,0,58.38,115.26Z"/><path class="cls-1" d="M75.85,167.47c.95-4.06-.66-10.17-2.82-13.22-2,.41-14,3.41-15.92,4.34a31.43,31.43,0,0,1,1.83,9.29C61,167.43,72.65,167.33,75.85,167.47Z"/><path class="cls-1" d="M60,174.53a44,44,0,0,1,.11,8.65c2.59.4,15.21-.27,18.82-.22.56-2.5.58-8.39-.82-11.44C75.82,172,62.19,173.54,60,174.53Z"/><path class="cls-1" d="M60.16,188.88c.31,2.12-.65,5.86-.89,8.92,2.59.4,14.49,6,17.57,7.8.56-2.5,3-13.9,1.55-17C76.13,189.12,63.53,187.94,60.16,188.88Z"/><path class="cls-1" d="M12.15,156.22c-2,3.16-3.24,9.36-2.06,13.36,3.19-.32,14.81-.89,16.9-.56a31.43,31.43,0,0,1,1.3-9.38C26.28,158.82,14.16,156.51,12.15,156.22Z"/><path class="cls-1" d="M28.06,184.09a44,44,0,0,1-.94-8.6c-2.35-.71-16.06-.59-18.35-.78-1,3.2-.27,9.05.59,11.46C12.93,185.68,25.54,184.8,28.06,184.09Z"/><path class="cls-1" d="M27.54,189.39c-3.45-.59-15.86,1.88-18.15,1.65-1.08,3.18,2.48,14.28,3.29,16.7,2.87-2.14,14.14-8.91,16.67-9.57C28.8,195.15,27.46,191.53,27.54,189.39Z"/><path class="cls-1" d="M65.78,89.07c-.7,1.86-2.14,6-2.16,8.68,3.08,1.15,14.14,5.72,19.64,8.45,2.67-3.7,3.75-12.47,3.18-14.4C83.7,90.2,69,89.76,65.78,89.07Z"/><path class="cls-1" d="M69.68,71.86c-.32,2-1.34,7.17-.84,9.76,3.25.52,14.47,1.83,20.41,3.41,1.89-4.15,3.08-12.07,2.14-13.85C88.38,70.16,73,71.9,69.68,71.86Z"/><path class="cls-1" d="M70,64.77c3.29-.18,15.32-.52,21.46-.23,2.14-3.69.82-13.46-.48-15-4.12.53-16.47,2.41-19.69,3.08C71.42,54.6,70.62,60.82,70,64.77Z"/><path class="cls-1" d="M72.05,46.74c2.61-.26,11.78-2.56,17.13-3.4,1.79-3.74-1-12.79-2-14.3C83.95,29.67,72,36.21,69.38,37,69.41,38.93,71.66,43,72.05,46.74Z"/><path class="cls-1" d="M34.4,34.71c1-1.3,8.9-9.63,11.09-10.48s6,3.63,7.25,3.53S60,24.81,61.63,25s4.49,3.86,6,5.49c1.8-1,14.31-7.08,17.07-8.6C72.58,2,47.56-15.42,22.17,22,24.3,24.24,32.88,33.34,34.4,34.71Z"/><path class="cls-1" d="M40.45,104.94c.17-1.23.1-6.47.09-8.08-.89.16-10.81,2.95-12.55,3.42.16,2.16,1.15,11.22,1.69,13.19C30.7,112.69,38.62,106.63,40.45,104.94Z"/><path class="cls-1" d="M28.52,95.44c1-.79,11.93-6.14,13.76-7.82.17-1.23.88-6.19.86-7.8-.89.16-12.54,1.95-14.28,2.42C29,84.4,28,93.46,28.52,95.44Z"/><path class="cls-1" d="M30.79,78.6c1-.79,10.41-3.53,13.15-4.92.17-1.23,1.48-9.09,1.47-10.7-.89.16-12.17,3.31-13.91,3.78C31.67,68.93,30.64,76.28,30.79,78.6Z"/><path class="cls-1" d="M34.45,61.71c.9-.66,9.26-2.62,11.78-3.48.17-1,1.28-8.28,1.29-9.6-.78.14-10.87,2.33-12.4,2.74C35.24,53.15,34.35,59.81,34.45,61.71Z"/><path class="cls-1" d="M50.46,31.87c-.78.14-8.77,2.39-10.3,2.81.11,1.77-2.25,8.68-2.61,10.86.9-.66,9-3,11.48-3.84C49.19,40.68,50.44,33.19,50.46,31.87Z"/><path class="cls-1" d="M44.25,103.65c2.1,1.67,8.84,8.49,9.71,9.54,1-1.78,3.43-9,4.1-11-1.68-1-11.28-6.46-12.17-6.87C45.5,96.85,44.35,102.4,44.25,103.65Z"/><path class="cls-1" d="M61.75,84.51C60.18,83.63,49.32,79.4,48.5,79c0,2-.88,9.18-1,10.42,2.23,1.62,10.83,6.33,11.62,7.34C60.11,95,61.06,86.56,61.75,84.51Z"/><path class="cls-1" d="M50.06,63.69c-.41,1.55-.7,7.59-.84,8.82,2.32,2,10.75,7,11.55,8,.72-2.21,1.16-7.69,1.85-9.74C61.05,69.89,50.88,64.07,50.06,63.69Z"/><path class="cls-1" d="M62.46,52.91c-1.38-.78-8.49-6.14-9.22-6.48-.31,1.28-1.77,10.16-1.85,11.18,2.24,1.44,11.31,6.63,12,7.49C64,63.29,62.83,54.93,62.46,52.91Z"/><path class="cls-1" d="M63,35c-1.38-.78-7.84-3.51-8.56-3.84-.31,1.28-.93,8.85-1,9.88,2.24,1.44,9.47,5.68,10.18,6.54C63.81,45.41,62.48,36.73,63,35Z"/><path class="cls-1" d="M54,163.22a81.67,81.67,0,0,0-8.72-.59c.34,1.26,1.14,5.15,1.25,5.86.71-.21,7.34,1.72,8.66,2.2A41.57,41.57,0,0,0,54,163.22Z"/><path class="cls-1" d="M54.58,174.5c-.94-1-5.38-2.48-8.11-2.7a64.47,64.47,0,0,1-.4,7.29c.71-.21,7.46,2.74,8.78,3.23C54.85,181.38,55.11,175.8,54.58,174.5Z"/><path class="cls-1" d="M53.65,187.7A30.79,30.79,0,0,0,46,184.43a34,34,0,0,1-1,5.89,60.75,60.75,0,0,1,8.5,3.81C53.49,193.19,54.17,189,53.65,187.7Z"/><path class="cls-1" d="M33,171.67c1.26-.63,7.64-3.26,8.37-3.13,0-.72.41-4.67.61-6a81.63,81.63,0,0,0-8.61,1.53A41.53,41.53,0,0,0,33,171.67Z"/><path class="cls-1" d="M41.87,179.42a64.42,64.42,0,0,1,.37-7.29c-2.74-.06-7.31,1-8.35,1.83-.66,1.24-1,6.81-1.09,7.74C34.16,181.36,41.19,179.14,41.87,179.42Z"/><path class="cls-1" d="M41.82,190.71a34,34,0,0,1-.4-6,30.79,30.79,0,0,0-8,2.49c-.65,1.24-.38,5.48-.47,6.41A60.73,60.73,0,0,1,41.82,190.71Z"/><path class="cls-1" d="M52.4,198.83a33.06,33.06,0,0,0-8-3.55,94.25,94.25,0,0,0-9.8,3.49c1.4,1.1,6.51,3.15,8,3.18C44.36,202,52.92,200.13,52.4,198.83Z"/><path class="cls-1" d="M30.2,201c-2.88,2.95-13.3,12.08-14.67,14.3,9.32,14.82,38.39,23.29,61.08-4.51-2.5-1.23-14.3-7.67-17.49-8.9C48.06,208.62,35,206.26,30.2,201Z"/>
    </g>
</svg>