<svg xmlns="http://www.w3.org/2000/svg" viewBox="0 0 93.77 229.02"><defs><style>.cls-1{fill:#333;}</style></defs><title>recruapp_but_2</title><g id="Layer_6" data-name="Layer 6"><path class="cls-1" d="M71.51,109.14c2.18.09,18.82,1.23,20.33,1.3.52,3.7-2.18,14.83-4.9,18a152,152,0,0,0-15.88-7C70.39,118.83,71.31,111.12,71.51,109.14Z"/><path class="cls-1" d="M72.19,89.83c3.3-.16,17.45-1.51,20.53-.68,1.05,1.73,1.69,9.53.05,13.79-6-1.23-17.35-1.87-20.64-2.19C71.48,98.19,72,91.81,72.19,89.83Z"/><path class="cls-1" d="M72.29,84.25c-1.15-2.37-1.91-8.74-2.11-10.72,3.2-.81,16.81-4.93,20-4.72,1.38,1.49,3.54,9,2.78,13.51C86.79,82.31,75.57,83.92,72.29,84.25Z"/><path class="cls-1" d="M69.1,67.65c-.46-4-.72-8.67-1.33-10.57,3-1.47,13.87-8,17.73-9.53,1.66,1.16,5.47,10.26,4.34,14.39C83.82,63.23,72.24,66.64,69.1,67.65Z"/><path class="cls-1" d="M64.89,50c-.48-4-1.93-6.81-2.47-8.71,2.3-1.37,11.09-11.11,14.1-12.56,1.35,1.21,5.29,8.17,4.52,12.24C76.07,43.12,67.35,49.06,64.89,50Z"/><path class="cls-1" d="M35.4,115.26c-1.83,1.06-10.94,10.52-13.21,12.78-3.44-2.35-8.9-12.42-9.36-16.13,1.43-.45,17.18-5.8,19.25-6.44A80.53,80.53,0,0,1,35.4,115.26Z"/><path class="cls-1" d="M17.92,167.47c-.95-4.06.66-10.17,2.82-13.22,2,.41,14,3.41,15.92,4.34a31.43,31.43,0,0,0-1.83,9.29C32.76,167.43,21.12,167.33,17.92,167.47Z"/><path class="cls-1" d="M33.82,174.53a44,44,0,0,0-.11,8.65c-2.59.4-15.21-.27-18.82-.22-.56-2.5-.58-8.39.82-11.44C18,172,31.58,173.54,33.82,174.53Z"/><path class="cls-1" d="M33.62,188.88c-.31,2.12.65,5.86.89,8.92-2.59.4-14.49,6-17.57,7.8-.56-2.5-3-13.9-1.55-17C17.64,189.12,30.24,187.94,33.62,188.88Z"/><path class="cls-1" d="M81.62,156.22c2,3.16,3.24,9.36,2.06,13.36-3.19-.32-14.81-.89-16.9-.56a31.43,31.43,0,0,0-1.3-9.38C67.49,158.82,79.61,156.51,81.62,156.22Z"/><path class="cls-1" d="M65.72,184.09a44,44,0,0,0,.94-8.6c2.35-.71,16.06-.59,18.35-.78,1,3.2.27,9.05-.59,11.46C80.85,185.68,68.24,184.8,65.72,184.09Z"/><path class="cls-1" d="M66.23,189.39c3.45-.59,15.86,1.88,18.15,1.65,1.08,3.18-2.48,14.28-3.29,16.7-2.87-2.14-14.14-8.91-16.67-9.57C65,195.15,66.32,191.53,66.23,189.39Z"/><path class="cls-1" d="M28,89.07c.7,1.86,2.14,6,2.16,8.68C27.07,98.9,16,103.47,10.51,106.2c-2.67-3.7-3.75-12.47-3.18-14.4C10.08,90.2,24.77,89.76,28,89.07Z"/><path class="cls-1" d="M24.1,71.86c.32,2,1.33,7.17.84,9.76-3.25.52-14.47,1.83-20.41,3.41C2.63,80.88,1.44,73,2.38,71.17,5.4,70.16,20.8,71.9,24.1,71.86Z"/><path class="cls-1" d="M23.73,64.77c-3.29-.18-15.32-.52-21.46-.23-2.14-3.69-.82-13.46.48-15,4.12.53,16.47,2.41,19.69,3.08C22.35,54.6,23.15,60.82,23.73,64.77Z"/><path class="cls-1" d="M21.72,46.74c-2.61-.26-11.78-2.56-17.13-3.4-1.79-3.74,1-12.79,2-14.3,3.28.63,15.27,7.18,17.84,7.91C24.36,38.93,22.12,43,21.72,46.74Z"/><path class="cls-1" d="M59.37,34.71c-1-1.3-8.9-9.63-11.09-10.48s-6,3.63-7.25,3.53S33.74,24.81,32.14,25s-4.49,3.86-6,5.49c-1.8-1-14.31-7.08-17.07-8.6C21.19,2,46.21-15.42,71.61,22,69.48,24.24,60.89,33.34,59.37,34.71Z"/><path class="cls-1" d="M53.32,104.94c-.17-1.23-.1-6.47-.09-8.08.89.16,10.81,2.95,12.55,3.42-.16,2.16-1.15,11.22-1.69,13.19C63.08,112.69,55.15,106.63,53.32,104.94Z"/><path class="cls-1" d="M65.26,95.44c-1-.79-11.93-6.14-13.76-7.82-.17-1.23-.88-6.19-.86-7.8.89.16,12.54,1.95,14.28,2.42C64.75,84.4,65.8,93.46,65.26,95.44Z"/><path class="cls-1" d="M63,78.6c-1-.79-10.41-3.53-13.15-4.92-.17-1.23-1.48-9.09-1.47-10.7.89.16,12.17,3.31,13.91,3.78C62.1,68.93,63.14,76.28,63,78.6Z"/><path class="cls-1" d="M59.32,61.71c-.9-.66-9.26-2.62-11.78-3.48-.17-1-1.28-8.28-1.29-9.6.78.14,10.87,2.33,12.4,2.74C58.53,53.15,59.42,59.81,59.32,61.71Z"/><path class="cls-1" d="M43.32,31.87c.78.14,8.77,2.39,10.3,2.81-.11,1.77,2.25,8.68,2.61,10.86-.9-.66-9-3-11.48-3.84C44.58,40.68,43.33,33.19,43.32,31.87Z"/><path class="cls-1" d="M49.53,103.65c-2.1,1.67-8.84,8.49-9.71,9.54-1-1.78-3.43-9-4.1-11,1.68-1,11.28-6.46,12.17-6.87C48.28,96.85,49.43,102.4,49.53,103.65Z"/><path class="cls-1" d="M32,84.51c1.57-.88,12.43-5.11,13.25-5.48,0,2,.88,9.18,1,10.42-2.23,1.62-10.83,6.33-11.62,7.34C33.67,95,32.71,86.56,32,84.51Z"/><path class="cls-1" d="M43.71,63.69c.41,1.55.7,7.59.84,8.82-2.32,2-10.75,7-11.55,8-.72-2.21-1.16-7.69-1.85-9.74C32.72,69.89,42.89,64.07,43.71,63.69Z"/><path class="cls-1" d="M31.32,52.91c1.38-.78,8.49-6.14,9.22-6.48.31,1.28,1.77,10.16,1.85,11.18-2.24,1.44-11.31,6.63-12,7.49C29.8,63.29,30.95,54.93,31.32,52.91Z"/><path class="cls-1" d="M30.76,35c1.38-.78,7.84-3.51,8.56-3.84.31,1.28.93,8.85,1,9.88-2.24,1.44-9.47,5.68-10.18,6.54C30,45.41,31.3,36.73,30.76,35Z"/><path class="cls-1" d="M39.81,163.22a81.67,81.67,0,0,1,8.72-.59c-.34,1.26-1.14,5.15-1.25,5.86-.71-.21-7.34,1.72-8.66,2.2A41.57,41.57,0,0,1,39.81,163.22Z"/><path class="cls-1" d="M39.19,174.5c.94-1,5.38-2.48,8.11-2.7a64.47,64.47,0,0,0,.4,7.29c-.71-.21-7.46,2.74-8.78,3.23C38.93,181.38,38.67,175.8,39.19,174.5Z"/><path class="cls-1" d="M40.12,187.7a30.79,30.79,0,0,1,7.68-3.26,34,34,0,0,0,1,5.89,60.75,60.75,0,0,0-8.5,3.81C40.29,193.19,39.6,189,40.12,187.7Z"/><path class="cls-1" d="M60.8,171.67c-1.26-.63-7.64-3.26-8.37-3.13,0-.72-.41-4.67-.61-6a81.63,81.63,0,0,1,8.61,1.53A41.53,41.53,0,0,1,60.8,171.67Z"/><path class="cls-1" d="M51.9,179.42a64.42,64.42,0,0,0-.37-7.29c2.74-.06,7.31,1,8.35,1.83.66,1.24,1,6.81,1.09,7.74C59.61,181.36,52.58,179.14,51.9,179.42Z"/><path class="cls-1" d="M52,190.71a34,34,0,0,0,.4-6,30.79,30.79,0,0,1,8,2.49c.65,1.24.38,5.48.47,6.41A60.73,60.73,0,0,0,52,190.71Z"/><path class="cls-1" d="M41.37,198.83a33.06,33.06,0,0,1,8-3.55,94.25,94.25,0,0,1,9.8,3.49c-1.4,1.1-6.51,3.15-8,3.18C49.41,202,40.85,200.13,41.37,198.83Z"/><path class="cls-1" d="M63.57,201c2.88,2.95,13.3,12.08,14.67,14.3-9.32,14.82-38.39,23.29-61.08-4.51,2.5-1.23,14.3-7.67,17.49-8.9C45.72,208.62,58.76,206.26,63.57,201Z"/></g></svg>