<?xml version="1.0" encoding="utf-8"?>
<!-- Generator: Adobe Illustrator 18.1.1, SVG Export Plug-In . SVG Version: 6.00 Build 0)  -->
<svg version="1.1" id="Warstwa_1" xmlns="http://www.w3.org/2000/svg" xmlns:xlink="http://www.w3.org/1999/xlink" x="0px" y="0px"
	 viewBox="0 101 1024 795.3" enable-background="new 0 101 1024 795.3" xml:space="preserve">
<polygon fill="#C01C1C" points="0,896.3 276.2,896.3 512,542.6 747.8,896.3 1024,896.3 512,127.7 "/>
<g id="Layer_2">
	<g>
		<path d="M544.2,143.8c-0.8-1-1.3-2.1-1.7-3.1c-0.4-1-0.6-1.9-0.6-2.5l3.7-2.2c0,0.4,0,0.9,0.1,1.4c0.1,0.5,0.2,1,0.3,1.5
			c0.1,0.5,0.3,1,0.5,1.5c0.2,0.5,0.4,0.9,0.6,1.2c0.3,0.4,0.6,0.7,0.9,0.9s0.6,0.3,0.8,0.3c0.3,0,0.5-0.1,0.8-0.2
			c0.2-0.1,0.5-0.2,0.7-0.4c0.7-0.5,1-1.1,1-1.8c0-0.7-0.2-1.5-0.5-2.4c-0.2-0.6-0.3-1.2-0.5-1.9c-0.1-0.6-0.2-1.2-0.1-1.8
			c0.1-0.6,0.3-1.2,0.6-1.8c0.3-0.6,0.9-1.2,1.7-1.8c0.6-0.4,1.2-0.8,1.9-1.1c0.7-0.3,1.5-0.4,2.3-0.4c0.8,0,1.6,0.2,2.4,0.7
			s1.6,1.1,2.3,2.1c0.3,0.5,0.6,0.9,0.9,1.5s0.5,1.1,0.7,1.6c0.2,0.5,0.4,1,0.5,1.4c0.1,0.4,0.2,0.8,0.1,1.1l-3.7,2.2
			c0.1-0.3,0.1-0.7,0.1-1.2c0-0.4-0.1-0.9-0.2-1.4s-0.3-1-0.4-1.5c-0.2-0.5-0.4-0.9-0.7-1.3c-0.4-0.5-0.9-0.9-1.5-1.2
			c-0.6-0.3-1.2-0.2-1.9,0.3c-0.4,0.3-0.6,0.6-0.7,1c-0.1,0.4-0.2,0.8-0.1,1.2c0,0.4,0.2,0.9,0.3,1.3c0.2,0.5,0.3,1,0.5,1.5
			c0.2,0.6,0.4,1.3,0.5,1.9c0.1,0.6,0.1,1.2,0,1.9c-0.1,0.6-0.4,1.2-0.8,1.8c-0.4,0.6-1,1.2-1.9,1.8c-0.5,0.4-1.1,0.7-1.7,1
			c-0.7,0.3-1.4,0.4-2.1,0.4c-0.7,0-1.6-0.3-2.4-0.8C546,146,545.1,145.1,544.2,143.8z"/>
		<path d="M553.9,157.1c-0.8-1.1-1.3-2.3-1.5-3.4c-0.2-1.2-0.1-2.3,0.3-3.5c0.3-1.1,0.9-2.2,1.7-3.2c0.8-1,1.8-2,2.9-2.8
			c1.1-0.8,2.3-1.5,3.6-1.9c1.2-0.5,2.5-0.7,3.6-0.7c1.2,0,2.3,0.3,3.4,0.8c1.1,0.5,2,1.3,2.8,2.4c0.4,0.6,0.8,1.1,1,1.6
			c0.2,0.5,0.4,0.9,0.5,1.3c0.1,0.4,0.2,0.8,0.2,1.1c0,0.4,0.1,0.7,0.1,1.1l-3.7,2.2c0-0.9-0.1-1.7-0.3-2.4c-0.2-0.7-0.5-1.5-1-2.1
			c-0.7-1-1.7-1.4-3.1-1.2c-1.4,0.1-2.8,0.7-4.3,1.9c-1.5,1.1-2.5,2.3-3.1,3.5c-0.5,1.3-0.5,2.3,0.2,3.3c0.5,0.7,1.1,1.2,1.7,1.6
			c0.6,0.4,1.4,0.7,2.2,1l-3.2,2.8c-0.7-0.2-1.3-0.6-2-1C555.5,159,554.7,158.3,553.9,157.1z"/>
		<path d="M566.9,175l-1.3-1.7c-0.4-0.6-0.7-1.3-0.7-2.1c-0.1-0.8,0.1-1.6,0.5-2.2c-0.9,0-1.8-0.3-2.8-0.9c-0.9-0.6-1.7-1.3-2.3-2.1
			c-0.4-0.5-0.6-1.1-0.8-1.7c-0.1-0.6-0.1-1.3,0-2c0.2-0.7,0.4-1.4,0.9-2c0.4-0.6,1-1.3,1.8-1.8c1.1-0.8,2.3-1.2,3.5-1.2
			c1.2,0,2.3,0.4,3.3,0.9c1,0.5,2,1.1,2.8,1.9c0.8,0.7,1.4,1.4,1.9,1.9c0.9-0.7,1.4-1.4,1.7-2c0.2-0.6,0-1.4-0.7-2.2
			c-0.5-0.7-1.1-1.3-1.7-1.7c-0.6-0.5-1.4-0.9-2.4-1.3l3.1-2.7c1.2,0.6,2.2,1.3,3.1,1.9c0.9,0.7,1.6,1.4,2.2,2.3
			c0.5,0.7,0.9,1.5,1.1,2.3c0.2,0.8,0.3,1.6,0.1,2.5c-0.2,0.8-0.6,1.7-1.3,2.6c-0.6,0.9-1.6,1.7-2.7,2.6l-4.4,3.2
			c-0.6,0.4-1.1,0.8-1.4,1.1c-0.3,0.3-0.5,0.5-0.7,0.7c-0.1,0.2-0.1,0.4-0.1,0.6c0.1,0.2,0.2,0.3,0.3,0.5l0.4,0.5L566.9,175z
			 M571.1,163.9c-0.2-0.3-0.5-0.5-1-0.8c-0.4-0.3-0.9-0.6-1.4-0.8c-0.5-0.2-1.1-0.3-1.6-0.4c-0.6,0-1.1,0.2-1.6,0.5
			c-0.7,0.5-1.1,1-1.2,1.5c-0.1,0.5,0,1.1,0.5,1.7c0.1,0.2,0.4,0.4,0.9,0.6c0.5,0.2,1,0.4,1.7,0.4L571.1,163.9L571.1,163.9z"/>
		<path d="M571.6,181.3l-1.1-1.5c-0.4-0.6-0.7-1.2-0.8-1.8c-0.1-0.6-0.1-1.2,0.1-1.8c0.2-0.6,0.5-1.1,0.9-1.7c0.4-0.5,0.9-1,1.5-1.4
			l20.5-15l2.8,3.9l-18.8,13.7c-0.6,0.5-1.2,0.9-1.5,1.2c-0.3,0.3-0.5,0.6-0.6,0.8c-0.1,0.2-0.1,0.4,0,0.7c0.1,0.2,0.3,0.4,0.5,0.7
			L571.6,181.3z"/>
		<path d="M581.8,195.3l-1.3-1.7c-0.4-0.6-0.7-1.3-0.7-2.1c-0.1-0.8,0.1-1.6,0.5-2.2c-0.9,0-1.8-0.3-2.8-0.9
			c-0.9-0.6-1.7-1.3-2.3-2.1c-0.4-0.5-0.6-1.1-0.8-1.7c-0.1-0.6-0.1-1.3,0-2c0.2-0.7,0.4-1.4,0.9-2c0.4-0.6,1-1.3,1.8-1.8
			c1.1-0.8,2.3-1.2,3.5-1.2c1.2,0,2.3,0.4,3.3,0.9c1,0.5,2,1.1,2.8,1.9s1.4,1.4,1.9,1.9c0.9-0.7,1.4-1.4,1.7-2
			c0.2-0.6,0-1.4-0.7-2.2c-0.5-0.7-1.1-1.3-1.7-1.7c-0.6-0.5-1.4-0.9-2.4-1.3l3.1-2.7c1.2,0.6,2.2,1.3,3.1,1.9
			c0.9,0.7,1.6,1.4,2.2,2.3c0.5,0.7,0.9,1.5,1.1,2.3c0.2,0.8,0.3,1.6,0.1,2.5c-0.2,0.8-0.6,1.7-1.3,2.6c-0.6,0.9-1.6,1.7-2.7,2.6
			l-4.4,3.2c-0.6,0.4-1.1,0.8-1.4,1.1c-0.3,0.3-0.5,0.5-0.7,0.7c-0.1,0.2-0.1,0.4-0.1,0.6c0.1,0.2,0.2,0.3,0.3,0.5l0.4,0.5
			L581.8,195.3z M585.9,184.2c-0.2-0.3-0.5-0.5-1-0.8c-0.4-0.3-0.9-0.6-1.4-0.8c-0.5-0.2-1.1-0.3-1.6-0.4c-0.6,0-1.1,0.2-1.6,0.5
			c-0.7,0.5-1.1,1-1.2,1.5s0,1.1,0.5,1.7c0.1,0.2,0.4,0.4,0.9,0.6c0.5,0.2,1,0.4,1.7,0.4L585.9,184.2L585.9,184.2z"/>
		<path d="M587.1,202.5c-0.8-1.1-1.3-2.3-1.5-3.4c-0.2-1.2-0.1-2.3,0.3-3.5c0.3-1.1,0.9-2.2,1.7-3.2c0.8-1,1.8-2,2.9-2.8
			c1.1-0.8,2.3-1.5,3.6-1.9c1.2-0.5,2.5-0.7,3.6-0.7c1.2,0,2.3,0.3,3.4,0.8c1.1,0.5,2,1.3,2.8,2.4c0.4,0.6,0.8,1.1,1,1.6
			c0.2,0.5,0.4,0.9,0.5,1.3c0.1,0.4,0.2,0.8,0.2,1.1c0,0.4,0.1,0.7,0.1,1.1l-3.7,2.2c0-0.9-0.1-1.7-0.3-2.4c-0.2-0.7-0.5-1.5-1-2.1
			c-0.7-1-1.7-1.4-3.1-1.2c-1.4,0.1-2.8,0.7-4.3,1.9c-1.5,1.1-2.5,2.3-3.1,3.5c-0.5,1.3-0.5,2.3,0.2,3.3c0.5,0.7,1.1,1.2,1.7,1.6
			c0.6,0.4,1.4,0.7,2.2,1l-3.2,2.8c-0.7-0.2-1.3-0.6-2-1C588.6,204.4,587.9,203.7,587.1,202.5z"/>
	</g>
</g>
<g id="Layer_4">
	<polygon fill="#FF0000" points="542.2,105.6 537.6,108.9 538,117.6 529.8,114.6 525.3,117.9 543,124.4 	"/>
</g>
</svg>
