<?xml version="1.0" encoding="UTF-8" standalone="no"?>
<!DOCTYPE svg PUBLIC "-//W3C//DTD SVG 1.1//EN" "http://www.w3.org/Graphics/SVG/1.1/DTD/svg11.dtd">
<svg width="100%" height="100%" viewBox="0 0 654 1080" version="1.1" xmlns="http://www.w3.org/2000/svg" xmlns:xlink="http://www.w3.org/1999/xlink" xml:space="preserve" style="fill-rule:evenodd;clip-rule:evenodd;stroke-linecap:square;stroke-linejoin:round;stroke-miterlimit:1.5;">
    <g transform="matrix(1,0,0,1,-6766.9,-5947.31)">
        <g transform="matrix(0.994303,0,0,1.00093,5729.36,5950.32)">
            <g transform="matrix(1.00573,0,0,0.999074,-5762.19,-5944.81)">
                <path d="M7420.9,6317.03L7112.72,6317.03C7112.72,6317.03 7170.56,6308.89 7188.72,6300.05C7206.88,6291.22 7208.96,6260.43 7246.72,6264.52C7258.18,6265.77 7268.13,6268.95 7276.41,6272.79C7282.98,6275.85 7290.54,6275.93 7297.17,6273.03C7303.8,6270.12 7308.86,6264.5 7311.05,6257.6C7317.9,6236.34 7333.47,6213.96 7368.72,6215.93C7398.84,6217.62 7412.05,6231.04 7420.9,6244.75L7420.9,6317.03Z" style="fill:white;"/>
            </g>
            <g transform="matrix(1.00573,0,0,0.999074,-5762.19,-5944.81)">
                <path d="M6766.9,6347.96C6769.27,6347.25 6771.87,6346.6 6774.72,6346.01C6793.88,6342.02 6810.02,6347.62 6821.88,6354.81C6832.17,6361.03 6844.94,6361.53 6855.68,6356.14C6862.24,6352.92 6872.31,6350.49 6887.72,6350.26C6911.69,6349.91 6927.97,6365.09 6936.28,6375.45C6941.29,6381.72 6948.3,6386.08 6956.14,6387.8C6972.42,6391.37 6997.72,6396.92 6997.72,6396.92L6766.9,6396.92L6766.9,6347.96Z" style="fill:white;"/>
            </g>
            <g transform="matrix(1.00573,0,0,0.999074,-5211.15,-1536.35)">
                <rect x="6219" y="1534.78" width="654" height="1080" style="fill:rgb(217,217,217);fill-opacity:0;"/>
                <g transform="matrix(1.81343,0,0,1.81343,2092.82,-1940.84)">
                    <path d="M2508.13,2115.85L2549.03,2115.6L2533.04,2126.58L2549.03,2136.89L2515.13,2137.23L2515.13,2158.63L2508.13,2158.63L2508.13,2115.85Z" style="fill:rgb(255,0,0);stroke:white;stroke-width:2.48px;"/>
                </g>
            </g>
            <g transform="matrix(1.00573,0,0,0.999074,-5762.19,-5944.81)">
                <path d="M6766.9,6519.66C6767.28,6519.83 6767.68,6519.96 6768.09,6520.07C6768.49,6520.18 6768.89,6520.25 6769.31,6520.29C6769.48,6520.31 6769.65,6520.32 6769.82,6520.32C6771.34,6520.36 6772.83,6519.91 6774.21,6519.31C6775.43,6518.78 6776.59,6518.13 6777.72,6517.44C6778.88,6516.73 6780.01,6515.98 6781.14,6515.22C6782.18,6514.52 6783.22,6513.81 6784.27,6513.11C6784.58,6512.89 6784.9,6512.68 6785.22,6512.47C6785.54,6512.26 6785.87,6512.04 6786.2,6511.83C6786.65,6511.54 6787.1,6511.24 6787.58,6510.99C6788.4,6510.54 6789.27,6510.18 6790.17,6509.9C6791.61,6509.45 6793.11,6509.2 6794.62,6509.11C6796.6,6508.98 6798.59,6509.1 6800.57,6509.35C6803.16,6509.67 6805.72,6510.22 6808.27,6510.82C6810.83,6511.44 6813.38,6512.13 6815.93,6512.8C6816.58,6512.97 6817.23,6513.14 6817.88,6513.3C6820.52,6513.96 6823.17,6514.59 6825.86,6514.95C6826.83,6515.09 6827.81,6515.18 6828.8,6515.21C6829.66,6515.24 6830.53,6515.21 6831.39,6515.1C6831.82,6515.04 6832.24,6514.96 6832.66,6514.85C6832.8,6514.81 6832.94,6514.76 6833.09,6514.72C6833.25,6514.67 6833.42,6514.62 6833.59,6514.57C6833.82,6514.5 6834.05,6514.44 6834.29,6514.38C6835.82,6513.98 6837.38,6513.66 6838.95,6513.4C6840.61,6513.13 6842.27,6512.9 6843.94,6512.72C6848.62,6512.21 6853.33,6511.99 6858.03,6511.98C6858.4,6511.98 6858.76,6511.98 6859.12,6511.98C6861.48,6512 6863.84,6512.08 6866.2,6512.23C6867.96,6512.34 6869.71,6512.5 6871.46,6512.71C6873.37,6512.93 6875.27,6513.23 6877.15,6513.61C6878.95,6513.98 6880.73,6514.43 6882.47,6515.03C6883.92,6515.54 6885.35,6516.14 6886.67,6516.93C6887.73,6517.55 6888.72,6518.28 6889.57,6519.16C6889.95,6519.57 6890.31,6520 6890.62,6520.46C6890.7,6520.58 6890.78,6520.7 6890.86,6520.83C6890.95,6520.98 6891.04,6521.14 6891.14,6521.29C6891.21,6521.4 6891.29,6521.52 6891.36,6521.63C6891.74,6522.16 6892.16,6522.64 6892.64,6523.07C6893.47,6523.81 6894.45,6524.35 6895.49,6524.73C6896.57,6525.11 6897.7,6525.32 6898.83,6525.4C6899.18,6525.43 6899.52,6525.45 6899.87,6525.45C6900.31,6525.45 6900.75,6525.44 6901.19,6525.42C6901.88,6525.38 6902.57,6525.3 6903.25,6525.17L6903.35,6525.16L6903.38,6525.15L6975.89,6493.34L6995.33,6486.61L6996.4,6486.39C6997.3,6486.34 6998.19,6486.29 6999.08,6486.24C6999.88,6486.19 7000.67,6486.14 7001.47,6486.08C7008.68,6485.61 7015.89,6485.07 7023.08,6484.42C7028.17,6483.96 7033.24,6483.45 7038.31,6482.84C7041.79,6482.41 7045.26,6481.94 7048.71,6481.35C7049.73,6481.18 7050.74,6480.99 7051.75,6480.79C7052.44,6480.65 7053.14,6480.52 7053.81,6480.31C7054.75,6480.02 7055.65,6479.62 7056.52,6479.16C7057.88,6478.43 7059.16,6477.55 7060.39,6476.6C7061.83,6475.49 7063.19,6474.28 7064.5,6473.02C7066.17,6471.41 7067.76,6469.73 7069.31,6468.02C7071.04,6466.11 7072.72,6464.16 7074.39,6462.19C7076.08,6460.19 7077.77,6458.18 7079.46,6456.17C7080.75,6454.66 7082.04,6453.16 7083.36,6451.68C7084.81,6450.05 7086.29,6448.45 7087.83,6446.92C7089.27,6445.49 7090.77,6444.11 7092.36,6442.85C7093.65,6441.83 7095.01,6440.9 7096.46,6440.11C7097.44,6439.58 7098.46,6439.12 7099.52,6438.78C7100.17,6438.57 7100.83,6438.4 7101.5,6438.29C7101.7,6438.26 7101.9,6438.23 7102.1,6438.2C7102.3,6438.18 7102.5,6438.15 7102.71,6438.13C7102.83,6438.11 7102.95,6438.09 7103.07,6438.07C7103.77,6437.95 7104.45,6437.78 7105.11,6437.56C7106.47,6437.1 7107.75,6436.42 7108.93,6435.61C7110.6,6434.48 7112.07,6433.08 7113.41,6431.58C7113.88,6431.04 7114.34,6430.48 7114.78,6429.91C7115.32,6429.22 7115.84,6428.51 7116.33,6427.78C7117,6426.79 7117.63,6425.77 7118.22,6424.72C7118.72,6423.83 7119.19,6422.92 7119.64,6422C7119.97,6421.32 7120.28,6420.63 7120.56,6419.93L7120.58,6419.89C7120.82,6419.49 7121.01,6419.04 7121.32,6418.69C7122.18,6417.73 7122.61,6417.77 7123.79,6417.4L7156.6,6413.38L7158.85,6408.21L7171.93,6396.3L7185.15,6385.55L7204.02,6388.36L7206.46,6395.94L7206.8,6395.95C7207.27,6396.17 7207.79,6396.29 7208.21,6396.59C7208.63,6396.89 7208.92,6397.34 7209.27,6397.72C7209.28,6397.74 7209.29,6397.76 7209.3,6397.77C7209.33,6397.82 7209.36,6397.87 7209.39,6397.92C7209.41,6397.95 7209.54,6398.15 7209.55,6398.16C7209.67,6398.34 7209.79,6398.53 7209.91,6398.7C7211.19,6400.57 7212.59,6402.34 7214.08,6404.03C7214.98,6405.04 7215.91,6406.02 7216.88,6406.97C7217.6,6407.68 7218.35,6408.36 7219.12,6409.03C7219.75,6409.57 7220.38,6410.09 7221.03,6410.59C7224.18,6413.01 7227.67,6415.04 7231.48,6416.23C7232.13,6416.44 7232.79,6416.62 7233.46,6416.77C7234.5,6417.01 7235.56,6417.18 7236.62,6417.28C7237.23,6417.34 7237.83,6417.37 7238.44,6417.4C7238.91,6417.42 7238.91,6417.42 7239.38,6417.44C7240.43,6417.51 7241.49,6417.59 7242.54,6417.7C7246.04,6418.06 7249.52,6418.69 7252.91,6419.65C7255.43,6420.37 7257.89,6421.27 7260.26,6422.38C7261.99,6423.2 7263.68,6424.14 7265.27,6425.22C7265.81,6425.59 7266.34,6425.97 7266.85,6426.38C7267.24,6426.69 7267.63,6427.01 7267.99,6427.36L7268.03,6427.39C7268.31,6427.8 7268.61,6428.19 7268.88,6428.6C7268.96,6428.73 7269.01,6428.89 7269.07,6429.03C7269.26,6429.44 7269.45,6429.85 7269.64,6430.26C7270.03,6431.11 7270.43,6431.97 7270.82,6432.82C7274.16,6439.94 7277.62,6447.01 7281.2,6454.02C7283.93,6459.37 7286.75,6464.68 7289.66,6469.93C7291.7,6473.6 7293.78,6477.23 7295.94,6480.83C7297.41,6483.27 7298.91,6485.7 7300.46,6488.09C7301.19,6489.22 7301.93,6490.35 7302.7,6491.46C7303.58,6492.75 7304.51,6494.01 7305.47,6495.25C7310.11,6501.21 7315.64,6506.53 7322.04,6510.56C7324.58,6512.16 7327.25,6513.54 7330.05,6514.64C7331.02,6515.02 7332.02,6515.36 7333.03,6515.66C7333.64,6515.84 7334.27,6516.01 7334.9,6516.12L7334.94,6516.13C7335.38,6516.29 7335.87,6516.37 7336.28,6516.61C7336.69,6516.85 7337.06,6517.17 7337.36,6517.54C7337.97,6518.29 7338.29,6519.23 7338.25,6520.2C7338.22,6520.96 7338.02,6521.37 7337.77,6521.97C7337.67,6522.22 7337.56,6522.48 7337.46,6522.74C7337.31,6523.11 7337.16,6523.49 7337.01,6523.87C7335.52,6527.66 7334.18,6531.52 7333.06,6535.44C7332.61,6537.03 7332.19,6538.62 7331.84,6540.24C7331.51,6541.74 7331.24,6543.25 7331.06,6544.78C7330.94,6545.76 7330.86,6546.75 7330.86,6547.73C7330.86,6548.49 7330.9,6549.25 7331.04,6549.99C7331.11,6550.4 7331.21,6550.81 7331.39,6551.18C7331.43,6551.26 7331.48,6551.35 7331.53,6551.43C7331.58,6551.49 7331.63,6551.56 7331.69,6551.59C7331.79,6551.65 7331.91,6551.67 7332.03,6551.68C7332.26,6551.71 7332.5,6551.7 7332.74,6551.69C7333.27,6551.66 7333.8,6551.61 7334.33,6551.55C7336.82,6551.26 7339.27,6550.67 7341.66,6549.92C7344.2,6549.12 7346.68,6548.14 7349.1,6547.04C7351.53,6545.94 7353.91,6544.72 7356.24,6543.4C7357.07,6542.93 7357.9,6542.45 7358.72,6541.95C7359.48,6541.49 7360.23,6541.02 7360.97,6540.52L7361.01,6540.49L7362.53,6539.88L7364.16,6539.93L7365.64,6540.64L7387.6,6557.49L7415.19,6539.34C7415.46,6539.19 7415.52,6539.14 7415.8,6539.04C7416.02,6538.97 7416.24,6538.92 7416.47,6538.9C7416.58,6538.9 7416.69,6538.9 7416.81,6538.9C7416.92,6538.92 7417.03,6538.93 7417.15,6538.94C7417.26,6538.97 7417.37,6538.99 7417.47,6539.03C7417.69,6539.1 7417.9,6539.19 7418.09,6539.32C7418.18,6539.38 7418.27,6539.44 7418.36,6539.52C7418.49,6539.62 7418.58,6539.73 7418.69,6539.84C7418.85,6540.01 7418.85,6540 7419.02,6540.17C7419.2,6540.35 7419.38,6540.53 7419.56,6540.7C7420,6541.13 7420.44,6541.55 7420.9,6541.96L7420.9,6548.93C7420.02,6548.24 7419.16,6547.52 7418.32,6546.78C7417.77,6546.3 7417.23,6545.81 7416.69,6545.32L7416.46,6545.1L7416.32,6544.97L7392.07,6560.92L7397.55,6565.13L7398.21,6565.77L7420.05,6592.54C7420.31,6592.55 7420.57,6592.56 7420.83,6592.58L7420.9,6592.59L7420.9,6600.54L7420.77,6600.53C7419.94,6600.46 7419.12,6600.42 7418.29,6600.44L7418.25,6600.44C7417.21,6600.31 7416.87,6600.39 7415.96,6599.79C7415.63,6599.57 7415.37,6599.25 7415.07,6598.98L7392.36,6571.14L7375.61,6558.29C7371.2,6565.47 7359.78,6585.85 7364.03,6597.75C7370.95,6617.16 7413.39,6605.39 7413.39,6605.39C7413.39,6605.39 7412.29,6616.24 7414.07,6627.52C7415.85,6638.8 7420.01,6645.33 7420.01,6645.33C7420.01,6645.33 7408.14,6660.77 7396.86,6671.45C7385.57,6682.14 7373.11,6715.98 7386.17,6721.92C7399.23,6727.85 7414.07,6748.04 7418.82,6754.57C7419.36,6755.32 7420.07,6756.45 7420.9,6757.88L7420.9,6774.44C7415.08,6769.03 7408.83,6764.52 7403.39,6763.47C7387.95,6760.51 7392.11,6772.38 7377.86,6769.41C7363.61,6766.44 7363.61,6768.22 7358.27,6758.73C7352.92,6749.23 7349.36,6746.85 7349.36,6746.85L7315.52,6746.26C7315.52,6746.26 7344.02,6729.63 7352.92,6724.89C7361.83,6720.14 7367.17,6714.2 7367.17,6701.14C7367.17,6688.08 7379.64,6667.3 7387.36,6661.95C7395.07,6656.61 7405.17,6637.02 7399.82,6631.68C7394.48,6626.33 7377.86,6631.08 7377.86,6631.08C7377.86,6631.08 7368.95,6636.43 7353.52,6656.02C7338.08,6675.61 7320.86,6686.3 7309.58,6688.67C7298.31,6691.05 7266.84,6682.73 7266.84,6682.73C7266.84,6682.73 7289.4,6667.89 7311.36,6656.61C7333.33,6645.33 7335.71,6620.4 7335.71,6620.4L7322.05,6612.09C7322.05,6612.09 7310.77,6617.43 7297.12,6619.8C7283.46,6622.18 7292.37,6597.24 7292.37,6597.24C7292.37,6597.24 7287.62,6577.06 7280.49,6572.31C7273.37,6567.56 7266.25,6559.84 7266.25,6569.94C7266.25,6580.03 7266.25,6589.53 7266.25,6589.53C7266.25,6589.53 7246.64,6603.38 7241.9,6592.49C7238.03,6583.59 7201.11,6549.32 7192.28,6559.14L7207.94,6534.4L7200.94,6481.48C7200.94,6481.48 7205.69,6467.82 7181.35,6467.82C7181.35,6467.82 7202.72,6452.39 7219.35,6446.45C7235.97,6440.51 7241.9,6439.92 7241.9,6439.92L7240.12,6452.39L7237.16,6466.04L7224.69,6475.54C7224.69,6475.54 7205.69,6499.88 7208.66,6507.01C7211.63,6514.13 7225.88,6554.5 7225.88,6554.5L7240.12,6561.03C7240.12,6561.03 7244.87,6569.94 7253.78,6568.75C7262.68,6567.56 7237.16,6554.5 7257.34,6549.75C7277.53,6545 7288.81,6551.53 7298.9,6557.47C7308.51,6563.12 7316.01,6563.68 7325.93,6557.06C7325.69,6556.82 7325.47,6556.56 7325.26,6556.29C7325.08,6556.05 7324.91,6555.81 7324.76,6555.55C7323.65,6553.77 7323.16,6551.67 7323,6549.59C7322.97,6549.25 7322.95,6548.9 7322.94,6548.56C7322.93,6548.14 7322.93,6547.72 7322.93,6547.3C7322.94,6546.73 7322.97,6546.16 7323.01,6545.59C7323.07,6544.79 7323.15,6543.99 7323.26,6543.2C7323.4,6542.16 7323.57,6541.13 7323.77,6540.1C7324.05,6538.69 7324.37,6537.28 7324.72,6535.88C7325.2,6534.01 7325.74,6532.16 7326.31,6530.32C7327.08,6527.89 7327.92,6525.48 7328.81,6523.09L7328.96,6522.69C7328.78,6522.63 7328.61,6522.56 7328.43,6522.5C7328.18,6522.41 7327.93,6522.32 7327.68,6522.23C7323.54,6520.65 7319.62,6518.54 7315.96,6516.06C7309.82,6511.9 7304.43,6506.69 7299.82,6500.9C7298.62,6499.39 7297.47,6497.84 7296.37,6496.26C7295.76,6495.38 7295.17,6494.49 7294.58,6493.6C7293.92,6492.6 7293.28,6491.59 7292.63,6490.57C7289.96,6486.36 7287.42,6482.07 7284.95,6477.74C7282.72,6473.82 7280.56,6469.87 7278.44,6465.88C7276.15,6461.56 7273.9,6457.21 7271.71,6452.84C7268.4,6446.23 7265.18,6439.57 7262.1,6432.85L7262.01,6432.66C7261.05,6431.89 7260,6431.22 7258.92,6430.61C7257.59,6429.86 7256.21,6429.22 7254.8,6428.66C7250.98,6427.14 7246.94,6426.21 7242.87,6425.71C7241.69,6425.57 7240.52,6425.46 7239.33,6425.39C7238.92,6425.36 7238.5,6425.34 7238.09,6425.32C7237.77,6425.31 7237.46,6425.29 7237.14,6425.28C7236.89,6425.26 7236.89,6425.26 7236.63,6425.24C7236.04,6425.2 7235.45,6425.14 7234.86,6425.07C7233.79,6424.93 7232.73,6424.74 7231.68,6424.5C7230.73,6424.28 7229.79,6424.02 7228.87,6423.73C7223.21,6421.9 7218.09,6418.67 7213.64,6414.77C7212.85,6414.08 7212.09,6413.37 7211.34,6412.64C7210.39,6411.72 7209.48,6410.77 7208.59,6409.79C7207.33,6408.4 7206.13,6406.94 7204.99,6405.44C7194.59,6407.37 7168.38,6413.5 7161.46,6427.35C7153.86,6442.55 7158.22,6468.39 7148.4,6477.56C7147.17,6486.29 7145.19,6503.34 7145.81,6518.66C7146.68,6540.4 7137.11,6548.23 7137.11,6548.23C7137.11,6548.23 7139.72,6574.32 7137.98,6593.45C7136.24,6612.58 7124.94,6605.62 7124.94,6605.62L7157.11,6627.36C7157.11,6627.36 7176.24,6654.32 7177.11,6677.8C7177.98,6701.28 7176.24,6713.46 7176.24,6713.46C7176.24,6713.46 7127.55,6689.11 7134.5,6721.28C7141.46,6753.46 7161.46,6784.77 7161.46,6784.77C7161.46,6784.77 7144.07,6784.77 7127.55,6758.68C7111.02,6732.59 7112.76,6699.54 7112.76,6699.54C7112.76,6699.54 7152.77,6708.24 7155.37,6681.28C7157.98,6654.32 7141.46,6628.23 7141.46,6628.23C7141.46,6628.23 7113.63,6615.19 7097.98,6625.62C7082.32,6636.06 7077.98,6654.32 7077.98,6654.32C7077.98,6654.32 7071.02,6622.15 7089.28,6605.62C7107.54,6589.1 7120.59,6570.84 7120.59,6570.84C7120.59,6570.84 7119.72,6541.27 7127.55,6523.88C7132.54,6512.78 7133.64,6494.61 7133.78,6482.9C7119.45,6486.76 7104.93,6490.83 7104.93,6490.83C7104.93,6490.83 7080.58,6495.18 7077.98,6524.74C7075.38,6554.19 7055.52,6566.39 7055.36,6566.49L7032.75,6566.49C7032.75,6566.49 7022.32,6565.62 7023.19,6597.8C7024.06,6629.97 7034.49,6636.06 7034.49,6636.06C7034.49,6636.06 7012.75,6651.71 7001.45,6652.58C6990.14,6653.45 6984.92,6655.19 6997.1,6679.54C7002.11,6689.58 7006.99,6697.4 7010.98,6703.12C7031.83,6717.74 7062.11,6737.73 7062.11,6737.73C7062.11,6737.73 7035.8,6724.71 7012.93,6714.09C7004.86,6712.49 6991.56,6708.67 6978.71,6699.66C6962.04,6693.87 6947.64,6689.62 6941.89,6670.94C6935.21,6649.24 6921.3,6616.95 6921.3,6616.95C6921.3,6616.95 6882.89,6633.1 6870.65,6626.97C6858.4,6620.85 6838.37,6593.58 6838.37,6593.58C6838.37,6593.58 6821.67,6620.85 6834.47,6647.01C6847.27,6673.17 6858.4,6662.04 6868.98,6681.52C6879.56,6701 6877.33,6702.11 6867.31,6712.13C6857.29,6722.15 6856.74,6749.98 6869.54,6763.33C6882.34,6776.69 6896.25,6801.18 6916.85,6800.62C6937.44,6800.07 6964.71,6835.69 6985.86,6849.05C7007.01,6862.4 7076.03,6889.68 7076.03,6889.68C7076.03,6889.68 6993.65,6872.98 6959.7,6841.81C6925.75,6810.64 6905.71,6797.84 6899.03,6802.29C6892.36,6806.75 6864.53,6831.24 6849.5,6803.41C6834.47,6775.58 6829.46,6769.46 6823.34,6742.18C6817.22,6714.91 6790.5,6670.94 6779.37,6663.15C6768.24,6655.36 6776.59,6621.41 6776.03,6606.38C6775.7,6597.32 6772.05,6582.4 6766.9,6568.87L6766.9,6530.98C6770.86,6540.78 6776.95,6551.89 6785.49,6557.4C6802.75,6568.53 6817.22,6552.95 6817.22,6552.95L6827.79,6561.85L6840.04,6554.62C6840.04,6554.62 6847.27,6574.65 6860.63,6586.9C6873.99,6599.14 6882.89,6611.94 6896.81,6606.94C6910.72,6601.93 6918.52,6599.14 6918.52,6599.14L6921.86,6608.05L6935.77,6605.82C6935.77,6605.82 6939.97,6615.15 6945.49,6626.86C6950.82,6625.32 6963.98,6619.13 6970.14,6595.19C6977.97,6564.75 6996.23,6553.44 6996.23,6553.44C6996.23,6553.44 7006.66,6560.4 7014.49,6548.23C7022.32,6536.05 7033.62,6523.01 7033.62,6523.01C7033.62,6523.01 7032.75,6531.7 7050.15,6520.4C7067.54,6509.09 7084.93,6479.52 7084.93,6479.52C7084.93,6479.52 7089.28,6476.91 7111.02,6467.35C7132.76,6457.78 7150.16,6428.22 7150.16,6428.22L7152.93,6421.82L7126.99,6425C7126.93,6425.15 7126.86,6425.3 7126.78,6425.44C7126.64,6425.74 7126.49,6426.04 7126.35,6426.33C7125.71,6427.58 7125.04,6428.81 7124.31,6430.01C7123.7,6431.02 7123.06,6432.02 7122.38,6432.99C7121.88,6433.68 7121.38,6434.37 7120.85,6435.04C7120.43,6435.56 7120.01,6436.08 7119.57,6436.58C7116.97,6439.57 7113.9,6442.2 7110.34,6443.96C7109.82,6444.21 7109.3,6444.45 7108.76,6444.66C7107.48,6445.18 7106.14,6445.57 7104.78,6445.82C7104.38,6445.9 7103.98,6445.96 7103.58,6446.01C7103.36,6446.04 7103.14,6446.06 7102.93,6446.09C7102.85,6446.1 7102.78,6446.12 7102.71,6446.13C7101.57,6446.37 7100.52,6446.89 7099.54,6447.49C7098.33,6448.22 7097.21,6449.1 7096.14,6450.02C7095.14,6450.88 7094.18,6451.78 7093.25,6452.72C7092.4,6453.57 7091.56,6454.44 7090.75,6455.33C7088.68,6457.57 7086.71,6459.89 7084.74,6462.21C7083.31,6463.92 7081.87,6465.62 7080.44,6467.32C7078.45,6469.66 7076.45,6471.99 7074.37,6474.24C7072.82,6475.93 7071.23,6477.57 7069.57,6479.14C7068.05,6480.58 7066.47,6481.95 7064.81,6483.21C7063.29,6484.36 7061.7,6485.4 7060.02,6486.28C7058.7,6486.97 7057.32,6487.55 7055.88,6487.97C7055.04,6488.22 7054.18,6488.39 7053.32,6488.56C7052.23,6488.78 7051.14,6488.98 7050.05,6489.17C7048.51,6489.43 7046.97,6489.67 7045.42,6489.89C7042.99,6490.24 7040.55,6490.56 7038.11,6490.85C7034.94,6491.23 7031.76,6491.56 7028.58,6491.87C7025.05,6492.22 7021.52,6492.53 7017.99,6492.82C7014.24,6493.13 7010.48,6493.42 7006.72,6493.68C7003.59,6493.9 7000.45,6494.1 6997.31,6494.29L6997.41,6494.28L6978.78,6500.73L6906.2,6532.57C6905.99,6532.65 6905.78,6532.72 6905.57,6532.79C6905.5,6532.82 6905.42,6532.83 6905.34,6532.85C6905.27,6532.86 6905.19,6532.88 6905.12,6532.89C6904.78,6532.96 6904.43,6533.02 6904.09,6533.08C6903.12,6533.23 6902.15,6533.32 6901.18,6533.36C6899.05,6533.45 6896.91,6533.28 6894.84,6532.79C6893.52,6532.48 6892.23,6532.03 6891.01,6531.43C6890.02,6530.95 6889.08,6530.37 6888.21,6529.7C6887,6528.77 6885.93,6527.65 6885.03,6526.42C6884.8,6526.09 6884.57,6525.75 6884.36,6525.41C6884.32,6525.34 6884.24,6525.21 6884.19,6525.14C6884.15,6525.07 6884.12,6525 6884.07,6524.94C6884.04,6524.89 6884.01,6524.85 6883.97,6524.8C6883.83,6524.63 6883.67,6524.48 6883.5,6524.34C6883.26,6524.15 6883,6523.97 6882.74,6523.82C6881.98,6523.36 6881.16,6523 6880.32,6522.69C6878.78,6522.12 6877.17,6521.71 6875.55,6521.38C6874.12,6521.09 6872.67,6520.86 6871.22,6520.67C6867.7,6520.22 6864.16,6520 6860.61,6519.93C6856.9,6519.86 6853.18,6519.95 6849.47,6520.2C6846.91,6520.37 6844.36,6520.61 6841.83,6520.98C6840.7,6521.15 6839.58,6521.33 6838.46,6521.56C6837.69,6521.71 6836.93,6521.88 6836.17,6522.09C6835.81,6522.18 6835.46,6522.29 6835.11,6522.4C6834.91,6522.45 6834.91,6522.45 6834.72,6522.51C6834.41,6522.59 6834.1,6522.66 6833.78,6522.73C6833.34,6522.82 6832.89,6522.9 6832.44,6522.96C6830.24,6523.26 6828,6523.18 6825.8,6522.94C6824.26,6522.77 6822.72,6522.51 6821.2,6522.2C6819.03,6521.77 6816.88,6521.24 6814.73,6520.69C6812.86,6520.2 6811,6519.7 6809.13,6519.22C6807.85,6518.89 6806.56,6518.57 6805.27,6518.27C6804.3,6518.05 6803.32,6517.84 6802.34,6517.65C6801.15,6517.43 6799.96,6517.24 6798.77,6517.12C6797.56,6517 6796.34,6516.94 6795.12,6517.02C6794.39,6517.07 6793.65,6517.17 6792.94,6517.35C6792.56,6517.45 6792.19,6517.57 6791.84,6517.73C6791.57,6517.85 6791.31,6517.98 6791.05,6518.14C6790.72,6518.35 6790.39,6518.57 6790.06,6518.78C6788.4,6519.87 6786.77,6520.99 6785.12,6522.1C6784.83,6522.29 6784.54,6522.48 6784.25,6522.68C6781.77,6524.31 6779.22,6525.89 6776.44,6526.97C6775.09,6527.49 6773.69,6527.89 6772.25,6528.09C6770.79,6528.3 6769.3,6528.31 6767.83,6528.1C6767.52,6528.05 6767.21,6528 6766.9,6527.93L6766.9,6519.66Z" style="fill:white;"/>
            </g>
        </g>
        <g transform="matrix(-1,0,0,1,17500.8,-1127.79)">
            <path d="M10217,8126.69L10216.9,8127.33L10216.9,8127.97L10216.8,8128.6L10216.7,8129.24L10216.7,8129.88L10216.6,8130.52L10216.6,8131.16L10216.5,8131.8L10216.4,8132.45L10216.4,8133.09L10216,8136.88L10223,8137.52L10223.3,8133.74L10223.4,8133.1L10223.5,8132.47L10223.5,8131.84L10223.6,8131.2L10223.6,8130.57L10223.7,8129.94L10223.8,8129.32L10223.8,8128.69L10223.9,8128.06L10224,8127.44L10224.4,8123.65L10217.4,8122.89L10217,8126.69ZM10221,8098.7L10220.9,8099.28L10220.8,8099.86L10220.7,8100.45L10220.6,8101.03L10220.5,8101.62L10220.4,8102.21L10220.3,8102.8L10220.2,8103.39L10220.1,8103.98L10220,8104.57L10219.9,8105.17L10219.3,8108.83L10226.2,8109.95L10226.8,8106.3L10226.9,8105.72L10227,8105.14L10227.1,8104.56L10227.2,8103.98L10227.3,8103.4L10227.4,8102.82L10227.5,8102.25L10227.6,8101.68L10227.7,8101.1L10227.8,8100.53L10227.9,8099.96L10228.6,8096.24L10221.7,8094.96L10221,8098.7ZM10227.5,8071.19L10227.3,8071.71L10227.2,8072.23L10227,8072.75L10226.9,8073.27L10226.7,8073.79L10226.6,8074.32L10226.4,8074.85L10226.3,8075.37L10226.1,8075.9L10226,8076.43L10225.9,8076.96L10225.7,8077.49L10224.8,8081.04L10231.6,8082.81L10232.5,8079.27L10232.6,8078.76L10232.8,8078.24L10232.9,8077.72L10233,8077.21L10233.2,8076.69L10233.3,8076.19L10233.5,8075.68L10233.6,8075.17L10233.8,8074.66L10233.9,8074.15L10234,8073.65L10234.2,8073.15L10235.3,8069.42L10228.6,8067.45L10227.5,8071.19ZM10505.2,8061.22L10509,8061.46L10509.6,8061.49L10510.1,8061.52L10510.7,8061.55L10511.8,8061.61L10512.3,8061.64L10512.9,8061.67L10513.4,8061.69L10514,8061.72L10514.5,8061.74L10515.1,8061.76L10515.6,8061.78L10519.2,8061.91L10519.5,8054.91L10515.9,8054.78L10515.3,8054.76L10514.8,8054.74L10514.3,8054.72L10513.7,8054.7L10513.2,8054.67L10512.7,8054.65L10512.1,8054.62L10511.6,8054.59L10511.1,8054.56L10510.5,8054.53L10510,8054.5L10509.5,8054.47L10505.6,8054.23L10505.2,8061.22ZM10543.1,8054.27L10542.6,8054.31L10542.2,8054.35L10541.7,8054.38L10541.2,8054.41L10540.7,8054.45L10540.2,8054.48L10539.7,8054.51L10539.2,8054.54L10538.7,8054.57L10538.1,8054.6L10537.6,8054.63L10537.1,8054.65L10533.2,8054.85L10533.5,8061.84L10537.5,8061.64L10538,8061.62L10538.5,8061.59L10539.1,8061.56L10539.6,8061.53L10540.1,8061.5L10540.6,8061.47L10541.1,8061.43L10541.6,8061.4L10542.1,8061.36L10542.7,8061.33L10543.2,8061.29L10543.7,8061.25L10547.6,8060.94L10547.1,8053.96L10543.1,8054.27ZM10477.1,8057.72L10480.6,8058.29L10481.2,8058.38L10481.8,8058.48L10482.4,8058.57L10482.9,8058.65L10483.5,8058.74L10484.1,8058.83L10484.7,8058.91L10485.2,8059L10485.8,8059.08L10486.4,8059.16L10487,8059.24L10491,8059.8L10491.9,8052.86L10487.9,8052.31L10487.4,8052.23L10486.8,8052.15L10486.3,8052.07L10485.7,8051.99L10485.1,8051.9L10484.6,8051.82L10484,8051.74L10483.4,8051.65L10482.9,8051.56L10482.3,8051.47L10481.7,8051.38L10478.2,8050.81L10477.1,8057.72ZM10570.6,8050.33L10570.2,8050.43L10569.7,8050.52L10569.3,8050.62L10568.8,8050.71L10568.4,8050.8L10567.9,8050.89L10567.5,8050.99L10567,8051.07L10566.6,8051.16L10566.1,8051.25L10565.6,8051.34L10565.2,8051.42L10564.7,8051.51L10564.2,8051.59L10560.6,8052.24L10561.8,8059.13L10565.5,8058.48L10566,8058.4L10566.4,8058.31L10566.9,8058.22L10567.4,8058.13L10567.9,8058.04L10568.3,8057.95L10568.8,8057.85L10569.3,8057.76L10569.8,8057.66L10570.2,8057.57L10570.7,8057.47L10571.2,8057.37L10571.6,8057.27L10572.1,8057.18L10575.7,8056.39L10574.2,8049.55L10570.6,8050.33ZM10237.3,8044.45L10237.1,8044.88L10236.9,8045.32L10236.7,8045.76L10236.5,8046.2L10236.3,8046.65L10236.1,8047.09L10235.9,8047.54L10235.7,8047.99L10235.6,8048.44L10235.4,8048.89L10235.2,8049.34L10235,8049.79L10234.8,8050.25L10233.3,8053.87L10239.8,8056.55L10241.2,8052.94L10241.4,8052.5L10241.6,8052.07L10241.8,8051.64L10242,8051.2L10242.2,8050.77L10242.4,8050.35L10242.5,8049.92L10242.7,8049.49L10242.9,8049.07L10243.1,8048.65L10243.3,8048.23L10243.5,8047.81L10243.7,8047.39L10245.3,8043.87L10239,8040.92L10237.3,8044.45ZM10449.4,8051.71L10453.3,8052.69L10453.9,8052.84L10454.5,8052.99L10455.1,8053.13L10455.7,8053.28L10456.3,8053.42L10456.9,8053.57L10457.5,8053.71L10458.1,8053.85L10458.7,8053.99L10459.3,8054.13L10463.1,8054.99L10464.7,8048.17L10460.9,8047.31L10460.3,8047.17L10459.7,8047.04L10459.1,8046.9L10458.5,8046.76L10458,8046.62L10457.4,8046.48L10456.8,8046.33L10456.2,8046.19L10455.6,8046.04L10455,8045.9L10451.1,8044.92L10449.4,8051.71ZM10597,8042.49L10596.6,8042.65L10596.2,8042.8L10595.8,8042.95L10595.4,8043.1L10595,8043.26L10594.6,8043.41L10594.2,8043.56L10593.8,8043.7L10593.4,8043.85L10593,8044L10592.6,8044.14L10592.2,8044.29L10591.8,8044.43L10591.4,8044.57L10590.9,8044.72L10587.3,8045.95L10589.6,8052.57L10593.2,8051.34L10593.6,8051.19L10594.1,8051.04L10594.5,8050.89L10594.9,8050.74L10595.3,8050.59L10595.8,8050.43L10596.2,8050.28L10596.6,8050.13L10597,8049.97L10597.5,8049.81L10597.9,8049.66L10598.3,8049.5L10598.7,8049.34L10599.1,8049.18L10599.5,8049.02L10602.9,8047.72L10600.3,8041.19L10597,8042.49ZM10422.4,8043.49L10426.3,8044.81L10426.9,8045.01L10427.5,8045.22L10428.2,8045.42L10428.8,8045.63L10429.4,8045.83L10430,8046.03L10430.6,8046.23L10431.3,8046.43L10431.9,8046.62L10435.7,8047.84L10437.8,8041.17L10434,8039.95L10433.4,8039.76L10432.8,8039.56L10432.2,8039.37L10431.6,8039.17L10431,8038.97L10430.3,8038.77L10429.7,8038.57L10429.1,8038.37L10428.5,8038.16L10424.6,8036.85L10422.4,8043.49ZM10621.2,8030.38L10620.9,8030.59L10620.6,8030.8L10620.2,8031.01L10619.9,8031.21L10619.6,8031.42L10619.2,8031.63L10618.9,8031.84L10618.5,8032.04L10618.2,8032.24L10617.8,8032.45L10617.5,8032.65L10617.1,8032.85L10616.8,8033.05L10616.5,8033.25L10616.1,8033.45L10615.8,8033.65L10612.6,8035.45L10616,8041.55L10619.2,8039.75L10619.6,8039.54L10619.9,8039.33L10620.3,8039.12L10620.7,8038.91L10621,8038.69L10621.4,8038.48L10621.8,8038.27L10622.1,8038.05L10622.5,8037.84L10622.8,8037.62L10623.2,8037.4L10623.6,8037.18L10623.9,8036.96L10624.3,8036.74L10624.6,8036.52L10625,8036.3L10628.2,8034.27L10624.4,8028.36L10621.2,8030.38ZM10396,8033.31L10399.8,8034.89L10400.4,8035.15L10401.1,8035.41L10401.7,8035.68L10402.4,8035.94L10403,8036.19L10403.6,8036.45L10404.3,8036.71L10404.9,8036.96L10405.5,8037.21L10409,8038.61L10411.6,8032.1L10408.1,8030.71L10407.5,8030.46L10406.9,8030.21L10406.2,8029.96L10405.6,8029.71L10405,8029.45L10404.4,8029.2L10403.7,8028.94L10403.1,8028.68L10402.5,8028.42L10398.7,8026.85L10396,8033.31ZM10252.2,8019.82L10252,8020.15L10251.7,8020.49L10251.5,8020.82L10251.2,8021.16L10250.9,8021.5L10250.7,8021.84L10250.4,8022.18L10250.2,8022.53L10249.9,8022.87L10249.6,8023.22L10249.4,8023.57L10249.1,8023.92L10248.9,8024.27L10248.6,8024.63L10248.4,8024.98L10246.1,8028.2L10251.9,8032.2L10254.1,8028.99L10254.4,8028.66L10254.6,8028.33L10254.8,8028L10255.1,8027.67L10255.3,8027.35L10255.5,8027.03L10255.8,8026.7L10256,8026.38L10256.3,8026.06L10256.5,8025.75L10256.7,8025.43L10257,8025.12L10257.2,8024.81L10257.5,8024.5L10257.7,8024.19L10260.1,8021.18L10254.7,8016.8L10252.2,8019.82ZM10370.4,8021.4L10374.1,8023.19L10374.7,8023.51L10375.4,8023.83L10376,8024.14L10376.6,8024.46L10377.3,8024.77L10377.9,8025.09L10378.6,8025.4L10379.2,8025.71L10379.9,8026.02L10383.1,8027.53L10386.1,8021.21L10382.9,8019.7L10382.3,8019.39L10381.6,8019.09L10381,8018.78L10380.3,8018.47L10379.7,8018.16L10379.1,8017.85L10378.4,8017.54L10377.8,8017.23L10377.2,8016.91L10373.5,8015.12L10370.4,8021.4ZM10642.4,8013.43L10642.2,8013.69L10641.9,8013.95L10641.6,8014.22L10641.4,8014.48L10641.1,8014.74L10640.8,8015L10640.6,8015.27L10640.3,8015.53L10640,8015.78L10639.8,8016.04L10639.5,8016.3L10639.2,8016.56L10639,8016.81L10638.7,8017.07L10638.4,8017.32L10638.1,8017.58L10637.8,8017.83L10635.1,8020.29L10639.8,8025.48L10642.5,8023.02L10642.8,8022.75L10643.1,8022.48L10643.4,8022.21L10643.7,8021.94L10644,8021.66L10644.3,8021.39L10644.6,8021.12L10644.9,8020.84L10645.2,8020.57L10645.5,8020.29L10645.7,8020.01L10646,8019.74L10646.3,8019.45L10646.6,8019.18L10646.9,8018.9L10647.1,8018.61L10647.4,8018.33L10650.1,8015.64L10645.1,8010.74L10642.4,8013.43ZM10345.6,8008.68L10348.8,8010.17L10349.3,8010.4L10349.8,8010.64L10350.2,8010.87L10350.7,8011.11L10351.2,8011.35L10351.7,8011.6L10352.2,8011.84L10352.7,8012.09L10353.2,8012.34L10353.7,8012.6L10354.2,8012.85L10354.7,8013.11L10358,8014.82L10361.2,8008.62L10357.9,8006.9L10357.4,8006.63L10356.9,8006.36L10356.4,8006.1L10355.9,8005.84L10355.3,8005.58L10354.8,8005.32L10354.3,8005.07L10353.8,8004.82L10353.3,8004.57L10352.8,8004.32L10352.3,8004.08L10351.8,8003.84L10348.5,8002.34L10345.6,8008.68ZM10274.3,8000.62L10274,8000.81L10273.7,8001L10273.3,8001.2L10273,8001.4L10272.7,8001.6L10272.3,8001.8L10272,8002L10271.6,8002.21L10271.3,8002.42L10271,8002.63L10270.7,8002.84L10270.3,8003.06L10270,8003.27L10269.7,8003.49L10269.3,8003.71L10269,8003.93L10268.7,8004.16L10268.4,8004.39L10265.5,8006.45L10269.5,8012.15L10272.4,8010.1L10272.7,8009.9L10273,8009.7L10273.3,8009.49L10273.6,8009.3L10273.9,8009.1L10274.2,8008.91L10274.5,8008.71L10274.8,8008.52L10275.1,8008.34L10275.4,8008.15L10275.7,8007.96L10276,8007.78L10276.3,8007.6L10276.6,8007.42L10276.9,8007.24L10277.2,8007.07L10277.5,8006.89L10277.8,8006.72L10281,8004.9L10277.6,7998.78L10274.3,8000.62ZM10658.6,7991.91L10658.5,7992.22L10658.3,7992.54L10658.1,7992.85L10657.9,7993.17L10657.7,7993.48L10657.6,7993.79L10657.4,7994.1L10657.2,7994.41L10657,7994.72L10656.8,7995.03L10656.6,7995.34L10656.4,7995.65L10656.2,7995.95L10656.1,7996.26L10655.9,7996.57L10655.7,7996.87L10655.5,7997.18L10653.4,8000.38L10659.3,8004.18L10661.4,8000.97L10661.6,8000.64L10661.8,8000.31L10662,7999.98L10662.2,7999.66L10662.4,7999.33L10662.6,7999L10662.8,7998.67L10663,7998.34L10663.2,7998L10663.4,7997.67L10663.6,7997.34L10663.8,7997L10664,7996.67L10664.2,7996.33L10664.4,7996L10664.6,7995.66L10664.7,7995.32L10666.6,7991.98L10660.5,7988.58L10658.6,7991.91ZM10319.7,8000.51L10323.1,8001.23L10323.6,8001.33L10324,8001.42L10324.4,8001.52L10324.9,8001.62L10325.3,8001.72L10325.7,8001.83L10326.1,8001.93L10326.6,8002.04L10327,8002.15L10327.5,8002.27L10327.9,8002.39L10328.3,8002.51L10328.8,8002.63L10329.2,8002.75L10329.7,8002.88L10333,8003.85L10335,7997.12L10331.6,7996.15L10331.1,7996.01L10330.6,7995.88L10330.2,7995.75L10329.7,7995.62L10329.2,7995.5L10328.8,7995.38L10328.3,7995.26L10327.8,7995.14L10327.4,7995.03L10326.9,7994.91L10326.4,7994.8L10326,7994.7L10325.5,7994.59L10325.1,7994.49L10324.6,7994.39L10321.1,7993.66L10319.7,8000.51ZM10302.7,7992.5L10302.3,7992.52L10301.9,7992.55L10301.5,7992.57L10301.1,7992.61L10300.7,7992.64L10300.3,7992.67L10299.9,7992.71L10299.5,7992.75L10299,7992.79L10298.6,7992.84L10298.2,7992.88L10297.8,7992.93L10297.4,7992.99L10297,7993.04L10296.6,7993.1L10296.2,7993.15L10295.8,7993.21L10292,7993.82L10293.1,8000.73L10296.9,8000.13L10297.3,8000.08L10297.6,8000.03L10298,7999.97L10298.3,7999.93L10298.7,7999.88L10299.1,7999.84L10299.4,7999.79L10299.8,7999.75L10300.2,7999.72L10300.5,7999.68L10300.9,7999.65L10301.3,7999.61L10301.6,7999.59L10302,7999.56L10302.4,7999.53L10302.7,7999.51L10303.1,7999.49L10306.7,7999.31L10306.3,7992.32L10302.7,7992.5ZM10668.4,7966.52L10668.3,7966.88L10668.2,7967.24L10668.1,7967.6L10668.1,7967.96L10668,7968.32L10667.9,7968.67L10667.8,7969.03L10667.7,7969.39L10667.6,7969.75L10667.5,7970.1L10667.4,7970.45L10667.3,7970.81L10667.2,7971.16L10667.1,7971.52L10667,7971.87L10666.9,7972.22L10666.8,7972.57L10666.7,7972.93L10665.7,7976.37L10672.4,7978.4L10673.4,7974.95L10673.5,7974.58L10673.6,7974.2L10673.7,7973.82L10673.8,7973.45L10674,7973.07L10674.1,7972.69L10674.2,7972.31L10674.3,7971.93L10674.4,7971.55L10674.5,7971.17L10674.6,7970.78L10674.7,7970.4L10674.8,7970.02L10674.9,7969.63L10675,7969.25L10675,7968.86L10675.1,7968.48L10675.2,7968.09L10676,7964.64L10669.2,7963.09L10668.4,7966.52ZM10670.8,7936.09L10671,7939.9L10671,7940.3L10671,7940.7L10671,7941.1L10671,7941.5L10671,7941.89L10671,7942.29L10671,7942.68L10671,7943.08L10671,7943.48L10671,7943.87L10671,7944.26L10671,7944.65L10671,7945.05L10671,7945.44L10671,7945.83L10671,7946.22L10670.9,7949.88L10677.9,7950.08L10678,7946.42L10678,7946L10678,7945.58L10678,7945.16L10678,7944.75L10678,7944.33L10678,7943.91L10678,7943.49L10678,7943.07L10678,7942.65L10678,7942.23L10678,7941.81L10678,7941.39L10678,7940.97L10678,7940.55L10678,7940.13L10678,7939.7L10677.8,7935.87L10670.8,7936.09ZM10666.2,7909.27L10667.1,7912.93L10667.3,7913.36L10667.4,7913.79L10667.5,7914.22L10667.6,7914.64L10667.7,7915.07L10667.8,7915.5L10667.9,7915.93L10668,7916.36L10668,7916.78L10668.1,7917.21L10668.2,7917.63L10668.3,7918.06L10668.4,7918.48L10668.5,7918.9L10669.3,7922.76L10676.1,7921.39L10675.4,7917.52L10675.3,7917.07L10675.2,7916.62L10675.1,7916.18L10675,7915.73L10674.9,7915.28L10674.8,7914.83L10674.7,7914.39L10674.6,7913.94L10674.5,7913.49L10674.4,7913.04L10674.3,7912.59L10674.2,7912.14L10674,7911.69L10673.9,7911.24L10673,7907.57L10666.2,7909.27ZM10656.7,7883.59L10658.3,7887.25L10658.5,7887.71L10658.7,7888.16L10658.9,7888.61L10659.1,7889.07L10659.3,7889.52L10659.5,7889.97L10659.7,7890.42L10659.8,7890.88L10660,7891.33L10660.2,7891.78L10660.4,7892.23L10660.6,7892.68L10660.8,7893.13L10662,7896.39L10668.6,7893.82L10667.3,7890.55L10667.1,7890.09L10666.9,7889.62L10666.7,7889.15L10666.5,7888.68L10666.3,7888.21L10666.1,7887.74L10665.9,7887.27L10665.7,7886.8L10665.5,7886.33L10665.3,7885.86L10665.1,7885.39L10664.9,7884.92L10664.7,7884.45L10663.1,7880.78L10656.7,7883.59ZM10643.5,7859.46L10645.4,7862.68L10645.7,7863.15L10646,7863.62L10646.3,7864.09L10646.6,7864.57L10646.9,7865.03L10647.1,7865.51L10647.4,7865.98L10647.7,7866.45L10648,7866.91L10648.2,7867.39L10648.5,7867.86L10648.8,7868.32L10650.5,7871.43L10656.6,7867.97L10654.9,7864.86L10654.6,7864.38L10654.3,7863.89L10654,7863.41L10653.7,7862.92L10653.5,7862.44L10653.2,7861.95L10652.9,7861.47L10652.6,7860.98L10652.3,7860.5L10652,7860.01L10651.7,7859.53L10651.4,7859.04L10649.5,7855.81L10643.5,7859.46ZM10343.1,7856.61L10343.5,7856.61L10343.9,7856.61L10344.4,7856.61L10344.8,7856.6L10345.3,7856.6L10345.8,7856.59L10346.2,7856.58L10346.6,7856.57L10347.1,7856.56L10347.6,7856.55L10348,7856.54L10348.5,7856.52L10348.9,7856.51L10349.4,7856.49L10349.8,7856.47L10353.5,7856.32L10353.2,7849.32L10349.5,7849.48L10349.1,7849.49L10348.7,7849.51L10348.2,7849.53L10347.8,7849.54L10347.4,7849.55L10346.9,7849.56L10346.5,7849.57L10346.1,7849.58L10345.6,7849.59L10345.2,7849.6L10344.8,7849.6L10344.3,7849.61L10343.9,7849.61L10343.5,7849.61L10343.1,7849.61L10339.3,7849.61L10339.3,7856.61L10343.1,7856.61ZM10310.9,7852.94L10314.4,7853.71L10314.8,7853.81L10315.3,7853.9L10315.7,7853.99L10316.1,7854.07L10316.6,7854.16L10317,7854.24L10317.4,7854.33L10317.9,7854.41L10318.3,7854.49L10318.7,7854.56L10319.2,7854.64L10319.6,7854.72L10320,7854.79L10320.5,7854.86L10320.9,7854.93L10321.4,7855L10324.9,7855.54L10325.9,7848.62L10322.4,7848.08L10322,7848.02L10321.6,7847.95L10321.2,7847.88L10320.8,7847.82L10320.4,7847.74L10320,7847.67L10319.6,7847.6L10319.1,7847.52L10318.7,7847.45L10318.3,7847.37L10317.9,7847.29L10317.5,7847.21L10317.1,7847.13L10316.7,7847.04L10316.3,7846.96L10315.9,7846.87L10312.4,7846.11L10310.9,7852.94ZM10377,7846.4L10376.5,7846.48L10376.1,7846.56L10375.6,7846.63L10375.2,7846.71L10374.7,7846.78L10374.3,7846.86L10373.8,7846.93L10373.4,7847L10372.9,7847.07L10372.5,7847.15L10372,7847.22L10371.6,7847.28L10371.1,7847.35L10370.7,7847.42L10370.2,7847.49L10366.8,7847.99L10367.8,7854.91L10371.2,7854.41L10371.7,7854.34L10372.2,7854.27L10372.6,7854.2L10373.1,7854.13L10373.6,7854.06L10374,7853.99L10374.5,7853.91L10374.9,7853.84L10375.4,7853.77L10375.9,7853.69L10376.3,7853.61L10376.8,7853.53L10377.2,7853.46L10377.7,7853.38L10378.2,7853.3L10381.7,7852.68L10380.5,7845.78L10377,7846.4ZM10403.8,7840.45L10402.9,7840.69L10401.9,7840.93L10401,7841.16L10400.1,7841.39L10399.2,7841.62L10398.3,7841.85L10397.4,7842.07L10394,7842.9L10395.6,7849.7L10399,7848.87L10400,7848.65L10400.9,7848.41L10401.8,7848.18L10402.7,7847.94L10403.7,7847.7L10404.6,7847.46L10405.5,7847.22L10409.2,7846.25L10407.5,7839.48L10403.8,7840.45ZM10284,7842.39L10287.2,7844.05L10287.6,7844.26L10288,7844.46L10288.4,7844.66L10288.8,7844.86L10289.2,7845.06L10289.7,7845.26L10290.1,7845.46L10290.5,7845.65L10290.9,7845.84L10291.3,7846.03L10291.7,7846.22L10292.1,7846.41L10292.5,7846.59L10292.9,7846.77L10293.3,7846.95L10296.9,7848.49L10299.7,7842.07L10296.1,7840.54L10295.8,7840.37L10295.4,7840.2L10295,7840.03L10294.6,7839.85L10294.2,7839.68L10293.8,7839.5L10293.5,7839.32L10293.1,7839.14L10292.7,7838.96L10292.3,7838.77L10291.9,7838.59L10291.6,7838.4L10291.2,7838.21L10290.8,7838.02L10290.4,7837.82L10287.2,7836.18L10284,7842.39ZM10627.5,7836.9L10630,7840.15L10630.4,7840.63L10630.7,7841.12L10631.1,7841.6L10631.5,7842.09L10631.8,7842.57L10632.2,7843.06L10632.6,7843.54L10632.9,7844.02L10633.3,7844.51L10633.6,7844.99L10635.9,7848.06L10641.5,7843.94L10639.3,7840.86L10638.9,7840.37L10638.6,7839.88L10638.2,7839.38L10637.8,7838.88L10637.4,7838.39L10637.1,7837.89L10636.7,7837.39L10636.3,7836.9L10636,7836.4L10635.6,7835.9L10633.1,7832.66L10627.5,7836.9ZM10430.5,7832.69L10429.6,7832.98L10428.6,7833.27L10427.7,7833.56L10426.8,7833.84L10425.9,7834.12L10424.9,7834.41L10420.8,7835.67L10422.8,7842.37L10427,7841.1L10427.9,7840.82L10428.8,7840.53L10429.8,7840.24L10430.7,7839.96L10431.6,7839.67L10432.6,7839.38L10436.2,7838.23L10434.1,7831.55L10430.5,7832.69ZM10260.9,7825.17L10263.6,7827.59L10263.9,7827.93L10264.3,7828.26L10264.7,7828.59L10265,7828.91L10265.4,7829.24L10265.8,7829.56L10266.2,7829.88L10266.5,7830.2L10266.9,7830.51L10267.3,7830.83L10267.7,7831.14L10268,7831.45L10268.4,7831.75L10268.8,7832.06L10271.7,7834.39L10276.1,7828.92L10273.2,7826.6L10272.8,7826.31L10272.5,7826.02L10272.1,7825.73L10271.8,7825.44L10271.4,7825.15L10271.1,7824.85L10270.7,7824.55L10270.4,7824.25L10270,7823.94L10269.7,7823.64L10269.3,7823.33L10268.9,7823.02L10268.6,7822.71L10268.3,7822.4L10265.6,7819.99L10260.9,7825.17ZM10456.3,7824.32L10454.5,7824.93L10452.6,7825.53L10450.8,7826.14L10447.4,7827.25L10449.6,7833.9L10453,7832.79L10454.8,7832.18L10456.7,7831.57L10458.5,7830.96L10462.9,7829.5L10460.7,7822.86L10456.3,7824.32ZM10608.2,7818.18L10611.2,7820.34L10611.4,7820.55L10611.7,7820.77L10612,7820.99L10612.3,7821.21L10612.6,7821.43L10612.9,7821.65L10613.2,7821.88L10613.4,7822.11L10613.7,7822.34L10614,7822.57L10614.3,7822.8L10614.6,7823.04L10614.9,7823.28L10615.1,7823.52L10615.4,7823.76L10615.7,7824L10616,7824.25L10618.8,7826.8L10623.5,7821.57L10620.6,7819.01L10620.3,7818.74L10620,7818.48L10619.7,7818.21L10619.4,7817.95L10619.1,7817.69L10618.8,7817.43L10618.5,7817.17L10618.2,7816.91L10617.8,7816.66L10617.5,7816.41L10617.2,7816.16L10616.9,7815.92L10616.6,7815.67L10616.3,7815.43L10616,7815.19L10615.6,7814.95L10615.3,7814.71L10612.4,7812.54L10608.2,7818.18ZM10483.7,7815.36L10482.8,7815.65L10481.9,7815.93L10481,7816.22L10480.1,7816.51L10479.1,7816.81L10478.2,7817.1L10474,7818.46L10476.2,7825.12L10480.4,7823.76L10481.3,7823.47L10482.2,7823.18L10483.1,7822.89L10484,7822.6L10484.9,7822.32L10485.8,7822.03L10489.5,7820.86L10487.4,7814.19L10483.7,7815.36ZM10510.5,7807.47L10509.6,7807.7L10508.7,7807.94L10507.8,7808.18L10506.9,7808.42L10506.1,7808.66L10505.2,7808.91L10504.3,7809.15L10500.9,7810.11L10502.8,7816.85L10506.2,7815.89L10507,7815.65L10507.9,7815.41L10508.8,7815.17L10509.7,7814.93L10510.5,7814.69L10511.4,7814.46L10512.3,7814.23L10516.2,7813.18L10514.4,7806.41L10510.5,7807.47ZM10242.4,7803.27L10244.5,7806.24L10244.9,7806.7L10245.2,7807.16L10245.5,7807.61L10245.9,7808.06L10246.2,7808.51L10246.5,7808.95L10246.9,7809.4L10247.2,7809.84L10247.6,7810.28L10247.9,7810.71L10248.2,7811.14L10248.6,7811.57L10250.9,7814.53L10256.4,7810.17L10254.1,7807.22L10253.7,7806.8L10253.4,7806.39L10253.1,7805.97L10252.8,7805.56L10252.4,7805.14L10252.1,7804.71L10251.8,7804.29L10251.5,7803.86L10251.1,7803.43L10250.8,7802.99L10250.5,7802.56L10250.2,7802.12L10248,7799.16L10242.4,7803.27ZM10583.7,7808.07L10587.4,7809.03L10587.7,7809.12L10588.1,7809.21L10588.4,7809.3L10588.7,7809.4L10589.1,7809.49L10589.4,7809.59L10589.7,7809.69L10590.1,7809.78L10590.4,7809.89L10590.7,7809.99L10591.1,7810.09L10591.4,7810.2L10591.7,7810.31L10592.1,7810.41L10592.4,7810.53L10592.7,7810.64L10593,7810.75L10593.4,7810.86L10596.8,7812.09L10599.1,7805.5L10595.7,7804.27L10595.3,7804.14L10595,7804.02L10594.6,7803.9L10594.3,7803.78L10593.9,7803.65L10593.6,7803.54L10593.2,7803.42L10592.8,7803.31L10592.5,7803.2L10592.1,7803.09L10591.7,7802.98L10591.4,7802.87L10591,7802.76L10590.6,7802.66L10590.3,7802.56L10589.9,7802.46L10589.6,7802.36L10589.2,7802.26L10585.5,7801.29L10583.7,7808.07ZM10538.5,7801.37L10538,7801.44L10537.6,7801.51L10537.2,7801.57L10536.8,7801.65L10536.4,7801.72L10535.9,7801.79L10535.5,7801.86L10535.1,7801.94L10534.7,7802.01L10534.2,7802.09L10533.8,7802.16L10533.4,7802.24L10533,7802.32L10532.5,7802.4L10532.1,7802.48L10528.3,7803.2L10529.6,7810.08L10533.4,7809.36L10533.8,7809.28L10534.2,7809.2L10534.7,7809.13L10535.1,7809.05L10535.5,7808.98L10535.9,7808.9L10536.3,7808.83L10536.7,7808.76L10537.1,7808.69L10537.5,7808.62L10537.9,7808.55L10538.3,7808.48L10538.8,7808.41L10539.2,7808.35L10539.6,7808.28L10543.3,7807.69L10542.2,7800.77L10538.5,7801.37ZM10563.1,7799.2L10562.7,7799.2L10562.3,7799.2L10561.9,7799.21L10561.5,7799.21L10561.1,7799.22L10560.7,7799.23L10560.3,7799.24L10556.6,7799.34L10556.8,7806.34L10560.5,7806.24L10560.8,7806.23L10561.2,7806.22L10561.6,7806.21L10562,7806.21L10562.4,7806.2L10562.7,7806.2L10563.1,7806.2L10563.5,7806.19L10563.9,7806.19L10564.2,7806.2L10564.6,7806.2L10565,7806.2L10565.4,7806.21L10565.7,7806.21L10566.1,7806.22L10566.5,7806.23L10566.9,7806.24L10570.6,7806.34L10570.8,7799.35L10567.1,7799.24L10566.7,7799.23L10566.3,7799.22L10565.9,7799.21L10565.5,7799.21L10565.1,7799.2L10564.7,7799.2L10564.3,7799.2L10563.9,7799.19L10563.5,7799.19L10563.1,7799.2ZM10228,7778.68L10229.6,7781.92L10229.9,7782.49L10230.2,7783.07L10230.5,7783.64L10230.8,7784.21L10231.1,7784.78L10231.4,7785.34L10231.7,7785.9L10232,7786.46L10232.4,7787.02L10232.7,7787.57L10234.6,7791.11L10240.7,7787.69L10238.8,7784.16L10238.5,7783.63L10238.2,7783.09L10237.9,7782.55L10237.6,7782.01L10237.3,7781.46L10237,7780.92L10236.7,7780.36L10236.4,7779.81L10236.1,7779.26L10235.8,7778.7L10234.2,7775.46L10228,7778.68ZM10216.7,7752.63L10218,7755.95L10218.3,7756.64L10218.5,7757.32L10218.8,7758.01L10219.1,7758.69L10219.3,7759.36L10219.6,7760.04L10219.9,7760.71L10220.2,7761.38L10220.4,7762.05L10222,7765.7L10228.4,7763.02L10226.9,7759.38L10226.6,7758.73L10226.4,7758.07L10226.1,7757.41L10225.8,7756.76L10225.6,7756.1L10225.3,7755.43L10225.1,7754.76L10224.8,7754.09L10224.5,7753.42L10223.2,7750.11L10216.7,7752.63ZM10207.9,7725.76L10209,7729.62L10209.2,7730.12L10209.3,7730.63L10209.5,7731.14L10209.6,7731.65L10209.8,7732.16L10209.9,7732.67L10210.1,7733.18L10210.2,7733.69L10210.4,7734.2L10210.6,7734.72L10210.7,7735.23L10210.9,7735.74L10212,7739.23L10218.7,7737.1L10217.6,7733.62L10217.4,7733.12L10217.2,7732.62L10217.1,7732.12L10216.9,7731.62L10216.8,7731.12L10216.6,7730.62L10216.5,7730.12L10216.3,7729.62L10216.2,7729.12L10216,7728.63L10215.9,7728.13L10215.7,7727.64L10214.6,7723.79L10207.9,7725.76ZM10201.6,7698.12L10202.3,7701.9L10202.4,7702.37L10202.5,7702.84L10202.6,7703.31L10202.7,7703.78L10202.8,7704.24L10202.8,7704.72L10202.9,7705.19L10203,7705.66L10203.1,7706.13L10203.2,7706.61L10203.3,7707.08L10203.4,7707.55L10203.5,7708.03L10203.6,7708.5L10204.4,7711.94L10211.2,7710.48L10210.5,7707.04L10210.4,7706.58L10210.3,7706.12L10210.2,7705.65L10210.1,7705.19L10210,7704.73L10209.9,7704.27L10209.8,7703.81L10209.7,7703.36L10209.6,7702.9L10209.5,7702.44L10209.4,7701.99L10209.4,7701.53L10209.3,7701.07L10209.2,7700.62L10208.5,7696.84L10201.6,7698.12ZM10198.6,7669.85L10198.8,7673.4L10198.8,7674.25L10198.9,7674.68L10198.9,7675.1L10198.9,7675.95L10199,7676.39L10199,7676.82L10199,7677.24L10199.1,7677.67L10199.1,7678.1L10199.1,7678.54L10199.2,7678.97L10199.2,7679.84L10199.3,7680.27L10199.6,7683.93L10206.6,7683.3L10206.3,7679.64L10206.2,7679.22L10206.2,7678.8L10206.1,7678.38L10206.1,7677.96L10206.1,7677.54L10206,7677.13L10206,7676.71L10206,7676.29L10206,7675.88L10205.9,7675.47L10205.9,7675.05L10205.9,7674.64L10205.8,7674.23L10205.8,7673.81L10205.8,7673.4L10205.8,7672.99L10205.6,7669.46L10198.6,7669.85ZM10199.2,7644.91L10199.2,7645.29L10199.1,7645.67L10199.1,7646.05L10199.1,7646.43L10199,7646.81L10199,7647.19L10199,7647.57L10198.9,7647.96L10198.9,7648.34L10198.9,7648.73L10198.9,7649.11L10198.8,7649.5L10198.8,7649.88L10198.8,7650.27L10198.8,7650.66L10198.7,7651.05L10198.7,7651.44L10198.7,7651.83L10198.5,7655.47L10205.5,7655.84L10205.7,7652.2L10205.7,7651.82L10205.7,7651.45L10205.7,7651.07L10205.8,7650.7L10205.8,7650.33L10205.8,7649.96L10205.8,7649.59L10205.9,7649.22L10205.9,7648.85L10205.9,7648.48L10205.9,7648.11L10206,7647.74L10206,7647.38L10206,7647.01L10206.1,7646.64L10206.1,7646.28L10206.1,7645.92L10206.2,7645.55L10206.5,7642.02L10199.5,7641.37L10199.2,7644.91ZM10204.2,7616.95L10204,7617.61L10203.8,7618.27L10203.7,7618.94L10203.5,7619.6L10203.3,7620.27L10203.2,7620.94L10203,7621.62L10202.8,7622.3L10202.7,7622.98L10202.5,7623.66L10201.8,7627.1L10208.6,7628.62L10209.3,7625.19L10209.5,7624.54L10209.6,7623.89L10209.8,7623.24L10210,7622.6L10210.1,7621.95L10210.3,7621.31L10210.4,7620.67L10210.6,7620.04L10210.8,7619.4L10210.9,7618.77L10211.9,7615.2L10205.2,7613.35L10204.2,7616.95ZM10214.1,7590.26L10213.9,7590.81L10213.6,7591.37L10213.3,7591.93L10213.1,7592.49L10212.8,7593.06L10212.6,7593.62L10212.3,7594.2L10212,7594.77L10211.8,7595.34L10211.5,7595.92L10209.9,7599.66L10216.3,7602.44L10218,7598.71L10218.2,7598.16L10218.4,7597.61L10218.7,7597.07L10218.9,7596.52L10219.2,7595.98L10219.4,7595.44L10219.7,7594.9L10219.9,7594.37L10220.2,7593.84L10220.4,7593.31L10222.1,7589.86L10215.8,7586.8L10214.1,7590.26ZM10229,7565.79L10228.7,7566.24L10228.4,7566.68L10228,7567.13L10227.7,7567.59L10227.4,7568.04L10227,7568.5L10226.7,7568.96L10226.4,7569.42L10226.1,7569.88L10225.7,7570.35L10225.4,7570.81L10225.1,7571.29L10223.1,7574.26L10228.9,7578.18L10230.9,7575.22L10231.2,7574.77L10231.5,7574.32L10231.8,7573.88L10232.1,7573.44L10232.4,7573L10232.7,7572.56L10233.1,7572.12L10233.4,7571.69L10233.7,7571.26L10234,7570.82L10234.3,7570.4L10234.6,7569.97L10236.9,7566.91L10231.3,7562.72L10229,7565.79ZM10248.1,7544.49L10247.7,7544.82L10247.4,7545.15L10247,7545.49L10246.7,7545.83L10246.3,7546.17L10246,7546.51L10245.6,7546.86L10245.3,7547.2L10244.9,7547.55L10244.6,7547.9L10244.2,7548.25L10243.8,7548.61L10243.5,7548.96L10240.8,7551.74L10245.7,7556.66L10248.5,7553.88L10248.8,7553.54L10249.1,7553.2L10249.5,7552.87L10249.8,7552.53L10250.2,7552.2L10250.5,7551.87L10250.8,7551.54L10251.2,7551.21L10251.5,7550.88L10251.9,7550.56L10252.2,7550.24L10252.5,7549.92L10252.9,7549.6L10255.7,7547L10250.9,7541.88L10248.1,7544.49ZM10270.5,7526.75L10270.2,7526.96L10269.9,7527.18L10269.6,7527.39L10269.3,7527.6L10269,7527.82L10268.6,7528.04L10268.3,7528.26L10268,7528.48L10267.7,7528.7L10267.3,7528.93L10267,7529.16L10266.7,7529.39L10266.4,7529.61L10266,7529.85L10265.7,7530.08L10265.4,7530.32L10265,7530.56L10262,7532.72L10266.1,7538.39L10269.1,7536.24L10269.4,7536.01L10269.8,7535.78L10270.1,7535.56L10270.4,7535.33L10270.7,7535.11L10271,7534.89L10271.3,7534.68L10271.6,7534.46L10272,7534.24L10272.3,7534.03L10272.6,7533.82L10272.9,7533.61L10273.2,7533.4L10273.5,7533.19L10273.8,7532.99L10274.1,7532.79L10274.4,7532.59L10277.5,7530.51L10273.7,7524.68L10270.5,7526.75ZM10295.9,7513.04L10295.8,7513.1L10295.6,7513.18L10295.3,7513.28L10295,7513.4L10294.7,7513.54L10294.3,7513.71L10293.9,7513.9L10293.4,7514.1L10293.1,7514.22L10292.9,7514.33L10292.6,7514.46L10292.3,7514.59L10292,7514.72L10291.7,7514.86L10291.4,7515.01L10291,7515.16L10290.7,7515.32L10290.4,7515.49L10290,7515.66L10289.6,7515.83L10286.2,7517.48L10289.3,7523.78L10292.7,7522.14L10293,7521.98L10293.3,7521.82L10293.7,7521.66L10294,7521.51L10294.3,7521.37L10294.6,7521.23L10294.9,7521.1L10295.2,7520.97L10295.4,7520.85L10295.7,7520.73L10296,7520.62L10296.2,7520.52L10296.6,7520.32L10297,7520.15L10297.4,7520.01L10297.7,7519.88L10298,7519.77L10298.2,7519.69L10298.3,7519.62L10298.5,7519.58L10301.8,7518.3L10299.3,7511.76L10295.9,7513.04Z"/>
        </g>
    </g>
</svg>
