<svg xmlns="http://www.w3.org/2000/svg" viewBox="0 0 1030.28 515.23"><defs><style>.cls-1{fill:#e42313;}.cls-2{fill:#1d1d1b;}</style></defs><title>Asset 1</title><g id="Layer_2" data-name="Layer 2"><g id="Layer_1-2" data-name="Layer 1"><g id="take_me_to_scalac_znak" data-name="take me to scalac znak"><polygon class="cls-1" points="480.73 175.37 718.62 515.23 841.38 515.23 480.73 0 120.07 515.23 242.83 515.23 480.73 175.37"/><polygon class="cls-1" points="270.36 326.18 166.2 177.37 0 414.8 83.1 414.8 166.2 296.08 229.42 386.41 270.36 326.18"/><polygon class="cls-1" points="807.12 56.23 652.48 277.15 708.27 356.86 807.12 215.63 918.7 375.04 1030.28 375.04 807.12 56.23"/><path class="cls-2" d="M505.26,315.23a20.58,20.58,0,0,1-2.71-5.21,13.86,13.86,0,0,1-.87-4.21l6.15-3.58a15.7,15.7,0,0,0,.1,2.31,19.86,19.86,0,0,0,1.22,4.94,9.58,9.58,0,0,0,1,2A5.17,5.17,0,0,0,511.6,313a2.82,2.82,0,0,0,1.38.46,2.6,2.6,0,0,0,1.27-.28,8.66,8.66,0,0,0,1.1-.65,3.44,3.44,0,0,0,1.69-2.9,14.23,14.23,0,0,0-.71-4q-.45-1.57-.75-3.11a9.93,9.93,0,0,1-.14-3,7.4,7.4,0,0,1,1-3,9.78,9.78,0,0,1,2.85-2.86,14.83,14.83,0,0,1,3.23-1.69,9.36,9.36,0,0,1,3.78-.61,9,9,0,0,1,4,1.18,11.57,11.57,0,0,1,3.76,3.61,18.38,18.38,0,0,1,1.46,2.49q.65,1.34,1.13,2.6a18.73,18.73,0,0,1,.73,2.39,5.85,5.85,0,0,1,.18,1.83L531.46,309a9.54,9.54,0,0,0,.22-1.91,10.67,10.67,0,0,0-.21-2.34,16.11,16.11,0,0,0-.7-2.45,9.47,9.47,0,0,0-1.11-2.16,6,6,0,0,0-2.43-2,3,3,0,0,0-3.15.45,3.23,3.23,0,0,0-1.29,1.6,4.54,4.54,0,0,0-.2,1.93,11.15,11.15,0,0,0,.48,2.2l.77,2.44a25.13,25.13,0,0,1,.73,3.2,7.94,7.94,0,0,1-.11,3.1,9.06,9.06,0,0,1-1.4,3,12.51,12.51,0,0,1-3.17,3,17.45,17.45,0,0,1-2.87,1.61,6.94,6.94,0,0,1-3.49.56,9.08,9.08,0,0,1-4-1.47A16,16,0,0,1,505.26,315.23Z"/><path class="cls-2" d="M520.93,337.59a12.7,12.7,0,0,1-2.32-5.76,13,13,0,0,1,.55-5.74,16.93,16.93,0,0,1,3-5.31,25.12,25.12,0,0,1,10.93-7.66,16.92,16.92,0,0,1,6-1,13,13,0,0,1,5.58,1.44,12.71,12.71,0,0,1,4.62,4.15,20.11,20.11,0,0,1,1.6,2.64,14.22,14.22,0,0,1,.87,2.17,8.78,8.78,0,0,1,.36,1.91q.06.9.1,1.77l-6.15,3.57a16.23,16.23,0,0,0-.36-4.07,10.28,10.28,0,0,0-1.65-3.58A5.27,5.27,0,0,0,539,320a17.44,17.44,0,0,0-12.43,8.71,5.27,5.27,0,0,0,.3,5.5,10.27,10.27,0,0,0,2.8,2.77,16.11,16.11,0,0,0,3.7,1.73l-5.43,4.57a17.23,17.23,0,0,1-3.32-1.71A15,15,0,0,1,520.93,337.59Z"/><path class="cls-2" d="M540.71,365.82l-4.61-6.57,2.14-1.5h-.06a9.29,9.29,0,0,1-2.81-1.27,13.5,13.5,0,0,1-3.72-3.56,7.35,7.35,0,0,1-1.22-2.9,7.61,7.61,0,0,1,.12-3.27,9.81,9.81,0,0,1,1.54-3.28,12.38,12.38,0,0,1,3.09-3,9,9,0,0,1,5.82-1.83,14,14,0,0,1,5.47,1.51,20.17,20.17,0,0,1,4.55,3.18,27.14,27.14,0,0,1,3,3.25,7.71,7.71,0,0,0,2.79-3.3q.51-1.54-1-3.73a12.4,12.4,0,0,0-2.76-2.89,23.73,23.73,0,0,0-4-2.28l5.22-4.31a33.93,33.93,0,0,1,5,3.33,19.13,19.13,0,0,1,3.6,3.85,12.06,12.06,0,0,1,1.83,3.9,8.28,8.28,0,0,1,0,4.11,11.44,11.44,0,0,1-2.16,4.21,20.94,20.94,0,0,1-4.61,4.21Zm8.81-16a10.08,10.08,0,0,0-1.57-1.43A11.09,11.09,0,0,0,545.6,347a7.78,7.78,0,0,0-2.7-.64,4,4,0,0,0-2.61.76,4.87,4.87,0,0,0-2,2.38,3.46,3.46,0,0,0,.84,2.88,4.7,4.7,0,0,0,1.41,1,7,7,0,0,0,2.79.78Z"/><path class="cls-2" d="M564.09,399.19l-4.61-6.57,2.14-1.5h-.06a9.29,9.29,0,0,1-2.81-1.27,13.51,13.51,0,0,1-3.72-3.56,7.34,7.34,0,0,1-1.22-2.9,7.61,7.61,0,0,1,.12-3.27,9.81,9.81,0,0,1,1.54-3.28,12.38,12.38,0,0,1,3.09-3,9,9,0,0,1,5.82-1.83,14,14,0,0,1,5.47,1.52,20.17,20.17,0,0,1,4.55,3.18,27.2,27.2,0,0,1,3,3.25,7.72,7.72,0,0,0,2.79-3.3q.51-1.54-1-3.73a12.42,12.42,0,0,0-2.76-2.89,23.77,23.77,0,0,0-4-2.28l5.22-4.31a33.91,33.91,0,0,1,5,3.33,19.13,19.13,0,0,1,3.6,3.85,12.05,12.05,0,0,1,1.83,3.9,8.28,8.28,0,0,1,0,4.11,11.45,11.45,0,0,1-2.16,4.21,20.94,20.94,0,0,1-4.61,4.21Zm8.81-16a10.08,10.08,0,0,0-1.57-1.43,11.14,11.14,0,0,0-2.35-1.37,7.8,7.8,0,0,0-2.7-.64,4,4,0,0,0-2.61.77,4.88,4.88,0,0,0-2,2.38,3.46,3.46,0,0,0,.84,2.88,4.69,4.69,0,0,0,1.41,1,7,7,0,0,0,2.79.78Z"/><path class="cls-2" d="M547.87,376l-4.57-6.52,41.63-29.17,4.57,6.52Z"/><path class="cls-2" d="M574.23,413.66a12.71,12.71,0,0,1-2.32-5.76,13,13,0,0,1,.55-5.74,16.92,16.92,0,0,1,3-5.31,25.1,25.1,0,0,1,10.93-7.66,16.91,16.91,0,0,1,6-1,13,13,0,0,1,5.58,1.44,12.71,12.71,0,0,1,4.62,4.15,20.11,20.11,0,0,1,1.6,2.63,14.22,14.22,0,0,1,.87,2.17,8.8,8.8,0,0,1,.36,1.91q.06.9.1,1.77l-6.15,3.57a16.2,16.2,0,0,0-.36-4.07,10.28,10.28,0,0,0-1.65-3.58,5.27,5.27,0,0,0-5.07-2.16,17.44,17.44,0,0,0-12.43,8.71,5.27,5.27,0,0,0,.3,5.5A10.27,10.27,0,0,0,583,413a16.09,16.09,0,0,0,3.7,1.73l-5.46,4.56a17.23,17.23,0,0,1-3.27-1.75A15,15,0,0,1,574.23,413.66Z"/><polygon class="cls-1" points="506.96 255.2 506.98 287.55 476.58 276.49 484.18 271.17 499.38 276.7 499.37 260.52 506.96 255.2"/></g></g></g></svg>