<?xml version="1.0" encoding="UTF-8" standalone="no"?>
<!DOCTYPE svg PUBLIC "-//W3C//DTD SVG 1.1//EN" "http://www.w3.org/Graphics/SVG/1.1/DTD/svg11.dtd">
<svg width="100%" height="100%" viewBox="0 0 1920 907" version="1.1" xmlns="http://www.w3.org/2000/svg" xmlns:xlink="http://www.w3.org/1999/xlink" xml:space="preserve" style="fill-rule:evenodd;clip-rule:evenodd;stroke-linejoin:round;stroke-miterlimit:1.41421;">
    <g transform="matrix(1,0,0,1,-3612.96,-1364.87)">
        <g transform="matrix(0.994303,0,0,1.00093,3614.95,1192.81)">
            <g>
                <g transform="matrix(1.00573,0,0,0.999074,-3635.66,-1191.7)">
                    <path d="M4314.98,1685.33C4304.06,1665.56 4288.83,1646.22 4270.23,1631.15C4263.03,1625.31 4256.25,1621.26 4246.98,1617.67C4244.07,1616.54 4240.84,1616.12 4237.7,1615.6C4236.63,1615.42 4235.51,1615.5 4234.42,1615.58L4233.34,1637.77C4232.28,1636.71 4231.19,1635.63 4230.48,1634.37C4227.03,1628.2 4224.06,1621.85 4220.89,1615.58C4213.51,1600.98 4206.36,1586.31 4198.85,1571.77C4193.92,1562.23 4188.73,1552.79 4183.55,1543.36L4183.55,1504.04C4183.55,1504.04 4185.51,1510.01 4188.83,1518.95L4190.31,1519.99C4200.22,1526.96 4213.22,1531.02 4225.84,1532.2C4226.11,1532.23 4226.11,1532.23 4226.38,1532.26C4240.44,1533.83 4252.46,1542.12 4260,1552.15L4260.05,1552.23L4294.53,1559.02C4294.53,1559.02 4296.83,1560.25 4297.7,1561.12C4299.26,1562.68 4300.77,1564.34 4302.11,1566.04C4307.83,1573.33 4312.59,1581.13 4316.83,1589.12C4316.89,1589.24 4316.95,1589.36 4317.02,1589.48C4318.64,1592.73 4320.28,1597.49 4321.42,1600.81C4322.14,1602.9 4322.84,1604.99 4323.55,1607.08C4327.61,1618.92 4332.3,1626.95 4341.98,1636.58C4343.06,1637.65 4344.13,1638.71 4345.21,1639.77C4346.12,1640.66 4347.02,1641.55 4347.92,1642.44C4348.28,1642.8 4348.64,1643.15 4349,1643.51C4354.05,1648.55 4358.47,1653.7 4362.48,1659.36C4362.48,1659.36 4365.19,1663.53 4366.48,1665.65C4371.51,1673.92 4376.12,1682.35 4380.7,1690.81C4381.11,1691.55 4381.51,1692.29 4381.91,1693.04C4384.14,1697.09 4386.77,1701.8 4389.5,1705.62L4389.51,1705.64L4389.69,1705.88C4389.55,1705.73 4389.42,1705.58 4389.29,1705.42C4385.78,1701.31 4382.12,1695.86 4379.18,1691.49C4377.29,1688.67 4375.41,1685.84 4373.53,1683.02C4368.49,1675.53 4363.86,1668.9 4358.21,1661.72C4357.97,1661.39 4357.72,1661.05 4357.48,1660.72C4352.22,1653.67 4345.92,1647.57 4339.43,1641.32C4339.24,1641.14 4339.06,1640.96 4338.88,1640.79C4328.38,1630.53 4322.68,1621.75 4318.24,1609.06C4317.45,1606.78 4316.67,1604.5 4315.88,1602.22C4311.16,1588.71 4304,1574.2 4292.54,1563.94C4292.5,1563.9 4292.38,1563.86 4292.37,1563.91C4292.37,1563.91 4268.48,1560.13 4256.92,1557.01C4256.06,1556.63 4255.72,1556.31 4255.24,1555.62C4255.14,1555.48 4255.04,1555.34 4254.93,1555.2C4247.98,1545.88 4236.96,1538.68 4223.91,1537.51C4223.65,1537.48 4223.39,1537.46 4223.13,1537.43C4212.18,1536.3 4201.6,1532.87 4192.24,1527.91C4200.62,1549.38 4210.3,1574.16 4226.95,1592.58C4240.18,1607.21 4263.23,1612.5 4280.9,1621.8C4321.71,1643.27 4345.28,1680.61 4350.43,1720.87C4352.26,1725.98 4351.05,1732.2 4352.27,1737.38C4354.38,1746.37 4361.31,1756.29 4366.47,1763.42C4369.89,1768.16 4373.95,1772.53 4377.85,1776.99C4379.5,1778.88 4381.3,1780.68 4383.1,1782.48L4404.17,1777.18C4406.59,1782.58 4409.02,1787.99 4411.97,1793.19C4414.56,1797.77 4417.61,1802.16 4420.77,1806.47C4423.67,1810.41 4427.81,1814.34 4432.02,1817.29C4447.25,1827.95 4462.69,1838.41 4478.12,1848.87L4484.16,1847.91C4483.24,1840.64 4479.87,1833.58 4474.08,1828.2C4473.81,1827.95 4473.55,1827.71 4473.28,1827.46C4462.55,1817.24 4448.24,1802.47 4447.03,1787.77L4418.14,1762.91L4434.27,1756.5L4418.14,1734.9C4419.14,1733.89 4420.13,1732.88 4421.25,1731.98C4424.56,1729.29 4434.36,1720.19 4440.66,1723.95C4445.31,1726.72 4446.23,1732.42 4449.28,1736.52C4454.36,1743.35 4458.06,1747.04 4465.96,1751.3C4469.3,1753.11 4475.83,1753.75 4478.78,1750.88C4481.94,1747.8 4478.59,1740.61 4477.9,1738.73C4472.93,1725.14 4470.61,1726 4466.36,1712.24C4463.66,1703.51 4461.65,1694.63 4459.65,1685.76C4458.76,1681.82 4458.24,1677.82 4457.71,1673.83C4459.29,1676.94 4460.86,1680.05 4462.64,1683.08C4467.14,1690.74 4471.7,1698.37 4476.52,1705.88C4482.13,1714.61 4491.25,1726.87 4498,1734.84C4523.83,1765.36 4560.09,1790.41 4591.2,1815.78C4598.54,1821.47 4606.01,1827.83 4614.74,1831.99L4614.77,1832C4614.86,1831.69 4614.96,1831.38 4615.06,1831.07C4615.16,1830.74 4615.26,1830.41 4615.37,1830.09C4615.59,1829.39 4615.82,1828.69 4616.06,1828C4616.57,1823.38 4618.35,1818.74 4621.2,1814.79C4621.45,1814.23 4621.69,1813.67 4621.94,1813.11C4618.81,1811.19 4615.67,1809.27 4612.62,1807.25C4601.31,1799.78 4581.55,1789.57 4577.89,1776.11C4577.71,1775.42 4577.53,1774.73 4577.35,1774.04C4574.91,1765.04 4569.25,1759.03 4559.74,1754.61C4558.41,1754 4557.08,1753.39 4555.75,1752.78C4537.47,1744.3 4521.89,1732.63 4512.13,1716.83L4512.07,1716.73C4506.71,1706.57 4503.01,1694.95 4502.19,1683.76C4502.19,1683.72 4502.19,1683.69 4502.19,1683.65C4502.19,1683.65 4502.2,1683.64 4502.2,1683.65C4505.05,1694.33 4510.55,1704.8 4517.51,1713.95C4517.51,1713.95 4517.97,1714.63 4518.2,1714.97C4518.38,1715.22 4518.55,1715.48 4518.73,1715.73C4529.3,1730.78 4545.2,1740.91 4563.19,1749.06C4563.62,1749.26 4564.04,1749.45 4564.47,1749.65C4576.22,1755.13 4582.28,1763.62 4585.31,1774.61C4585.37,1774.82 4585.43,1775.02 4585.49,1775.22C4587.11,1780.59 4592.05,1784.29 4596.77,1787.79C4605.75,1794.46 4615.33,1800.57 4625.01,1806.47C4625.11,1806.25 4625.22,1806.04 4625.32,1805.82L4625.41,1805.64C4626.94,1803.14 4630.13,1802.09 4632.9,1800.83C4639.5,1797.82 4644.07,1795.77 4650.98,1793.1C4656.6,1790.93 4662.47,1788.88 4668.34,1787.26C4677.61,1784.7 4685.34,1783.56 4694.72,1785.49C4697.75,1786.12 4700.67,1788.58 4702.77,1790.43C4709.77,1796.6 4714.67,1804.62 4719.25,1812.14C4723.44,1819.02 4727.02,1826.2 4730.42,1833.39L4730.44,1833.44C4730.68,1833.33 4730.92,1833.23 4731.16,1833.13C4731.39,1833.04 4731.63,1832.94 4731.86,1832.85C4737.68,1830.53 4743.98,1828.76 4750.46,1828.69C4750.72,1828.69 4750.98,1828.69 4751.25,1828.7C4773.82,1829.18 4775.92,1852.56 4777.99,1866.98C4778.22,1868.64 4778.45,1870.31 4778.69,1871.97C4779.6,1878.17 4779.94,1889.74 4789.14,1891.4C4789.16,1891.4 4789.19,1891.41 4789.21,1891.41C4789.28,1891.38 4789.36,1891.35 4789.43,1891.32C4789.81,1891.16 4790.19,1890.99 4790.56,1890.83C4803.34,1885.38 4822.09,1894.46 4832.95,1899.81C4851.82,1909.08 4869.58,1919.93 4886.66,1931.44C4900.06,1940.47 4913.5,1950.07 4924.68,1961.16C4925.27,1961.75 4925.85,1962.34 4926.43,1962.93C4927.59,1964.11 4928.76,1965.28 4929.92,1966.46C4930.43,1966.97 4930.93,1967.48 4931.44,1967.99C4969.18,2005.54 5027.56,2018.33 5082.11,2027.68C5085.35,2028.23 5088.58,2028.77 5091.82,2029.32C5180.86,2044.31 5271.7,2061.3 5362.67,2064.91C5391.88,2066.06 5421.73,2063.37 5450.61,2060.81L5450.72,2060.8C5448.95,2060.67 5447.18,2060.54 5445.4,2060.41C5443.75,2060.29 5442.1,2060.16 5440.45,2060.04C5403.82,2057.25 5367.25,2053.74 5330.87,2049.13L5330.47,2049.08C5280.04,2042.22 5230.65,2031.6 5181.64,2019.36C5148.54,2011.09 5115.12,2001.42 5083.68,1989.17C5049.48,1975.85 5016.55,1959.9 4984.82,1942.68C4984.82,1942.68 4985.98,1943.26 4986.56,1943.56C4987.45,1944.01 4988.34,1944.45 4989.23,1944.9C5019.93,1960.27 5051.5,1974.81 5084.32,1986.59C5115.6,1997.81 5148.79,2006.47 5181.31,2014.18C5230.76,2025.89 5280.99,2035.16 5331.85,2040.95C5333.39,2041.14 5334.94,2041.33 5336.48,2041.52C5391.91,2048.13 5447.83,2052.67 5503.73,2055.09C5503.73,2055.09 5507.5,2056.12 5508.33,2057.48C5509.99,2060.2 5508.14,2062.5 5505.4,2063.79C5500.98,2065.87 5488.39,2066 5485.54,2066.32C5473.96,2067.65 5460.56,2069.02 5449.21,2070.01C5404.74,2073.89 5361.9,2075.45 5317.46,2071.22C5253.05,2065.1 5189.28,2054.9 5125.64,2044.57C5066.64,2034.99 5002.03,2027.46 4951.7,1997.32C4938.19,1989.23 4927.46,1978.9 4916.85,1968.23C4916.61,1967.99 4916.37,1967.75 4916.13,1967.51C4905.9,1957.4 4893.65,1948.63 4881.45,1940.36C4865.26,1929.37 4848.43,1918.98 4830.62,1910C4827.77,1908.56 4824.87,1907.18 4821.93,1905.87C4815.15,1902.87 4802.7,1896.62 4794.76,1900.08C4794.66,1900.13 4794.56,1900.17 4794.46,1900.21C4790.01,1902.05 4787.14,1901.09 4782.39,1899.75C4770.24,1896.33 4768.5,1881.9 4767.17,1872.76C4766.9,1870.92 4766.64,1869.09 4766.38,1867.26C4764.94,1857.49 4764.66,1837.19 4747.74,1838.87C4745.7,1839.08 4742.3,1839.93 4740.45,1840.57C4737.1,1841.73 4733.77,1843.07 4730.72,1844.76L4730.65,1844.8C4726.49,1846.75 4723.05,1844.72 4721.54,1841.35C4721.36,1840.93 4721.17,1840.52 4720.98,1840.11C4717.5,1832.51 4714.48,1826.67 4710.38,1819.37C4708.78,1816.51 4705.53,1811.2 4703.55,1808.4C4702.03,1806.25 4700.45,1804.12 4698.78,1802.06C4692.9,1794.81 4688.37,1793.19 4678.21,1795.38C4675.68,1795.92 4673.17,1796.55 4670.69,1797.24C4666.76,1798.34 4660.78,1800.41 4657.07,1801.86C4649.41,1804.84 4643.18,1807.5 4635.82,1811.04L4635.54,1811.18C4631.53,1819.62 4627.86,1828.38 4625.49,1837.28L4625.45,1837.42C4625.31,1837.9 4625.16,1838.29 4624.94,1838.73C4625.83,1841.28 4627.07,1843.6 4628.63,1845.89C4628.93,1846.33 4629.24,1846.76 4629.55,1847.2C4633.15,1852.42 4636.39,1857.84 4638.93,1863.51C4639.01,1863.69 4639.01,1863.69 4639.08,1863.87C4639.51,1864.88 4639.92,1865.89 4640.32,1866.91C4640.39,1867.28 4640.46,1867.63 4640.53,1868C4640.96,1870.22 4641.26,1872.18 4641.51,1874.42C4641.52,1874.52 4641.53,1874.61 4641.53,1874.71C4641.71,1876.74 4641.85,1878.86 4641.73,1880.91L4641.73,1880.96C4641.68,1880.84 4641.63,1880.72 4641.57,1880.6C4641.51,1880.46 4641.44,1880.31 4641.37,1880.17C4639.49,1876.3 4636.99,1872.44 4634.42,1868.88L4634.39,1868.84C4634.24,1868.55 4634.1,1868.26 4633.95,1867.97C4633.79,1867.65 4633.62,1867.34 4633.46,1867.02C4632.68,1865.55 4631.88,1864.08 4631.05,1862.63C4630.91,1862.39 4630.79,1862.15 4630.65,1861.91C4628.24,1857.59 4625.49,1853.43 4622.52,1849.38C4622.4,1849.23 4622.29,1849.07 4622.18,1848.91C4620.85,1847.02 4619.66,1845.05 4618.71,1842.99C4611.31,1844.11 4602.84,1837.65 4597.74,1834.13C4606.08,1845.64 4616.05,1859.25 4624.36,1870.24C4624.57,1870.52 4624.78,1870.8 4624.99,1871.08C4633.48,1882.05 4643.74,1892.05 4654.15,1901.72C4654.15,1901.72 4655.13,1902.72 4655.61,1903.23C4656.09,1903.72 4656.57,1904.21 4657.06,1904.7C4662.93,1910.68 4668.97,1916.58 4675.24,1922.26L4675.34,1922.34C4659.48,1911.91 4644.84,1900.51 4632.29,1887.13C4613.52,1867.14 4598.44,1844.59 4582.6,1822.9C4579.91,1820.82 4577.24,1818.71 4574.57,1816.61C4571.37,1814.08 4568.18,1811.55 4564.97,1809.02C4554.89,1801.06 4542.49,1788.67 4528.78,1784.59C4522.74,1782.79 4516.44,1782.06 4510.07,1781.88C4505.93,1781.77 4498.99,1781.87 4494.62,1782.24C4480.45,1783.44 4477.87,1783.85 4464.58,1785.69C4463.84,1785.8 4463.1,1785.9 4462.36,1786C4461.31,1786.14 4460.24,1786.27 4459.18,1786.4L4459.11,1786.41C4458.92,1790.32 4461.79,1794.69 4463.8,1797.97C4469.18,1806.77 4476.25,1814.78 4484.07,1822.06C4484.22,1822.2 4484.37,1822.35 4484.52,1822.49C4491.08,1828.91 4494.94,1837.59 4496.2,1846L4497.06,1845.86C4499.77,1850.08 4502.49,1854.3 4505.48,1858.38C4512.28,1867.63 4518.05,1874.11 4526.82,1882.18C4539.06,1893.43 4551.62,1904.43 4564.17,1915.43L4569.29,1927.43C4573.47,1931.09 4577.2,1934.43 4581.4,1938.23C4584.66,1941.17 4587.91,1944.12 4591.16,1947.07C4622.36,1975.26 4656.66,1998.25 4696.29,2017.48C4696.5,2017.58 4696.71,2017.68 4696.92,2017.78C4717.48,2027.43 4739.57,2035.18 4760.96,2043.36C4760.96,2043.36 4766.48,2045.56 4769.24,2046.67C4772.05,2047.8 4774.86,2048.93 4777.67,2050.05C4796.2,2057.47 4814.76,2064.83 4833.34,2072.14C4836.81,2073.51 4840.27,2074.88 4843.73,2076.24C4858.04,2081.89 4872.35,2087.51 4886.68,2093.1C4887.82,2093.55 4888.96,2093.99 4890.1,2094.44L4890.87,2094.74C4888.38,2093.91 4885.88,2093.09 4883.39,2092.26C4842.11,2078.53 4800.9,2064.64 4759.86,2050.38L4758.67,2049.97C4736.51,2041.78 4713.74,2033.9 4692.4,2024.18C4674.58,2016.07 4657.17,2006.28 4640.91,1996.2C4616.77,1981.24 4596.49,1963.22 4576.01,1944.79C4574.75,1943.66 4573.5,1942.54 4572.24,1941.41C4569.25,1938.73 4566.24,1936.06 4563.2,1933.42C4549.66,1922.73 4527.42,1905.3 4505.33,1888.58C4494.91,1881.41 4484.51,1874.63 4473.71,1867.86L4473.27,1867.59C4468.89,1866.17 4464.87,1863.89 4461.19,1861.45L4456.34,1858.23L4457.04,1857.44C4398.48,1820.78 4340,1783.77 4283.73,1744.53L4283.55,1744.39L4279.59,1741.62L4280.35,1740.81C4271.25,1731.1 4255.53,1715.17 4244.22,1705.6C4241.92,1703.64 4228.07,1694.29 4225.12,1689.25C4221.07,1682.34 4222.64,1672.83 4225.15,1665.79C4226.83,1661.11 4228.91,1656.53 4231.04,1651.98C4231.99,1649.97 4233.19,1648.06 4234.39,1646.14C4244.11,1651.93 4253.85,1657.72 4263.46,1663.65C4270.33,1667.89 4277.23,1672.11 4283.84,1676.65C4287.41,1679.1 4291.95,1681.07 4293.94,1684.6C4298.47,1692.63 4300.67,1701.53 4302.82,1710.26L4314.98,1685.33ZM3612.96,1548.28C3627.57,1541.46 3679.55,1517.11 3687.76,1511.84C3688.56,1511.33 3689.36,1510.82 3690.15,1510.31C3694.46,1507.58 3698.83,1504.89 3703.44,1502.54C3704.3,1502.11 3705.17,1501.68 3706.03,1501.25C3708.36,1500.07 3710.67,1498.88 3712.99,1497.7C3713.89,1497.24 3714.78,1496.79 3715.68,1496.33C3718.72,1494.81 3721.74,1493.26 3724.87,1491.87C3729.3,1489.9 3733.74,1487.92 3738.34,1486.27C3742.23,1484.87 3746.29,1483.86 3750.3,1482.73C3759.52,1480.15 3779.02,1479.58 3786,1487.7L3790.42,1483.48C3794.76,1480.38 3801.84,1477.92 3806.5,1476.52C3821.41,1472.02 3832.18,1469.24 3845.69,1476.27C3845.99,1476.42 3846.29,1476.58 3846.6,1476.73C3863.39,1485.2 3885.2,1487.76 3904.1,1488.94C3904.19,1488.7 3904.28,1488.46 3904.38,1488.22C3906.11,1483.88 3908.1,1479.61 3910.5,1475.51C3913.56,1470.3 3917.29,1464.99 3922.93,1461.54C3927.02,1459.04 3932.58,1458.29 3937.43,1457.85C3947.3,1456.94 3957.25,1457.14 3967.15,1457.15C3968.23,1457.15 3969.31,1457.15 3970.39,1457.15C3977.88,1457.12 3988.2,1457.94 3995.34,1454.84C3995.79,1454.64 3996.23,1454.44 3996.67,1454.24C4000.26,1452.62 4007.14,1449.63 4010.89,1447.98C4011.92,1447.53 4012.95,1447.07 4013.98,1446.62C4031.18,1439.01 4048.1,1431.03 4064.16,1421.77C4064.4,1421.63 4064.64,1421.5 4064.87,1421.37C4084.78,1410.22 4108.18,1404.01 4130.98,1398.98C4140.63,1396.84 4152.01,1394.21 4162.12,1395.62C4162.43,1395.66 4162.73,1395.7 4163.03,1395.74C4171.72,1396.86 4176.29,1397.04 4180.68,1390.3C4181.16,1389.55 4181.64,1388.8 4182.12,1388.05C4188.25,1378.6 4197.28,1372.2 4210.1,1377.68L4210.25,1377.75L4210.33,1377.78L4227.61,1365.58L4228.93,1364.98L4230.43,1364.87L4231.85,1365.27L4244.14,1371.29C4249.48,1371.89 4256.4,1372.59 4263.02,1373.01L4278.6,1370.86C4278.6,1370.86 4281.25,1371.36 4282.2,1372.12L4283.67,1373.8C4288.33,1375.24 4290.07,1378.95 4290.71,1381.65L4291.21,1381.85C4291.54,1381.82 4291.87,1381.79 4292.2,1381.76C4292.57,1381.73 4292.95,1381.7 4293.33,1381.67C4307.2,1380.53 4323.97,1379.17 4337.39,1383.58C4337.91,1383.76 4338.44,1383.94 4338.97,1384.11C4351.23,1388.17 4363.8,1391.57 4376.35,1394.88L4376.46,1394.91L4416.91,1385.96L4416.7,1386.04C4416.81,1386 4416.81,1386 4416.91,1385.96C4417.07,1385.91 4417.07,1385.91 4417.23,1385.86C4419.49,1385.13 4421.92,1384.76 4424.34,1384.74C4424.47,1384.74 4424.6,1384.74 4424.73,1384.74C4436.04,1384.89 4442.34,1393.02 4445.53,1401.41C4445.61,1401.62 4445.69,1401.83 4445.77,1402.04C4449.53,1411.51 4456.52,1418.41 4465.14,1424.88C4466.69,1426.04 4468.25,1427.19 4469.8,1428.35C4474.82,1432.12 4480.58,1436.01 4484.25,1440.88C4495.73,1456.13 4497.42,1476.6 4500.99,1493.94C4501.21,1495 4501.43,1496.06 4501.65,1497.12C4504.66,1511.31 4507.57,1532.64 4524.17,1540.8L4539.68,1533.54C4539.68,1533.54 4539.99,1535.88 4541.02,1536.4C4542.2,1537 4543.65,1537.37 4545.01,1537.24C4555.3,1536.27 4565.35,1531.35 4575.52,1529.46C4579.27,1528.77 4583.05,1528.23 4586.83,1527.7C4587.55,1526.39 4588.28,1525.07 4589.29,1523.91C4590.54,1522.47 4591.97,1521.14 4593.56,1519.97C4600.02,1515.23 4607.56,1511.7 4614.39,1507.35C4615.94,1506.36 4617.34,1505.2 4618.73,1504.04L4629.16,1504.04L4650.6,1533.07L4662.34,1533.09C4663.77,1537.75 4665.21,1542.43 4667.14,1546.96C4667.69,1548.26 4671.21,1556.63 4674.88,1558.52C4677.03,1559.64 4681.74,1558.07 4683.27,1558.03C4684.78,1558 4686.31,1558.27 4687.76,1558.66C4689.21,1559.05 4690.56,1559.71 4691.89,1560.36L4703.31,1567.88L4719.9,1573.92C4719.9,1573.92 4720.37,1575.82 4721.36,1578.84L4722,1578.84C4722,1578.84 4723.33,1579.3 4723.93,1579.64C4731.29,1583.75 4738.46,1578.4 4744.44,1574.94C4744.78,1574.74 4745.12,1574.55 4745.46,1574.35C4746.16,1573.95 4746.87,1573.55 4747.58,1573.16L4747.76,1573.06C4756.95,1568.26 4769.6,1572.24 4779.04,1574.36C4779.6,1574.49 4780.16,1574.61 4780.73,1574.74C4786.07,1575.9 4792.35,1577.44 4797.89,1576.04C4798.07,1576 4798.25,1575.95 4798.43,1575.91C4812.44,1572.63 4828.92,1572.66 4843.16,1574.82C4849.25,1575.74 4856.51,1577.31 4859.99,1582.15C4860.05,1582.24 4860.12,1582.33 4860.18,1582.41C4862.96,1585.95 4868.62,1586.53 4873.18,1585.79L4873.22,1585.79L4951.3,1556.36L4972.24,1550.13C4973.34,1549.94 4974.14,1549.9 4975.27,1549.84C4976.46,1549.78 4977.65,1549.72 4978.84,1549.65C4986.19,1549.24 4993.53,1548.76 5000.86,1548.21C5017.77,1546.93 5034.44,1547.7 5047.13,1537.22C5050.62,1534.34 5054.75,1530.21 5057.79,1527.12C5059.33,1525.55 5060.87,1523.98 5062.41,1522.41C5069.02,1515.7 5076.92,1506.53 5087.87,1505.29C5088,1505.27 5088.13,1505.26 5088.27,1505.24C5097.38,1503.89 5103.86,1495.29 5107.09,1488.46L5107.1,1488.43C5108.47,1486.52 5108.61,1486.64 5110.57,1486.12L5145.91,1482.4L5148.33,1477.62L5174.55,1469.57L5184.8,1461.32L5199.05,1463.25L5200.03,1466.3C5201.48,1466.87 5201.51,1466.89 5202.62,1467.92C5202.69,1468.01 5202.76,1468.1 5202.82,1468.19C5209.45,1476.95 5220.47,1485.43 5233.1,1486.08C5233.58,1486.1 5234.06,1486.11 5234.54,1486.13C5245.14,1486.61 5257.82,1488.79 5265.85,1495.32C5265.85,1495.32 5267.13,1497.07 5267.63,1498.01C5267.95,1498.62 5268.28,1499.22 5268.61,1499.83C5271.76,1505.63 5276.44,1513.92 5279.75,1519.43C5282.7,1524.35 5285.71,1529.25 5288.8,1534.1C5299.3,1550.56 5313.96,1573.81 5337.91,1577.43C5337.91,1577.43 5340.07,1577.98 5340.56,1578.74C5341.76,1580.62 5341.59,1581.62 5340.79,1583.28C5340.65,1583.59 5340.5,1583.9 5340.35,1584.22C5338.03,1589.25 5335.94,1594.44 5334.61,1599.74C5334.25,1601.18 5333.97,1602.64 5333.75,1604.11C5333.62,1604.96 5333.56,1605.82 5333.56,1606.68C5333.56,1611.36 5335.71,1610.67 5340.7,1609.72C5342.21,1609.43 5343.72,1609.13 5345.18,1608.7C5347.89,1607.9 5350.59,1607.04 5353.2,1606.04C5357.55,1604.36 5361.97,1602.31 5365.98,1600.01L5366.02,1599.99L5367.65,1599.41L5369.42,1599.46L5371.01,1600.11L5394.66,1615.7L5424.38,1598.91C5424.93,1598.64 5425.44,1598.52 5426.09,1598.51C5426.21,1598.52 5426.33,1598.53 5426.45,1598.54C5427.29,1598.72 5427.79,1599.07 5428.38,1599.59C5428.55,1599.74 5428.73,1599.88 5428.9,1600.03C5435.94,1605.93 5444.41,1610.56 5453.76,1613.19C5454.02,1613.27 5454.27,1613.34 5454.53,1613.42C5468.23,1617.58 5480.81,1625.14 5492.33,1632.59C5492.33,1632.59 5493.21,1633.45 5493.52,1633.95C5493.61,1634.09 5493.7,1634.23 5493.79,1634.36C5497.7,1640.19 5503.44,1645.62 5511.19,1647.47C5511.38,1647.51 5511.58,1647.56 5511.78,1647.61C5519.13,1649.47 5526.38,1652.55 5532.39,1656.68C5532.39,1656.68 5533.38,1659.21 5532.76,1660.28C5532.01,1661.56 5529.61,1661.07 5528.64,1660.41C5528.48,1660.3 5528.33,1660.2 5528.17,1660.1C5522.36,1656.39 5515.75,1653.68 5508.8,1652.01C5508.64,1651.97 5508.48,1651.93 5508.32,1651.88C5499.66,1649.58 5492.79,1642.95 5488.5,1636.32L5488.45,1636.24C5476.93,1628.86 5464.45,1621.43 5450.71,1617.52C5450.46,1617.45 5450.21,1617.37 5449.96,1617.3C5440.95,1614.57 5432.67,1609.83 5425.74,1604.24L5425.58,1604.12L5399.47,1618.88L5405.37,1622.77L5406.08,1623.36C5406.08,1623.36 5417.73,1647.51 5430.26,1648.15C5430.53,1648.17 5430.79,1648.18 5431.06,1648.2C5449.99,1649.54 5461.67,1660.44 5462.83,1676.37C5462.89,1677.25 5462.94,1678.13 5463,1679C5463.37,1684.18 5465.55,1685.37 5471.65,1685.85C5472.3,1685.9 5472.95,1685.94 5473.61,1685.99C5480.81,1686.49 5488.19,1687.13 5495.46,1687.22C5495.46,1687.22 5497.52,1687.74 5498.42,1688.23C5498.42,1688.23 5528.25,1703.72 5531.71,1716.88L5531.43,1718.29L5530.54,1719.5L5529.18,1720.33C5527.56,1720.64 5527.54,1720.64 5525.91,1720.4L5524.5,1719.64L5493.72,1694.52C5493.23,1694.5 5492.74,1694.48 5492.25,1694.46C5485.13,1694.16 5478.01,1693.68 5470.9,1693.16C5470.66,1693.14 5470.42,1693.12 5470.18,1693.1C5460.02,1692.17 5455.1,1688.25 5454.48,1679.44C5454.42,1678.57 5454.36,1677.69 5454.3,1676.82C5453.35,1663.73 5443.51,1655.13 5427.72,1655.43L5427.68,1655.43C5425.38,1655.19 5425.54,1655.09 5424.24,1654.08L5399.78,1628.33L5381.75,1616.44C5380.12,1618.71 5378.55,1621.02 5377.15,1623.4C5371.7,1632.71 5361.8,1649.39 5373.7,1658.4C5380.01,1663.18 5390.79,1663.71 5398.65,1663.21C5404.19,1662.86 5409.69,1662.17 5415.18,1661.43C5417.63,1661.1 5420.03,1660.55 5422.43,1660.01C5422.22,1662.11 5422.01,1664.22 5422.08,1666.33C5422.25,1671.06 5422.28,1675.82 5423.16,1680.48C5423.95,1684.63 5425.53,1688.65 5427.08,1692.63C5427.67,1694.16 5428.62,1695.57 5429.56,1696.96C5426.99,1699.8 5424.42,1702.64 5421.65,1705.33C5416.11,1710.7 5410,1715.63 5404.62,1721.12C5394.83,1731.13 5385.23,1745.86 5387.27,1759.58C5388.5,1767.79 5397.13,1769.22 5403.83,1773.99C5411.43,1779.4 5423.76,1791.98 5428.28,1798.01C5433.53,1805.02 5437.59,1812.63 5442.03,1820.04C5445.48,1825.81 5448.71,1831.68 5451.93,1837.55C5447.46,1832.56 5442.98,1827.56 5438.03,1822.93C5433.97,1819.13 5429.53,1815.64 5424.96,1812.29C5419.68,1808.42 5409.84,1803.7 5402.51,1806.33C5397.01,1808.3 5397.98,1809.6 5392.6,1811.65C5387.2,1813.71 5372.87,1809.88 5370.02,1809.06C5366.77,1808.13 5364.53,1803.75 5363.07,1801.85C5360.79,1798.9 5358.59,1795.9 5356.12,1793.07C5355.38,1792.22 5354.42,1791.54 5353.48,1790.87L5317.04,1790.32C5330.49,1783.77 5343.95,1777.23 5357.32,1770.55C5361.81,1768.3 5365.69,1766.31 5368.58,1762.45C5373.94,1755.31 5371.96,1746.37 5374.89,1738.52C5377.34,1731.92 5382.53,1723.86 5387.49,1718.39C5394.09,1711.1 5401.82,1707.16 5406.38,1698.33C5407.69,1695.79 5410.17,1690.34 5409.24,1686.75C5407.82,1681.3 5398.42,1681.78 5393.84,1682.2C5390.57,1682.5 5387.36,1683.14 5384.17,1683.78C5381.82,1685.3 5379.47,1686.82 5377.29,1688.52C5374.42,1690.76 5371.67,1693.12 5369.06,1695.6C5354.11,1709.77 5341.49,1725.37 5320.82,1733.95C5308.46,1739.09 5296.1,1737.28 5283.07,1735.13C5276.88,1734.11 5270.75,1732.83 5264.61,1731.56C5269.6,1728.77 5274.59,1725.97 5279.72,1723.39C5292.3,1717.05 5315.34,1709.03 5326.64,1697.76C5329.48,1694.92 5332.9,1690.27 5334.54,1686.73C5335.91,1683.78 5337,1680.72 5338.01,1677.66C5338.41,1676.43 5338.59,1675.16 5338.78,1673.89L5324.07,1666.21C5321.48,1667.22 5318.88,1668.23 5316.16,1668.95C5308.56,1670.97 5300.2,1675.55 5292.78,1673.08C5286.01,1670.82 5289.94,1659.46 5290.84,1656.05C5291.16,1654.83 5291.63,1653.65 5292.11,1652.48C5291.04,1649.15 5289.98,1645.82 5288.59,1642.59C5284.64,1633.38 5279.06,1627.87 5268.77,1623.16C5264.6,1621.26 5264.14,1624.46 5263.98,1627.21C5263.62,1633.25 5263.8,1639.3 5263.98,1645.34C5260.38,1647.25 5256.73,1649.19 5252.78,1650.49C5249.73,1651.49 5243.82,1652.98 5240.35,1650.86C5235.38,1647.81 5233.24,1642.28 5228.99,1638.51C5222.51,1632.76 5212.83,1625.41 5204.31,1620.83C5200.31,1618.68 5189.32,1612.46 5184.32,1617.23L5201.19,1594.35L5193.65,1545.39C5193.65,1545.39 5198.77,1532.76 5172.55,1532.76C5177.09,1530.09 5181.63,1527.42 5186.3,1524.93C5194.86,1520.37 5204,1516.01 5213.47,1512.99C5219.65,1511.01 5226,1509.48 5232.33,1507.91C5234.11,1507.46 5235.94,1507.2 5237.76,1506.94L5235.85,1518.48L5232.65,1531.11L5219.22,1539.9C5215.83,1543.85 5212.44,1547.82 5209.4,1551.98C5207.54,1554.52 5202.58,1561.53 5201.79,1565.86C5198.77,1582.24 5220.5,1612.94 5220.5,1612.94L5235.85,1618.98C5236.98,1620.38 5238.13,1621.81 5239.6,1622.96C5241.6,1624.51 5250.36,1628.84 5252.58,1625.23C5252.89,1624.71 5252.49,1624.02 5252.14,1623.53C5249.99,1620.46 5241.67,1614.05 5248.37,1610.51C5250.2,1609.55 5252.28,1608.9 5254.39,1608.54C5259.21,1607.73 5264.11,1607.06 5269.02,1607.03C5277.11,1606.99 5283.44,1608.78 5290.62,1611.63C5298.11,1614.61 5304.82,1619.76 5313.57,1619.75C5319.02,1619.75 5323.8,1617.86 5328.24,1615.3C5321.43,1609.29 5326.38,1596.62 5328.8,1590.19C5329.63,1587.98 5330.52,1585.79 5331.47,1583.61L5331.51,1583.51C5331.32,1583.45 5331.13,1583.39 5330.94,1583.34C5330.76,1583.28 5330.58,1583.23 5330.4,1583.17C5303.19,1574.42 5289.16,1550.31 5276.37,1529.77C5270.38,1520.15 5264.81,1510.32 5259.51,1500.41L5259.42,1500.23C5252.13,1495.22 5241.97,1493.74 5232.91,1493.41C5232.64,1493.4 5232.64,1493.4 5232.36,1493.39C5218.28,1492.58 5206.27,1484.43 5198.02,1475.06C5184.52,1477.2 5171.76,1480.73 5160.03,1487C5157.17,1488.52 5152.48,1492.5 5151.14,1495.31C5149.29,1499.17 5147.96,1503.23 5146.97,1507.31C5144.49,1517.57 5147.08,1533.74 5137.07,1541.76C5134.32,1558.59 5136.61,1575.89 5133.21,1592.54C5132.61,1595.47 5131.34,1598.28 5129.95,1601C5129.09,1602.69 5127.75,1604.18 5126.51,1605.69C5126.06,1606.23 5125.48,1606.68 5124.91,1607.13C5125.36,1611.89 5125.82,1616.65 5126.09,1621.41C5126.68,1631.96 5128.05,1644.2 5124.71,1654.53C5123.9,1657.05 5121.75,1660.89 5118.12,1661.23C5116.67,1661.37 5115.18,1661.18 5113.73,1660.95C5113.04,1660.85 5112.41,1660.53 5111.8,1660.23L5146.45,1680.34C5150.11,1685.3 5153.79,1690.28 5156.87,1695.52C5162.44,1704.98 5167.64,1716.14 5167.99,1727C5168.26,1735.2 5168.11,1743.42 5167.88,1751.63C5167.8,1754.42 5167.43,1757.2 5167.06,1759.98C5164.41,1758.87 5161.76,1757.75 5158.98,1756.92C5151.74,1754.77 5125.89,1745.5 5121.89,1758.36C5121.06,1761 5121.31,1764.68 5122.11,1767.22C5127.49,1784.3 5130.44,1792.15 5139.43,1807.74C5143.01,1813.95 5147.08,1819.95 5151.14,1825.94C5150.06,1825.89 5148.96,1825.84 5147.93,1825.57C5145.08,1824.83 5142.14,1824.19 5139.55,1822.93C5128.99,1817.78 5120.97,1810.6 5114.61,1801.81C5106.48,1790.56 5102.49,1778.45 5099.98,1765.41C5099.14,1761.07 5098.99,1756.65 5098.68,1752.26C5098.56,1750.55 5098.62,1748.82 5098.69,1747.11C5100.93,1747.49 5103.19,1747.88 5105.47,1747.98C5110.5,1748.18 5115.56,1748.33 5120.58,1748.01C5128.48,1747.52 5137.78,1744.43 5141.8,1738.1C5149.45,1726.06 5142.92,1707.85 5138.14,1696.33C5136.57,1692.53 5134.38,1688.93 5132.33,1685.3C5131.53,1683.87 5130.56,1682.5 5129.6,1681.14C5127.97,1680.52 5126.34,1679.88 5124.65,1679.41C5120.64,1678.28 5116.66,1676.98 5112.51,1676.32C5105.25,1675.16 5096.98,1674.18 5089.62,1676.06C5078.81,1678.83 5070.69,1687.33 5065.68,1695.62C5063.83,1698.69 5062.53,1702 5061.23,1705.28C5060.86,1703.66 5060.5,1702.03 5060.37,1700.39C5060.07,1696.42 5059.83,1692.45 5059.94,1688.48C5060.07,1684.08 5061.44,1677.82 5063.21,1673.71C5067.84,1662.98 5077.99,1656.84 5086.97,1648.75C5090.67,1645.42 5094.2,1641.94 5097.64,1638.41C5100.92,1635.04 5104.02,1631.54 5107.12,1628.05C5107.17,1622.82 5107.22,1617.58 5107.71,1612.36C5108.15,1607.61 5108.73,1602.85 5109.89,1598.18C5112.73,1586.75 5114.66,1587.33 5117.91,1575.88C5120.39,1567.12 5121.21,1554.96 5121.33,1546.71C5105.9,1550.28 5090.26,1554.04 5090.26,1554.04C5088.86,1554.3 5087.43,1554.57 5086.12,1555.09C5082.92,1556.39 5079.74,1557.77 5076.8,1559.47C5073.15,1561.58 5069.06,1565.77 5066.95,1568.97C5061.57,1577.18 5061.91,1586.02 5059.38,1594.91C5056.28,1605.84 5048.35,1618.02 5036.88,1624.03L5012.53,1624.03C5011.94,1624.05 5011.28,1624.07 5010.79,1624.37C5009.4,1625.21 5007.85,1626.06 5007.03,1627.34C5005.34,1630.01 5004.01,1632.91 5003.45,1635.9C5002.39,1641.54 5002.06,1647.28 5002.23,1652.99C5002.56,1663.57 5003.84,1672.34 5008.67,1681.85C5009.64,1683.74 5011.19,1685.38 5012.64,1687.04C5013.11,1687.58 5013.77,1687.99 5014.41,1688.38C5010.06,1690.91 5005.71,1693.44 5001.18,1695.72C4997.4,1697.63 4993.57,1699.5 4989.52,1700.94C4986.08,1702.16 4982.44,1702.92 4978.82,1703.67C4975.18,1704.42 4968.57,1703.77 4967,1707.99C4964.75,1714.02 4972.27,1725.27 4974.14,1728.61C4977.96,1735.43 4983.92,1744.06 4989.08,1750.42C5011.54,1763.94 5044.15,1782.43 5044.15,1782.43C5044.15,1782.43 5015.82,1770.39 4991.19,1760.56C4982.5,1759.09 4968.17,1755.55 4954.33,1747.22C4947.24,1745.1 4936.51,1742.13 4930.1,1738.4C4912,1727.88 4907.59,1703.21 4900.9,1688.15C4898.29,1682.27 4895.4,1676.49 4892.51,1670.71C4885.14,1673.13 4877.76,1675.56 4870.19,1677.47C4863.94,1679.04 4846.07,1683.97 4837.97,1679.98C4829.57,1675.83 4821.8,1668.53 4815.64,1662.41C4811.32,1658.1 4807.26,1653.59 4803.21,1649.09C4802.26,1650.49 4801.31,1651.9 4800.61,1653.4C4798.89,1657.12 4797.23,1660.88 4795.94,1664.72C4793.32,1672.51 4792.97,1681.56 4795.23,1689.44C4797.38,1696.88 4802.08,1706 4809.03,1711.17C4816.09,1716.42 4825.94,1718.59 4831.87,1724.88C4835.71,1728.95 4840.44,1736.98 4842.21,1741.15C4846.83,1752.02 4836.05,1754.74 4830.81,1762.94C4822.35,1776.19 4825.68,1794.83 4836.77,1806.12C4845.68,1815.17 4858.24,1830.63 4872.34,1837.17C4883.03,1842.13 4895.04,1839.64 4905.48,1845.65C4925.83,1857.37 4941.41,1874.16 4962.04,1885.4C4969.9,1889.69 4978.41,1893.04 4986.82,1896.49C4997.45,1900.85 5008.28,1904.86 5019.13,1908.83C5032.39,1913.69 5045.76,1918.34 5059.13,1922.99C5054.3,1922.11 5049.47,1921.23 5044.7,1920.12C5024.64,1915.48 5008.39,1911.7 4989.57,1905.39C4976.42,1900.98 4961.73,1895.42 4949.75,1888.89C4928.19,1877.14 4911.64,1860.03 4890.19,1848.08C4887.01,1846.3 4877.93,1841.3 4871.91,1841.36C4867.55,1841.4 4861.25,1846.65 4859.44,1847.67C4848.72,1853.74 4833.03,1859.62 4821.84,1850.7C4819.15,1848.56 4817.03,1845.9 4815.19,1843.18C4807.41,1831.65 4797.07,1816.21 4791.93,1802.42C4788.17,1792.34 4787.41,1785.93 4783.59,1776.46C4779.1,1765.33 4771.85,1752.99 4765.37,1743.24C4761.05,1736.74 4756.39,1730.38 4751.2,1724.36C4746.08,1718.41 4735.19,1712.59 4734.14,1704.15C4732.31,1689.51 4736.8,1675.46 4736.08,1660.93C4735.65,1652.29 4732.01,1640.59 4728.93,1632.71C4721.65,1614.04 4711.53,1599.17 4691.74,1588.61C4690.45,1599.31 4686.25,1610.9 4675.81,1617.65C4671.62,1620.37 4668.22,1621.4 4662.93,1622.6C4661.17,1623 4657.51,1623.23 4657.51,1623.23L4644.4,1638.45L4613.61,1627.93C4611.33,1628.39 4609,1628.86 4606.92,1629.79C4603.39,1631.36 4599.78,1634.69 4600.23,1638.45C4601.4,1648.12 4608.65,1656.26 4613.22,1664.85C4614.41,1667.09 4621.96,1683.43 4624.89,1687.91C4629.46,1694.89 4635.42,1700.12 4642.57,1705.43C4645.75,1707.8 4649.4,1709.68 4652.92,1711.65C4654.31,1712.43 4655.81,1713.06 4657.3,1713.69C4651.21,1711.56 4645.12,1709.42 4639.25,1706.89C4631.08,1703.37 4618.73,1697.85 4613.13,1690.71C4607.07,1682.97 4605.08,1678.07 4601.81,1669.27C4599.87,1664.02 4599.14,1658.39 4596.41,1653.4C4594.31,1649.57 4590.66,1646.53 4587.57,1643.24C4580.23,1635.43 4572.28,1628.05 4565.11,1620.12C4555.13,1609.08 4548.06,1595.96 4547.95,1581.78C4543.59,1577.42 4541.8,1572.65 4540.21,1567.16C4540.12,1566.85 4540.03,1566.54 4539.94,1566.23C4537.11,1556.94 4532.54,1551.86 4522.83,1547.52C4522.55,1547.39 4522.27,1547.26 4521.99,1547.13C4497.62,1535.88 4495.82,1505.81 4491.6,1485.36C4491.38,1484.28 4491.15,1483.21 4490.93,1482.13C4488.36,1470.02 4486.26,1451.44 4475.56,1441.79C4475.29,1441.56 4475.02,1441.32 4474.75,1441.09C4470.33,1437.27 4465.59,1433.77 4460.86,1430.23C4460.31,1429.83 4459.77,1429.42 4459.23,1429.01C4449.28,1421.47 4442.09,1413.2 4437.97,1402.3C4437.9,1402.11 4437.82,1401.91 4437.74,1401.71C4435.08,1395.18 4428.51,1388.73 4419.68,1391.96L4419.66,1391.97L4419.08,1392.14L4377.31,1401.38C4373.38,1401.77 4366.26,1398.94 4363.63,1398.22C4354.76,1395.77 4345.89,1393.28 4337.18,1390.43C4342.14,1397.06 4335.16,1403.96 4341.47,1410.81C4352.57,1422.87 4370.83,1432.94 4371.05,1449.54C4371.12,1454.4 4370.62,1457.62 4374.41,1461.73C4375.57,1462.99 4377.35,1463.83 4379.12,1464.36C4381.09,1464.95 4383.24,1464.97 4385.33,1465C4389.7,1456.15 4394.07,1447.31 4398.11,1438.34C4400.42,1433.24 4401.81,1427.57 4402.8,1422.18C4403.34,1419.25 4403.7,1416.3 4404.07,1413.36C4406.01,1412.89 4407.96,1412.41 4409.96,1412.18C4414.5,1411.65 4421.64,1411.8 4424.02,1416.09C4428.23,1423.72 4421.35,1433.51 4425.43,1441.84C4427.81,1446.72 4434.52,1447.6 4436.96,1452.65C4438.88,1456.63 4438.6,1461.2 4437.37,1465.26C4435.02,1473.05 4433.15,1481.19 4428.45,1488.15C4430.8,1487.91 4431.95,1487.75 4431.95,1487.75C4431.34,1488.27 4430.73,1488.79 4430.27,1489.4C4429.05,1491.01 4427.71,1492.6 4426.93,1494.39C4425.76,1497.09 4424.68,1499.89 4424.47,1502.77C4423.82,1511.52 4426.23,1518.53 4429.52,1526.71C4430.77,1529.8 4432.29,1532.81 4433.95,1535.75C4435.43,1538.37 4437.19,1540.87 4438.95,1543.36C4438.95,1543.36 4441.88,1542.02 4443.44,1542.15C4445.78,1542.34 4448.15,1542.76 4450.3,1543.58C4456.31,1545.87 4462.56,1549.19 4467.28,1553.27C4472.12,1557.45 4474.82,1562.06 4477.27,1567.71C4480.6,1575.42 4479.65,1581.86 4485.17,1588.82C4487.37,1591.59 4489.85,1594.2 4492.33,1596.81C4495.52,1600.16 4498.85,1603.42 4502.18,1606.68L4480.65,1603.99C4479.98,1601.58 4479.32,1599.15 4478.3,1596.83C4475.7,1590.91 4471.32,1583.61 4464.73,1580.24C4459.47,1577.56 4456.56,1585.12 4451.12,1584.07C4441.47,1582.2 4439.9,1575.41 4437.18,1568.72C4435.15,1563.75 4427.06,1548.76 4425.6,1546.49C4421.36,1539.92 4415.69,1545.45 4409.56,1543.28C4407.3,1542.49 4405.08,1541.55 4403.1,1540.31C4400.69,1538.8 4398.59,1536.94 4396.51,1535.1L4381.59,1535.97C4375.21,1547.63 4357.19,1548.72 4344.18,1549.55C4339.81,1549.84 4335.42,1550.07 4331.03,1550.11C4327.39,1550.14 4323.76,1550.01 4320.13,1549.77C4315.69,1549.47 4310.59,1548.91 4306.27,1547.6L4306.17,1547.57L4306.1,1547.55L4305,1547.06L4304.07,1546.37L4266.99,1511.51C4266.89,1511.6 4266.89,1511.6 4266.78,1511.69C4266.68,1511.78 4266.56,1511.86 4266.45,1511.95C4256.16,1519.78 4240.21,1512.92 4230.52,1507.86C4229.18,1507.16 4227.84,1506.46 4226.51,1505.76C4216.26,1500.36 4214.01,1499.11 4204.16,1493.82C4203.38,1493.4 4202.6,1492.98 4201.82,1492.57C4195.63,1489.28 4189.28,1486.29 4182.82,1483.4C4182.15,1483.11 4181.49,1482.8 4180.82,1482.5C4178.49,1481.44 4176.17,1480.38 4173.85,1479.32C4172.91,1478.9 4171.97,1478.47 4171.04,1478.05C4158.06,1472.24 4139.82,1463.47 4124.1,1465.66C4123.66,1465.73 4123.22,1465.8 4122.78,1465.87C4112.93,1467.33 4102.77,1467.65 4092.87,1466.36C4092.51,1467 4092.15,1467.64 4091.79,1468.28C4091.57,1468.66 4091.36,1469.04 4091.14,1469.42C4094.7,1474.14 4103.97,1486.1 4109.81,1491.58C4112.59,1494.19 4116.64,1495.7 4119.22,1498.46C4125.27,1504.9 4124.06,1514.69 4128.9,1521.9C4134.56,1530.31 4148.33,1533.91 4151.95,1543.36C4156.35,1554.84 4147.46,1567.38 4152.54,1578.79C4157.6,1590.14 4169.38,1598.32 4177.9,1608.02C4183.28,1614.15 4188.5,1620.37 4193.73,1626.59C4181.46,1619.17 4169.18,1611.75 4157.32,1603.85C4143.23,1594.47 4124.36,1582.78 4115.3,1568.39C4109.27,1558.83 4110.93,1558.14 4103.08,1549.51C4101.09,1547.31 4098.79,1545.33 4096.5,1543.36C4094,1543.9 4091.49,1544.45 4088.94,1544.7C4086.24,1544.96 4083.5,1545.07 4080.8,1544.87C4070.01,1544.06 4060.42,1540.17 4051.31,1535.38C4048.17,1533.72 4045.15,1531.9 4042.13,1530.08L4026.35,1532.99C4024.86,1535.47 4023.36,1537.96 4021.67,1540.34C4017.51,1546.19 4010.07,1550.34 4006.59,1556.39C4005.61,1558.09 4005.2,1560.03 4004.97,1561.92C4004.7,1564.07 4004.89,1566.24 4005.08,1568.39L4024.07,1576.13L4007.69,1586.96C4011.21,1589.23 4014.73,1591.51 4017.98,1594.06C4028.55,1602.37 4035.29,1612.83 4044.72,1621.87C4049.81,1626.74 4055.08,1629.54 4062.38,1632.13C4072.13,1635.58 4072.7,1633.42 4082.67,1636.42C4086.18,1637.48 4091.16,1641.5 4093.34,1643.48C4097.89,1647.6 4102.32,1651.82 4106.53,1656.2C4112.05,1661.94 4117.27,1667.89 4122.49,1673.83C4116.13,1669.27 4109.75,1664.7 4102.98,1660.61C4095.89,1656.32 4085.02,1650.4 4075.9,1647.81C4066.21,1645.05 4055.74,1646.45 4046.13,1643.61C4038.79,1641.44 4035.5,1635.13 4029.85,1631.05C4027.95,1629.67 4025.82,1628.52 4023.64,1627.48C4021.44,1626.42 4019.09,1625.6 4016.75,1624.77L4012.23,1646.14C4012.23,1646.14 4012.14,1646.28 4011.98,1646.51C4013.06,1647.35 4014.17,1648.21 4015.28,1649.08L4015.61,1649.19C4016.71,1649.56 4017.81,1649.92 4018.91,1650.29C4021.16,1651.05 4024.85,1652.33 4026.88,1653.58C4036.76,1659.65 4033.4,1668.82 4028.5,1676.68C4028.35,1676.92 4028.21,1677.16 4028.06,1677.39C4017.16,1695.53 4013.73,1717.62 4016.93,1737.77C4016.93,1737.77 4017.36,1741.08 4017.04,1742.71C4016.69,1744.57 4016.25,1746.43 4015.53,1748.2C4014.02,1751.93 4011.05,1755.1 4008.35,1758.21C4008.18,1758.41 4008,1758.61 4007.83,1758.81C4005.03,1762.13 4004.7,1763.97 4008.49,1766.95C4008.49,1766.95 4009.55,1768.1 4009.82,1768.79C4027.04,1774.15 4045.26,1776.83 4063.17,1779.84C4063.55,1779.9 4063.92,1779.97 4064.29,1780.03C4089.35,1784.57 4113.99,1794.01 4136.31,1804.44C4120.7,1790.9 4108.05,1775.59 4097.57,1758.83C4095.59,1755.66 4093.78,1752.4 4092.25,1749.06C4091.28,1746.94 4090.67,1744.7 4090.08,1742.48C4096.09,1748.46 4102.1,1754.45 4108.24,1760.34C4117.68,1769.42 4129.59,1783.49 4142.66,1789.37C4154.49,1794.68 4168.96,1788.49 4180.27,1786.41C4182.4,1786.01 4186.74,1785.98 4188.71,1787.38C4200.6,1795.8 4203.48,1812.56 4219.33,1817.59C4224.79,1819.32 4229.97,1816.53 4235.02,1815.21C4245.81,1812.41 4256.2,1814.89 4263.77,1822.09C4269.41,1827.46 4273.59,1834.89 4273.61,1842.22C4273.63,1847.08 4271.68,1847.88 4270.77,1853.23C4269.75,1859.17 4271.01,1863.02 4273.98,1868.63C4284.75,1888.98 4302.45,1906.92 4318.85,1924C4330.56,1931.14 4341.29,1939.42 4352.18,1947.44C4353.12,1948.14 4354.07,1948.83 4355.02,1949.52C4383.04,1970.02 4412.99,1988.53 4447.73,1999.79L4448.12,1999.92C4406.85,1988.69 4372.66,1967.45 4338.95,1944.98C4338.03,1944.36 4337.11,1943.75 4336.19,1943.14C4326.37,1936.64 4316.39,1930.16 4305.42,1925.14C4305.14,1925.01 4304.85,1924.87 4304.57,1924.74C4273.07,1909.8 4247.19,1885.88 4223.36,1863.32L4222.98,1862.97C4222.58,1862.91 4222.18,1862.86 4221.78,1862.8C4221.37,1862.75 4220.97,1862.69 4220.57,1862.63C4200.59,1859.56 4178.34,1852.6 4167.68,1836.76C4167.6,1836.63 4167.52,1836.51 4167.43,1836.39C4160.91,1827.36 4148.31,1821.19 4138.03,1815.97C4114.74,1804.15 4087.76,1793.66 4061.05,1789.18C4057.38,1788.57 4053.72,1787.98 4050.05,1787.37C4023.67,1783 3998.1,1777.31 3975.25,1764.78C3975.06,1764.67 3974.86,1764.57 3974.67,1764.46C3959.99,1756.69 3942.45,1753.29 3925.67,1750.8C3899.51,1746.92 3872.91,1745.47 3846.47,1743.81C3846,1743.78 3845.54,1743.75 3845.07,1743.72C3829.08,1742.6 3813.2,1740.14 3797.81,1736.16L3781.92,1739.88C3781.92,1739.88 3772.93,1752.36 3763.59,1758.84C3764.72,1773.32 3772.95,1787.56 3781.92,1799.52C3798.91,1822.19 3816.61,1844.44 3841.75,1861.06C3858.05,1871.83 3876.65,1878.49 3890.52,1891.96C3906.79,1907.76 3917.54,1927.45 3932.63,1944.09C3953.71,1967.34 3977.77,1991.27 4005.41,2009.01C4005.73,2009.19 4005.7,2009.19 4005.41,2009.01C3969.72,1988.72 3933.2,1967.62 3902.55,1941.72C3892.59,1933.31 3888.24,1929.15 3881.71,1919.12C3875.38,1909.4 3870.98,1899.78 3862.47,1891.18C3846.49,1875.03 3822.11,1865.41 3803.06,1852.31C3781.87,1837.73 3764.62,1821.61 3750.7,1801.72C3742.06,1789.38 3738.67,1783.21 3728.53,1772.75C3725.74,1769.88 3722.6,1767.25 3719.48,1764.64C3719,1765.88 3718.53,1767.13 3718.2,1768.41C3717.39,1771.61 3716.45,1774.82 3716.08,1778.08C3715.59,1782.45 3715.49,1786.85 3715.66,1791.24C3716.06,1801.57 3722.8,1812.56 3726.35,1821.9C3728.62,1827.9 3730.65,1833.97 3732.62,1840.04C3734.86,1846.92 3736.91,1853.83 3738.97,1860.75C3733.93,1849.36 3728.89,1837.96 3723.37,1826.74C3717.71,1815.22 3708.52,1793.14 3696.32,1782.96C3690,1777.68 3683.03,1773.71 3674.73,1771.26C3671.45,1770.3 3668,1769.82 3664.59,1769.34L3664.59,1769.34C3648.18,1774.96 3630.41,1777.92 3612.96,1780.16L3612.96,1770.87C3620.1,1769.79 3627.38,1769.57 3634.06,1766.81C3641.44,1763.76 3660.28,1755.37 3668.42,1749.59C3675.45,1744.58 3677.21,1734.21 3685.49,1730.69C3689.23,1729.1 3693.14,1730.83 3696.72,1731.85C3704.04,1733.95 3705.75,1735.49 3712.59,1736.28C3729.07,1738.19 3744.69,1730 3756.72,1721.24C3737.46,1711.94 3720.74,1699.88 3706.44,1685.52C3705.99,1685.08 3705.54,1684.63 3705.09,1684.18C3700.93,1680.06 3696.63,1676.04 3692.12,1672.2C3678.96,1669.69 3669.08,1667.74 3657.12,1663.48C3653.3,1662.12 3649.59,1660.55 3645.92,1658.91C3642.13,1657.22 3638.45,1655.37 3634.76,1653.52L3635.41,1652.65C3634.32,1653.01 3633.28,1653.23 3632.14,1653.4C3632.3,1653.37 3632.47,1653.34 3632.64,1653.3C3633.67,1653.09 3634.59,1652.83 3635.57,1652.44L3640.26,1646.17C3631.12,1644.23 3621.91,1643.76 3612.96,1644.75L3612.96,1633.64C3615.55,1633.37 3618.15,1633.21 3620.75,1633.17C3621.14,1633.17 3621.52,1633.16 3621.9,1633.16C3630.19,1633.21 3638.39,1634.78 3646.35,1636.65C3647.41,1635.51 3648.97,1634.08 3650.86,1632.48C3652.35,1630.82 3654.07,1629.36 3656.01,1628.1C3656.53,1627.77 3657.05,1627.45 3657.56,1627.12C3664.2,1622.04 3672.28,1616.39 3678.9,1612.21C3689.45,1602.97 3700.95,1590.99 3697.35,1576.92L3697.34,1576.89C3697.01,1574.74 3699.2,1574.41 3701,1574.79C3701.42,1574.88 3701.84,1574.96 3702.26,1575.05C3706.71,1575.93 3712.48,1576.9 3717.09,1577.42C3719.67,1577.71 3722.26,1577.98 3724.86,1578.12C3737.1,1578.77 3742.95,1577.05 3751.82,1569.78C3753.53,1568.38 3755.19,1566.93 3756.82,1565.46C3759.88,1562.7 3762.88,1559.89 3765.89,1557.09C3766.54,1556.48 3767.2,1555.88 3767.85,1555.27C3778.87,1545.17 3787.49,1539.63 3803.68,1539.12C3804.14,1539.11 3804.6,1539.09 3805.06,1539.07C3814.31,1538.68 3825.16,1537.05 3831.7,1530.85C3832.01,1530.51 3832.35,1530.18 3832.7,1529.84C3834.77,1527.59 3836.49,1524.75 3837.06,1521.88L3837.06,1521.86L3837.07,1521.83L3837.16,1521.49C3837.74,1520.3 3839.03,1519.78 3840.44,1520.12C3840.86,1520.25 3841.28,1520.38 3841.7,1520.51C3844.88,1521.47 3848.07,1522.38 3851.29,1523.24C3854.62,1524.13 3857.96,1524.99 3861.33,1525.77C3872.31,1528.33 3892.4,1534.84 3901.64,1525.29C3902.03,1524.88 3902.43,1524.47 3902.82,1524.06C3910.1,1516.62 3923.16,1520.46 3932.03,1523.77L3932.11,1523.8C3932.27,1523.71 3932.43,1523.63 3932.59,1523.54C3932.81,1523.43 3933.02,1523.32 3933.24,1523.21C3939.8,1519.95 3946.96,1517.8 3954.18,1515.93C3954.35,1515.89 3954.51,1515.85 3954.66,1515.8C3961.73,1513.8 3967.6,1508.52 3968.34,1501.96L3968.34,1501.94L3968.34,1501.91L3968.41,1501.54C3968.66,1500.91 3968.66,1500.96 3969.03,1500.55L3969.03,1500.55C3971.34,1498.67 3976.22,1498.49 3979.07,1498.19C3976.97,1491.88 3981.81,1487.74 3985.61,1483.16C3990.95,1476.73 3992.15,1473 3981.38,1471.35C3977.52,1470.76 3973.56,1470.61 3969.64,1470.68C3965.97,1470.74 3962.21,1470.85 3958.68,1471.73C3946.18,1474.84 3946.3,1490.25 3940.24,1498.18C3938.27,1500.76 3935.79,1503.04 3933.2,1505.17C3930.46,1507.43 3927.39,1509.37 3924.33,1511.3C3925.78,1508.98 3927.23,1506.63 3928.23,1504.14C3931.77,1495.39 3928.67,1487.69 3929.37,1478.83C3929.55,1476.5 3930.23,1474.2 3931.12,1472C3931.98,1469.87 3933.29,1467.89 3934.58,1465.94L3950.55,1463.65C3936.29,1463.9 3925.93,1464.31 3918.78,1475.86C3917.53,1477.88 3916.32,1479.93 3915.23,1482.03C3913.58,1485.22 3911.63,1489.68 3910.41,1493.16L3910.39,1493.22L3909.59,1494.46L3908.26,1495.28C3901.66,1496.31 3892.83,1494.61 3887,1493.75C3869.65,1491.16 3854.03,1488.14 3839.06,1480.35C3838.82,1480.23 3838.58,1480.1 3838.34,1479.98C3833.2,1477.43 3827.42,1477.93 3821.84,1479.14C3812.77,1481.11 3804.06,1483.98 3795.94,1488L3795.78,1488.08L3795.62,1488.16L3785.62,1497.71L3785.33,1497.88C3787.91,1521.72 3760.2,1538.49 3738.95,1549.13C3738.42,1549.34 3737.9,1549.54 3737.38,1549.73C3731.57,1551.92 3725.64,1553.97 3719.57,1555.56L3719.48,1555.58C3719.7,1555.45 3719.93,1555.32 3720.16,1555.19C3720.43,1555.04 3720.7,1554.88 3720.97,1554.72C3726.1,1551.68 3731.09,1548.41 3735.89,1545L3735.93,1544.97C3736.38,1544.72 3736.82,1544.47 3737.26,1544.21C3737.57,1544.03 3737.88,1543.85 3738.19,1543.67C3740.31,1542.42 3742.41,1541.16 3744.49,1539.87C3744.82,1539.66 3745.16,1539.45 3745.5,1539.25C3761.46,1529.38 3787.74,1510.93 3775.92,1491.24L3775.9,1491.2L3774.56,1488.97C3752.55,1483.16 3729.75,1496.65 3711.8,1505.82C3711.01,1506.21 3710.23,1506.61 3709.44,1507.01C3708.83,1507.31 3708.21,1507.62 3707.6,1507.93C3707.37,1508.04 3707.13,1508.16 3706.9,1508.28C3702.09,1510.76 3697.55,1513.62 3693.05,1516.5C3690.92,1517.86 3688.8,1519.23 3686.68,1520.6C3678.63,1525.75 3629.99,1548.11 3612.96,1550.06L3612.96,1548.28ZM4307.72,1917.82C4295.88,1908.28 4263.96,1888.01 4252.11,1871.07C4248.81,1866.36 4245.78,1861.5 4243.16,1856.49C4241.27,1852.86 4240.02,1849.01 4238.62,1845.21C4238.08,1843.73 4237.72,1842.21 4237.36,1840.68L4222.78,1838.91L4206.36,1823.1C4205.02,1821.52 4203.68,1819.93 4202.11,1818.51C4196.63,1813.53 4189.49,1808.47 4181.81,1806.3C4178.31,1805.32 4175.48,1805.56 4172.23,1807.45C4170.96,1808.18 4170.26,1809.46 4169.44,1810.57C4169.07,1811.07 4168.87,1811.66 4168.68,1812.24L4157.07,1815.4C4164.94,1820.19 4172.65,1825.67 4177.51,1832.95C4177.61,1833.11 4177.72,1833.27 4177.84,1833.42C4187.37,1846.79 4209.14,1852.29 4226.15,1854.25C4226.15,1854.25 4227.69,1854.6 4228.38,1854.91C4229.32,1855.34 4230.03,1856.24 4230.72,1856.9C4231.2,1857.37 4231.68,1857.83 4232.16,1858.29C4249.99,1875.32 4268.93,1891.95 4289.72,1906.32C4290.29,1906.71 4290.84,1907.12 4291.41,1907.52C4296.43,1911.05 4302.05,1914.74 4307.72,1917.82ZM3995.11,1761.18L3993.36,1762.63C3993.88,1762.87 3994.41,1763.1 3994.93,1763.32C3994.91,1762.6 3994.97,1761.89 3995.11,1761.18ZM3864.78,1734.95C3864.4,1731.19 3867.77,1726.9 3869.34,1723.81C3871.12,1720.3 3870.14,1718.38 3865.18,1719.66C3858.48,1721.39 3851.85,1723.28 3845.26,1725.29C3838.87,1727.25 3832.56,1729.4 3826.26,1731.56C3833.24,1732.6 3840.28,1733.34 3847.35,1733.81C3849.38,1733.94 3851.41,1734.07 3853.43,1734.2C3857.22,1734.45 3861,1734.7 3864.78,1734.95ZM4002.66,1653.89C3989.49,1647.4 3987.52,1638.38 3990.03,1626.31C3990.31,1624.96 3990.61,1623.62 3990.89,1622.27C3993.7,1608.84 3992.97,1595.81 3988.31,1582.72C3988.17,1582.3 3988.02,1581.88 3987.88,1581.47C3983.96,1570.08 3980.13,1557.04 3988.13,1546.31C3991.36,1541.98 3997.3,1538.76 4002.04,1535.68C4002.45,1535.42 4002.86,1535.15 4003.27,1534.88C4006.18,1532.97 4008.89,1531 4011.63,1528.94C4011.95,1528.7 4012.28,1528.46 4012.61,1528.21C4017.69,1524.49 4023.12,1521.13 4028.81,1518.12C4011.69,1510.26 3993.9,1498.99 3973.48,1503.86L3973.44,1503.87C3973.4,1504.03 3973.36,1504.19 3973.32,1504.36C3973.29,1504.48 3973.25,1504.61 3973.22,1504.74C3970.82,1513.06 3963.49,1518.34 3954.29,1520.68C3953.95,1520.77 3953.6,1520.85 3953.26,1520.94C3947.24,1522.54 3939.39,1524.84 3933.86,1528.24L3933.85,1528.24C3932.99,1528.69 3930,1527.86 3930.85,1528.31C3930.85,1528.31 3930.69,1528.24 3930.61,1528.2C3930.52,1528.16 3930.42,1528.12 3930.33,1528.08C3925.49,1526.12 3919.97,1525.22 3914.77,1524.34C3914.64,1524.32 3914.5,1524.3 3914.37,1524.28C3910.08,1523.69 3908.07,1525.66 3905.51,1528.29C3905.37,1528.44 3905.22,1528.59 3905.08,1528.73C3895.28,1538.43 3877.25,1533.83 3864.93,1531.13C3861.4,1530.36 3857.88,1529.53 3854.39,1528.63C3850.08,1527.51 3845.79,1526.33 3841.54,1525.07L3841.33,1525.01C3841.28,1525.14 3841.23,1525.28 3841.17,1525.42C3841.11,1525.56 3841.05,1525.71 3840.99,1525.85C3839.73,1528.78 3837.83,1531.49 3835.38,1533.79C3836.53,1541.23 3843.32,1545.94 3848.87,1551.03C3853.26,1555.06 3857.91,1558.88 3862.33,1562.88C3865.61,1565.85 3868.55,1569.09 3871.95,1571.95C3878.56,1577.5 3884.57,1574.52 3889.94,1569.41C3895.75,1563.89 3902.92,1552.54 3912.64,1550.87C3914.59,1550.53 3917.01,1552.94 3917.9,1553.79C3921.46,1557.2 3925.55,1563.4 3932.02,1563.08C3938.53,1562.75 3937.92,1560.52 3944.4,1560.26C3949.05,1560.07 3954.78,1561.9 3959.46,1561.4C3961.84,1561.15 3964.04,1560.18 3966.26,1559.43C3966.87,1559.23 3967.32,1558.35 3967.94,1558.54C3968.46,1558.71 3967.28,1559.31 3966.87,1559.62C3963.65,1562.05 3960.44,1564.48 3957.05,1566.73C3941.97,1576.75 3927.31,1585.45 3910.82,1593.93C3895.76,1601.66 3882.2,1607.95 3865.89,1612.95C3856.45,1615.84 3843.33,1614.97 3837.77,1622.15C3834.61,1626.23 3836.14,1635.4 3836.1,1638.39C3836.03,1644 3837.16,1651.46 3833.61,1656.93C3828.35,1665.03 3814.72,1668.91 3805.1,1671.39C3801.04,1672.43 3796.86,1673.13 3792.7,1673.83C3794.06,1673.41 3795.43,1672.98 3796.71,1672.4C3799.75,1671.03 3802.93,1669.78 3805.64,1667.97C3816.14,1660.95 3821.91,1652.5 3818.97,1640.93C3818.56,1639.34 3815.82,1639.82 3814.93,1640.17C3807.2,1643.14 3807.65,1644.6 3798.87,1647.22C3791.98,1649.27 3781.3,1650.55 3774.18,1651.21C3769.37,1651.66 3764.54,1651.95 3759.71,1652.23C3761.56,1651.69 3763.41,1651.15 3765.18,1650.47C3769.66,1648.74 3774.22,1647.13 3778.45,1645C3790.36,1639.02 3801.82,1631.98 3809.56,1621.97C3816.42,1613.1 3819.78,1601.94 3818.66,1591.31C3818.28,1587.72 3817.57,1584.15 3816.78,1580.6C3816.47,1579.19 3815.92,1577.82 3815.37,1576.46C3816.47,1577.07 3817.59,1577.69 3818.8,1578.12C3821.21,1578.98 3823.65,1579.82 3826.19,1580.31C3830.5,1581.14 3834.31,1579.12 3835.24,1575.37C3838.45,1562.44 3825.49,1551.51 3827.37,1539.02C3819.38,1542.54 3810.01,1543.17 3801.2,1543.44C3800.78,1543.46 3800.36,1543.47 3799.94,1543.49C3795.72,1543.68 3791.71,1544.48 3787.82,1545.9C3787.69,1545.95 3787.69,1545.95 3787.57,1545.99C3778.41,1549.64 3771.26,1558.25 3764.68,1564.32C3764.02,1564.93 3763.36,1565.55 3762.69,1566.16C3761.3,1567.42 3759.91,1568.68 3758.49,1569.92C3757.41,1576.79 3756.33,1586.01 3759.71,1592.81C3760.82,1595.02 3762.31,1597.08 3763.84,1599.11C3764.95,1600.58 3766.39,1601.84 3767.6,1603.26C3768.13,1603.88 3769.57,1604.57 3769.05,1605.21C3768.52,1605.87 3767.14,1605.2 3766.26,1604.91C3764.16,1604.22 3762.17,1603.29 3760.25,1602.28C3753.69,1598.84 3748.45,1594.17 3740.75,1592.55C3739.77,1592.35 3737.34,1592.62 3736.75,1593.65C3732.1,1601.86 3739.53,1611.86 3745.64,1617.68C3747.95,1619.88 3750.43,1621.95 3752.91,1624.01C3750.05,1623.45 3747.17,1622.89 3744.44,1621.99C3736.39,1619.33 3730.73,1615.9 3723.83,1611.27C3718.35,1607.58 3713.09,1603.66 3707.83,1599.75C3705.73,1602.09 3703.63,1604.44 3701.26,1606.58C3697.2,1610.24 3693.14,1613.94 3688.56,1617.13C3680.13,1623.01 3659.52,1629.91 3665.46,1642.65C3665.46,1642.65 3670.59,1644.8 3673.02,1646.08C3676.73,1648.02 3680.42,1650.01 3683.89,1652.26C3696.45,1660.39 3707.21,1670.28 3717.34,1680.56C3717.56,1680.79 3717.79,1681.01 3718.01,1681.24C3733.46,1696.61 3752.9,1708.84 3774.23,1717.53C3780.64,1716.49 3787.08,1715.46 3793.56,1714.85C3802.5,1713.99 3811.74,1714.99 3820.46,1713.13C3833.65,1710.32 3845.19,1699.81 3855.57,1693.16C3872.52,1682.3 3879.66,1679.22 3896.49,1666.84C3904.3,1661.1 3911.7,1654.95 3919.01,1648.75C3927.34,1641.68 3935.38,1634.36 3943.41,1627.04C3943.69,1628.05 3943.97,1629.07 3943.98,1630.1C3944.01,1635.52 3943.83,1638.9 3941.81,1643.83C3938.48,1651.92 3932.74,1657.86 3926.1,1664.12C3922.38,1667.64 3918.39,1670.51 3915.82,1674.75C3915.39,1675.44 3914.01,1678.33 3915.88,1679.12C3917.23,1679.69 3918.81,1679.76 3920.31,1679.84C3921.25,1679.89 3922.2,1679.69 3923.12,1679.5C3923.18,1680.09 3923.24,1680.7 3923.13,1681.28C3922.82,1682.84 3922.61,1684.45 3921.85,1685.89C3920.65,1688.16 3919.28,1690.42 3917.33,1692.27C3914.55,1694.88 3897.45,1702.4 3901.53,1708.73C3905.82,1715.39 3921.61,1717.02 3928.69,1718.12C3944.43,1720.58 3957.7,1722.7 3973.25,1719.66C3985.98,1717.17 3998.89,1700.83 3982.31,1694.09C3979.1,1692.79 3966.86,1692.56 3965.42,1688.85C3964.71,1687 3969.15,1684.49 3969.84,1684.16C3977.61,1680.5 3985.83,1677.58 3993.54,1673.83C4001.26,1670.07 4002.43,1660.39 4002.66,1653.89ZM5141.95,1490.21L5114.02,1493.14C5113.92,1493.34 5113.81,1493.53 5113.7,1493.71C5108.58,1502.69 5100.3,1511.21 5088.16,1512.65C5088.06,1512.66 5087.96,1512.68 5087.85,1512.69C5080.16,1514.04 5072.87,1523.15 5068.52,1527.57C5067.11,1529 5065.72,1530.43 5064.31,1531.86C5057.98,1538.28 5051.18,1545.5 5042.4,1549.6C5035.48,1552.83 5026.55,1553.22 5018.93,1553.99C5004.12,1555.48 4989.25,1556.49 4974.37,1557.24L4974.47,1557.23L4954.42,1563.19L4876.26,1592.65C4867.37,1595.24 4857.51,1592.15 4852.42,1585.58C4852.38,1585.54 4852.34,1585.49 4852.3,1585.44C4849.53,1582.63 4842.85,1582.14 4839.07,1581.7C4826.38,1580.22 4812.05,1579.99 4799.69,1583.24C4799.49,1583.29 4799.49,1583.29 4799.29,1583.34C4791.97,1585.01 4783.95,1583.04 4776.88,1581.46C4775.3,1581.11 4773.73,1580.75 4772.15,1580.39C4766.54,1579.15 4757.8,1576.4 4752.26,1579.3C4751.98,1579.45 4751.7,1579.6 4751.43,1579.76C4749.72,1580.72 4748.03,1581.71 4746.34,1582.69C4745.87,1582.96 4745.4,1583.23 4744.93,1583.5C4738.94,1586.88 4732.12,1589.91 4724.84,1588.06C4729.85,1599.71 4738.03,1614.17 4753.07,1618.4C4758.52,1619.93 4765.15,1619.6 4770.32,1617.42C4772.9,1616.33 4775.33,1614.98 4777.71,1613.59C4778.71,1613 4779.58,1612.25 4780.43,1611.5L4791.82,1619.74L4805.01,1613.05C4806.78,1616.65 4808.56,1620.27 4810.7,1623.73C4812.78,1627.09 4815.02,1630.4 4817.65,1633.46C4825.13,1642.17 4835.95,1652.02 4846.44,1658.16C4853,1662.01 4858.72,1663.56 4866.14,1661.44C4874,1659.2 4881.76,1656.72 4889.52,1654.23L4893.11,1662.47L4908.1,1660.41C4908.1,1660.41 4912.62,1669.04 4918.57,1679.88C4943,1673.78 4942.41,1648.43 4953.05,1632.66C4955.85,1628.52 4958.89,1624.48 4962.32,1620.71C4964.56,1618.24 4967.34,1616.17 4970,1614.03C4970.97,1613.25 4972.09,1612.6 4973.2,1611.96C4973.8,1612.28 4974.42,1612.61 4975.09,1612.79C4976.65,1613.21 4978.23,1613.79 4979.88,1613.77C4983.9,1613.72 4986.82,1612.88 4989.6,1610.57C4996.32,1604.99 5000.68,1597.64 5006.33,1591.24C5008.59,1588.68 5011.03,1586.24 5013.47,1583.8C5013.47,1583.8 5014.15,1586.3 5015.35,1586.52C5020.59,1587.48 5028.2,1583.29 5031.27,1581.39C5041.92,1574.8 5049.24,1567.58 5057.02,1558.56C5061.19,1553.73 5064.96,1548.65 5068.73,1543.58C5078.13,1539.9 5087.53,1536.21 5096.82,1532.32C5109.01,1527.21 5117.81,1519.76 5126.67,1510.9C5129.94,1507.63 5132.75,1504.04 5135.67,1500.53C5136.85,1499.11 5137.91,1497.61 5138.96,1496.12L5141.95,1490.21ZM4650.76,1572.87C4639.9,1577.36 4632.5,1580.21 4620.9,1582.59C4620.39,1582.69 4616.36,1582.91 4616.54,1581.08C4617.47,1571.76 4629.69,1566.53 4629.31,1556.79C4629.23,1554.72 4628.43,1552.7 4627.53,1550.79C4626.46,1548.53 4624.95,1546.44 4623.45,1544.38C4620.11,1546.92 4616.77,1549.47 4613.24,1551.82C4605.88,1556.73 4595.76,1563.82 4585.88,1564.05C4580.32,1564.18 4575.42,1561.62 4571.06,1558.95C4568.6,1557.44 4566.61,1555.43 4564.51,1553.57C4563.6,1552.77 4562.82,1551.86 4562.05,1550.95L4544.96,1558.58C4546.37,1561.61 4547.24,1564.74 4548.16,1567.9C4548.25,1568.18 4548.33,1568.47 4548.42,1568.76C4550.56,1575.58 4556.01,1580.23 4562.54,1584.36C4563.71,1585.1 4564.9,1585.83 4566.07,1586.56C4574.46,1591.81 4583.16,1597.23 4590.98,1603.2C4590.98,1603.2 4593.04,1604.16 4594.09,1604.61C4595.33,1605.14 4596.57,1605.68 4597.84,1606.15C4601.14,1607.36 4604.4,1608.65 4607.78,1609.65C4620.56,1613.42 4627.29,1614.94 4640.59,1616.36C4656.27,1618.04 4673.15,1616.82 4680.12,1602.41C4682.8,1596.88 4684.12,1591.1 4684.53,1585.17C4681.48,1583.9 4678.31,1582.74 4674.99,1582.14C4671.57,1581.53 4667.88,1582.91 4664.52,1582.09C4659.48,1580.86 4653.14,1575.19 4650.76,1572.87ZM4591.15,1603.33L4591.27,1603.42C4591.19,1603.36 4591.12,1603.31 4591.05,1603.25C4591.05,1603.25 4591.04,1603.25 4591.05,1603.25C4591.08,1603.28 4591.11,1603.3 4591.15,1603.33ZM4215.87,1382.22C4214.48,1391.68 4213.41,1403.47 4206.59,1411.41C4200.59,1418.41 4190.4,1417.05 4183.4,1422.15C4175.92,1427.61 4175.23,1439.2 4175.06,1446.95L4175.05,1448.18C4175.05,1448.18 4175.04,1447.73 4175.06,1446.95L4175.26,1420.41C4177.34,1419.58 4179.44,1418.74 4181.33,1417.62C4183.54,1416.33 4185.63,1414.86 4187.48,1413.2C4197.32,1404.42 4201.87,1394.31 4200.92,1382.03C4193.51,1381.73 4190.21,1388.83 4187.24,1393.43C4187.06,1393.71 4186.88,1394 4186.69,1394.27C4180.4,1403.76 4171.18,1403.39 4159.88,1401.84C4159.78,1401.83 4159.69,1401.82 4159.6,1401.81C4150.14,1400.95 4139.27,1403.75 4130.3,1405.76C4108.13,1410.73 4085.67,1417.09 4066.53,1428.18C4066.14,1428.41 4065.75,1428.63 4065.36,1428.86C4064.96,1429.08 4064.57,1429.31 4064.17,1429.53C4061.41,1439.15 4053.76,1446.36 4048.71,1454.99C4044.69,1461.88 4046.75,1469.82 4044.18,1477.1C4038.89,1492.06 4024.86,1498.37 4009.26,1504.08C4017.7,1507.69 4026.05,1511.47 4034.36,1515.29C4036.2,1514.39 4038.05,1513.5 4039.89,1512.6C4040.48,1512.32 4041.06,1512.03 4041.65,1511.74C4063.77,1500.74 4074.22,1479.23 4084.78,1460.17L4085.01,1459.76L4085.19,1459.42L4086.22,1458.16C4088.73,1456.64 4088.81,1456.83 4091.2,1456.99C4091.35,1457.02 4091.5,1457.05 4091.66,1457.08C4101.61,1458.96 4112.15,1458.42 4122.11,1456.88C4122.38,1456.84 4122.38,1456.84 4122.66,1456.8C4124.57,1456.55 4126.22,1456.45 4128.18,1456.43C4128.37,1456.43 4128.55,1456.43 4128.74,1456.43C4148.75,1456.64 4167.75,1466.42 4184.87,1474.22C4185.66,1474.58 4186.46,1474.94 4187.25,1475.3C4188.46,1475.84 4189.68,1476.38 4190.89,1476.92C4191.34,1477.12 4191.79,1477.32 4192.24,1477.53C4200.64,1481.34 4208.65,1485.68 4216.69,1490.01C4218.13,1490.78 4219.57,1491.55 4221.02,1492.33C4225.98,1494.98 4230.95,1497.61 4235.93,1500.22C4236.26,1500.39 4236.59,1500.56 4236.92,1500.73C4242.28,1503.45 4247.8,1505.75 4254.02,1506.46C4255.67,1506.65 4258.36,1506.41 4259.43,1505.34C4259.86,1504.92 4260.27,1504.47 4260.63,1504C4260.82,1503.76 4261.07,1502.9 4261,1503.18L4260.99,1503.19L4261.69,1501.67L4262.98,1500.46C4265.58,1499.36 4267.64,1499.53 4269.95,1501.03C4283.41,1513.96 4296.87,1526.9 4310.81,1539.45C4312.18,1540.68 4314.68,1540.25 4316.66,1540.44C4319.47,1540.71 4322.29,1540.99 4325.12,1541.08C4328.84,1541.19 4332.57,1541.19 4336.29,1541.05C4348.07,1540.58 4374.6,1541.2 4373.34,1525.51L4372.58,1521.36C4371.16,1516.13 4368.49,1511.07 4365.13,1506.56L4365.06,1506.47C4363.88,1504.07 4363.92,1501.55 4366.91,1500.13C4364.9,1495.09 4369.23,1491.88 4374.71,1490.79C4382.36,1489.27 4414.26,1489.15 4414.57,1489.13C4414.49,1485.31 4413.15,1481.57 4411.91,1477.9C4411.33,1476.2 4410.27,1474.63 4409.15,1473.14C4408.22,1471.91 4407.09,1470.76 4405.8,1469.79C4399.36,1464.95 4392.8,1470.98 4387.19,1473.6C4382.69,1475.7 4375.79,1479.05 4371.09,1474.9C4368.58,1472.69 4366.25,1470.25 4364.55,1467.53C4360.35,1460.83 4353.3,1434.5 4336.04,1439.85C4334.18,1440.42 4332.61,1441.61 4331.22,1442.83C4327.8,1445.83 4331.5,1452.19 4333,1454.49C4341.31,1467.29 4355.36,1476.32 4370.6,1482.27C4375.18,1484.06 4379.91,1485.57 4384.63,1487.06C4381.46,1486.53 4378.29,1486 4375.08,1485.67C4371.34,1485.28 4367.57,1485.01 4363.8,1484.9C4357.07,1484.72 4340.84,1484.9 4334.08,1485.83C4334.5,1486.14 4334.73,1486.31 4334.73,1486.31C4334.73,1486.31 4331.74,1486.15 4334.08,1485.83C4324.3,1478.42 4309.84,1466.95 4307.91,1454.71C4306.12,1443.3 4304.66,1431.85 4303.2,1420.41C4303.51,1419.37 4303.84,1418.3 4304.51,1417.4C4305.2,1416.47 4306.1,1415.61 4307.19,1415.04C4309.27,1413.93 4315.21,1413.51 4316.16,1410.78C4317.74,1406.18 4316.28,1400.03 4315.98,1395.8C4315.68,1391.46 4316.27,1391.49 4314.69,1387.27C4307.1,1387.18 4299.49,1387.58 4291.94,1388.27C4281.14,1407.62 4270.21,1433.52 4247.7,1445.74C4247.69,1445.86 4247.68,1445.98 4247.68,1446.1C4247.58,1447.2 4247.39,1448.18 4247.1,1449.25L4247.09,1449.29C4244.76,1455.28 4240.04,1460.46 4234.99,1464.92L4234.9,1465C4235.04,1464.77 4235.19,1464.55 4235.34,1464.32C4235.48,1464.1 4235.62,1463.88 4235.76,1463.66C4238.67,1458.95 4241.35,1453.71 4241.82,1448.33C4241.85,1448.19 4241.88,1448.05 4241.9,1447.9C4242.02,1447.21 4242.07,1446.51 4242.12,1445.81C4242.14,1445.46 4241.96,1444.42 4242.03,1444.76L4242.04,1444.78L4242,1444.42L4242.02,1444.05C4242.11,1443.68 4242.11,1443.68 4242.27,1443.34L4242.27,1443.34C4242.69,1442.69 4243.15,1442.42 4243.84,1442.03C4244.02,1441.93 4244.2,1441.83 4244.38,1441.73C4257.59,1434 4264.98,1422.03 4272,1410.13L4268.8,1399.4C4266.64,1401.84 4264.47,1404.27 4262.57,1406.86C4260.87,1409.17 4259.24,1411.54 4258.02,1414.07C4256.35,1417.52 4256.38,1421.53 4254.3,1424.81C4251.19,1429.71 4240.22,1430.09 4235.26,1432.03C4224.97,1436.05 4220.81,1439.15 4213.92,1447.2C4211.03,1450.59 4208.69,1454.32 4206.52,1458.09C4204.19,1462.16 4202.32,1466.43 4200.47,1470.68L4200.47,1436.11C4203.91,1434.05 4207.37,1431.98 4210.58,1429.66C4214.15,1427.08 4217.59,1424.37 4220.77,1421.44C4235.55,1407.84 4244,1393.82 4237.1,1375.27L4230.38,1371.98L4215.87,1382.22Z" style="fill:rgb(229,229,229);"/>
                </g>
                <g transform="matrix(1.00573,0,0,0.999074,-3635.66,-1191.7)">
                    <path d="M3612.96,1990.58C3626.1,1998 3638.8,2031.95 3678.55,2041.29C3733.29,2054.16 3760.67,2030.03 3758.96,2005.89C3757.24,1981.76 3796.6,1994.63 3805.15,1956.01C3813.7,1917.4 3856.48,1968.89 3894.12,1946.36C3931.75,1923.83 3953.99,1983.37 3969.39,1997.85C3984.79,2012.33 4010.45,1976.93 4053.23,1965.67C4096,1954.4 4099.42,1968.89 4119.95,1999.46C4140.48,2030.03 4135.35,1988.19 4162.72,1952.8C4190.1,1917.4 4198.65,1956.01 4229.45,1939.92C4260.24,1923.83 4296.17,1960.84 4330.39,1959.23C4364.61,1957.62 4330.39,2033.25 4350.92,2023.59C4371.45,2013.94 4419.35,2063.82 4419.35,2063.82C4419.35,2063.82 4344.07,2073.47 4313.28,2078.3C4282.48,2083.13 4226.02,2104.04 4149.03,2087.95C4072.05,2071.86 3988.21,2094.39 3988.21,2094.39C3915.48,2130.8 3725.33,2121.82 3612.96,2112.57L3612.96,1990.58ZM4824,2012.44C4824.59,2011.89 4825.18,2011.34 4825.77,2010.78C4854.84,1983.04 4856.17,1986.42 4862.39,1962.78C4868.61,1939.15 4909.62,1956.36 4928.11,1930.76C4946.61,1905.16 4986.7,1959.51 5008.03,1924.49C5029.36,1889.47 5029.96,1942.96 5042.42,1924.83C5054.87,1906.69 5059.05,1929.79 5116.85,1921.23C5174.66,1912.66 5229.49,1988.86 5229.49,1988.86C5229.49,1988.86 5125.58,1978.79 5082.88,1975.98C5040.18,1973.16 5002.43,2016.18 4927.81,2035.95C4853.19,2055.72 4756.46,2058.62 4756.46,2058.62C4756.46,2058.62 4762.72,2055.49 4772.08,2050C4740.4,2052.03 4706.7,2055.11 4690.24,2059.53C4654.31,2069.18 4609.83,2065.96 4560.21,2054.7C4510.6,2043.44 4443.88,2048.26 4443.88,2048.26C4443.88,2048.26 4474.67,2017.69 4505.47,2027.35C4536.26,2037 4553.37,2019.3 4553.37,1993.56C4553.37,1967.81 4587.59,1985.51 4596.14,1961.38C4604.7,1937.24 4644.05,1962.99 4681.69,1948.51C4719.32,1934.02 4721.04,1971.03 4755.25,1961.38C4789.47,1951.72 4768.94,2014.48 4799.74,2006.43C4809.51,2003.88 4817.56,2007 4824,2012.44Z" style="fill:rgb(208,208,208);"/>
                </g>
                <g transform="matrix(1.00573,0,0,0.999074,-3635.66,-1191.7)">
                    <path d="M3612.96,2028.04C3627.93,2025.03 3642.8,2023.7 3657.12,2024.44C3782.58,2030.87 3851.01,2028.73 3997.01,2015.86C4143,2002.98 4309.53,2015.86 4423.59,2035.16C4537.64,2054.47 4909.47,2070.9 4886.66,2011.56C4872.14,1973.78 5150.43,1956.26 5277.57,2001.95C5277.57,2001.95 5252.7,2012.26 5197.95,2016.55C5173.31,2018.48 5165.54,2025.35 5161.33,2033.12C5192.94,2033.17 5223.57,2035.21 5253.93,2040.22C5294.96,2046.98 5426.87,2082.12 5532.96,2111.22L5532.96,2270.49L3612.96,2270.9L3612.96,2028.04Z" style="fill:rgb(177,177,177);"/>
                </g>
            </g>
        </g>
    </g>
</svg>
