<?xml version="1.0" encoding="UTF-8" standalone="no"?>
<!DOCTYPE svg PUBLIC "-//W3C//DTD SVG 1.1//EN" "http://www.w3.org/Graphics/SVG/1.1/DTD/svg11.dtd">
<svg width="100%" height="100%" viewBox="0 0 150 150" version="1.1" xmlns="http://www.w3.org/2000/svg" xmlns:xlink="http://www.w3.org/1999/xlink" xml:space="preserve" style="fill-rule:evenodd;clip-rule:evenodd;stroke-linecap:square;stroke-miterlimit:1.5;">
    <g transform="matrix(1,0,0,1,-9277.61,-2163.43)">
        <g transform="matrix(0.930226,0,0,0.930226,913.597,-259.809)">
            <g>
                <circle cx="9072" cy="2673" r="68" style="fill:rgb(255,3,2);fill-opacity:0;"/>
                <clipPath id="_clip1">
                    <circle cx="9072" cy="2673" r="68"/>
                </clipPath>
                <g clip-path="url(#_clip1)">
                    <g transform="matrix(0.775847,-0.271407,0.253101,0.723516,2069.48,1791.59)">
                        <path d="M7658.22,4133.15C7647.88,4120.69 7618.39,4092.1 7630,4060C7639.94,4032.51 7683.97,4033.07 7695,4057C7708.84,4087.01 7677.47,4122.72 7667.32,4132.57L7674,4144L7652,4144L7658.22,4133.15Z" style="fill:rgb(255,3,2);"/>
                    </g>
                    <g transform="matrix(0.653033,0.264714,-0.246859,0.608986,5099.28,-1849.85)">
                        <path d="M7658.22,4133.15C7647.88,4120.69 7618.39,4092.1 7630,4060C7639.94,4032.51 7683.97,4033.07 7695,4057C7708.84,4087.01 7677.47,4122.72 7667.32,4132.57L7674,4144L7652,4144L7658.22,4133.15Z" style="fill:rgb(255,3,2);"/>
                    </g>
                    <g transform="matrix(1.36,0,0,1.36,-1113.06,-3032.23)">
                        <path d="M7475,4208C7482.26,4216.46 7488.44,4243.51 7489.01,4259C7489.07,4244.23 7488.36,4222.93 7501.29,4203.07" style="fill:none;stroke:rgb(255,3,2);stroke-width:1.58px;"/>
                    </g>
                </g>
            </g>
        </g>
        <g transform="matrix(0.57806,0,0,1.11483,4108.08,-248.429)">
            <rect x="8942.89" y="2163.43" width="259.488" height="134.55" style="fill:none;"/>
        </g>
    </g>
</svg>
