<?xml version="1.0" encoding="UTF-8" standalone="no"?>
<!DOCTYPE svg PUBLIC "-//W3C//DTD SVG 1.1//EN" "http://www.w3.org/Graphics/SVG/1.1/DTD/svg11.dtd">
<svg width="100%" height="100%" viewBox="0 0 150 100" version="1.1" xmlns="http://www.w3.org/2000/svg" xmlns:xlink="http://www.w3.org/1999/xlink" xml:space="preserve" style="fill-rule:evenodd;clip-rule:evenodd;stroke-linejoin:round;stroke-miterlimit:1.41421;">
    <g transform="matrix(1,0,0,1,-10388.6,-1920.4)">
        <g transform="matrix(0.561981,0,0,0.428414,4909.04,1010.06)">
            <rect x="9750.43" y="2124.9" width="266.913" height="233.419" style="fill:none;"/>
        </g>
        <g transform="matrix(0.638079,0,0,0.638079,5629.87,75.8129)">
            <path d="M7550.37,2998.08C7542.36,3007.73 7531.82,3012.3 7520.61,3012.37C7526.28,3008.25 7527.45,2999.9 7529.09,2989.74C7508.22,2979.25 7501.01,2954.3 7517.76,2936.48C7533.76,2919.46 7561.04,2915.69 7582.79,2921.17C7597.52,2924.88 7613.26,2934.35 7618.28,2949.66C7636.36,2957.38 7651.28,2979.33 7638.23,2998.12C7635.21,3002.47 7631.72,3005.65 7627.36,3008.36C7627.36,3008.36 7628.36,3014.96 7628.91,3016.33C7630.87,3021.18 7635.38,3026.95 7636.12,3027.96C7628.81,3029.45 7608.74,3026.71 7602.37,3017.75C7602.07,3017.79 7602.07,3017.79 7601.76,3017.82C7583.17,3019.67 7561.34,3014.36 7550.37,2998.08M7594.57,2950.37C7594.28,2950.37 7594.01,2950.37 7593.72,2950.37C7592.03,2950.38 7590.35,2950.45 7588.66,2950.6L7588.64,2950.6L7588.48,2950.62C7588.48,2950.62 7588.36,2950.63 7588.36,2950.63L7588.32,2950.63L7588.23,2950.64L7588.19,2950.65L7588.1,2950.65L7588.06,2950.66L7587.96,2950.67L7587.93,2950.67C7583.21,2951.15 7578.73,2952.17 7574.62,2953.64L7574.61,2953.65L7574.51,2953.68L7574.49,2953.69L7574.4,2953.72L7574.38,2953.73L7574.29,2953.76L7574.26,2953.78L7574.18,2953.81L7574.15,2953.82L7574.03,2953.86C7574.03,2953.86 7573.9,2953.91 7573.9,2953.91L7573.86,2953.92L7573.78,2953.96L7573.73,2953.97L7573.65,2954.01L7573.6,2954.03L7573.52,2954.05L7573.47,2954.07L7573.39,2954.11L7573.34,2954.12L7573.23,2954.17L7573.22,2954.17L7573.18,2954.19L7573.1,2954.22L7573.04,2954.24L7572.97,2954.27L7572.91,2954.29L7572.85,2954.32L7572.78,2954.35L7572.72,2954.37L7572.66,2954.4L7572.6,2954.42L7572.53,2954.45L7572.52,2954.45L7572.42,2954.49L7572.35,2954.52L7572.3,2954.55L7572.23,2954.57L7572.17,2954.6L7572.11,2954.63L7572.05,2954.65L7571.98,2954.68L7571.93,2954.7L7571.86,2954.73L7571.81,2954.75L7571.74,2954.78L7571.68,2954.81L7571.63,2954.83L7571.56,2954.86L7571.5,2954.88L7571.44,2954.91L7571.38,2954.94L7571.32,2954.97L7571.26,2954.99L7571.19,2955.02L7571.13,2955.05L7571.07,2955.07L7571.03,2955.09L7570.96,2955.13L7570.9,2955.15L7570.84,2955.18L7570.78,2955.21L7570.71,2955.24L7570.66,2955.26L7570.59,2955.3L7570.53,2955.32L7570.44,2955.36L7570.41,2955.38L7570.41,2955.38L7570.3,2955.43L7570.25,2955.45L7570.17,2955.49L7570.13,2955.51L7570.05,2955.55L7570,2955.57L7569.92,2955.61L7569.88,2955.63L7569.76,2955.69C7569.76,2955.69 7569.66,2955.74 7569.66,2955.74L7569.62,2955.75L7569.55,2955.79L7569.51,2955.81L7569.45,2955.84L7569.41,2955.86L7569.34,2955.89L7569.3,2955.91L7569.24,2955.94L7569.2,2955.96L7569.14,2955.99L7569.09,2956.01L7569.03,2956.05L7568.99,2956.07L7568.93,2956.1L7568.89,2956.12L7568.82,2956.15L7568.78,2956.17L7568.72,2956.21L7568.68,2956.23L7568.61,2956.26L7568.58,2956.28L7568.49,2956.32L7568.48,2956.33C7568.37,2956.39 7568.27,2956.44 7568.17,2956.5L7568.15,2956.51L7568.07,2956.55L7568.04,2956.57L7567.96,2956.61L7567.93,2956.62L7567.86,2956.66L7567.83,2956.68L7567.76,2956.72L7567.73,2956.74L7567.66,2956.77L7567.62,2956.79L7567.56,2956.83L7567.52,2956.85L7567.46,2956.88L7567.42,2956.9L7567.36,2956.94L7567.32,2956.96L7567.26,2956.99L7567.22,2957.02L7567.16,2957.05L7567.12,2957.07L7567.06,2957.11L7567.02,2957.13L7566.96,2957.16L7566.92,2957.19L7566.86,2957.22L7566.82,2957.24L7566.75,2957.28L7566.72,2957.3L7566.62,2957.36C7566.62,2957.36 7566.53,2957.41 7566.53,2957.41L7566.51,2957.43L7566.44,2957.47L7566.41,2957.48L7566.32,2957.54L7566.32,2957.54L7566.23,2957.59L7566.21,2957.61L7566.14,2957.65L7566.11,2957.66L7566.02,2957.72L7566.02,2957.72L7565.93,2957.77L7565.91,2957.79L7565.84,2957.83L7565.82,2957.84L7565.73,2957.9L7565.72,2957.9L7565.64,2957.95L7565.61,2957.97L7565.54,2958.01L7565.52,2958.03L7565.43,2958.08L7565.42,2958.09L7565.34,2958.14L7565.32,2958.15L7565.25,2958.2L7565.23,2958.21L7565.14,2958.27L7565.13,2958.27L7565.05,2958.32L7565.03,2958.34L7564.96,2958.38L7564.94,2958.4L7564.85,2958.45L7564.84,2958.46L7564.76,2958.51L7564.74,2958.53L7564.67,2958.57L7564.65,2958.59L7564.56,2958.64L7564.55,2958.65L7564.47,2958.7L7564.45,2958.72L7564.39,2958.76L7564.36,2958.78L7564.27,2958.84L7564.17,2958.91L7564.14,2958.93L7564.07,2958.97L7564.03,2959L7563.97,2959.04L7563.93,2959.07L7563.87,2959.11L7563.83,2959.14L7563.77,2959.18L7563.73,2959.21L7563.67,2959.25L7563.63,2959.28L7563.57,2959.32L7563.53,2959.35L7563.46,2959.4L7563.43,2959.42L7563.34,2959.49L7563.31,2959.51L7563.24,2959.56L7563.2,2959.59L7563.14,2959.63L7563.1,2959.66L7563.04,2959.7L7563,2959.73L7562.94,2959.78L7562.9,2959.8L7562.84,2959.85L7562.81,2959.88L7562.74,2959.93L7562.71,2959.95L7562.61,2960.02C7562.61,2960.02 7562.52,2960.09 7562.52,2960.09L7562.48,2960.13L7562.44,2960.16L7562.37,2960.21L7562.35,2960.22C7560.59,2961.57 7558.94,2963.07 7557.47,2964.72L7557.43,2964.76L7557.4,2964.8L7557.33,2964.87L7557.33,2964.88C7555.93,2966.46 7554.73,2968.14 7553.74,2969.89L7553.74,2969.91L7553.7,2969.98L7553.68,2970L7553.65,2970.06L7553.63,2970.1L7553.6,2970.15L7553.58,2970.19L7553.55,2970.24L7553.53,2970.29L7553.5,2970.34L7553.48,2970.39L7553.45,2970.43L7553.42,2970.49L7553.4,2970.52L7553.36,2970.61C7553.36,2970.61 7553.32,2970.69 7553.32,2970.69L7553.3,2970.72L7553.27,2970.78L7553.26,2970.8L7553.22,2970.87L7553.21,2970.89L7553.18,2970.96L7553.17,2970.98L7553.13,2971.05L7553.12,2971.08L7553.09,2971.14L7553.08,2971.16L7553.04,2971.23L7553.03,2971.26L7553,2971.32L7552.99,2971.34L7552.96,2971.42L7552.95,2971.44L7552.92,2971.5L7552.9,2971.52L7552.87,2971.6L7552.87,2971.6L7552.86,2971.61L7552.83,2971.68L7552.82,2971.71L7552.79,2971.77L7552.78,2971.79L7552.75,2971.86L7552.74,2971.89L7552.71,2971.95L7552.7,2971.97L7552.66,2972.05L7552.65,2972.07L7552.63,2972.13L7552.62,2972.15L7552.58,2972.23L7552.58,2972.25L7552.55,2972.32L7552.54,2972.34L7552.5,2972.42L7552.5,2972.43L7552.47,2972.5L7552.46,2972.52L7552.43,2972.61C7552.03,2973.55 7551.7,2974.51 7551.44,2975.5L7551.43,2975.51L7551.41,2975.6C7551.41,2975.6 7551.38,2975.68 7551.38,2975.68L7551.38,2975.71L7551.36,2975.77L7551.35,2975.8L7551.33,2975.88L7551.32,2975.92L7551.31,2975.96L7551.3,2976.01L7551.3,2976.03C7551,2977.22 7550.81,2978.42 7550.71,2979.64L7550.7,2979.67L7550.7,2979.72L7550.7,2979.76L7550.69,2979.8L7550.69,2979.88L7550.69,2979.91L7550.68,2979.97L7550.68,2980L7550.67,2980.09C7550.67,2980.09 7550.67,2980.18 7550.67,2980.18L7550.67,2980.22L7550.66,2980.28L7550.66,2980.32L7550.66,2980.37L7550.65,2980.42L7550.65,2980.46L7550.65,2980.52L7550.65,2980.55L7550.65,2980.62L7550.65,2980.65L7550.64,2980.71L7550.64,2980.73C7550.59,2982.35 7550.71,2983.97 7551,2985.57L7551.02,2985.65L7551.02,2985.67L7551.03,2985.75L7551.05,2985.83L7551.05,2985.85L7551.07,2985.94L7551.07,2985.96L7551.1,2986.06L7551.1,2986.07C7551.56,2988.31 7552.36,2990.48 7553.43,2992.51L7553.44,2992.52L7553.49,2992.61L7553.5,2992.63L7553.53,2992.7L7553.56,2992.75L7553.59,2992.8L7553.62,2992.87L7553.66,2992.93L7553.7,2993L7553.73,2993.06L7553.77,2993.13L7553.81,2993.19L7553.85,2993.26L7553.88,2993.33L7553.92,2993.39L7553.96,2993.45L7554,2993.52C7555.49,2996.08 7557.4,2998.38 7559.57,3000.4C7562.93,3003.55 7566.88,3006.03 7571.07,3007.9C7574.06,3009.24 7577.17,3010.28 7580.35,3011.03C7584.82,3012.1 7589.41,3012.61 7594.01,3012.61C7595.98,3012.61 7597.95,3012.6 7599.93,3012.46C7601.34,3012.36 7602.75,3012.18 7604.14,3011.93L7604.31,3011.89L7604.48,3011.86C7604.63,3012.04 7604.78,3012.22 7604.93,3012.39C7605.56,3013.13 7606.22,3013.84 7606.92,3014.53C7608.3,3015.88 7609.8,3017.11 7611.4,3018.19C7612.83,3019.14 7614.34,3019.97 7615.91,3020.66C7617.52,3021.36 7619.19,3021.92 7620.9,3022.32C7622.41,3022.67 7623.95,3022.91 7625.5,3023.03C7626.25,3023.09 7627,3023.11 7627.75,3023.12C7627.65,3023.05 7627.55,3022.97 7627.44,3022.89C7627.05,3022.57 7626.68,3022.23 7626.34,3021.86C7625.01,3020.42 7624.14,3018.62 7623.51,3016.78C7623.36,3016.36 7623.23,3015.93 7623.11,3015.51C7622.97,3015.01 7622.84,3014.52 7622.71,3014.02C7622.56,3013.39 7622.43,3012.76 7622.3,3012.13C7622.12,3011.24 7621.95,3010.35 7621.8,3009.46C7621.58,3008.14 7621.37,3006.83 7621.16,3005.52C7621.34,3005.43 7621.52,3005.34 7621.7,3005.24C7622.31,3004.93 7622.91,3004.6 7623.5,3004.26C7624.69,3003.57 7625.85,3002.82 7626.96,3002.01C7629.48,3000.15 7631.75,2997.93 7633.49,2995.31C7634.63,2993.6 7635.53,2991.72 7636.16,2989.76C7636.8,2987.77 7637.17,2985.69 7637.31,2983.6C7637.4,2982.23 7637.41,2980.86 7637.29,2979.49C7637.12,2977.59 7636.71,2975.71 7636.08,2973.9C7634.7,2969.96 7632.3,2966.43 7629.37,2963.48C7626.54,2960.62 7623.22,2958.27 7619.66,2956.4L7619.66,2956.4C7614.05,2953.44 7607.41,2951.43 7600.21,2950.68L7600.17,2950.68L7600.09,2950.67L7600.02,2950.66L7599.97,2950.66L7599.93,2950.66L7599.84,2950.65L7599.79,2950.64L7599.7,2950.63L7599.66,2950.63L7599.53,2950.62L7599.51,2950.62L7599.38,2950.61L7599.36,2950.6C7597.77,2950.46 7596.17,2950.39 7594.57,2950.37L7594.57,2950.37ZM7595.06,2976.63C7599.47,2976.63 7601.75,2982.14 7598.63,2985.26C7598.18,2985.72 7597.62,2986.1 7597.03,2986.35C7596.4,2986.61 7595.74,2986.74 7595.06,2986.74C7590.65,2986.74 7588.36,2981.23 7591.48,2978.11C7591.94,2977.65 7592.49,2977.28 7593.09,2977.03C7593.72,2976.76 7594.38,2976.63 7595.06,2976.63M7611.34,2976.63C7612.02,2976.63 7612.68,2976.76 7613.31,2977.03C7613.9,2977.28 7614.45,2977.65 7614.91,2978.11C7618.03,2981.23 7615.75,2986.74 7611.34,2986.74C7606.93,2986.74 7604.64,2981.23 7607.76,2978.11C7608.22,2977.65 7608.77,2977.28 7609.37,2977.03C7610,2976.76 7610.66,2976.63 7611.34,2976.63M7578.78,2976.63C7579.46,2976.63 7580.12,2976.76 7580.75,2977.03C7581.34,2977.28 7581.9,2977.65 7582.35,2978.11C7585.47,2981.23 7583.19,2986.74 7578.78,2986.74C7574.37,2986.74 7572.08,2981.23 7575.2,2978.11C7575.66,2977.65 7576.21,2977.28 7576.81,2977.03C7577.44,2976.76 7578.1,2976.63 7578.78,2976.63" style="fill:rgb(255,0,0);"/>
        </g>
    </g>
</svg>
