<?xml version="1.0" encoding="UTF-8" standalone="no"?>
<!DOCTYPE svg PUBLIC "-//W3C//DTD SVG 1.1//EN" "http://www.w3.org/Graphics/SVG/1.1/DTD/svg11.dtd">
<svg width="100%" height="100%" viewBox="0 0 150 150" version="1.1" xmlns="http://www.w3.org/2000/svg" xmlns:xlink="http://www.w3.org/1999/xlink" xml:space="preserve" style="fill-rule:evenodd;clip-rule:evenodd;stroke-linejoin:round;stroke-miterlimit:1.41421;">
    <g transform="matrix(1,0,0,1,-8942.89,-2163.43)">
        <g transform="matrix(1.74118,0,0,1.74118,-3090.23,-5063.14)">
            <g>
                <path d="M6931.59,4176.94L6931.59,4176.94L6931.59,4168.47L6942.9,4168.47L6942.9,4188.38L6965.41,4188.38L6965.41,4168.47L6976.72,4168.47L6976.72,4176.94L6976.72,4176.94L6976.72,4209.99L6976.72,4209.99L6976.72,4218.47L6965.41,4218.47L6965.41,4198.55L6942.9,4198.55L6942.9,4218.47L6931.59,4218.47L6931.59,4209.99L6931.59,4209.99L6931.59,4176.94ZM6929.59,4209.99L6920.28,4209.99L6920.28,4198.55L6916.97,4198.55C6913.94,4198.55 6911.49,4196.27 6911.49,4193.47C6911.49,4190.66 6913.94,4188.38 6916.97,4188.38L6920.28,4188.38L6920.28,4176.94L6929.59,4176.94L6929.59,4209.99ZM6988.03,4176.94L6988.03,4188.38L6991,4188.38C6994.03,4188.38 6996.49,4190.66 6996.49,4193.47C6996.49,4196.27 6994.03,4198.55 6991,4198.55L6988.03,4198.55L6988.03,4209.99L6978.72,4209.99L6978.72,4176.94L6988.03,4176.94Z" style="fill:rgb(255,0,0);"/>
            </g>
        </g>
        <g transform="matrix(0.57806,0,0,1.11483,3773.36,-248.429)">
            <rect x="8942.89" y="2163.43" width="259.488" height="134.55" style="fill:none;"/>
        </g>
    </g>
</svg>
