<?xml version="1.0" encoding="UTF-8" standalone="no"?>
<!DOCTYPE svg PUBLIC "-//W3C//DTD SVG 1.1//EN" "http://www.w3.org/Graphics/SVG/1.1/DTD/svg11.dtd">
<svg width="100%" height="100%" viewBox="0 0 150 100" version="1.1" xmlns="http://www.w3.org/2000/svg" xmlns:xlink="http://www.w3.org/1999/xlink" xml:space="preserve" style="fill-rule:evenodd;clip-rule:evenodd;stroke-linejoin:round;stroke-miterlimit:1.41421;">
    <g transform="matrix(1,0,0,1,-10222.1,-1920.4)">
        <g transform="matrix(0.561981,0,0,0.428414,4742.57,1010.06)">
            <rect x="9750.43" y="2124.9" width="266.913" height="233.419" style="fill:none;"/>
        </g>
        <g transform="matrix(0.93526,0,0,0.93526,3409.37,-1097.57)">
            <path d="M7335.41,3311.86L7393.62,3311.86L7393.62,3320.69L7335.41,3320.69L7335.41,3311.86ZM7378.26,3307.72L7350.76,3307.72L7350.76,3303.03L7378.26,3303.03L7378.26,3307.72ZM7370.11,3300.53L7358.91,3300.53L7358.91,3260.41C7359.29,3260.61 7359.67,3260.78 7360.06,3260.94C7361.53,3261.51 7363.1,3261.8 7364.67,3261.78C7366.24,3261.76 7367.8,3261.43 7369.24,3260.82C7369.54,3260.7 7369.83,3260.56 7370.11,3260.41L7370.11,3300.53ZM7391.37,3246.84L7391.37,3243.64L7395.99,3243.64L7395.99,3251.36C7399.91,3257.41 7407.43,3269.85 7407.43,3276.11C7407.43,3283.69 7401.27,3289.85 7393.68,3289.85C7386.1,3289.85 7379.94,3283.69 7379.94,3276.11C7379.94,3269.85 7387.45,3257.41 7391.37,3251.36L7391.37,3246.84L7391.37,3246.84ZM7333.1,3246.84L7333.1,3244.46L7337.72,3244.46L7337.72,3251.36C7341.64,3257.41 7349.15,3269.85 7349.15,3276.11C7349.15,3283.69 7342.99,3289.85 7335.41,3289.85C7327.82,3289.85 7321.66,3283.69 7321.66,3276.11C7321.66,3269.85 7329.18,3257.41 7333.1,3251.36L7333.1,3246.84L7333.1,3246.84ZM7394.34,3253.99L7393.02,3253.99C7391.08,3256.89 7385.41,3265.65 7383.76,3271.53L7403.61,3271.53C7401.95,3265.65 7396.29,3256.89 7394.34,3253.99ZM7336.61,3254.81L7334.2,3254.81C7331.91,3258.3 7327.01,3266.13 7325.49,3271.53L7345.33,3271.53C7343.81,3266.13 7338.91,3258.3 7336.61,3254.81ZM7355.07,3247.68C7355.97,3243.3 7359.86,3239.99 7364.51,3239.99C7369.17,3239.99 7373.06,3243.3 7373.96,3247.68L7373.97,3247.72L7373.98,3247.78C7373.98,3247.81 7373.99,3247.83 7373.99,3247.86L7374,3247.91C7374.01,3247.94 7374.01,3247.97 7374.02,3248L7374.03,3248.06C7374.03,3248.09 7374.04,3248.12 7374.04,3248.15L7374.04,3248.16C7374.05,3248.2 7374.06,3248.25 7374.07,3248.3L7374.07,3248.3C7374.07,3248.34 7374.07,3248.37 7374.08,3248.4L7374.09,3248.45C7374.09,3248.48 7374.09,3248.51 7374.1,3248.54L7374.1,3248.6L7374.11,3248.65L7374.11,3248.7L7374.12,3248.75L7374.12,3248.77C7374.17,3249.37 7374.17,3249.96 7374.11,3250.56L7374.11,3250.56L7374.11,3250.57L7374.11,3250.59L7374.11,3250.61L7374.11,3250.62L7374.11,3250.63L7374.11,3250.64L7374.1,3250.65C7374.1,3250.66 7374.1,3250.67 7374.1,3250.68L7374.1,3250.69L7374.1,3250.7L7374.1,3250.71L7374.1,3250.73L7374.1,3250.74L7374.09,3250.74C7374.09,3250.75 7374.09,3250.77 7374.09,3250.78L7374.09,3250.78L7374.09,3250.79C7374.09,3250.81 7374.09,3250.82 7374.08,3250.83L7374.08,3250.84L7374.08,3250.84L7374.08,3250.86L7374.08,3250.88L7374.08,3250.88L7374.08,3250.89C7374.07,3250.9 7374.07,3250.92 7374.07,3250.93L7374.07,3250.93L7374.07,3250.94C7374.07,3250.97 7374.06,3251 7374.06,3251.02L7374.06,3251.03L7374.06,3251.03C7374.05,3251.06 7374.05,3251.09 7374.04,3251.12L7374.04,3251.12L7374.04,3251.12C7373.53,3254.46 7371.3,3257.23 7368.29,3258.51L7368.29,3258.51L7368.29,3258.51L7368.27,3258.52L7368.26,3258.52L7368.25,3258.53L7368.25,3258.53L7368.24,3258.53L7368.23,3258.54L7368.22,3258.54L7368.22,3258.54L7368.21,3258.54L7368.2,3258.55L7368.19,3258.55L7368.19,3258.55C7367.08,3259.01 7365.87,3259.27 7364.6,3259.28L7364.6,3259.28L7364.6,3259.28L7364.58,3259.28L7364.57,3259.28L7364.57,3259.28L7364.56,3259.28L7364.55,3259.28L7364.54,3259.28L7364.54,3259.28L7364.51,3259.28C7364.5,3259.28 7364.49,3259.28 7364.48,3259.28L7364.48,3259.28L7364.47,3259.28L7364.45,3259.28L7364.45,3259.28L7364.45,3259.28L7364.43,3259.28L7364.43,3259.28L7364.43,3259.28C7363.17,3259.27 7361.97,3259.01 7360.87,3258.57C7360.87,3258.57 7360.84,3258.55 7360.84,3258.55L7360.84,3258.55L7360.84,3258.55L7360.83,3258.55L7360.82,3258.54L7360.81,3258.54L7360.81,3258.54L7360.8,3258.54L7360.79,3258.53L7360.78,3258.53L7360.77,3258.53L7360.77,3258.52L7360.76,3258.52L7360.74,3258.51L7360.74,3258.51L7360.74,3258.51C7357.73,3257.23 7355.5,3254.46 7354.98,3251.12L7354.98,3251.12L7354.98,3251.12C7354.98,3251.09 7354.98,3251.06 7354.97,3251.03L7354.97,3251.03L7354.97,3251.02L7354.97,3251.01L7354.96,3250.98C7354.96,3250.98 7354.96,3250.95 7354.96,3250.95L7354.96,3250.94L7354.96,3250.93L7354.96,3250.93C7354.95,3250.92 7354.95,3250.9 7354.95,3250.89L7354.95,3250.88L7354.95,3250.88L7354.95,3250.86L7354.94,3250.84L7354.94,3250.84L7354.94,3250.83C7354.94,3250.82 7354.94,3250.81 7354.94,3250.79L7354.94,3250.78L7354.94,3250.78C7354.94,3250.77 7354.93,3250.75 7354.93,3250.74L7354.93,3250.74L7354.93,3250.73L7354.93,3250.71L7354.93,3250.7L7354.93,3250.69L7354.93,3250.68C7354.93,3250.67 7354.92,3250.66 7354.92,3250.65L7354.92,3250.64L7354.92,3250.63L7354.92,3250.62L7354.92,3250.61L7354.92,3250.59L7354.91,3250.57L7354.91,3250.56L7354.91,3250.56C7354.86,3249.96 7354.86,3249.37 7354.91,3248.77L7354.91,3248.77L7354.91,3248.77L7354.91,3248.75L7354.91,3248.72L7354.91,3248.71L7354.91,3248.71L7354.91,3248.7L7354.92,3248.69L7354.92,3248.68L7354.92,3248.66L7354.92,3248.65L7354.92,3248.64L7354.92,3248.62L7354.92,3248.61L7354.93,3248.6L7354.93,3248.59C7354.93,3248.58 7354.93,3248.57 7354.93,3248.55L7354.93,3248.55L7354.93,3248.54C7354.94,3248.51 7354.94,3248.48 7354.94,3248.45L7354.94,3248.45L7354.94,3248.45C7354.94,3248.43 7354.95,3248.42 7354.95,3248.4L7354.95,3248.4L7354.95,3248.4C7354.95,3248.37 7354.96,3248.34 7354.96,3248.3L7354.96,3248.3L7354.96,3248.3C7354.97,3248.25 7354.98,3248.2 7354.98,3248.16L7354.98,3248.15L7354.98,3248.15C7354.99,3248.12 7354.99,3248.09 7355,3248.06L7355,3248.06L7355,3248.06C7355,3248.04 7355,3248.02 7355.01,3248.01L7355.01,3248.01L7355.01,3248C7355.01,3247.97 7355.02,3247.94 7355.02,3247.91L7355.03,3247.91L7355.03,3247.91C7355.03,3247.89 7355.03,3247.88 7355.03,3247.86L7355.03,3247.86L7355.03,3247.86L7355.04,3247.84L7355.04,3247.81C7355.04,3247.81 7355.05,3247.78 7355.05,3247.78L7355.05,3247.78L7355.05,3247.78L7355.05,3247.77L7355.05,3247.75L7355.06,3247.75L7355.06,3247.75L7355.06,3247.74L7355.06,3247.72L7355.06,3247.72L7355.06,3247.72L7355.06,3247.71L7355.07,3247.69L7355.07,3247.69L7355.07,3247.69L7355.07,3247.68ZM7388.85,3252.43L7376.33,3252.43C7376.41,3252.12 7376.47,3251.8 7376.52,3251.48C7376.72,3250.16 7376.7,3248.81 7376.47,3247.49C7376.43,3247.27 7376.38,3247.05 7376.33,3246.84L7388.86,3246.84C7388.84,3248.7 7388.83,3250.57 7388.85,3252.43ZM7352.7,3252.43L7340.23,3252.43C7340.24,3250.57 7340.26,3248.7 7340.25,3246.84L7352.69,3246.84C7352.66,3247 7352.62,3247.17 7352.59,3247.34C7352.34,3248.65 7352.3,3250.01 7352.49,3251.33C7352.54,3251.7 7352.61,3252.07 7352.7,3252.43ZM7330.57,3252.43L7323.4,3252.43L7323.4,3246.84L7330.59,3246.84C7330.58,3248.7 7330.56,3250.57 7330.57,3252.43ZM7405.63,3252.43L7398.5,3252.43C7398.51,3250.57 7398.53,3248.7 7398.53,3246.84L7405.63,3246.84L7405.63,3252.43Z" style="fill:rgb(255,0,0);"/>
        </g>
    </g>
</svg>
