<?xml version="1.0" encoding="UTF-8" standalone="no"?>
<!DOCTYPE svg PUBLIC "-//W3C//DTD SVG 1.1//EN" "http://www.w3.org/Graphics/SVG/1.1/DTD/svg11.dtd">
<svg width="100%" height="100%" viewBox="0 0 150 100" version="1.1" xmlns="http://www.w3.org/2000/svg" xmlns:xlink="http://www.w3.org/1999/xlink" xml:space="preserve" style="fill-rule:evenodd;clip-rule:evenodd;stroke-linejoin:round;stroke-miterlimit:1.41421;">
    <g transform="matrix(1,0,0,1,-10052,-1920.4)">
        <g transform="matrix(0.561981,0,0,0.428414,4572.49,1010.06)">
            <rect x="9750.43" y="2124.9" width="266.913" height="233.419" style="fill:none;"/>
        </g>
        <g transform="matrix(0.994303,0,0,1.00093,9181.13,1142.54)">
            <g transform="matrix(0.339097,0.0902595,-0.0908608,0.336853,-1031.29,-931.92)">
                <path d="M6852.03,3400.41C6845.64,3399.13 6839.06,3399.13 6832.66,3400.41L6829.81,3410.81C6827.86,3411.45 6825.96,3412.24 6824.13,3413.16L6814.76,3407.82C6809.34,3411.45 6804.68,3416.1 6801.06,3421.52L6806.4,3430.9C6805.47,3432.73 6804.69,3434.62 6804.05,3436.57L6793.64,3439.42C6792.37,3445.82 6792.37,3452.4 6793.64,3458.8L6804.05,3461.65C6804.69,3463.6 6805.47,3465.5 6806.4,3467.33L6801.06,3476.7C6804.68,3482.12 6809.34,3486.78 6814.76,3490.4L6824.13,3485.06C6825.96,3485.99 6827.86,3486.77 6829.81,3487.41L6832.66,3497.82C6839.06,3499.09 6845.64,3499.09 6852.03,3497.82L6854.89,3487.41C6856.84,3486.77 6858.73,3485.99 6860.56,3485.06L6869.94,3490.4C6875.36,3486.78 6880.01,3482.12 6883.64,3476.7L6878.3,3467.33C6879.22,3465.5 6880.01,3463.6 6880.65,3461.65L6891.05,3458.8C6892.32,3452.4 6892.32,3445.82 6891.05,3439.42L6880.65,3436.57C6880.01,3434.62 6879.22,3432.73 6878.3,3430.9L6883.64,3421.52C6880.01,3416.1 6875.36,3411.45 6869.94,3407.82L6860.56,3413.16C6858.73,3412.24 6856.84,3411.45 6854.89,3410.81L6852.03,3400.41ZM6842.35,3431.72C6851.94,3431.72 6859.73,3439.52 6859.73,3449.11C6859.73,3458.71 6851.94,3466.5 6842.35,3466.5C6832.75,3466.5 6824.96,3458.71 6824.96,3449.11C6824.96,3439.52 6832.75,3431.72 6842.35,3431.72Z" style="fill:rgb(255,0,0);"/>
            </g>
            <g transform="matrix(1.00573,0,0,0.999074,-6026.82,-2447.48)">
                <path d="M6945.66,3308.56C6945.06,3308.8 6944.46,3309.03 6943.85,3309.23L6938.37,3303.81C6936.93,3304.11 6935.48,3304.3 6934.02,3304.38L6930.12,3311.04C6925.47,3310.73 6920.93,3309.52 6916.75,3307.45L6916.7,3299.74C6915.48,3298.94 6914.31,3298.05 6913.22,3297.07L6905.76,3299.03C6902.69,3295.52 6900.34,3291.45 6898.84,3287.03L6904.26,3281.55C6903.96,3280.12 6903.77,3278.66 6903.69,3277.2L6897.03,3273.3C6897.34,3268.65 6898.55,3264.11 6900.61,3259.93L6908.33,3259.88C6909.13,3258.66 6910.02,3257.49 6911,3256.4L6909.04,3248.94C6912.55,3245.87 6916.62,3243.52 6921.04,3242.02L6926.52,3247.44C6927.95,3247.14 6929.41,3246.95 6930.87,3246.87L6934.77,3240.21C6939.42,3240.52 6943.96,3241.73 6948.14,3243.8L6948.19,3251.51C6949.41,3252.31 6950.58,3253.2 6951.67,3254.18L6959.13,3252.22C6962.2,3255.73 6964.55,3259.8 6966.05,3264.22L6960.63,3269.7C6960.93,3271.14 6961.12,3272.59 6961.2,3274.05L6967.86,3277.95C6967.84,3278.28 6967.81,3278.6 6967.78,3278.93C6967.18,3278.76 6966.57,3278.63 6965.95,3278.52C6965.23,3278.39 6964.51,3278.31 6963.79,3278.25C6963.73,3278.25 6963.66,3278.25 6963.6,3278.25C6963.54,3278.25 6963.48,3278.25 6963.42,3278.25C6963.3,3278.26 6963.17,3278.28 6963.05,3278.31C6962.63,3278.41 6962.23,3278.62 6961.91,3278.91C6961.82,3278.99 6961.74,3279.08 6961.66,3279.18C6961.62,3279.23 6961.59,3279.28 6961.55,3279.33L6961.45,3279.49L6960.29,3281.47L6958.66,3279.85C6958.61,3279.81 6958.57,3279.77 6958.52,3279.73C6958.43,3279.65 6958.33,3279.57 6958.23,3279.51C6957.7,3279.18 6957.05,3279.06 6956.44,3279.17C6956.25,3279.21 6956.06,3279.28 6955.87,3279.34C6955.64,3279.42 6955.41,3279.51 6955.18,3279.6C6953.3,3280.34 6951.53,3281.38 6949.96,3282.66C6949.83,3282.76 6949.7,3282.87 6949.58,3282.97C6949.43,3283.1 6949.28,3283.23 6949.15,3283.39C6948.78,3283.81 6948.57,3284.35 6948.55,3284.91C6948.54,3285.03 6948.55,3285.16 6948.56,3285.28C6948.57,3285.34 6948.58,3285.4 6948.59,3285.46L6948.63,3285.64L6949.21,3287.86L6946.91,3287.88C6946.85,3287.88 6946.79,3287.88 6946.73,3287.89C6946.61,3287.89 6946.48,3287.91 6946.36,3287.94C6945.76,3288.08 6945.22,3288.45 6944.86,3288.97C6944.75,3289.13 6944.67,3289.31 6944.58,3289.49C6944.48,3289.71 6944.37,3289.93 6944.28,3290.16C6943.47,3292.02 6942.95,3294 6942.74,3296.02C6942.73,3296.16 6942.71,3296.36 6942.7,3296.5C6942.69,3296.7 6942.67,3296.9 6942.69,3297.1C6942.73,3297.66 6942.96,3298.2 6943.34,3298.61C6943.42,3298.7 6943.51,3298.78 6943.61,3298.86C6943.66,3298.9 6943.71,3298.93 6943.76,3298.97L6943.92,3299.07L6945.9,3300.23L6944.28,3301.86C6944.24,3301.9 6944.2,3301.95 6944.16,3301.99C6944.08,3302.09 6944.01,3302.19 6943.94,3302.29C6943.61,3302.82 6943.49,3303.46 6943.6,3304.07C6943.64,3304.27 6943.71,3304.46 6943.77,3304.65C6943.85,3304.88 6943.94,3305.11 6944.03,3305.34C6944.47,3306.46 6945.02,3307.54 6945.66,3308.56ZM6947.97,3307.54C6947.8,3307.27 6947.63,3306.99 6947.46,3306.71C6947.07,3306.04 6946.73,3305.34 6946.43,3304.61C6946.3,3304.28 6946.18,3303.95 6946.06,3303.62L6948.71,3300.94C6948.62,3300.5 6948.55,3300.06 6948.5,3299.61C6948.48,3299.48 6948.47,3299.35 6948.46,3299.21C6948.45,3299.08 6948.44,3298.95 6948.43,3298.81L6945.18,3296.91C6945.2,3296.56 6945.24,3296.2 6945.28,3295.85C6945.38,3295.08 6945.53,3294.31 6945.73,3293.56C6945.93,3292.81 6946.19,3292.07 6946.49,3291.35C6946.62,3291.02 6946.77,3290.7 6946.93,3290.38L6950.69,3290.36C6950.94,3289.98 6951.2,3289.62 6951.48,3289.27C6951.57,3289.16 6951.65,3289.06 6951.74,3288.96C6951.82,3288.86 6951.91,3288.76 6952,3288.66L6951.05,3285.01C6951.32,3284.78 6951.59,3284.55 6951.87,3284.33C6952.49,3283.86 6953.13,3283.42 6953.81,3283.03C6954.48,3282.64 6955.18,3282.3 6955.9,3282C6956.23,3281.87 6956.57,3281.75 6956.9,3281.63L6959.58,3284.28C6960.02,3284.19 6960.46,3284.12 6960.9,3284.07C6961.04,3284.05 6961.17,3284.04 6961.31,3284.03C6961.44,3284.01 6961.57,3284.01 6961.71,3284C6962.34,3282.91 6962.98,3281.83 6963.61,3280.75C6963.96,3280.77 6964.32,3280.8 6964.67,3280.85C6965.44,3280.95 6966.21,3281.1 6966.96,3281.3C6967.13,3281.35 6967.29,3281.39 6967.45,3281.44C6966.89,3284.87 6965.82,3288.2 6964.27,3291.32L6956.56,3291.37C6955.76,3292.59 6954.87,3293.76 6953.89,3294.85L6955.84,3302.31C6953.46,3304.4 6950.81,3306.16 6947.97,3307.54ZM6935.66,3263.62C6942.28,3265.4 6946.22,3272.22 6944.45,3278.84C6942.67,3285.47 6935.85,3289.4 6929.23,3287.63C6922.6,3285.85 6918.67,3279.03 6920.44,3272.41C6922.22,3265.78 6929.04,3261.85 6935.66,3263.62Z" style="fill:rgb(255,0,0);"/>
            </g>
        </g>
    </g>
</svg>
