<?xml version="1.0" encoding="UTF-8" standalone="no"?>
<!DOCTYPE svg PUBLIC "-//W3C//DTD SVG 1.1//EN" "http://www.w3.org/Graphics/SVG/1.1/DTD/svg11.dtd">
<svg width="100%" height="100%" viewBox="0 0 103 59" version="1.1" xmlns="http://www.w3.org/2000/svg" xmlns:xlink="http://www.w3.org/1999/xlink" xml:space="preserve" style="fill-rule:evenodd;clip-rule:evenodd;stroke-linejoin:round;stroke-miterlimit:1.41421;">
    <g transform="matrix(1,0,0,1,-9903.58,-1949.49)">
        <g transform="matrix(0.76799,0,0,0.773106,8670.18,1479.93)">
            <g transform="matrix(0.324028,0.270661,-0.272464,0.321884,-17.4826,-2355.92)">
                <path d="M7518.39,2977.3C7518.39,2977.3 7528.21,2960.51 7551.79,2948.5C7561.94,2943.34 7564.74,2939.03 7568.65,2937.31C7568.65,2937.31 7568.65,2937.31 7568.65,2937.31C7579.2,2932.66 7590.74,2930.68 7602.24,2931.56C7611.3,2932.24 7624.38,2933.24 7633.01,2933.89C7635.32,2934.07 7637.46,2935.18 7638.94,2936.98C7640.41,2938.77 7641.09,2941.09 7640.81,2943.39C7640.81,2943.39 7640.81,2943.4 7640.81,2943.4C7640.21,2948.45 7635.94,2952.26 7630.86,2952.3C7621.86,2952.36 7609.26,2952.44 7609.26,2952.44L7595.76,2957.77L7656.21,2959.04C7671.5,2958.51 7682.46,2957.28 7695.8,2950.28C7702.14,2947.18 7709.79,2949.74 7712.98,2956.03C7713.15,2955.95 7713.15,2955.95 7713.15,2955.95C7713.15,2955.95 7691.93,2975.97 7665.31,2982.13C7652.16,2985.17 7638.93,2984.88 7624.25,2984.5C7605.8,2984.03 7577.22,2983.53 7561.16,2992.63C7549.72,2999.13 7544.84,3006.93 7541.74,3010.47L7518.39,2977.3Z" style="fill:rgb(255,0,0);"/>
            </g>
            <g transform="matrix(-0.324028,-0.270661,0.272464,-0.321884,3362.56,3646.52)">
                <path d="M7518.39,2977.3C7518.39,2977.3 7528.21,2960.51 7551.79,2948.5C7561.94,2943.34 7564.74,2939.03 7568.65,2937.31C7568.65,2937.31 7568.65,2937.31 7568.65,2937.31C7579.2,2932.66 7590.74,2930.68 7602.24,2931.56C7611.3,2932.24 7624.38,2933.24 7633.01,2933.89C7635.32,2934.07 7637.46,2935.18 7638.94,2936.98C7640.41,2938.77 7641.09,2941.09 7640.81,2943.39C7640.81,2943.39 7640.81,2943.4 7640.81,2943.4C7640.21,2948.45 7635.94,2952.26 7630.86,2952.3C7621.86,2952.36 7609.26,2952.44 7609.26,2952.44L7595.76,2957.77L7656.21,2959.04C7671.5,2958.51 7682.46,2957.28 7695.8,2950.28C7702.14,2947.18 7709.79,2949.74 7712.98,2956.03C7713.15,2955.95 7713.15,2955.95 7713.15,2955.95C7713.15,2955.95 7691.93,2975.97 7665.31,2982.13C7652.16,2985.17 7638.93,2984.88 7624.25,2984.5C7605.8,2984.03 7577.22,2983.53 7561.16,2992.63C7549.72,2999.13 7544.84,3006.93 7541.74,3010.47L7518.39,2977.3Z" style="fill:rgb(255,0,0);"/>
            </g>
            <g transform="matrix(1.00573,0,0,0.999074,-6026.82,-2447.48)">
                <path d="M7651.6,3065.97C7651.77,3066.1 7651.95,3066.22 7652.13,3066.33C7652.66,3066.68 7653.24,3066.97 7653.84,3067.19C7654.05,3067.27 7654.26,3067.33 7654.46,3067.39C7654.58,3067.43 7654.69,3067.46 7654.81,3067.49C7655.28,3067.59 7655.76,3067.7 7656.23,3067.83L7657.8,3071.9C7658.93,3072.18 7660.04,3072.55 7661.12,3073L7663.8,3071.19C7664.65,3071.73 7665.49,3072.32 7666.31,3072.92C7666.82,3073.3 7667.33,3073.68 7667.84,3074.07C7667.99,3074.19 7668.15,3074.31 7668.3,3074.43C7668.43,3074.53 7668.57,3074.63 7668.69,3074.74C7669.69,3075.6 7670.69,3076.48 7671.68,3077.36L7671.61,3077.39C7671.34,3077.5 7671.08,3077.62 7670.83,3077.75C7670.01,3078.2 7669.27,3078.8 7668.67,3079.52C7668.11,3080.2 7667.68,3080.98 7667.41,3081.81C7667.1,3082.76 7667,3083.78 7667.12,3084.77C7667.2,3085.53 7667.42,3086.26 7667.74,3086.95C7667.99,3087.48 7668.31,3087.97 7668.68,3088.43C7668.83,3088.6 7668.99,3088.77 7669.15,3088.93C7672.3,3092.02 7675.43,3095.11 7678.59,3098.18L7675.22,3099.37C7674.97,3100.49 7674.64,3101.58 7674.23,3102.64L7677.77,3107.68C7676.05,3110.86 7673.7,3113.65 7670.87,3115.89L7665.29,3113.26C7664.32,3113.86 7663.3,3114.37 7662.24,3114.8L7661.24,3120.74C7657.72,3121.7 7654.03,3121.96 7650.36,3121.5L7648.15,3115.78C7647.02,3115.5 7645.91,3115.13 7644.83,3114.69L7642.2,3116.47C7641.24,3115.63 7640.28,3114.78 7639.32,3113.93L7639.39,3113.91C7639.66,3113.8 7639.91,3113.68 7640.17,3113.54C7640.99,3113.09 7641.73,3112.49 7642.33,3111.77C7643.15,3110.78 7643.68,3109.56 7643.86,3108.29C7643.97,3107.53 7643.95,3106.76 7643.8,3106C7643.69,3105.43 7643.51,3104.87 7643.26,3104.34C7643.01,3103.81 7642.69,3103.32 7642.32,3102.87C7642.17,3102.69 7642.01,3102.52 7641.85,3102.36C7638.7,3099.27 7635.55,3096.17 7632.39,3093.09C7632.02,3092.74 7631.65,3092.4 7631.27,3092.06C7630.64,3091.51 7629.99,3090.98 7629.32,3090.47C7628.81,3090.09 7628.28,3089.72 7627.75,3089.37L7630.74,3088.31C7630.98,3087.2 7631.32,3086.1 7631.73,3085.04L7628.19,3080C7629.91,3076.82 7632.25,3074.03 7635.09,3071.79L7640.66,3074.42C7641.64,3073.83 7642.66,3073.32 7643.71,3072.88L7644.71,3066.94C7646.95,3066.33 7649.27,3066 7651.6,3065.97ZM7634.39,3114.09L7635.25,3114.85C7634.96,3114.6 7634.67,3114.35 7634.39,3114.09ZM7624.97,3091.59C7625.83,3092.11 7626.67,3092.69 7627.47,3093.3C7628.37,3093.99 7629.23,3094.73 7630.05,3095.52C7633.23,3098.6 7636.42,3101.68 7639.54,3104.81C7639.84,3105.12 7640.08,3105.47 7640.25,3105.86C7640.39,3106.17 7640.48,3106.49 7640.53,3106.82C7640.65,3107.72 7640.43,3108.66 7639.9,3109.4C7639.55,3109.89 7639.08,3110.3 7638.55,3110.58C7637.53,3111.14 7636.29,3111.25 7635.18,3110.88C7634.78,3110.74 7634.41,3110.55 7634.07,3110.31C7633.99,3110.25 7633.99,3110.25 7633.91,3110.19C7633.89,3110.16 7633.86,3110.14 7633.83,3110.12C7633.27,3109.66 7632.77,3109.24 7632.31,3108.85L7633.84,3105.45C7633.21,3104.46 7632.66,3103.43 7632.19,3102.36L7626.18,3101.17C7625.22,3098.05 7624.81,3094.8 7624.97,3091.59ZM7659.17,3086.48C7663.37,3090.01 7664.01,3096.18 7660.6,3100.25C7657.18,3104.31 7650.99,3104.74 7646.78,3101.21C7642.58,3097.67 7641.94,3091.5 7645.36,3087.44C7648.78,3083.37 7654.97,3082.94 7659.17,3086.48ZM7672.9,3080.5L7672.11,3082.24C7672.74,3083.23 7673.29,3084.26 7673.76,3085.33L7679.77,3086.52C7680.7,3089.55 7681.12,3092.7 7681,3095.83L7680.95,3095.78C7677.77,3092.69 7674.58,3089.62 7671.45,3086.48C7671.16,3086.17 7670.92,3085.82 7670.75,3085.43C7670.61,3085.13 7670.52,3084.8 7670.47,3084.48C7670.35,3083.57 7670.57,3082.63 7671.1,3081.89C7671.45,3081.4 7671.92,3081 7672.45,3080.71C7672.59,3080.63 7672.74,3080.56 7672.9,3080.5Z" style="fill:rgb(255,0,0);"/>
            </g>
        </g>
    </g>
</svg>
