<?xml version="1.0" encoding="UTF-8" standalone="no"?>
<!DOCTYPE svg PUBLIC "-//W3C//DTD SVG 1.1//EN" "http://www.w3.org/Graphics/SVG/1.1/DTD/svg11.dtd">
<svg width="100%" height="100%" viewBox="0 0 150 100" version="1.1" xmlns="http://www.w3.org/2000/svg" xmlns:xlink="http://www.w3.org/1999/xlink" xml:space="preserve" style="fill-rule:evenodd;clip-rule:evenodd;stroke-linejoin:round;stroke-miterlimit:1.41421;">
    <g transform="matrix(1,0,0,1,-9713.21,-1920.4)">
        <g transform="matrix(0.561981,0,0,0.428414,4233.65,1010.06)">
            <rect x="9750.43" y="2124.9" width="266.913" height="233.419" style="fill:none;"/>
        </g>
        <g transform="matrix(0.693455,0,0,0.693455,4596.62,-72.2498)">
            <path d="M7460.38,2971.82C7463.11,2963.86 7467.6,2957.33 7473.13,2953.25C7466.43,2948.88 7462,2941.32 7462,2932.73C7462,2919.22 7472.97,2908.24 7486.49,2908.24C7500,2908.24 7510.98,2919.22 7510.98,2932.73C7510.98,2941.32 7506.55,2948.88 7499.85,2953.25C7505.4,2957.35 7509.91,2963.93 7512.63,2971.94L7512.63,2971.94C7513.49,2974.46 7514.15,2977.06 7514.61,2979.68L7514.65,2979.91L7514.67,2980L7514.68,2980.03L7514.68,2980.08L7514.7,2980.2L7514.72,2980.32L7514.73,2980.38L7514.74,2980.42L7514.75,2980.49L7514.78,2980.66L7514.79,2980.72L7514.79,2980.75L7514.8,2980.78L7514.84,2981.07C7514.84,2981.07 7514.88,2981.33 7514.88,2981.33L7514.89,2981.39L7514.9,2981.42L7514.9,2981.48L7514.92,2981.59L7514.94,2981.72L7514.94,2981.77L7514.95,2981.8C7514.96,2981.91 7514.98,2982.01 7514.99,2982.12L7515.02,2982.36L7515.03,2982.44L7515.04,2982.48L7515.04,2982.53L7515.06,2982.62L7515.08,2982.79L7515.08,2982.83L7515.08,2982.85C7515.1,2982.96 7515.11,2983.07 7515.12,2983.17L7515.12,2983.19L7515.13,2983.23L7515.15,2983.4L7515.16,2983.5L7515.16,2983.55L7515.17,2983.58C7515.19,2983.8 7515.21,2984.02 7515.23,2984.24L7515.23,2984.26L7515.24,2984.3L7515.25,2984.43L7515.26,2984.58L7515.27,2984.62L7515.27,2984.64C7515.28,2984.75 7515.29,2984.86 7515.3,2984.98L7515.32,2985.21L7515.32,2985.31L7515.33,2985.34L7515.33,2985.38L7515.34,2985.47L7515.35,2985.69L7515.35,2985.71C7515.36,2985.82 7515.37,2985.93 7515.37,2986.05L7515.38,2986.07L7515.38,2986.11L7515.39,2986.25L7515.4,2986.39L7515.4,2986.43L7515.4,2986.45C7515.4,2986.57 7515.41,2986.68 7515.42,2986.79L7515.43,2987.03L7515.43,2987.12L7515.43,2987.16L7515.44,2987.2L7515.44,2987.29L7515.45,2987.51L7515.45,2987.53C7515.45,2987.64 7515.46,2987.76 7515.46,2987.87L7515.46,2987.89L7515.46,2987.94L7515.47,2988.07L7515.47,2988.21L7515.47,2988.26L7515.47,2988.29C7515.48,2988.4 7515.48,2988.51 7515.48,2988.62L7515.48,2988.63L7515.48,2988.68L7515.48,2988.85L7515.49,2988.95L7515.49,2989L7515.49,2989.04L7515.49,2989.11L7515.49,2989.37C7515.49,2989.5 7515.49,2989.62 7515.49,2989.74L7515.49,2989.79L7515.49,2989.82L7515.49,2989.9L7515.49,2990.08L7515.49,2990.2L7515.49,2990.28L7515.49,2990.33L7515.49,2990.41L7515.48,2990.69L7515.48,2990.73L7515.48,2990.73C7515.48,2990.87 7515.48,2991 7515.47,2991.13L7515.47,2991.18L7515.47,2991.25L7515.47,2991.4L7515.46,2991.55L7515.46,2991.63L7515.46,2991.67C7515.45,2991.8 7515.45,2991.94 7515.44,2992.07C7515.44,2992.17 7515.44,2992.26 7515.43,2992.36L7515.43,2992.39L7515.43,2992.42L7515.43,2992.53L7515.42,2992.68L7515.42,2992.71L7515.41,2992.73C7515.41,2992.83 7515.4,2992.92 7515.4,2993.02L7515.4,2993.04L7515.4,2993.08L7515.39,2993.21L7515.38,2993.33L7515.38,2993.37L7515.38,2993.39C7515.37,2993.49 7515.36,2993.59 7515.36,2993.68L7515.36,2993.69L7515.36,2993.72L7515.35,2993.89L7515.34,2993.98L7515.34,2994.02L7515.33,2994.05C7515.32,2994.24 7515.3,2994.43 7515.29,2994.63L7515.28,2994.66L7515.28,2994.7L7515.27,2994.79L7515.26,2994.95L7515.26,2994.99L7515.26,2994.99C7515.25,2995.09 7515.24,2995.19 7515.23,2995.28L7515.23,2995.31L7515.22,2995.35L7515.21,2995.46L7515.2,2995.58L7515.19,2995.63L7515.19,2995.65C7515.18,2995.74 7515.17,2995.84 7515.16,2995.93L7515.16,2995.95L7515.16,2995.99L7515.14,2996.14L7515.13,2996.22L7515.13,2996.27L7515.12,2996.3L7515.12,2996.36L7515.09,2996.59C7515.09,2996.59 7515.06,2996.8 7515.06,2996.8L7515.06,2996.85L7515.05,2996.9L7515.04,2996.98L7515.04,2997.02L7515.03,2997.06C7514.9,2998.06 7514.75,2999.05 7514.57,3000.03L7458.4,3000.03C7458.4,3000.03 7458.34,2999.72 7458.34,2999.72L7458.29,2999.41C7458.12,2998.43 7457.98,2997.43 7457.86,2996.42L7457.86,2996.38L7457.86,2996.35L7457.85,2996.27L7457.84,2996.21C7457.83,2996.12 7457.82,2996.04 7457.81,2995.95C7457.81,2995.95 7457.78,2995.63 7457.78,2995.63L7457.77,2995.56L7457.77,2995.51L7457.76,2995.45L7457.75,2995.31L7457.73,2995.15L7457.73,2995.08L7457.72,2995.04C7457.71,2994.91 7457.7,2994.78 7457.69,2994.66L7457.69,2994.65L7457.68,2994.61L7457.66,2994.34L7457.66,2994.27L7457.65,2994.22L7457.65,2994.14L7457.64,2994.02L7457.63,2993.86L7457.62,2993.78L7457.62,2993.74C7457.61,2993.61 7457.6,2993.49 7457.59,2993.36L7457.59,2993.35L7457.59,2993.28L7457.57,2993.04L7457.57,2992.97L7457.57,2992.91L7457.56,2992.83L7457.56,2992.71L7457.55,2992.57L7457.55,2992.48L7457.54,2992.43C7457.54,2992.31 7457.53,2992.18 7457.53,2992.06L7457.53,2992.05L7457.52,2991.97L7457.52,2991.73L7457.51,2991.67L7457.51,2991.61L7457.51,2991.52L7457.51,2991.4L7457.5,2991.27L7457.5,2991.18L7457.5,2991.12L7457.5,2991.07L7457.49,2990.79L7457.49,2990.74L7457.49,2990.7L7457.49,2990.41L7457.49,2990.35L7457.49,2990.31L7457.48,2990.22L7457.48,2990.08L7457.48,2989.95L7457.48,2989.87L7457.48,2989.82L7457.48,2989.74L7457.48,2989.55L7457.48,2989.44L7457.48,2989.41L7457.48,2989.37L7457.49,2989C7457.49,2988.89 7457.49,2988.78 7457.49,2988.67L7457.49,2988.63L7457.49,2988.58L7457.49,2988.48L7457.5,2988.31L7457.5,2988.26L7457.5,2988.25C7457.5,2988.14 7457.51,2988.03 7457.51,2987.92L7457.51,2987.89L7457.51,2987.85L7457.52,2987.7L7457.52,2987.58L7457.52,2987.53L7457.53,2987.5C7457.53,2987.39 7457.53,2987.28 7457.54,2987.17L7457.54,2987.16L7457.54,2987.14L7457.55,2986.92L7457.55,2986.83L7457.56,2986.8L7457.56,2986.76L7457.56,2986.66L7457.57,2986.45L7457.57,2986.43L7457.57,2986.43C7457.58,2986.31 7457.59,2986.2 7457.6,2986.09L7457.6,2986.07L7457.6,2986.03L7457.61,2985.89L7457.62,2985.74L7457.62,2985.7L7457.62,2985.68C7457.63,2985.57 7457.64,2985.46 7457.65,2985.35L7457.65,2985.34L7457.65,2985.33L7457.66,2985.11L7457.67,2985.01L7457.68,2984.98L7457.68,2984.95L7457.69,2984.85L7457.7,2984.63L7457.7,2984.62L7457.71,2984.62C7457.72,2984.5 7457.73,2984.39 7457.74,2984.28L7457.74,2984.26L7457.74,2984.22L7457.76,2984.07L7457.77,2983.94L7457.77,2983.9L7457.78,2983.88C7457.8,2983.66 7457.82,2983.44 7457.85,2983.22L7457.85,2983.19L7457.85,2983.15L7457.87,2983.04L7457.89,2982.87L7457.89,2982.83L7457.89,2982.82C7457.91,2982.71 7457.92,2982.6 7457.93,2982.49L7457.93,2982.48L7457.94,2982.44L7457.96,2982.27L7457.97,2982.17L7457.98,2982.13L7457.99,2982.09L7457.99,2982.01L7458.02,2981.81L7458.03,2981.77L7458.03,2981.77C7458.04,2981.66 7458.06,2981.56 7458.07,2981.45L7458.08,2981.42L7458.09,2981.37L7458.11,2981.24L7458.12,2981.13L7458.13,2981.07L7458.14,2981.04C7458.15,2980.93 7458.17,2980.83 7458.18,2980.72C7458.2,2980.62 7458.22,2980.51 7458.24,2980.4L7458.24,2980.38L7458.25,2980.31L7458.28,2980.16L7458.29,2980.08L7458.3,2980.03L7458.31,2979.98L7458.32,2979.88L7458.35,2979.73L7458.36,2979.68L7458.36,2979.66C7458.84,2977 7459.51,2974.37 7460.38,2971.82L7460.38,2971.82ZM7452.82,3000.03L7429.29,3000.03C7428.89,2997.83 7428.68,2995.52 7428.68,2993.14C7428.68,2982.52 7432.93,2973.29 7439.15,2968.7C7434.67,2965.78 7431.7,2960.71 7431.7,2954.96C7431.7,2945.91 7439.05,2938.56 7448.1,2938.56C7451.77,2938.56 7455.17,2939.77 7457.9,2941.81C7457.96,2942 7458.02,2942.18 7458.08,2942.37C7458.9,2944.78 7460.03,2947.08 7461.43,2949.2C7461.93,2949.97 7462.47,2950.71 7463.05,2951.43C7463.33,2951.79 7463.62,2952.14 7463.92,2952.48C7464.07,2952.65 7464.23,2952.82 7464.38,2952.99L7464.38,2952.99C7464.41,2953.25 7464.44,2953.51 7464.46,2953.77C7463.88,2954.41 7463.33,2955.08 7462.8,2955.75C7460.87,2958.2 7459.22,2960.86 7457.84,2963.65C7455.88,2967.6 7454.43,2971.8 7453.47,2976.1C7453.19,2977.35 7452.95,2978.6 7452.75,2979.87C7452.47,2981.68 7452.26,2983.5 7452.13,2985.33C7451.99,2987.4 7451.95,2989.48 7452.01,2991.55C7452.07,2993.92 7452.27,2996.28 7452.6,2998.62C7452.67,2999.09 7452.74,2999.56 7452.82,3000.03ZM7543.83,3000.03L7520.15,3000.03C7520.23,2999.56 7520.31,2999.09 7520.37,2998.62C7520.69,2996.4 7520.88,2994.16 7520.95,2991.91C7521.02,2989.85 7520.99,2987.78 7520.86,2985.72C7520.77,2984.15 7520.61,2982.58 7520.39,2981.02C7519.69,2975.95 7518.36,2970.95 7516.33,2966.24C7514.91,2962.92 7513.14,2959.74 7511,2956.83C7510.27,2955.84 7509.49,2954.88 7508.67,2953.95L7508.65,2953.92C7508.68,2953.55 7508.71,2953.18 7508.76,2952.81C7511.12,2950.2 7513.01,2947.16 7514.32,2943.9C7514.58,2943.26 7514.81,2942.62 7515.03,2941.96C7517.79,2939.83 7521.26,2938.56 7525.02,2938.56C7534.07,2938.56 7541.42,2945.91 7541.42,2954.96C7541.42,2960.71 7538.45,2965.78 7533.97,2968.7C7540.19,2973.29 7544.44,2982.52 7544.44,2993.14C7544.44,2995.52 7544.23,2997.83 7543.83,3000.03Z" style="fill:rgb(255,0,0);"/>
        </g>
    </g>
</svg>
